<svg width="31" height="30" viewBox="0 0 31 30" fill="none" xmlns="http://www.w3.org/2000/svg">
<g opacity="0.8">
<path d="M15.5024 26.3009C12.4274 26.3009 12.0649 26.2846 10.8649 26.2321C9.92916 26.2013 9.00548 26.0111 8.13369 25.6696C6.62533 25.0826 5.43262 23.8894 4.84619 22.3809C4.51782 21.5059 4.34071 20.5815 4.32244 19.6471C4.25244 18.4496 4.25244 18.0571 4.25244 15.0059C4.25244 11.9221 4.26869 11.5621 4.32244 10.3684C4.34111 9.43526 4.51822 8.51212 4.84619 7.63836C5.43198 6.12777 6.62663 4.93357 8.13744 4.34836C9.01075 4.01861 9.93412 3.84104 10.8674 3.82336C12.0612 3.75586 12.4537 3.75586 15.5024 3.75586C18.6024 3.75586 18.9587 3.77211 20.1399 3.82336C21.0757 3.84119 22.0015 4.01875 22.8774 4.34836C24.3878 4.93424 25.5822 6.1282 26.1687 7.63836C26.5026 8.52485 26.6806 9.46242 26.6949 10.4096C26.7649 11.6071 26.7649 11.9984 26.7649 15.0484C26.7649 18.0984 26.7474 18.4984 26.6949 19.6821C26.6763 20.6174 26.4988 21.5426 26.1699 22.4184C25.582 23.928 24.3875 25.1216 22.8774 25.7084C22.0027 26.0361 21.0788 26.2132 20.1449 26.2321C18.9512 26.3009 18.5599 26.3009 15.5024 26.3009ZM15.4599 5.73461C12.4024 5.73461 12.0849 5.74961 10.8912 5.80336C10.1787 5.8128 9.47304 5.94429 8.80494 6.19211C7.81838 6.56962 7.03772 7.3471 6.65619 8.33211C6.40646 9.00748 6.27495 9.72083 6.26744 10.4409C6.20119 11.6521 6.20119 11.9696 6.20119 15.0059C6.20119 18.0059 6.21244 18.3696 6.26744 19.5734C6.27863 20.2861 6.41006 20.9919 6.65619 21.6609C7.03829 22.6452 7.81881 23.4221 8.80494 23.7996C9.47258 24.0491 10.1785 24.1806 10.8912 24.1884C12.1012 24.2584 12.4199 24.2584 15.4599 24.2584C18.5262 24.2584 18.8437 24.2434 20.0274 24.1884C20.7404 24.1797 21.4466 24.0482 22.1149 23.7996C23.0955 23.4188 23.8711 22.6437 24.2524 21.6634C24.5017 20.9874 24.6332 20.2737 24.6412 19.5534H24.6549C24.7087 18.3584 24.7087 18.0396 24.7087 14.9859C24.7087 11.9321 24.6949 11.6109 24.6412 10.4171C24.63 9.70517 24.4986 9.00025 24.2524 8.33211C23.872 7.35033 23.0963 6.57372 22.1149 6.19211C21.4468 5.94304 20.7405 5.81151 20.0274 5.80336C18.8187 5.73461 18.5024 5.73461 15.4599 5.73461ZM15.5024 20.7796C13.1649 20.7811 11.0567 19.3743 10.161 17.2152C9.26532 15.0561 9.75857 12.57 11.4107 10.9164C13.0629 9.26285 15.5485 8.76745 17.7084 9.66127C19.8683 10.5551 21.2769 12.6621 21.2774 14.9996C21.274 18.1884 18.6913 20.7734 15.5024 20.7796ZM15.5024 11.2471C13.4314 11.2471 11.7524 12.926 11.7524 14.9971C11.7524 17.0682 13.4314 18.7471 15.5024 18.7471C17.5735 18.7471 19.2524 17.0682 19.2524 14.9971C19.2476 12.928 17.5715 11.2519 15.5024 11.2471ZM21.5024 10.3559C20.7592 10.3531 20.1586 9.74909 20.1599 9.00587C20.1613 8.26265 20.7642 7.66087 21.5074 7.66087C22.2507 7.66087 22.8536 8.26263 22.8549 9.00586C22.8553 9.36444 22.7128 9.70839 22.459 9.96171C22.2052 10.215 21.861 10.3569 21.5024 10.3559Z" fill="white"/>
</g>
</svg>
