<svg width="31" height="30" viewBox="0 0 31 30" fill="none" xmlns="http://www.w3.org/2000/svg">
<g opacity="0.8">
<path d="M16.75 26.25H11.75V11.25H16.75V13.75C17.8158 12.3941 19.432 11.5857 21.1562 11.5462C24.257 11.5635 26.759 14.0867 26.75 17.1875V26.25H21.75V17.8125C21.55 16.4158 20.3522 15.3795 18.9412 15.3825C18.3241 15.402 17.7416 15.6722 17.328 16.1308C16.9145 16.5893 16.7058 17.1966 16.75 17.8125V26.25ZM9.25 26.25H4.25V11.25H9.25V26.25ZM6.75 8.75C5.36929 8.75 4.25 7.63071 4.25 6.25C4.25 4.86929 5.36929 3.75 6.75 3.75C8.13071 3.75 9.25 4.86929 9.25 6.25C9.25 6.91304 8.98661 7.54893 8.51777 8.01777C8.04893 8.48661 7.41304 8.75 6.75 8.75Z" fill="white"/>
</g>
</svg>
