<svg width="481" height="424" viewBox="0 0 481 424" fill="none" xmlns="http://www.w3.org/2000/svg">
<g filter="url(#filter0_d_802_2837)">
<rect x="24" y="35.8809" width="429.005" height="364.005" rx="19.9848" fill="white"/>
<rect x="24.2638" y="36.1446" width="428.478" height="363.477" rx="19.721" stroke="#E1E1E1" stroke-width="0.527543"/>
</g>
<mask id="mask0_802_2837" style="mask-type:alpha" maskUnits="userSpaceOnUse" x="24" y="35" width="430" height="365">
<rect x="24.2638" y="36.1446" width="428.478" height="363.477" rx="19.721" fill="white" stroke="#E1E1E1" stroke-width="0.527543"/>
</mask>
<g mask="url(#mask0_802_2837)">
<g opacity="0.3" filter="url(#filter1_f_802_2837)">
<circle cx="602.5" cy="512.381" r="178.5" fill="url(#paint0_linear_802_2837)"/>
</g>
<g opacity="0.3" filter="url(#filter2_f_802_2837)">
<circle cx="-94.5" cy="-145.619" r="178.5" fill="url(#paint1_linear_802_2837)"/>
</g>
</g>
<path d="M304.454 246.794C242.714 270.79 174.901 274.326 111 256.881C114.605 243.625 118.205 230.359 121.8 217.083C176.73 230.325 234.453 225.702 286.575 203.885L304.454 246.794Z" fill="url(#paint2_linear_802_2837)"/>
<path d="M191.745 265.298C167.451 265.267 143.243 262.418 119.605 256.81L118.064 256.446L126.655 220.689L128.109 220.994C179.163 231.925 232.29 227.831 281.066 209.206L282.52 208.653L297.186 246.693L295.646 247.231C262.294 259.128 227.155 265.239 191.745 265.298ZM121.887 254.092C178.65 267.385 238.031 264.152 293.015 244.774L280.659 212.723C232.23 230.878 179.641 234.91 129.01 224.352L121.887 254.092Z" fill="url(#paint3_linear_802_2837)"/>
<path d="M238.231 242.231C239.684 250.458 215.613 255.88 207.706 256.345C199.188 256.853 175.161 253.365 175.437 246.315C175.684 239.963 197.734 236.445 206.238 235.777C214.32 235.152 236.922 235.021 238.231 242.231Z" fill="url(#paint4_linear_802_2837)"/>
<g style="mix-blend-mode:multiply">
<path d="M178.736 240.732C180.742 241.759 182.805 242.671 184.914 243.465C187.036 244.337 189.173 245.171 191.324 245.965C195.685 247.593 200.133 249.076 204.595 250.457C213.445 253.332 222.44 255.739 231.544 257.666C240.204 259.384 248.987 260.414 257.81 260.748C273.692 257.279 289.29 252.615 304.469 246.794L286.576 203.885C251.579 218.511 213.857 225.475 175.945 224.307C174.201 228.048 172.442 231.779 170.669 235.5C173.26 237.39 175.954 239.137 178.736 240.732Z" fill="url(#paint5_linear_802_2837)"/>
</g>
<path d="M368 256.111C302.983 268.794 235.611 260.275 175.796 231.807C181.698 219.375 187.59 206.951 193.472 194.538C245.194 217.289 302.824 222.951 357.985 210.702C361.328 225.838 364.667 240.974 368 256.111Z" fill="url(#paint6_linear_802_2837)"/>
<path d="M307.797 259.121C265.265 259.089 223.2 250.26 184.245 233.189L182.791 232.564L197.617 198.943L199.071 199.51C247.347 219.281 300.317 224.648 351.578 214.962L353.119 214.671L360.823 254.76L359.209 255.022C342.21 257.768 325.017 259.139 307.797 259.121ZM187.021 230.965C240.529 254.101 299.543 261.435 357.087 252.1L350.604 218.421C299.726 227.722 247.252 222.383 199.289 203.028L187.021 230.965Z" fill="url(#paint7_linear_802_2837)"/>
<path d="M303.629 239.889C303.629 248.262 278.918 249.323 271.04 248.378C262.566 247.361 239.527 239.657 241.053 232.796C242.42 226.589 264.746 226.982 273.235 227.883C281.346 228.697 303.6 232.564 303.629 239.889Z" fill="url(#paint8_linear_802_2837)"/>
<g style="mix-blend-mode:multiply">
<path d="M217.62 228.362C233.958 229.903 250.267 231.618 266.663 232.49C273.665 232.934 280.686 233.006 287.696 232.708C294.193 232.353 300.667 231.639 307.086 230.572C320.309 228.429 333.263 224.867 345.722 219.946C350.14 218.202 354.501 216.264 358.804 214.132C358.557 212.984 358.295 211.85 358.048 210.716C302.867 222.974 245.214 217.306 193.476 194.538L179.827 223.319C192.139 226.56 204.974 227.141 217.62 228.362Z" fill="url(#paint9_linear_802_2837)"/>
</g>
<path d="M346.04 212.999C282.866 232.927 214.965 232.056 152.324 210.514C156.753 197.509 161.205 184.5 165.682 171.486C219.638 188.266 277.54 187.395 330.966 169L346.04 212.999Z" fill="url(#paint10_linear_802_2837)"/>
<path d="M252.098 224.788C221.193 224.739 190.467 220.09 160.931 210.994L159.405 210.529L170.306 175.396L171.76 175.803C221.971 190.019 275.227 189.377 325.081 173.957L326.535 173.507L338.701 212.419L337.131 212.855C309.469 220.715 280.856 224.73 252.098 224.788ZM163.329 208.421C219.109 225.375 278.577 226.005 334.704 210.238L324.5 177.446C275 192.442 222.26 193.077 172.414 179.277L163.329 208.421Z" fill="url(#paint11_linear_802_2837)"/>
<path d="M280.251 204.147C281.21 212.461 256.791 216.299 248.825 216.241C240.365 216.197 216.527 211.153 217.268 204.147C217.922 197.824 240.162 195.746 248.694 195.629C256.849 195.527 279.393 196.865 280.251 204.147Z" fill="url(#paint12_linear_802_2837)"/>
<circle cx="431" cy="50" r="50" fill="url(#paint13_linear_802_2837)"/>
<path d="M424.257 46.0888C422.055 48.5305 419.063 49.7514 415.28 49.7514C411.498 49.7514 408.506 48.5305 406.304 46.0888C404.101 43.6231 403 40.3914 403 36.3936C403 32.372 404.101 29.1283 406.304 26.6626C408.482 24.2209 411.474 23 415.28 23C419.063 23 422.055 24.2209 424.257 26.6626C426.46 29.1283 427.561 32.372 427.561 36.3936C427.561 40.3914 426.46 43.6231 424.257 46.0888ZM408.673 75.3537V74.6355L443.504 23.8618H452.84V24.6159L418.153 75.3537H408.673ZM410.648 36.3936C410.648 40.5111 412.192 42.5698 415.28 42.5698C418.369 42.5698 419.913 40.5111 419.913 36.3936C419.913 32.2762 418.369 30.2175 415.28 30.2175C412.192 30.2175 410.648 32.2762 410.648 36.3936ZM446.915 76C443.109 76 440.117 74.7791 437.938 72.3374C435.736 69.8717 434.635 66.64 434.635 62.6423C434.635 58.6206 435.736 55.3769 437.938 52.9112C440.117 50.4695 443.109 49.2486 446.915 49.2486C450.674 49.2486 453.654 50.4695 455.856 52.9112C458.083 55.4009 459.196 58.6445 459.196 62.6423C459.196 66.6161 458.083 69.8478 455.856 72.3374C453.654 74.7791 450.674 76 446.915 76ZM442.283 62.6423C442.283 66.7597 443.827 68.8184 446.915 68.8184C450.003 68.8184 451.547 66.7597 451.547 62.6423C451.547 58.5248 450.003 56.4661 446.915 56.4661C443.827 56.4661 442.283 58.5248 442.283 62.6423Z" fill="white"/>
<defs>
<filter id="filter0_d_802_2837" x="0.260565" y="12.1414" width="476.484" height="411.484" filterUnits="userSpaceOnUse" color-interpolation-filters="sRGB">
<feFlood flood-opacity="0" result="BackgroundImageFix"/>
<feColorMatrix in="SourceAlpha" type="matrix" values="0 0 0 0 0 0 0 0 0 0 0 0 0 0 0 0 0 0 127 0" result="hardAlpha"/>
<feOffset/>
<feGaussianBlur stdDeviation="11.8697"/>
<feComposite in2="hardAlpha" operator="out"/>
<feColorMatrix type="matrix" values="0 0 0 0 0 0 0 0 0 0 0 0 0 0 0 0 0 0 0.08 0"/>
<feBlend mode="normal" in2="BackgroundImageFix" result="effect1_dropShadow_802_2837"/>
<feBlend mode="normal" in="SourceGraphic" in2="effect1_dropShadow_802_2837" result="shape"/>
</filter>
<filter id="filter1_f_802_2837" x="184.403" y="94.2836" width="836.195" height="836.195" filterUnits="userSpaceOnUse" color-interpolation-filters="sRGB">
<feFlood flood-opacity="0" result="BackgroundImageFix"/>
<feBlend mode="normal" in="SourceGraphic" in2="BackgroundImageFix" result="shape"/>
<feGaussianBlur stdDeviation="119.799" result="effect1_foregroundBlur_802_2837"/>
</filter>
<filter id="filter2_f_802_2837" x="-512.597" y="-563.716" width="836.195" height="836.195" filterUnits="userSpaceOnUse" color-interpolation-filters="sRGB">
<feFlood flood-opacity="0" result="BackgroundImageFix"/>
<feBlend mode="normal" in="SourceGraphic" in2="BackgroundImageFix" result="shape"/>
<feGaussianBlur stdDeviation="119.799" result="effect1_foregroundBlur_802_2837"/>
</filter>
<linearGradient id="paint0_linear_802_2837" x1="424" y1="679.624" x2="813.861" y2="669.379" gradientUnits="userSpaceOnUse">
<stop stop-color="#00B0FF"/>
<stop offset="0.49591" stop-color="#3D5AFE"/>
<stop offset="1" stop-color="#5444F2"/>
</linearGradient>
<linearGradient id="paint1_linear_802_2837" x1="-273" y1="21.6241" x2="116.861" y2="11.3792" gradientUnits="userSpaceOnUse">
<stop stop-color="#00B0FF"/>
<stop offset="0.49591" stop-color="#3D5AFE"/>
<stop offset="1" stop-color="#5444F2"/>
</linearGradient>
<linearGradient id="paint2_linear_802_2837" x1="141.696" y1="182.822" x2="157.449" y2="280.047" gradientUnits="userSpaceOnUse">
<stop stop-color="#08A6FF"/>
<stop offset="0.05" stop-color="#01B1FF"/>
<stop offset="0.22" stop-color="#01B1FF"/>
<stop offset="0.36" stop-color="#671DE7"/>
<stop offset="0.47" stop-color="#671DE7"/>
<stop offset="0.54" stop-color="#671DE7"/>
<stop offset="0.65" stop-color="#5444F2"/>
<stop offset="0.79" stop-color="#5444F2"/>
<stop offset="0.91" stop-color="#5444F2"/>
<stop offset="1" stop-color="#012150"/>
</linearGradient>
<linearGradient id="paint3_linear_802_2837" x1="117.799" y1="236.93" x2="297.247" y2="236.93" gradientUnits="userSpaceOnUse">
<stop stop-color="white"/>
<stop offset="0.05" stop-color="white"/>
<stop offset="0.22" stop-color="white"/>
<stop offset="0.36" stop-color="white" stop-opacity="0.08"/>
<stop offset="0.47" stop-color="white" stop-opacity="0.42"/>
<stop offset="0.54" stop-color="white" stop-opacity="0.28"/>
<stop offset="0.65" stop-color="white" stop-opacity="0.23"/>
<stop offset="0.79" stop-color="white"/>
<stop offset="0.91" stop-color="white"/>
<stop offset="1" stop-color="white" stop-opacity="0.21"/>
</linearGradient>
<linearGradient id="paint4_linear_802_2837" x1="175.341" y1="245.933" x2="238.315" y2="245.933" gradientUnits="userSpaceOnUse">
<stop stop-color="white"/>
<stop offset="0.05" stop-color="white"/>
<stop offset="0.22" stop-color="white"/>
<stop offset="0.36" stop-color="white" stop-opacity="0.08"/>
<stop offset="0.47" stop-color="white" stop-opacity="0.42"/>
<stop offset="0.54" stop-color="white" stop-opacity="0.28"/>
<stop offset="0.65" stop-color="white" stop-opacity="0.23"/>
<stop offset="0.79" stop-color="white"/>
<stop offset="0.91" stop-color="white"/>
<stop offset="1" stop-color="white" stop-opacity="0.21"/>
</linearGradient>
<linearGradient id="paint5_linear_802_2837" x1="191.899" y1="185.146" x2="209.631" y2="270.222" gradientUnits="userSpaceOnUse">
<stop stop-color="#08A6FF"/>
<stop offset="0.05" stop-color="#01B1FF"/>
<stop offset="0.22" stop-color="#01B1FF"/>
<stop offset="0.36" stop-color="#671DE7"/>
<stop offset="0.47" stop-color="#671DE7"/>
<stop offset="0.54" stop-color="#671DE7"/>
<stop offset="0.65" stop-color="#5444F2"/>
<stop offset="0.79" stop-color="#5444F2"/>
<stop offset="0.91" stop-color="#5444F2"/>
<stop offset="1" stop-color="#012150"/>
</linearGradient>
<linearGradient id="paint6_linear_802_2837" x1="206.294" y1="172.36" x2="223.817" y2="274.412" gradientUnits="userSpaceOnUse">
<stop stop-color="#08A6FF"/>
<stop offset="0.05" stop-color="#01B1FF"/>
<stop offset="0.22" stop-color="#01B1FF"/>
<stop offset="0.36" stop-color="#671DE7"/>
<stop offset="0.47" stop-color="#671DE7"/>
<stop offset="0.54" stop-color="#671DE7"/>
<stop offset="0.65" stop-color="#5444F2"/>
<stop offset="0.79" stop-color="#5444F2"/>
<stop offset="0.91" stop-color="#5444F2"/>
<stop offset="1" stop-color="#012150"/>
</linearGradient>
<linearGradient id="paint7_linear_802_2837" x1="182.527" y1="228.984" x2="360.883" y2="228.984" gradientUnits="userSpaceOnUse">
<stop stop-color="white"/>
<stop offset="0.05" stop-color="white"/>
<stop offset="0.22" stop-color="white"/>
<stop offset="0.36" stop-color="white" stop-opacity="0.08"/>
<stop offset="0.47" stop-color="white" stop-opacity="0.42"/>
<stop offset="0.54" stop-color="white" stop-opacity="0.28"/>
<stop offset="0.65" stop-color="white" stop-opacity="0.23"/>
<stop offset="0.79" stop-color="white"/>
<stop offset="0.91" stop-color="white"/>
<stop offset="1" stop-color="white" stop-opacity="0.21"/>
</linearGradient>
<linearGradient id="paint8_linear_802_2837" x1="240.888" y1="238.001" x2="303.65" y2="238.001" gradientUnits="userSpaceOnUse">
<stop stop-color="white"/>
<stop offset="0.05" stop-color="white"/>
<stop offset="0.22" stop-color="white"/>
<stop offset="0.36" stop-color="white" stop-opacity="0.08"/>
<stop offset="0.47" stop-color="white" stop-opacity="0.42"/>
<stop offset="0.54" stop-color="white" stop-opacity="0.28"/>
<stop offset="0.65" stop-color="white" stop-opacity="0.23"/>
<stop offset="0.79" stop-color="white"/>
<stop offset="0.91" stop-color="white"/>
<stop offset="1" stop-color="white" stop-opacity="0.21"/>
</linearGradient>
<linearGradient id="paint9_linear_802_2837" x1="208.226" y1="181.9" x2="214.448" y2="241.116" gradientUnits="userSpaceOnUse">
<stop stop-color="#08A6FF"/>
<stop offset="0.05" stop-color="#01B1FF"/>
<stop offset="0.22" stop-color="#01B1FF"/>
<stop offset="0.36" stop-color="#671DE7"/>
<stop offset="0.47" stop-color="#671DE7"/>
<stop offset="0.54" stop-color="#671DE7"/>
<stop offset="0.65" stop-color="#5444F2"/>
<stop offset="0.79" stop-color="#5444F2"/>
<stop offset="0.91" stop-color="#5444F2"/>
<stop offset="1" stop-color="#012150"/>
</linearGradient>
<linearGradient id="paint10_linear_802_2837" x1="183.062" y1="149.776" x2="196.223" y2="238.899" gradientUnits="userSpaceOnUse">
<stop stop-color="#08A6FF"/>
<stop offset="0.05" stop-color="#01B1FF"/>
<stop offset="0.22" stop-color="#01B1FF"/>
<stop offset="0.36" stop-color="#671DE7"/>
<stop offset="0.47" stop-color="#671DE7"/>
<stop offset="0.54" stop-color="#671DE7"/>
<stop offset="0.65" stop-color="#5444F2"/>
<stop offset="0.79" stop-color="#5444F2"/>
<stop offset="0.91" stop-color="#5444F2"/>
<stop offset="1" stop-color="#012150"/>
</linearGradient>
<linearGradient id="paint11_linear_802_2837" x1="159.139" y1="199.106" x2="338.762" y2="199.106" gradientUnits="userSpaceOnUse">
<stop stop-color="white"/>
<stop offset="0.05" stop-color="white"/>
<stop offset="0.22" stop-color="white"/>
<stop offset="0.36" stop-color="white" stop-opacity="0.08"/>
<stop offset="0.47" stop-color="white" stop-opacity="0.42"/>
<stop offset="0.54" stop-color="white" stop-opacity="0.28"/>
<stop offset="0.65" stop-color="white" stop-opacity="0.23"/>
<stop offset="0.79" stop-color="white"/>
<stop offset="0.91" stop-color="white"/>
<stop offset="1" stop-color="white" stop-opacity="0.21"/>
</linearGradient>
<linearGradient id="paint12_linear_802_2837" x1="217.158" y1="205.916" x2="280.3" y2="205.916" gradientUnits="userSpaceOnUse">
<stop stop-color="white"/>
<stop offset="0.05" stop-color="white"/>
<stop offset="0.22" stop-color="white"/>
<stop offset="0.36" stop-color="white" stop-opacity="0.08"/>
<stop offset="0.47" stop-color="white" stop-opacity="0.42"/>
<stop offset="0.54" stop-color="white" stop-opacity="0.28"/>
<stop offset="0.65" stop-color="white" stop-opacity="0.23"/>
<stop offset="0.79" stop-color="white"/>
<stop offset="0.91" stop-color="white"/>
<stop offset="1" stop-color="white" stop-opacity="0.21"/>
</linearGradient>
<linearGradient id="paint13_linear_802_2837" x1="381" y1="96.8468" x2="490.205" y2="93.9771" gradientUnits="userSpaceOnUse">
<stop stop-color="#00B0FF"/>
<stop offset="0.49591" stop-color="#3D5AFE"/>
<stop offset="1" stop-color="#5444F2"/>
</linearGradient>
</defs>
</svg>
