<svg width="477" height="425" viewBox="0 0 477 425" fill="none" xmlns="http://www.w3.org/2000/svg">
<g filter="url(#filter0_d_726_2596)">
<rect x="24" y="36.9551" width="429.005" height="364.005" rx="19.9848" fill="white"/>
<rect x="24.2638" y="37.2188" width="428.478" height="363.477" rx="19.721" stroke="#E1E1E1" stroke-width="0.527543"/>
</g>
<mask id="mask0_726_2596" style="mask-type:alpha" maskUnits="userSpaceOnUse" x="24" y="36" width="430" height="365">
<rect x="24.2638" y="37.2188" width="428.478" height="363.477" rx="19.721" fill="white" stroke="#E1E1E1" stroke-width="0.527543"/>
</mask>
<g mask="url(#mask0_726_2596)">
<g opacity="0.3" filter="url(#filter1_f_726_2596)">
<circle cx="602.5" cy="513.455" r="178.5" fill="url(#paint0_linear_726_2596)"/>
</g>
<g opacity="0.3" filter="url(#filter2_f_726_2596)">
<circle cx="-94.5" cy="-144.545" r="178.5" fill="url(#paint1_linear_726_2596)"/>
</g>
</g>
<path d="M213.423 202.022L217.822 213.804V213.971H216.239L215.114 210.846H209.89L208.765 213.971H207.207V213.804L211.598 202.022H213.423ZM210.365 209.513H214.631L212.531 203.68H212.464L210.365 209.513ZM229.34 205.097C230.29 205.097 231.029 205.38 231.556 205.946C232.084 206.535 232.348 207.321 232.348 208.305V213.971H230.915V208.53C230.915 207.096 230.27 206.38 228.982 206.38C228.304 206.38 227.771 206.624 227.382 207.113C226.993 207.602 226.798 208.282 226.798 209.154V213.971H225.365V208.53C225.365 207.096 224.724 206.38 223.44 206.38C222.746 206.38 222.204 206.624 221.816 207.113C221.416 207.613 221.216 208.293 221.216 209.154V213.971H219.782V205.247H221.032L221.149 206.613H221.216C221.743 205.602 222.615 205.097 223.832 205.097C225.087 205.097 225.962 205.602 226.457 206.613H226.523C227.051 205.602 227.99 205.097 229.34 205.097ZM238.591 214.121C237.297 214.121 236.313 213.701 235.641 212.862C234.98 212.035 234.65 210.954 234.65 209.621C234.65 208.288 234.986 207.202 235.658 206.363C236.336 205.519 237.313 205.097 238.591 205.097C239.874 205.097 240.855 205.519 241.532 206.363C242.205 207.202 242.541 208.288 242.541 209.621C242.541 210.954 242.21 212.035 241.549 212.862C240.877 213.701 239.891 214.121 238.591 214.121ZM238.591 212.846C239.452 212.846 240.085 212.554 240.491 211.971C240.885 211.382 241.082 210.599 241.082 209.621C241.082 208.643 240.885 207.852 240.491 207.246C240.085 206.669 239.452 206.38 238.591 206.38C237.747 206.38 237.122 206.669 236.716 207.246C236.305 207.852 236.1 208.643 236.1 209.621C236.1 210.599 236.305 211.382 236.716 211.971C237.127 212.554 237.752 212.846 238.591 212.846ZM250.534 205.247H251.967V210.796C251.967 211.796 251.636 212.593 250.975 213.187C250.314 213.798 249.456 214.104 248.4 214.104C247.345 214.104 246.487 213.798 245.826 213.187C245.165 212.593 244.834 211.796 244.834 210.796V205.247H246.267V210.554C246.267 212.071 246.978 212.829 248.4 212.829C249.822 212.829 250.534 212.071 250.534 210.554V205.247ZM254.952 213.971V205.247H256.202L256.318 206.613H256.385C256.913 205.602 257.813 205.097 259.085 205.097C260.035 205.097 260.785 205.38 261.335 205.946C261.873 206.53 262.143 207.316 262.143 208.305V213.971H260.701V208.53C260.701 207.096 260.032 206.38 258.693 206.38C257.954 206.38 257.39 206.624 257.002 207.113C256.591 207.607 256.385 208.288 256.385 209.154V213.971H254.952ZM268.019 214.121C267.197 214.121 266.605 213.923 266.244 213.529C265.894 213.146 265.719 212.565 265.719 211.788V206.463H264.27V205.247H265.753V203.388L266.986 202.913H267.153V205.247H269.286V206.463H267.153V211.671C267.153 212.088 267.244 212.388 267.428 212.571C267.622 212.765 267.911 212.862 268.294 212.862C268.611 212.862 268.897 212.829 269.152 212.762H269.319V213.987C268.936 214.076 268.503 214.121 268.019 214.121Z" fill="#65717C"/>
<path d="M180.938 152.184L186.672 160.762V161.074H182.422L177.016 152.621H172.531V161.074H168.781V138.668H178.25C180.49 138.668 182.271 139.329 183.594 140.652C184.917 141.975 185.578 143.621 185.578 145.59C185.578 147.194 185.167 148.569 184.344 149.715C183.542 150.871 182.406 151.694 180.938 152.184ZM172.531 142.059V149.23H178.031C179.271 149.23 180.188 148.902 180.781 148.246C181.406 147.59 181.719 146.715 181.719 145.621C181.719 144.548 181.406 143.684 180.781 143.027C180.135 142.382 179.219 142.059 178.031 142.059H172.531ZM196.66 161.355C194.212 161.355 192.301 160.559 190.926 158.965C189.54 157.361 188.847 155.314 188.847 152.824C188.847 150.314 189.519 148.262 190.863 146.668C192.176 145.074 194.082 144.277 196.582 144.277C198.957 144.277 200.795 145.022 202.097 146.512C203.4 148.001 204.051 149.934 204.051 152.309V153.84H192.629C192.629 155.204 192.978 156.283 193.676 157.074C194.363 157.887 195.358 158.293 196.66 158.293C198.639 158.293 199.842 157.543 200.269 156.043H203.816C203.597 157.605 202.832 158.876 201.519 159.855C200.186 160.855 198.566 161.355 196.66 161.355ZM192.66 151.246H200.301C200.269 150.1 199.952 149.163 199.347 148.434C198.702 147.725 197.78 147.371 196.582 147.371C195.342 147.371 194.384 147.725 193.707 148.434C193.04 149.163 192.691 150.1 192.66 151.246ZM214.601 161.355C212.101 161.355 210.169 160.579 208.804 159.027C207.419 157.486 206.726 155.418 206.726 152.824C206.726 150.21 207.409 148.126 208.773 146.574C210.117 145.043 212.028 144.277 214.507 144.277C216.726 144.277 218.44 144.85 219.648 145.996C220.867 147.184 221.539 148.71 221.664 150.574H218.023C217.929 149.637 217.575 148.892 216.961 148.34C216.346 147.788 215.528 147.512 214.507 147.512C213.164 147.512 212.148 147.98 211.461 148.918C210.773 149.866 210.429 151.168 210.429 152.824C210.429 154.501 210.773 155.814 211.461 156.762C212.148 157.699 213.164 158.168 214.507 158.168C215.518 158.168 216.336 157.887 216.961 157.324C217.596 156.751 217.961 156.007 218.054 155.09H221.695C221.539 156.996 220.867 158.512 219.679 159.637C218.471 160.783 216.778 161.355 214.601 161.355ZM232.167 161.355C229.72 161.355 227.808 160.559 226.433 158.965C225.048 157.361 224.355 155.314 224.355 152.824C224.355 150.314 225.027 148.262 226.371 146.668C227.683 145.074 229.589 144.277 232.089 144.277C234.464 144.277 236.303 145.022 237.605 146.512C238.907 148.001 239.558 149.934 239.558 152.309V153.84H228.136C228.136 155.204 228.485 156.283 229.183 157.074C229.871 157.887 230.865 158.293 232.167 158.293C234.147 158.293 235.35 157.543 235.777 156.043H239.324C239.105 157.605 238.339 158.876 237.027 159.855C235.694 160.855 234.074 161.355 232.167 161.355ZM228.167 151.246H235.808C235.777 150.1 235.459 149.163 234.855 148.434C234.209 147.725 233.287 147.371 232.089 147.371C230.85 147.371 229.891 147.725 229.214 148.434C228.548 149.163 228.199 150.1 228.167 151.246ZM245.14 142.027C244.39 142.027 243.817 141.829 243.421 141.434C243.015 141.027 242.812 140.46 242.812 139.73C242.812 139.022 243.015 138.465 243.421 138.059C243.786 137.663 244.359 137.465 245.14 137.465C245.9 137.465 246.479 137.663 246.874 138.059C247.281 138.465 247.484 139.022 247.484 139.73C247.484 140.428 247.281 140.98 246.874 141.387C246.447 141.814 245.869 142.027 245.14 142.027ZM243.327 161.074V144.559H246.968V161.074H243.327ZM255.613 161.074L249.659 144.887V144.559H253.394L257.722 157.293H257.847L262.034 144.559H265.753V144.887L259.894 161.074H255.613ZM274.929 161.355C272.481 161.355 270.569 160.559 269.194 158.965C267.809 157.361 267.116 155.314 267.116 152.824C267.116 150.314 267.788 148.262 269.132 146.668C270.444 145.074 272.351 144.277 274.851 144.277C277.226 144.277 279.064 145.022 280.366 146.512C281.668 148.001 282.319 149.934 282.319 152.309V153.84H270.897C270.897 155.204 271.246 156.283 271.944 157.074C272.632 157.887 273.627 158.293 274.929 158.293C276.908 158.293 278.111 157.543 278.538 156.043H282.085C281.866 157.605 281.101 158.876 279.788 159.855C278.455 160.855 276.835 161.355 274.929 161.355ZM270.929 151.246H278.569C278.538 150.1 278.22 149.163 277.616 148.434C276.97 147.725 276.049 147.371 274.851 147.371C273.611 147.371 272.653 147.725 271.976 148.434C271.309 149.163 270.96 150.1 270.929 151.246ZM291.87 161.355C289.755 161.355 288.094 160.579 286.886 159.027C285.656 157.496 285.026 155.418 284.995 152.793C285.026 150.22 285.646 148.158 286.854 146.605C288.031 145.053 289.703 144.277 291.87 144.277C294.037 144.277 295.615 145.033 296.604 146.543H296.729V137.387H300.386V161.074H297.151L296.729 159.09H296.604C295.615 160.6 294.037 161.355 291.87 161.355ZM292.776 158.137C294.13 158.137 295.151 157.632 295.839 156.621C296.526 155.611 296.87 154.335 296.87 152.793C296.87 151.23 296.537 149.96 295.87 148.98C295.203 148.001 294.172 147.512 292.776 147.512C291.36 147.512 290.334 148.001 289.698 148.98C289.031 149.96 288.698 151.23 288.698 152.793C288.698 154.366 289.031 155.642 289.698 156.621C290.354 157.632 291.38 158.137 292.776 158.137ZM305.53 153.965L304.858 141.746V138.668H308.827V141.746L307.999 153.965H305.53ZM306.811 161.355C306.082 161.355 305.52 161.142 305.124 160.715C304.717 160.309 304.514 159.746 304.514 159.027C304.514 158.277 304.717 157.699 305.124 157.293C305.499 156.887 306.061 156.684 306.811 156.684C307.52 156.684 308.087 156.897 308.514 157.324C308.921 157.73 309.124 158.298 309.124 159.027C309.124 159.746 308.921 160.309 308.514 160.715C308.087 161.142 307.52 161.355 306.811 161.355Z" fill="black"/>
<rect x="114" y="232.971" width="249" height="75" rx="12" fill="#4CD964" fill-opacity="0.1"/>
<path d="M144.585 283.971V256.659H163.498V261.458H149.918V267.515H162.298V272.277H149.918V279.209H163.498V283.971H144.585ZM174.359 283.971V261.497H166.321V256.659H187.767V261.497H179.749V283.971H174.359ZM209.027 256.659H214.36V283.971H209.027V272.277H197.199V283.971H191.866V256.659H197.199V267.477H209.027V256.659ZM249.07 280.504C247.394 283.044 244.791 284.314 241.261 284.314C237.732 284.314 235.129 283.044 233.453 280.504C231.764 277.952 230.92 274.53 230.92 270.239C230.92 265.947 231.764 262.525 233.453 259.973C235.116 257.459 237.719 256.202 241.261 256.202C244.804 256.202 247.407 257.459 249.07 259.973C250.759 262.525 251.603 265.947 251.603 270.239C251.603 274.53 250.759 277.952 249.07 280.504ZM237.395 277.305C238.132 278.892 239.42 279.685 241.261 279.685C243.103 279.685 244.391 278.892 245.128 277.305C245.877 275.73 246.251 273.375 246.251 270.239C246.251 267.141 245.877 264.785 245.128 263.173C244.391 261.624 243.103 260.849 241.261 260.849C239.42 260.849 238.132 261.624 237.395 263.173C236.646 264.785 236.271 267.141 236.271 270.239C236.271 273.375 236.646 275.73 237.395 277.305ZM260.845 283.456C260.312 284.028 259.531 284.314 258.503 284.314C257.474 284.314 256.693 284.028 256.16 283.456C255.614 282.91 255.341 282.13 255.341 281.114C255.341 280.174 255.614 279.412 256.16 278.828C256.706 278.282 257.487 278.009 258.503 278.009C259.518 278.009 260.299 278.282 260.845 278.828C261.391 279.412 261.664 280.174 261.664 281.114C261.664 282.13 261.391 282.91 260.845 283.456ZM283.59 280.504C281.914 283.044 279.312 284.314 275.782 284.314C272.252 284.314 269.649 283.044 267.973 280.504C266.284 277.952 265.44 274.53 265.44 270.239C265.44 265.947 266.284 262.525 267.973 259.973C269.636 257.459 272.239 256.202 275.782 256.202C279.324 256.202 281.927 257.459 283.59 259.973C285.279 262.525 286.124 265.947 286.124 270.239C286.124 274.53 285.279 277.952 283.59 280.504ZM271.915 277.305C272.652 278.892 273.941 279.685 275.782 279.685C277.623 279.685 278.912 278.892 279.648 277.305C280.397 275.73 280.772 273.375 280.772 270.239C280.772 267.141 280.397 264.785 279.648 263.173C278.912 261.624 277.623 260.849 275.782 260.849C273.941 260.849 272.652 261.624 271.915 263.173C271.166 264.785 270.792 267.141 270.792 270.239C270.792 273.375 271.166 275.73 271.915 277.305ZM308.278 280.504C306.602 283.044 304 284.314 300.47 284.314C296.94 284.314 294.337 283.044 292.661 280.504C290.972 277.952 290.128 274.53 290.128 270.239C290.128 265.947 290.972 262.525 292.661 259.973C294.324 257.459 296.927 256.202 300.47 256.202C304.012 256.202 306.615 257.459 308.278 259.973C309.967 262.525 310.812 265.947 310.812 270.239C310.812 274.53 309.967 277.952 308.278 280.504ZM296.603 277.305C297.34 278.892 298.629 279.685 300.47 279.685C302.311 279.685 303.6 278.892 304.336 277.305C305.085 275.73 305.46 273.375 305.46 270.239C305.46 267.141 305.085 264.785 304.336 263.173C303.6 261.624 302.311 260.849 300.47 260.849C298.629 260.849 297.34 261.624 296.603 263.173C295.854 264.785 295.48 267.141 295.48 270.239C295.48 273.375 295.854 275.73 296.603 277.305ZM314.702 283.971V279.723L323.71 270.505C325.145 269.07 326.173 267.902 326.796 267.001C327.342 266.15 327.615 265.23 327.615 264.239C327.615 263.211 327.291 262.392 326.643 261.782C325.983 261.16 325.056 260.849 323.863 260.849C322.606 260.849 321.609 261.198 320.872 261.897C320.111 262.658 319.73 263.738 319.73 265.134H314.625C314.625 262.354 315.457 260.17 317.12 258.583C318.784 256.995 321.031 256.202 323.863 256.202C326.58 256.202 328.783 256.932 330.471 258.392C332.135 259.865 332.966 261.763 332.966 264.087C332.966 265.471 332.598 266.804 331.862 268.086C331.125 269.369 329.919 270.867 328.243 272.581L321.729 279.095V279.247H333.385V283.971H314.702Z" fill="#34A853"/>
<circle cx="425" cy="50.0742" r="50" fill="url(#paint2_linear_726_2596)"/>
<path d="M418.829 73.5518L420.788 56.8334L420.265 56.4416L406.616 66.2375L401 55.1354L417.065 50.1722V49.6497L401 44.5559L406.616 33.4538L420.135 43.2497L420.657 42.662L418.829 26.0742H431.237L429.212 42.662L429.735 43.2497L443.253 33.4538L449 44.5559L432.869 49.6497V50.1722L449 55.1354L443.253 66.2375L429.604 56.4416L429.082 56.8334L431.237 73.5518H418.829Z" fill="white"/>
<defs>
<filter id="filter0_d_726_2596" x="0.260565" y="13.2156" width="476.484" height="411.484" filterUnits="userSpaceOnUse" color-interpolation-filters="sRGB">
<feFlood flood-opacity="0" result="BackgroundImageFix"/>
<feColorMatrix in="SourceAlpha" type="matrix" values="0 0 0 0 0 0 0 0 0 0 0 0 0 0 0 0 0 0 127 0" result="hardAlpha"/>
<feOffset/>
<feGaussianBlur stdDeviation="11.8697"/>
<feComposite in2="hardAlpha" operator="out"/>
<feColorMatrix type="matrix" values="0 0 0 0 0 0 0 0 0 0 0 0 0 0 0 0 0 0 0.08 0"/>
<feBlend mode="normal" in2="BackgroundImageFix" result="effect1_dropShadow_726_2596"/>
<feBlend mode="normal" in="SourceGraphic" in2="effect1_dropShadow_726_2596" result="shape"/>
</filter>
<filter id="filter1_f_726_2596" x="184.403" y="95.3578" width="836.195" height="836.195" filterUnits="userSpaceOnUse" color-interpolation-filters="sRGB">
<feFlood flood-opacity="0" result="BackgroundImageFix"/>
<feBlend mode="normal" in="SourceGraphic" in2="BackgroundImageFix" result="shape"/>
<feGaussianBlur stdDeviation="119.799" result="effect1_foregroundBlur_726_2596"/>
</filter>
<filter id="filter2_f_726_2596" x="-512.597" y="-562.642" width="836.195" height="836.195" filterUnits="userSpaceOnUse" color-interpolation-filters="sRGB">
<feFlood flood-opacity="0" result="BackgroundImageFix"/>
<feBlend mode="normal" in="SourceGraphic" in2="BackgroundImageFix" result="shape"/>
<feGaussianBlur stdDeviation="119.799" result="effect1_foregroundBlur_726_2596"/>
</filter>
<linearGradient id="paint0_linear_726_2596" x1="424" y1="680.698" x2="813.861" y2="670.453" gradientUnits="userSpaceOnUse">
<stop stop-color="#00B0FF"/>
<stop offset="0.49591" stop-color="#3D5AFE"/>
<stop offset="1" stop-color="#5444F2"/>
</linearGradient>
<linearGradient id="paint1_linear_726_2596" x1="-273" y1="22.6983" x2="116.861" y2="12.4534" gradientUnits="userSpaceOnUse">
<stop stop-color="#00B0FF"/>
<stop offset="0.49591" stop-color="#3D5AFE"/>
<stop offset="1" stop-color="#5444F2"/>
</linearGradient>
<linearGradient id="paint2_linear_726_2596" x1="375" y1="96.9211" x2="484.205" y2="94.0513" gradientUnits="userSpaceOnUse">
<stop stop-color="#00B0FF"/>
<stop offset="0.49591" stop-color="#3D5AFE"/>
<stop offset="1" stop-color="#5444F2"/>
</linearGradient>
</defs>
</svg>
