<svg width="47" height="47" viewBox="0 0 47 47" fill="none" xmlns="http://www.w3.org/2000/svg">
<circle cx="23.5" cy="23.5" r="23.5" fill="black"/>
<path d="M33.1673 27.3047C33.1673 30.5297 30.559 33.138 27.334 33.138L28.209 31.6797" stroke="white" stroke-width="0.924342" stroke-linecap="round" stroke-linejoin="round"/>
<path d="M14.832 20.6458C14.832 17.4208 17.4404 14.8125 20.6654 14.8125L19.7904 16.2708" stroke="white" stroke-width="0.924342" stroke-linecap="round" stroke-linejoin="round"/>
<path d="M19.5176 24.8984H21.8592C22.3759 24.8984 22.8009 25.3651 22.8009 25.8401C22.8009 26.3568 22.3842 26.7818 21.8592 26.7818H19.5176V24.8984Z" stroke="white" stroke-width="0.924342" stroke-miterlimit="10" stroke-linecap="round" stroke-linejoin="round"/>
<path d="M19.5176 26.7734H22.2009C22.7926 26.7734 23.2759 27.1901 23.2759 27.7151C23.2759 28.2318 22.7926 28.6568 22.2009 28.6568H19.5176V26.7734Z" stroke="white" stroke-width="0.924342" stroke-miterlimit="10" stroke-linecap="round" stroke-linejoin="round"/>
<path d="M21.0176 28.6562V29.5896" stroke="white" stroke-width="0.924342" stroke-miterlimit="10" stroke-linecap="round" stroke-linejoin="round"/>
<path d="M21.0176 23.9609V24.8943" stroke="white" stroke-width="0.924342" stroke-miterlimit="10" stroke-linecap="round" stroke-linejoin="round"/>
<path d="M26.3751 26.7823C26.3751 29.624 24.0751 31.924 21.2335 31.924C18.3918 31.924 16.0918 29.624 16.0918 26.7823C16.0918 23.9407 18.3918 21.6406 21.2335 21.6406C21.3668 21.6406 21.4918 21.649 21.6335 21.6573C24.1585 21.849 26.1751 23.8656 26.3668 26.3906C26.3668 26.5156 26.3751 26.6407 26.3751 26.7823Z" stroke="white" stroke-width="0.924342" stroke-miterlimit="10" stroke-linecap="round" stroke-linejoin="round"/>
<path d="M31.9161 21.2276C31.9161 24.0693 29.6161 26.3693 26.7745 26.3693H26.3661C26.1745 23.8443 24.1578 21.8276 21.6328 21.6359V21.2276C21.6328 18.3859 23.9328 16.0859 26.7745 16.0859C29.6161 16.0859 31.9161 18.3859 31.9161 21.2276Z" stroke="white" stroke-width="0.924342" stroke-miterlimit="10" stroke-linecap="round" stroke-linejoin="round"/>
</svg>
