<svg width="47" height="47" viewBox="0 0 47 47" fill="none" xmlns="http://www.w3.org/2000/svg">
<circle cx="23.5" cy="23.5" r="23.5" fill="#2E2E2E"/>
<path d="M34 19V29C34 33 32.75 34 27.75 34H20.25C15.25 34 14 33 14 29V19C14 15 15.25 14 20.25 14H27.75C32.75 14 34 15 34 19Z" stroke="white" stroke-width="0.924342" stroke-linecap="round" stroke-linejoin="round"/>
<path d="M26.5 17.5H21.5" stroke="white" stroke-width="0.924342" stroke-linecap="round" stroke-linejoin="round"/>
<path d="M24 31.1C25.0701 31.1 25.9375 30.406 25.9375 29.55C25.9375 28.694 25.0701 28 24 28C22.9299 28 22.0625 28.694 22.0625 29.55C22.0625 30.406 22.9299 31.1 24 31.1Z" stroke="white" stroke-width="0.924342" stroke-linecap="round" stroke-linejoin="round"/>
</svg>
