<svg width="47" height="47" viewBox="0 0 47 47" fill="none" xmlns="http://www.w3.org/2000/svg">
<circle cx="23.5" cy="23.5" r="23.5" fill="#2E2E2E"/>
<path d="M24.3077 15.7922L31.8077 18.7922C32.0993 18.9088 32.3327 19.2588 32.3327 19.5672V22.3338C32.3327 22.7922 31.9577 23.1672 31.4993 23.1672H16.4993C16.041 23.1672 15.666 22.7922 15.666 22.3338V19.5672C15.666 19.2588 15.8994 18.9088 16.191 18.7922L23.691 15.7922C23.8577 15.7255 24.141 15.7255 24.3077 15.7922Z" stroke="white" stroke-width="0.924342" stroke-miterlimit="10" stroke-linecap="round" stroke-linejoin="round"/>
<path d="M32.3327 32.3333H15.666V29.8333C15.666 29.375 16.041 29 16.4993 29H31.4993C31.9577 29 32.3327 29.375 32.3327 29.8333V32.3333Z" stroke="white" stroke-width="0.924342" stroke-miterlimit="10" stroke-linecap="round" stroke-linejoin="round"/>
<path d="M17.334 28.9974V23.1641" stroke="white" stroke-width="0.924342" stroke-miterlimit="10" stroke-linecap="round" stroke-linejoin="round"/>
<path d="M20.666 28.9974V23.1641" stroke="white" stroke-width="0.924342" stroke-miterlimit="10" stroke-linecap="round" stroke-linejoin="round"/>
<path d="M24 28.9974V23.1641" stroke="white" stroke-width="0.924342" stroke-miterlimit="10" stroke-linecap="round" stroke-linejoin="round"/>
<path d="M27.334 28.9974V23.1641" stroke="white" stroke-width="0.924342" stroke-miterlimit="10" stroke-linecap="round" stroke-linejoin="round"/>
<path d="M30.668 28.9974V23.1641" stroke="white" stroke-width="0.924342" stroke-miterlimit="10" stroke-linecap="round" stroke-linejoin="round"/>
<path d="M14.832 32.3359H33.1654" stroke="white" stroke-width="0.924342" stroke-miterlimit="10" stroke-linecap="round" stroke-linejoin="round"/>
<path d="M24 21.0859C24.6904 21.0859 25.25 20.5263 25.25 19.8359C25.25 19.1456 24.6904 18.5859 24 18.5859C23.3096 18.5859 22.75 19.1456 22.75 19.8359C22.75 20.5263 23.3096 21.0859 24 21.0859Z" stroke="white" stroke-width="0.924342" stroke-miterlimit="10" stroke-linecap="round" stroke-linejoin="round"/>
</svg>
