<svg width="228" height="235" viewBox="0 0 228 235" fill="none" xmlns="http://www.w3.org/2000/svg">
<g clip-path="url(#clip0_528_443)">
<path d="M111.579 0H117.548C128.708 0 139.411 4.42956 147.302 12.3142C155.193 20.1989 159.626 30.8928 159.626 42.0434V54.01C159.626 65.1606 155.193 75.8544 147.302 83.7391C139.411 91.6238 128.708 96.0533 117.548 96.0533H111.579V0Z" fill="white" fill-opacity="0.09"/>
<path d="M42.188 24.6641L46.9867 21.1161C55.9575 14.4835 67.1979 11.6833 78.2351 13.3314C89.2723 14.9796 99.2021 20.9412 105.84 29.9047L112.964 39.5241C116.256 43.961 118.641 49.0024 119.982 54.3605C121.323 59.7185 121.595 65.2881 120.781 70.751C119.968 76.214 118.085 81.4631 115.24 86.1987C112.395 90.9343 108.645 95.0635 104.203 98.3504L99.4039 101.898L42.2 24.6552L42.188 24.6641Z" fill="white" fill-opacity="0.09"/>
<path d="M1.09082 85.7734L2.83615 80.0694C6.09895 69.406 13.4676 60.4745 23.3211 55.2396C33.1746 50.0047 44.7057 48.8954 55.3779 52.1555L66.831 55.6542C77.5031 58.9143 86.4421 66.2768 91.6813 76.1222C96.9205 85.9676 98.0308 97.4893 94.768 108.153L93.0226 113.857L1.09082 85.7734Z" fill="white" fill-opacity="0.09"/>
<path d="M4.42822 159.262L2.43554 153.639C-1.28967 143.128 -0.683396 131.569 4.12101 121.505C8.92541 111.44 17.5344 103.695 28.054 99.9729L39.3435 95.9784C49.8601 92.2552 61.426 92.8578 71.498 97.6536C81.57 102.449 89.3235 111.046 93.0534 121.552L95.0461 127.175L4.42074 159.241L4.42822 159.262Z" fill="white" fill-opacity="0.09"/>
<path d="M50.8882 216.396L45.9392 213.061C36.6873 206.826 30.2934 197.174 28.164 186.228C26.0346 175.282 28.3443 163.94 34.5847 154.695L41.2819 144.775C47.5226 135.548 57.1721 129.171 68.1127 127.046C79.0533 124.92 90.391 127.218 99.6377 133.435L104.587 136.771L50.851 216.371L50.8882 216.396Z" fill="white" fill-opacity="0.09"/>
<path d="M122.193 234.701L116.229 234.961C105.08 235.448 94.1944 231.489 85.9666 223.956C77.7387 216.422 72.843 205.932 72.3562 194.792L71.8338 182.837C71.3471 171.697 75.3091 160.82 82.8485 152.599C90.3879 144.378 100.887 139.486 112.036 138.999L118 138.739L122.193 234.701Z" fill="white" fill-opacity="0.09"/>
<path d="M190.445 207.025L185.806 210.779C177.133 217.796 166.026 221.084 154.927 219.918C143.829 218.753 133.648 213.23 126.625 204.564L119.088 195.264C112.065 186.599 108.775 175.5 109.941 164.411C111.108 153.321 116.635 143.149 125.308 136.132L129.947 132.378L190.445 207.025Z" fill="white" fill-opacity="0.09"/>
<path d="M173.406 15.877L178.496 18.9935C188.011 24.8196 194.821 34.184 197.426 45.0265C200.031 55.869 198.219 67.3015 192.388 76.8089L186.13 87.0121C180.299 96.5195 170.927 103.323 160.076 105.926C149.224 108.529 137.782 106.719 128.267 100.892L123.177 97.7759L173.406 15.877Z" fill="white" fill-opacity="0.09"/>
<path d="M221.463 62.7188L223.7 68.2491C227.88 78.5877 227.779 90.1623 223.419 100.426C219.058 110.691 210.795 118.804 200.448 122.981L189.316 127.475C178.969 131.652 167.385 131.551 157.112 127.194C146.84 122.837 138.72 114.581 134.54 104.242L132.303 98.7121L221.463 62.7188Z" fill="white" fill-opacity="0.09"/>
<path d="M228.002 136.02L226.508 141.794C223.714 152.59 216.742 161.834 207.126 167.493C197.511 173.153 186.039 174.764 175.235 171.972L163.64 168.975C152.835 166.184 143.584 159.218 137.92 149.61C132.256 140.002 130.643 128.54 133.437 117.744L134.932 111.97L228.002 136.02Z" fill="white" fill-opacity="0.09"/>
</g>
<defs>
<clipPath id="clip0_528_443">
<rect width="228" height="235" fill="white"/>
</clipPath>
</defs>
</svg>
