<svg width="477" height="451" viewBox="0 0 477 451" fill="none" xmlns="http://www.w3.org/2000/svg">
<g filter="url(#filter0_d_706_2594)">
<rect x="24" y="62.9844" width="429.005" height="364.005" rx="19.9848" fill="white"/>
<rect x="24.2638" y="63.2481" width="428.478" height="363.477" rx="19.721" stroke="#E1E1E1" stroke-width="0.527543"/>
</g>
<mask id="mask0_706_2594" style="mask-type:alpha" maskUnits="userSpaceOnUse" x="24" y="62" width="430" height="365">
<rect x="24.2638" y="63.2481" width="428.478" height="363.477" rx="19.721" fill="white" stroke="#E1E1E1" stroke-width="0.527543"/>
</mask>
<g mask="url(#mask0_706_2594)">
<g opacity="0.3" filter="url(#filter1_f_706_2594)">
<circle cx="602.5" cy="539.484" r="178.5" fill="url(#paint0_linear_706_2594)"/>
</g>
<g opacity="0.3" filter="url(#filter2_f_706_2594)">
<circle cx="-94.5" cy="-118.516" r="178.5" fill="url(#paint1_linear_706_2594)"/>
</g>
</g>
<path d="M213.423 228.051L217.822 239.833V240H216.239L215.114 236.875H209.89L208.765 240H207.207V239.833L211.598 228.051H213.423ZM210.365 235.542H214.631L212.531 229.709H212.464L210.365 235.542ZM229.34 231.126C230.29 231.126 231.029 231.409 231.556 231.976C232.084 232.565 232.348 233.351 232.348 234.334V240H230.915V234.559C230.915 233.126 230.27 232.409 228.982 232.409C228.304 232.409 227.771 232.653 227.382 233.142C226.993 233.631 226.798 234.312 226.798 235.184V240H225.365V234.559C225.365 233.126 224.724 232.409 223.44 232.409C222.746 232.409 222.204 232.653 221.816 233.142C221.416 233.642 221.216 234.323 221.216 235.184V240H219.782V231.276H221.032L221.149 232.642H221.216C221.743 231.631 222.615 231.126 223.832 231.126C225.087 231.126 225.962 231.631 226.457 232.642H226.523C227.051 231.631 227.99 231.126 229.34 231.126ZM238.591 240.15C237.297 240.15 236.313 239.731 235.641 238.892C234.98 238.064 234.65 236.984 234.65 235.65C234.65 234.317 234.986 233.231 235.658 232.392C236.336 231.548 237.313 231.126 238.591 231.126C239.874 231.126 240.855 231.548 241.532 232.392C242.205 233.231 242.541 234.317 242.541 235.65C242.541 236.984 242.21 238.064 241.549 238.892C240.877 239.731 239.891 240.15 238.591 240.15ZM238.591 238.875C239.452 238.875 240.085 238.583 240.491 238C240.885 237.411 241.082 236.628 241.082 235.65C241.082 234.673 240.885 233.881 240.491 233.276C240.085 232.698 239.452 232.409 238.591 232.409C237.747 232.409 237.122 232.698 236.716 233.276C236.305 233.881 236.1 234.673 236.1 235.65C236.1 236.628 236.305 237.411 236.716 238C237.127 238.583 237.752 238.875 238.591 238.875ZM250.534 231.276H251.967V236.825C251.967 237.825 251.636 238.622 250.975 239.217C250.314 239.828 249.456 240.133 248.4 240.133C247.345 240.133 246.487 239.828 245.826 239.217C245.165 238.622 244.834 237.825 244.834 236.825V231.276H246.267V236.584C246.267 238.1 246.978 238.858 248.4 238.858C249.822 238.858 250.534 238.1 250.534 236.584V231.276ZM254.952 240V231.276H256.202L256.318 232.642H256.385C256.913 231.631 257.813 231.126 259.085 231.126C260.035 231.126 260.785 231.409 261.335 231.976C261.873 232.559 262.143 233.345 262.143 234.334V240H260.701V234.559C260.701 233.126 260.032 232.409 258.693 232.409C257.954 232.409 257.39 232.653 257.002 233.142C256.591 233.637 256.385 234.317 256.385 235.184V240H254.952ZM268.019 240.15C267.197 240.15 266.605 239.953 266.244 239.558C265.894 239.175 265.719 238.595 265.719 237.817V232.492H264.27V231.276H265.753V229.418L266.986 228.943H267.153V231.276H269.286V232.492H267.153V237.7C267.153 238.117 267.244 238.417 267.428 238.6C267.622 238.795 267.911 238.892 268.294 238.892C268.611 238.892 268.897 238.858 269.152 238.792H269.319V240.017C268.936 240.106 268.503 240.15 268.019 240.15Z" fill="#65717C"/>
<path d="M199.812 190.281C196.521 190.281 193.979 189.229 192.188 187.125C190.396 185.052 189.5 182.286 189.5 178.828C189.5 175.37 190.396 172.589 192.188 170.484C193.99 168.37 196.531 167.312 199.812 167.312C202.521 167.312 204.708 168.068 206.375 169.578C208.031 171.078 208.969 173.052 209.188 175.5H205.344C205.188 174.062 204.646 172.911 203.719 172.047C202.802 171.193 201.5 170.766 199.812 170.766C197.625 170.766 196 171.5 194.938 172.969C193.875 174.469 193.344 176.422 193.344 178.828C193.344 181.245 193.875 183.188 194.938 184.656C196 186.125 197.625 186.859 199.812 186.859C201.406 186.859 202.672 186.453 203.609 185.641C204.536 184.839 205.125 183.729 205.375 182.312H209.188C208.906 184.667 207.943 186.589 206.297 188.078C204.672 189.547 202.51 190.281 199.812 190.281ZM213.191 190V173.484H216.254L216.582 176.109H216.707C217.082 175.224 217.624 174.531 218.332 174.031C219.061 173.521 219.946 173.266 220.988 173.266H222.332V176.656H220.926C219.53 176.656 218.483 177.115 217.785 178.031C217.066 178.938 216.707 180.24 216.707 181.938V190H213.191ZM232.164 190.281C229.716 190.281 227.804 189.484 226.429 187.891C225.044 186.286 224.351 184.24 224.351 181.75C224.351 179.24 225.023 177.188 226.367 175.594C227.679 174 229.586 173.203 232.086 173.203C234.461 173.203 236.299 173.948 237.601 175.438C238.903 176.927 239.554 178.859 239.554 181.234V182.766H228.132C228.132 184.13 228.481 185.208 229.179 186C229.867 186.812 230.862 187.219 232.164 187.219C234.143 187.219 235.346 186.469 235.773 184.969H239.32C239.101 186.531 238.336 187.802 237.023 188.781C235.69 189.781 234.07 190.281 232.164 190.281ZM228.164 180.172H235.804C235.773 179.026 235.455 178.089 234.851 177.359C234.205 176.651 233.284 176.297 232.086 176.297C230.846 176.297 229.888 176.651 229.211 177.359C228.544 178.089 228.195 179.026 228.164 180.172ZM249.105 190.281C246.99 190.281 245.329 189.505 244.121 187.953C242.891 186.422 242.261 184.344 242.23 181.719C242.261 179.146 242.881 177.083 244.089 175.531C245.266 173.979 246.938 173.203 249.105 173.203C251.272 173.203 252.85 173.958 253.839 175.469H253.964V166.312H257.621V190H254.386L253.964 188.016H253.839C252.85 189.526 251.272 190.281 249.105 190.281ZM250.011 187.062C251.365 187.062 252.386 186.557 253.074 185.547C253.761 184.536 254.105 183.26 254.105 181.719C254.105 180.156 253.772 178.885 253.105 177.906C252.438 176.927 251.407 176.438 250.011 176.438C248.595 176.438 247.569 176.927 246.933 177.906C246.266 178.885 245.933 180.156 245.933 181.719C245.933 183.292 246.266 184.568 246.933 185.547C247.589 186.557 248.615 187.062 250.011 187.062ZM263.952 170.953C263.202 170.953 262.63 170.755 262.234 170.359C261.827 169.953 261.624 169.385 261.624 168.656C261.624 167.948 261.827 167.391 262.234 166.984C262.598 166.589 263.171 166.391 263.952 166.391C264.713 166.391 265.291 166.589 265.687 166.984C266.093 167.391 266.296 167.948 266.296 168.656C266.296 169.354 266.093 169.906 265.687 170.312C265.26 170.74 264.682 170.953 263.952 170.953ZM262.14 190V173.484H265.781V190H262.14ZM276.566 190.281C273.305 190.281 271.675 188.682 271.675 185.484V176.594H268.941V173.484H271.831V170L275.003 169.109H275.316V173.484H279.316V176.594H275.316V184.844C275.316 185.635 275.488 186.203 275.831 186.547C276.196 186.911 276.738 187.094 277.456 187.094C278.04 187.094 278.576 187.016 279.066 186.859H279.378V189.938C278.607 190.167 277.67 190.281 276.566 190.281ZM283.96 182.891L283.288 170.672V167.594H287.257V170.672L286.429 182.891H283.96ZM285.241 190.281C284.512 190.281 283.95 190.068 283.554 189.641C283.147 189.234 282.944 188.672 282.944 187.953C282.944 187.203 283.147 186.625 283.554 186.219C283.929 185.812 284.491 185.609 285.241 185.609C285.95 185.609 286.517 185.823 286.944 186.25C287.351 186.656 287.554 187.224 287.554 187.953C287.554 188.672 287.351 189.234 286.944 189.641C286.517 190.068 285.95 190.281 285.241 190.281Z" fill="black"/>
<rect x="114" y="259" width="249" height="75" rx="12" fill="#4CD964" fill-opacity="0.1"/>
<path d="M139.085 310V282.688H145.275L156.436 301.658H156.589V282.688H161.902V310H155.655L144.494 291.164H144.342V310H139.085ZM179.543 310.343C175.429 310.343 172.268 309.048 170.059 306.457C167.824 303.88 166.706 300.522 166.706 296.382C166.706 292.218 167.824 288.827 170.059 286.212C172.293 283.634 175.455 282.345 179.543 282.345C182.908 282.345 185.638 283.253 187.733 285.069C189.854 286.897 191.047 289.202 191.314 291.983H185.848C185.657 290.599 185.035 289.456 183.981 288.554C182.94 287.666 181.461 287.221 179.543 287.221C177.08 287.221 175.245 288.04 174.039 289.678C172.795 291.303 172.173 293.538 172.173 296.382C172.173 299.239 172.795 301.461 174.039 303.048C175.245 304.686 177.08 305.505 179.543 305.505C181.511 305.505 183.054 305.004 184.172 304.001C185.289 302.959 185.943 301.671 186.133 300.134H180.324V295.373H191.58V298.23C191.58 301.886 190.476 304.82 188.266 307.029C186.057 309.238 183.149 310.343 179.543 310.343ZM196.385 310V282.688H202.574L213.735 301.658H213.888V282.688H219.201V310H212.954L201.794 291.164H201.641V310H196.385ZM245.57 310.343C242.523 310.343 240.078 309.594 238.237 308.095C236.371 306.61 235.438 304.489 235.438 301.734H240.656C240.694 302.851 241.101 303.797 241.875 304.572C242.624 305.359 243.843 305.753 245.532 305.753C247.056 305.753 248.192 305.397 248.941 304.686C249.69 303.975 250.065 303.055 250.065 301.925C250.065 300.756 249.659 299.823 248.846 299.125C248.021 298.414 246.789 298.058 245.151 298.058H242.77V293.506H245.075C246.395 293.506 247.424 293.195 248.16 292.573C248.859 291.989 249.208 291.151 249.208 290.059C249.208 289.145 248.871 288.37 248.198 287.735C247.513 287.126 246.548 286.821 245.303 286.821C243.919 286.821 242.891 287.177 242.218 287.888C241.532 288.573 241.17 289.532 241.132 290.764H235.857C235.895 288.123 236.784 286.047 238.523 284.536C240.25 282.999 242.548 282.231 245.418 282.231C248.071 282.231 250.255 282.904 251.969 284.25C253.722 285.621 254.598 287.393 254.598 289.564C254.598 292.471 253.334 294.408 250.808 295.373V295.525C252.141 295.944 253.258 296.725 254.16 297.868C255.023 298.998 255.455 300.337 255.455 301.886C255.455 304.324 254.623 306.337 252.96 307.924C251.271 309.537 248.808 310.343 245.57 310.343ZM258.354 315.504V315.104L259.554 305.715H265.382V306.096L262.373 315.504H258.354ZM287.08 306.534C285.404 309.073 282.801 310.343 279.271 310.343C275.741 310.343 273.139 309.073 271.463 306.534C269.774 303.982 268.929 300.56 268.929 296.268C268.929 291.976 269.774 288.554 271.463 286.002C273.126 283.488 275.729 282.231 279.271 282.231C282.814 282.231 285.417 283.488 287.08 286.002C288.769 288.554 289.613 291.976 289.613 296.268C289.613 300.56 288.769 303.982 287.08 306.534ZM275.405 303.334C276.141 304.921 277.43 305.715 279.271 305.715C281.112 305.715 282.401 304.921 283.138 303.334C283.887 301.759 284.261 299.404 284.261 296.268C284.261 293.17 283.887 290.814 283.138 289.202C282.401 287.653 281.112 286.878 279.271 286.878C277.43 286.878 276.141 287.653 275.405 289.202C274.656 290.814 274.281 293.17 274.281 296.268C274.281 299.404 274.656 301.759 275.405 303.334ZM311.768 306.534C310.092 309.073 307.489 310.343 303.959 310.343C300.429 310.343 297.827 309.073 296.151 306.534C294.462 303.982 293.617 300.56 293.617 296.268C293.617 291.976 294.462 288.554 296.151 286.002C297.814 283.488 300.417 282.231 303.959 282.231C307.502 282.231 310.105 283.488 311.768 286.002C313.457 288.554 314.301 291.976 314.301 296.268C314.301 300.56 313.457 303.982 311.768 306.534ZM300.093 303.334C300.829 304.921 302.118 305.715 303.959 305.715C305.8 305.715 307.089 304.921 307.826 303.334C308.575 301.759 308.949 299.404 308.949 296.268C308.949 293.17 308.575 290.814 307.826 289.202C307.089 287.653 305.8 286.878 303.959 286.878C302.118 286.878 300.829 287.653 300.093 289.202C299.344 290.814 298.969 293.17 298.969 296.268C298.969 299.404 299.344 301.759 300.093 303.334ZM336.456 306.534C334.78 309.073 332.177 310.343 328.647 310.343C325.117 310.343 322.515 309.073 320.839 306.534C319.15 303.982 318.305 300.56 318.305 296.268C318.305 291.976 319.15 288.554 320.839 286.002C322.502 283.488 325.105 282.231 328.647 282.231C332.19 282.231 334.793 283.488 336.456 286.002C338.145 288.554 338.989 291.976 338.989 296.268C338.989 300.56 338.145 303.982 336.456 306.534ZM324.781 303.334C325.517 304.921 326.806 305.715 328.647 305.715C330.488 305.715 331.777 304.921 332.514 303.334C333.263 301.759 333.637 299.404 333.637 296.268C333.637 293.17 333.263 290.814 332.514 289.202C331.777 287.653 330.488 286.878 328.647 286.878C326.806 286.878 325.517 287.653 324.781 289.202C324.032 290.814 323.657 293.17 323.657 296.268C323.657 299.404 324.032 301.759 324.781 303.334Z" fill="#34A853"/>
<circle cx="425" cy="50" r="50" fill="url(#paint2_linear_706_2594)"/>
<path d="M418.829 73.4776L420.788 56.7592L420.265 56.3673L406.616 66.1633L401 55.0612L417.065 50.098V49.5755L401 44.4816L406.616 33.3796L420.135 43.1755L420.657 42.5878L418.829 26H431.237L429.212 42.5878L429.735 43.1755L443.253 33.3796L449 44.4816L432.869 49.5755V50.098L449 55.0612L443.253 66.1633L429.604 56.3673L429.082 56.7592L431.237 73.4776H418.829Z" fill="white"/>
<defs>
<filter id="filter0_d_706_2594" x="0.260565" y="39.2449" width="476.484" height="411.484" filterUnits="userSpaceOnUse" color-interpolation-filters="sRGB">
<feFlood flood-opacity="0" result="BackgroundImageFix"/>
<feColorMatrix in="SourceAlpha" type="matrix" values="0 0 0 0 0 0 0 0 0 0 0 0 0 0 0 0 0 0 127 0" result="hardAlpha"/>
<feOffset/>
<feGaussianBlur stdDeviation="11.8697"/>
<feComposite in2="hardAlpha" operator="out"/>
<feColorMatrix type="matrix" values="0 0 0 0 0 0 0 0 0 0 0 0 0 0 0 0 0 0 0.08 0"/>
<feBlend mode="normal" in2="BackgroundImageFix" result="effect1_dropShadow_706_2594"/>
<feBlend mode="normal" in="SourceGraphic" in2="effect1_dropShadow_706_2594" result="shape"/>
</filter>
<filter id="filter1_f_706_2594" x="184.403" y="121.387" width="836.195" height="836.195" filterUnits="userSpaceOnUse" color-interpolation-filters="sRGB">
<feFlood flood-opacity="0" result="BackgroundImageFix"/>
<feBlend mode="normal" in="SourceGraphic" in2="BackgroundImageFix" result="shape"/>
<feGaussianBlur stdDeviation="119.799" result="effect1_foregroundBlur_706_2594"/>
</filter>
<filter id="filter2_f_706_2594" x="-512.597" y="-536.613" width="836.195" height="836.195" filterUnits="userSpaceOnUse" color-interpolation-filters="sRGB">
<feFlood flood-opacity="0" result="BackgroundImageFix"/>
<feBlend mode="normal" in="SourceGraphic" in2="BackgroundImageFix" result="shape"/>
<feGaussianBlur stdDeviation="119.799" result="effect1_foregroundBlur_706_2594"/>
</filter>
<linearGradient id="paint0_linear_706_2594" x1="424" y1="706.728" x2="813.861" y2="696.483" gradientUnits="userSpaceOnUse">
<stop stop-color="#00B0FF"/>
<stop offset="0.49591" stop-color="#3D5AFE"/>
<stop offset="1" stop-color="#5444F2"/>
</linearGradient>
<linearGradient id="paint1_linear_706_2594" x1="-273" y1="48.7276" x2="116.861" y2="38.4827" gradientUnits="userSpaceOnUse">
<stop stop-color="#00B0FF"/>
<stop offset="0.49591" stop-color="#3D5AFE"/>
<stop offset="1" stop-color="#5444F2"/>
</linearGradient>
<linearGradient id="paint2_linear_706_2594" x1="375" y1="96.8468" x2="484.205" y2="93.9771" gradientUnits="userSpaceOnUse">
<stop stop-color="#00B0FF"/>
<stop offset="0.49591" stop-color="#3D5AFE"/>
<stop offset="1" stop-color="#5444F2"/>
</linearGradient>
</defs>
</svg>
