<svg width="625" height="472" viewBox="0 0 625 472" fill="none" xmlns="http://www.w3.org/2000/svg">
<g filter="url(#filter0_d_706_2591)">
<rect x="24" y="83.9551" width="429.005" height="364.005" rx="19.9848" fill="white"/>
<rect x="24.2638" y="84.2188" width="428.478" height="363.477" rx="19.721" stroke="#E1E1E1" stroke-width="0.527543"/>
</g>
<mask id="mask0_706_2591" style="mask-type:alpha" maskUnits="userSpaceOnUse" x="24" y="83" width="430" height="365">
<rect x="24.2638" y="84.2188" width="428.478" height="363.477" rx="19.721" fill="white" stroke="#E1E1E1" stroke-width="0.527543"/>
</mask>
<g mask="url(#mask0_706_2591)">
<g opacity="0.3" filter="url(#filter1_f_706_2591)">
<circle cx="602.5" cy="560.455" r="178.5" fill="url(#paint0_linear_706_2591)"/>
</g>
<g opacity="0.3" filter="url(#filter2_f_706_2591)">
<circle cx="-94.5" cy="-97.5449" r="178.5" fill="url(#paint1_linear_706_2591)"/>
</g>
</g>
<path d="M72.5273 210.955V202.273H69.4922V201.152H76.7998V202.273H73.7578V210.955H72.5273ZM79.6247 202.431C79.0869 202.431 78.818 202.155 78.818 201.604C78.818 201.061 79.0869 200.79 79.6247 200.79C79.8845 200.79 80.085 200.861 80.2262 201.002C80.3675 201.166 80.4382 201.367 80.4382 201.604C80.4382 201.84 80.3675 202.041 80.2262 202.205C80.0941 202.355 79.8936 202.431 79.6247 202.431ZM79.0368 210.955V203.798H80.2126V210.955H79.0368ZM85.0404 211.078C84.3659 211.078 83.8806 210.916 83.5843 210.593C83.2972 210.278 83.1537 209.802 83.1537 209.164V204.796H81.9642V203.798H83.181V202.273L84.1927 201.884H84.3295V203.798H86.0795V204.796H84.3295V209.068C84.3295 209.41 84.4046 209.656 84.555 209.807C84.7145 209.966 84.9515 210.046 85.266 210.046C85.5257 210.046 85.7604 210.019 85.9701 209.964H86.1068V210.969C85.7923 211.042 85.4369 211.078 85.0404 211.078ZM88.0635 210.955V200.592H89.2393V210.955H88.0635ZM94.3816 211.078C93.3607 211.078 92.5609 210.734 91.9821 210.046C91.4125 209.367 91.1277 208.48 91.1277 207.387C91.1277 206.293 91.4034 205.402 91.9548 204.714C92.5108 204.021 93.3129 203.675 94.3611 203.675C95.3363 203.675 96.0974 203.996 96.6443 204.639C97.1866 205.29 97.4577 206.131 97.4577 207.161V207.735H92.365C92.365 208.451 92.5359 209.007 92.8777 209.403C93.2286 209.823 93.7299 210.032 94.3816 210.032C94.8555 210.032 95.252 209.934 95.571 209.738C95.8855 209.542 96.0905 209.257 96.1863 208.884H97.362C97.2663 209.531 96.9382 210.057 96.3777 210.463C95.808 210.873 95.1426 211.078 94.3816 211.078ZM92.3786 206.758H96.2409C96.2409 206.152 96.0814 205.662 95.7624 205.288C95.4434 204.914 94.9763 204.728 94.3611 204.728C93.723 204.728 93.2377 204.914 92.905 205.288C92.5678 205.666 92.3923 206.156 92.3786 206.758Z" fill="#65717C"/>
<rect x="70" y="225.955" width="354" height="40" rx="3" fill="white"/>
<rect x="70.35" y="226.305" width="353.3" height="39.3" rx="2.65" stroke="#979797" stroke-opacity="0.24" stroke-width="0.7"/>
<path d="M90.5273 248.955V240.273H87.4922V239.152H94.7998V240.273H91.7578V248.955H90.5273ZM97.8776 249.078C96.8158 249.078 96.0091 248.734 95.4577 248.046C94.9154 247.367 94.6442 246.48 94.6442 245.387C94.6442 244.293 94.9199 243.402 95.4714 242.714C96.0274 242.021 96.8294 241.675 97.8776 241.675C98.9304 241.675 99.7347 242.021 100.291 242.714C100.842 243.402 101.118 244.293 101.118 245.387C101.118 246.48 100.847 247.367 100.304 248.046C99.7529 248.734 98.944 249.078 97.8776 249.078ZM97.8776 248.032C98.584 248.032 99.1035 247.793 99.4362 247.314C99.7598 246.831 99.9216 246.189 99.9216 245.387C99.9216 244.585 99.7598 243.935 99.4362 243.438C99.1035 242.965 98.584 242.728 97.8776 242.728C97.1849 242.728 96.6722 242.965 96.3395 243.438C96.0023 243.935 95.8337 244.585 95.8337 245.387C95.8337 246.189 96.0023 246.831 96.3395 247.314C96.6768 247.793 97.1895 248.032 97.8776 248.032ZM103.136 248.955V238.592H104.312V248.955H103.136ZM106.761 248.955V238.592H107.937V248.955H106.761ZM112.32 249.078C111.573 249.078 110.971 248.868 110.515 248.449C110.055 248.035 109.825 247.508 109.825 246.87C109.825 246.214 110.073 245.676 110.57 245.257C111.067 244.838 111.805 244.628 112.785 244.628C113.368 244.628 113.956 244.712 114.549 244.881V244.17C114.549 243.746 114.412 243.391 114.138 243.104C113.856 242.821 113.441 242.68 112.894 242.68C112.393 242.68 112.006 242.803 111.732 243.049C111.463 243.29 111.322 243.593 111.308 243.958H110.18C110.18 243.265 110.436 242.714 110.946 242.304C111.456 241.884 112.106 241.675 112.894 241.675C113.783 241.675 114.473 241.907 114.966 242.372C115.453 242.832 115.697 243.42 115.697 244.136V248.955H114.699L114.617 247.95H114.562C114.116 248.702 113.368 249.078 112.32 249.078ZM112.532 248.101C113.129 248.101 113.614 247.914 113.988 247.54C114.362 247.166 114.549 246.713 114.549 246.18V245.817C114.011 245.649 113.423 245.564 112.785 245.564C111.605 245.564 111.014 245.995 111.014 246.856C111.014 247.23 111.147 247.529 111.411 247.752C111.657 247.984 112.031 248.101 112.532 248.101ZM120.832 249.078C119.775 249.078 118.971 248.748 118.419 248.087C117.859 247.431 117.579 246.531 117.579 245.387C117.579 244.243 117.859 243.336 118.419 242.666C118.971 242.005 119.768 241.675 120.812 241.675C121.737 241.675 122.443 241.912 122.931 242.386C123.428 242.869 123.704 243.491 123.758 244.252H122.582C122.541 243.769 122.368 243.395 122.063 243.131C121.739 242.862 121.322 242.728 120.812 242.728C120.101 242.728 119.588 242.969 119.274 243.452C118.937 243.949 118.768 244.594 118.768 245.387C118.768 246.175 118.937 246.818 119.274 247.314C119.593 247.802 120.106 248.046 120.812 248.046C121.354 248.046 121.776 247.916 122.077 247.656C122.391 247.383 122.569 247.014 122.61 246.549H123.786C123.717 247.319 123.432 247.934 122.931 248.395C122.448 248.85 121.748 249.078 120.832 249.078ZM128.483 249.078C127.422 249.078 126.615 248.734 126.064 248.046C125.521 247.367 125.25 246.48 125.25 245.387C125.25 244.293 125.526 243.402 126.077 242.714C126.633 242.021 127.435 241.675 128.483 241.675C129.536 241.675 130.341 242.021 130.897 242.714C131.448 243.402 131.724 244.293 131.724 245.387C131.724 246.48 131.453 247.367 130.91 248.046C130.359 248.734 129.55 249.078 128.483 249.078ZM128.483 248.032C129.19 248.032 129.709 247.793 130.042 247.314C130.366 246.831 130.527 246.189 130.527 245.387C130.527 244.585 130.366 243.935 130.042 243.438C129.709 242.965 129.19 242.728 128.483 242.728C127.791 242.728 127.278 242.965 126.945 243.438C126.608 243.935 126.44 244.585 126.44 245.387C126.44 246.189 126.608 246.831 126.945 247.314C127.283 247.793 127.795 248.032 128.483 248.032ZM141.161 249.078C139.989 249.078 139.089 248.805 138.46 248.258C137.813 247.706 137.476 246.959 137.449 246.016H138.7C138.741 246.635 138.973 247.116 139.397 247.458C139.812 247.804 140.4 247.978 141.161 247.978C142.756 247.978 143.553 247.408 143.553 246.269C143.553 245.822 143.405 245.471 143.109 245.216C142.813 244.974 142.377 244.792 141.803 244.669L140.374 244.361C139.513 244.179 138.866 243.871 138.433 243.438C137.996 243.015 137.777 242.44 137.777 241.716C137.777 240.886 138.075 240.228 138.672 239.74C139.269 239.266 140.103 239.029 141.174 239.029C142.227 239.029 143.068 239.296 143.697 239.829C144.326 240.376 144.647 241.08 144.661 241.941H143.416C143.389 241.381 143.189 240.941 142.815 240.622C142.446 240.308 141.89 240.15 141.147 240.15C139.748 240.15 139.048 240.672 139.048 241.716C139.048 242.445 139.604 242.93 140.716 243.172L142.042 243.452C143.902 243.83 144.831 244.769 144.831 246.269C144.831 247.148 144.503 247.834 143.847 248.326C143.195 248.827 142.3 249.078 141.161 249.078ZM146.925 248.955V238.592H148.101V242.919H148.162C148.595 242.09 149.322 241.675 150.343 241.675C151.131 241.675 151.751 241.907 152.202 242.372C152.653 242.837 152.879 243.482 152.879 244.307V248.955H151.703V244.491C151.703 243.315 151.143 242.728 150.022 242.728C149.443 242.728 148.976 242.933 148.62 243.343C148.274 243.744 148.101 244.309 148.101 245.038V248.955H146.925ZM157.994 249.078C156.932 249.078 156.125 248.734 155.574 248.046C155.032 247.367 154.761 246.48 154.761 245.387C154.761 244.293 155.036 243.402 155.588 242.714C156.144 242.021 156.946 241.675 157.994 241.675C159.047 241.675 159.851 242.021 160.407 242.714C160.958 243.402 161.234 244.293 161.234 245.387C161.234 246.48 160.963 247.367 160.421 248.046C159.869 248.734 159.06 249.078 157.994 249.078ZM157.994 248.032C158.7 248.032 159.22 247.793 159.553 247.314C159.876 246.831 160.038 246.189 160.038 245.387C160.038 244.585 159.876 243.935 159.553 243.438C159.22 242.965 158.7 242.728 157.994 242.728C157.301 242.728 156.789 242.965 156.456 243.438C156.119 243.935 155.95 244.585 155.95 245.387C155.95 246.189 156.119 246.831 156.456 247.314C156.793 247.793 157.306 248.032 157.994 248.032ZM165.946 249.078C164.925 249.078 164.125 248.734 163.546 248.046C162.977 247.367 162.692 246.48 162.692 245.387C162.692 244.293 162.968 243.402 163.519 242.714C164.075 242.021 164.877 241.675 165.925 241.675C166.901 241.675 167.662 241.996 168.208 242.639C168.751 243.29 169.022 244.131 169.022 245.161V245.735H163.929C163.929 246.451 164.1 247.007 164.442 247.403C164.793 247.823 165.294 248.032 165.946 248.032C166.42 248.032 166.816 247.934 167.135 247.738C167.45 247.542 167.655 247.257 167.75 246.884H168.926C168.831 247.531 168.502 248.057 167.942 248.463C167.372 248.873 166.707 249.078 165.946 249.078ZM163.943 244.758H167.805C167.805 244.152 167.646 243.662 167.327 243.288C167.008 242.914 166.541 242.728 165.925 242.728C165.287 242.728 164.802 242.914 164.469 243.288C164.132 243.666 163.957 244.156 163.943 244.758ZM173.412 249.078C172.551 249.078 171.856 248.855 171.327 248.408C170.78 247.98 170.5 247.374 170.486 246.59H171.662C171.662 247.064 171.822 247.419 172.141 247.656C172.46 247.907 172.884 248.032 173.412 248.032C174.506 248.032 175.053 247.69 175.053 247.007C175.053 246.487 174.688 246.148 173.959 245.988L172.53 245.722C171.938 245.599 171.491 245.366 171.191 245.024C170.872 244.678 170.712 244.243 170.712 243.719C170.712 243.117 170.951 242.627 171.43 242.249C171.917 241.866 172.546 241.675 173.317 241.675C174.119 241.675 174.782 241.884 175.306 242.304C175.821 242.718 176.078 243.279 176.078 243.985H174.93C174.916 243.552 174.761 243.222 174.465 242.994C174.16 242.775 173.777 242.666 173.317 242.666C172.861 242.666 172.505 242.755 172.25 242.933C171.981 243.119 171.847 243.382 171.847 243.719C171.847 244.27 172.262 244.607 173.091 244.73L174.212 244.936C174.914 245.095 175.427 245.33 175.75 245.64C176.078 245.968 176.242 246.424 176.242 247.007C176.242 247.645 175.971 248.151 175.429 248.524C174.891 248.894 174.219 249.078 173.412 249.078Z" fill="black"/>
<path d="M71.4014 295.955V286.152H77.5469V287.273H72.6182V290.568H77.0684V291.683H72.6182V295.955H71.4014ZM79.7087 295.955V288.798H80.7341L80.8298 290.008H80.8845C81.0394 289.607 81.2832 289.288 81.6159 289.051C81.9486 288.827 82.336 288.716 82.778 288.716H83.4206V289.851H82.86C81.543 289.851 80.8845 290.728 80.8845 292.482V295.955H79.7087ZM87.6195 296.078C86.5576 296.078 85.751 295.734 85.1996 295.046C84.6573 294.367 84.3861 293.48 84.3861 292.387C84.3861 291.293 84.6618 290.402 85.2132 289.714C85.7692 289.021 86.5713 288.675 87.6195 288.675C88.6722 288.675 89.4766 289.021 90.0326 289.714C90.584 290.402 90.8597 291.293 90.8597 292.387C90.8597 293.48 90.5886 294.367 90.0463 295.046C89.4948 295.734 88.6859 296.078 87.6195 296.078ZM87.6195 295.032C88.3259 295.032 88.8454 294.793 89.1781 294.314C89.5017 293.831 89.6634 293.189 89.6634 292.387C89.6634 291.585 89.5017 290.935 89.1781 290.438C88.8454 289.965 88.3259 289.728 87.6195 289.728C86.9268 289.728 86.4141 289.965 86.0814 290.438C85.7442 290.935 85.5755 291.585 85.5755 292.387C85.5755 293.189 85.7442 293.831 86.0814 294.314C86.4186 294.793 86.9313 295.032 87.6195 295.032ZM100.719 288.675C101.498 288.675 102.104 288.907 102.537 289.372C102.97 289.855 103.187 290.5 103.187 291.307V295.955H102.011V291.491C102.011 290.315 101.482 289.728 100.425 289.728C99.8689 289.728 99.4314 289.928 99.1123 290.329C98.7933 290.73 98.6338 291.288 98.6338 292.004V295.955H97.458V291.491C97.458 290.315 96.9317 289.728 95.8789 289.728C95.3093 289.728 94.8649 289.928 94.5459 290.329C94.2178 290.739 94.0537 291.298 94.0537 292.004V295.955H92.878V288.798H93.9034L93.9991 289.919H94.0537C94.4867 289.09 95.2022 288.675 96.2002 288.675C97.2302 288.675 97.948 289.09 98.3536 289.919H98.4082C98.8412 289.09 99.6114 288.675 100.719 288.675Z" fill="#65717C"/>
<rect x="71" y="310.955" width="354" height="40" rx="3" fill="white"/>
<rect x="71.35" y="311.305" width="353.3" height="39.3" rx="2.65" stroke="#979797" stroke-opacity="0.24" stroke-width="0.7"/>
<path d="M91.5273 333.955V325.273H88.4922V324.152H95.7998V325.273H92.7578V333.955H91.5273ZM98.8776 334.078C97.8158 334.078 97.0091 333.734 96.4577 333.046C95.9154 332.367 95.6442 331.48 95.6442 330.387C95.6442 329.293 95.9199 328.402 96.4714 327.714C97.0274 327.021 97.8294 326.675 98.8776 326.675C99.9304 326.675 100.735 327.021 101.291 327.714C101.842 328.402 102.118 329.293 102.118 330.387C102.118 331.48 101.847 332.367 101.304 333.046C100.753 333.734 99.944 334.078 98.8776 334.078ZM98.8776 333.032C99.584 333.032 100.104 332.793 100.436 332.314C100.76 331.831 100.922 331.189 100.922 330.387C100.922 329.585 100.76 328.935 100.436 328.438C100.104 327.965 99.584 327.728 98.8776 327.728C98.1849 327.728 97.6722 327.965 97.3395 328.438C97.0023 328.935 96.8337 329.585 96.8337 330.387C96.8337 331.189 97.0023 331.831 97.3395 332.314C97.6768 332.793 98.1895 333.032 98.8776 333.032ZM104.136 333.955V323.592H105.312V333.955H104.136ZM109.695 334.078C108.948 334.078 108.346 333.868 107.891 333.449C107.43 333.035 107.2 332.508 107.2 331.87C107.2 331.214 107.449 330.676 107.945 330.257C108.442 329.838 109.18 329.628 110.16 329.628C110.744 329.628 111.331 329.712 111.924 329.881V329.17C111.924 328.746 111.787 328.391 111.514 328.104C111.231 327.821 110.816 327.68 110.27 327.68C109.768 327.68 109.381 327.803 109.107 328.049C108.839 328.29 108.697 328.593 108.684 328.958H107.556C107.556 328.265 107.811 327.714 108.321 327.304C108.832 326.884 109.481 326.675 110.27 326.675C111.158 326.675 111.849 326.907 112.341 327.372C112.828 327.832 113.072 328.42 113.072 329.136V333.955H112.074L111.992 332.95H111.938C111.491 333.702 110.744 334.078 109.695 334.078ZM109.907 333.101C110.504 333.101 110.99 332.914 111.363 332.54C111.737 332.166 111.924 331.713 111.924 331.18V330.817C111.386 330.649 110.798 330.564 110.16 330.564C108.98 330.564 108.39 330.995 108.39 331.856C108.39 332.23 108.522 332.529 108.786 332.752C109.032 332.984 109.406 333.101 109.907 333.101ZM128.06 328.384V328.521C127.504 329.924 126.886 331.073 126.207 331.966L127.957 333.818V333.955H126.406L125.401 332.861C124.521 333.673 123.551 334.078 122.489 334.078C121.605 334.078 120.875 333.832 120.301 333.34C119.722 332.843 119.433 332.203 119.433 331.419C119.433 330.817 119.602 330.3 119.939 329.867C120.281 329.425 120.789 329.02 121.463 328.65L121.313 328.479C120.638 327.764 120.301 327.042 120.301 326.312C120.301 325.656 120.534 325.114 120.998 324.686C121.454 324.262 122.049 324.043 122.783 324.029H122.81C123.562 324.029 124.168 324.243 124.628 324.672C125.084 325.096 125.312 325.643 125.312 326.312C125.312 327.329 124.64 328.192 123.295 328.903L125.414 331.139C125.966 330.368 126.442 329.45 126.843 328.384H128.06ZM122.769 325.109C122.382 325.123 122.072 325.239 121.839 325.458C121.607 325.677 121.491 325.962 121.491 326.312C121.491 326.809 121.812 327.379 122.454 328.021L122.543 328.104C123.077 327.844 123.482 327.568 123.76 327.276C124.02 327.017 124.15 326.695 124.15 326.312C124.15 325.943 124.034 325.649 123.801 325.431C123.56 325.216 123.225 325.109 122.796 325.109H122.769ZM122.489 332.991C123.245 332.991 123.958 332.677 124.628 332.048L122.208 329.45C121.652 329.746 121.256 330.049 121.019 330.359C120.782 330.651 120.663 331.004 120.663 331.419C120.663 331.897 120.837 332.276 121.183 332.554C121.516 332.845 121.951 332.991 122.489 332.991ZM138.269 334.078C136.879 334.078 135.815 333.627 135.077 332.725C134.32 331.818 133.942 330.599 133.942 329.067C133.942 327.522 134.32 326.297 135.077 325.39C135.833 324.483 136.898 324.029 138.269 324.029C139.418 324.029 140.336 324.332 141.024 324.938C141.703 325.549 142.091 326.381 142.186 327.434H140.928C140.846 326.745 140.584 326.194 140.142 325.779C139.696 325.378 139.071 325.178 138.269 325.178C137.722 325.178 137.246 325.285 136.841 325.499C136.435 325.713 136.114 326.007 135.877 326.381C135.64 326.755 135.471 327.165 135.371 327.611C135.257 328.081 135.2 328.566 135.2 329.067C135.2 329.582 135.257 330.063 135.371 330.51C135.462 330.947 135.631 331.357 135.877 331.74C136.114 332.114 136.435 332.408 136.841 332.622C137.255 332.841 137.732 332.95 138.269 332.95C139.796 332.95 140.687 332.226 140.942 330.776H142.186C142.05 331.806 141.649 332.613 140.983 333.196C140.327 333.784 139.422 334.078 138.269 334.078ZM147.028 334.078C145.966 334.078 145.159 333.734 144.608 333.046C144.066 332.367 143.794 331.48 143.794 330.387C143.794 329.293 144.07 328.402 144.622 327.714C145.178 327.021 145.98 326.675 147.028 326.675C148.081 326.675 148.885 327.021 149.441 327.714C149.992 328.402 150.268 329.293 150.268 330.387C150.268 331.48 149.997 332.367 149.455 333.046C148.903 333.734 148.094 334.078 147.028 334.078ZM147.028 333.032C147.734 333.032 148.254 332.793 148.586 332.314C148.91 331.831 149.072 331.189 149.072 330.387C149.072 329.585 148.91 328.935 148.586 328.438C148.254 327.965 147.734 327.728 147.028 327.728C146.335 327.728 145.822 327.965 145.49 328.438C145.152 328.935 144.984 329.585 144.984 330.387C144.984 331.189 145.152 331.831 145.49 332.314C145.827 332.793 146.34 333.032 147.028 333.032Z" fill="black"/>
<rect x="71" y="384.955" width="93" height="33" rx="5.22807" fill="#5444F2"/>
<path d="M90.1494 406.043C89.277 406.043 88.6064 405.833 88.1377 405.413C87.6559 405 87.4004 404.437 87.3711 403.724H88.5576C88.5869 404.131 88.7415 404.445 89.0215 404.666C89.2884 404.884 89.6644 404.993 90.1494 404.993C91.1781 404.993 91.6924 404.661 91.6924 403.997C91.6924 403.733 91.6045 403.523 91.4287 403.367C91.2497 403.217 90.9762 403.104 90.6084 403.025L89.5879 402.806C88.9499 402.666 88.4567 402.439 88.1084 402.127C87.7699 401.821 87.6006 401.386 87.6006 400.823C87.6006 400.234 87.8301 399.759 88.2891 399.397C88.7513 399.043 89.3747 398.865 90.1592 398.865C90.9307 398.865 91.5605 399.065 92.0488 399.466C92.5273 399.866 92.7715 400.389 92.7812 401.033H91.5898C91.5703 400.695 91.4401 400.424 91.1992 400.223C90.9616 400.024 90.6084 399.925 90.1396 399.925C89.2542 399.925 88.8115 400.224 88.8115 400.823C88.8115 401.253 89.1517 401.544 89.832 401.697L90.7793 401.897C92.1921 402.187 92.8984 402.879 92.8984 403.973C92.8984 404.614 92.6657 405.118 92.2002 405.486C91.7314 405.857 91.0479 406.043 90.1494 406.043ZM96.2004 406.043C95.4354 406.043 94.8381 405.794 94.4084 405.296C93.9755 404.795 93.759 404.155 93.759 403.377C93.759 402.592 93.9689 401.951 94.3889 401.453C94.799 400.955 95.3947 400.706 96.176 400.706C96.9182 400.706 97.4927 400.939 97.8996 401.404C98.3065 401.87 98.51 402.474 98.51 403.216V403.694H94.9406C94.9406 404.121 95.0497 404.458 95.2678 404.705C95.4826 404.959 95.7935 405.086 96.2004 405.086C96.8189 405.086 97.1949 404.852 97.3283 404.383H98.4367C98.3684 404.871 98.1291 405.268 97.7189 405.574C97.3023 405.887 96.7961 406.043 96.2004 406.043ZM94.9504 402.884H97.3381C97.3283 402.526 97.229 402.233 97.0402 402.005C96.8384 401.784 96.5503 401.673 96.176 401.673C95.7886 401.673 95.4891 401.784 95.2775 402.005C95.0692 402.233 94.9602 402.526 94.9504 402.884ZM99.6879 405.955V400.794H100.694L100.787 401.463H100.826C101.145 400.958 101.648 400.706 102.334 400.706C102.911 400.706 103.365 400.872 103.697 401.204C104.029 401.536 104.195 401.997 104.195 402.586V405.955H103.057V402.864C103.057 402.112 102.707 401.736 102.007 401.736C101.643 401.736 101.356 401.855 101.148 402.093C100.933 402.347 100.826 402.684 100.826 403.104V405.955H99.6879ZM107.414 406.043C106.753 406.043 106.234 405.8 105.856 405.315C105.472 404.837 105.275 404.188 105.265 403.367C105.275 402.563 105.469 401.919 105.846 401.434C106.214 400.949 106.737 400.706 107.414 400.706C108.091 400.706 108.584 400.942 108.893 401.414H108.932V398.553H110.075V405.955H109.064L108.932 405.335H108.893C108.584 405.807 108.091 406.043 107.414 406.043ZM107.697 405.037C108.12 405.037 108.439 404.879 108.654 404.563C108.869 404.248 108.976 403.849 108.976 403.367C108.976 402.879 108.872 402.482 108.664 402.176C108.455 401.87 108.133 401.717 107.697 401.717C107.254 401.717 106.934 401.87 106.735 402.176C106.527 402.482 106.422 402.879 106.422 403.367C106.422 403.859 106.527 404.257 106.735 404.563C106.94 404.879 107.261 405.037 107.697 405.037ZM114.584 405.955V398.953H115.766V405.955H114.584ZM117.417 405.955V400.794H118.423L118.516 401.463H118.555C118.874 400.958 119.377 400.706 120.064 400.706C120.64 400.706 121.094 400.872 121.426 401.204C121.758 401.536 121.924 401.997 121.924 402.586V405.955H120.786V402.864C120.786 402.112 120.436 401.736 119.737 401.736C119.372 401.736 119.085 401.855 118.877 402.093C118.662 402.347 118.555 402.684 118.555 403.104V405.955H117.417ZM124.537 405.955L122.677 400.896V400.794H123.844L125.197 404.773H125.236L126.544 400.794H127.706V400.896L125.875 405.955H124.537ZM130.574 406.043C129.78 406.043 129.176 405.797 128.762 405.306C128.342 404.817 128.132 404.174 128.132 403.377C128.132 402.583 128.346 401.938 128.772 401.443C129.195 400.952 129.796 400.706 130.574 400.706C131.345 400.706 131.948 400.952 132.38 401.443C132.8 401.941 133.01 402.586 133.01 403.377C133.01 404.174 132.8 404.817 132.38 405.306C131.957 405.797 131.355 406.043 130.574 406.043ZM130.574 405.037C131.427 405.037 131.853 404.484 131.853 403.377C131.853 402.853 131.746 402.443 131.531 402.146C131.323 401.86 131.004 401.717 130.574 401.717C130.141 401.717 129.82 401.86 129.612 402.146C129.397 402.443 129.29 402.853 129.29 403.377C129.29 403.898 129.4 404.303 129.622 404.593C129.837 404.889 130.154 405.037 130.574 405.037ZM134.755 400.003C134.52 400.003 134.341 399.941 134.218 399.817C134.091 399.69 134.027 399.513 134.027 399.285C134.027 399.064 134.091 398.89 134.218 398.763C134.332 398.639 134.511 398.577 134.755 398.577C134.992 398.577 135.173 398.639 135.297 398.763C135.424 398.89 135.487 399.064 135.487 399.285C135.487 399.503 135.424 399.676 135.297 399.803C135.163 399.936 134.983 400.003 134.755 400.003ZM134.188 405.955V400.794H135.326V405.955H134.188ZM138.857 406.043C138.076 406.043 137.472 405.8 137.046 405.315C136.613 404.834 136.396 404.188 136.396 403.377C136.396 402.56 136.61 401.909 137.036 401.424C137.456 400.945 138.053 400.706 138.828 400.706C139.521 400.706 140.057 400.885 140.435 401.243C140.815 401.614 141.025 402.091 141.064 402.674H139.927C139.897 402.381 139.787 402.148 139.595 401.976C139.403 401.803 139.147 401.717 138.828 401.717C138.408 401.717 138.091 401.863 137.876 402.156C137.661 402.452 137.554 402.859 137.554 403.377C137.554 403.901 137.661 404.311 137.876 404.607C138.091 404.9 138.408 405.047 138.828 405.047C139.144 405.047 139.399 404.959 139.595 404.783C139.793 404.604 139.907 404.371 139.937 404.085H141.074C141.025 404.681 140.815 405.154 140.444 405.506C140.067 405.864 139.538 406.043 138.857 406.043ZM144.347 406.043C143.582 406.043 142.985 405.794 142.555 405.296C142.122 404.795 141.905 404.155 141.905 403.377C141.905 402.592 142.115 401.951 142.535 401.453C142.946 400.955 143.541 400.706 144.322 400.706C145.065 400.706 145.639 400.939 146.046 401.404C146.453 401.87 146.656 402.474 146.656 403.216V403.694H143.087C143.087 404.121 143.196 404.458 143.414 404.705C143.629 404.959 143.94 405.086 144.347 405.086C144.965 405.086 145.341 404.852 145.475 404.383H146.583C146.515 404.871 146.276 405.268 145.865 405.574C145.449 405.887 144.943 406.043 144.347 406.043ZM143.097 402.884H145.485C145.475 402.526 145.376 402.233 145.187 402.005C144.985 401.784 144.697 401.673 144.322 401.673C143.935 401.673 143.636 401.784 143.424 402.005C143.216 402.233 143.107 402.526 143.097 402.884Z" fill="white"/>
<g filter="url(#filter3_d_706_2591)">
<rect x="262" y="38.9551" width="325" height="108.689" rx="12.0364" fill="white"/>
<rect x="262.281" y="39.2361" width="324.438" height="108.126" rx="11.7554" stroke="#E1E1E1" stroke-width="0.562136"/>
</g>
<rect opacity="0.57" x="301.859" y="71.9883" width="80.5174" height="11.688" rx="5.84401" fill="#101F1F" fill-opacity="0.12"/>
<rect opacity="0.57" x="301.859" y="101.857" width="80.5174" height="11.688" rx="5.84401" fill="#101F1F" fill-opacity="0.12"/>
<rect opacity="0.57" x="408.35" y="101.857" width="41.11" height="11.2118" rx="5.60591" fill="#DADCDC"/>
<rect opacity="0.57" x="403" y="72" width="41.11" height="11.2118" rx="5.60591" fill="#DADCDC"/>
<rect opacity="0.57" x="476.18" y="71.9883" width="26.6393" height="11.7213" rx="5.86066" fill="#DADCDC"/>
<rect opacity="0.57" x="526.262" y="71.9883" width="27.7049" height="11.7213" rx="5.86066" fill="#DADCDC"/>
<circle cx="290.77" cy="77.3159" r="3.19672" fill="#27AE60"/>
<circle cx="290.77" cy="108.217" r="3.19672" fill="#27AE60"/>
<defs>
<filter id="filter0_d_706_2591" x="0.260565" y="60.2156" width="476.484" height="411.484" filterUnits="userSpaceOnUse" color-interpolation-filters="sRGB">
<feFlood flood-opacity="0" result="BackgroundImageFix"/>
<feColorMatrix in="SourceAlpha" type="matrix" values="0 0 0 0 0 0 0 0 0 0 0 0 0 0 0 0 0 0 127 0" result="hardAlpha"/>
<feOffset/>
<feGaussianBlur stdDeviation="11.8697"/>
<feComposite in2="hardAlpha" operator="out"/>
<feColorMatrix type="matrix" values="0 0 0 0 0 0 0 0 0 0 0 0 0 0 0 0 0 0 0.08 0"/>
<feBlend mode="normal" in2="BackgroundImageFix" result="effect1_dropShadow_706_2591"/>
<feBlend mode="normal" in="SourceGraphic" in2="effect1_dropShadow_706_2591" result="shape"/>
</filter>
<filter id="filter1_f_706_2591" x="184.403" y="142.358" width="836.195" height="836.195" filterUnits="userSpaceOnUse" color-interpolation-filters="sRGB">
<feFlood flood-opacity="0" result="BackgroundImageFix"/>
<feBlend mode="normal" in="SourceGraphic" in2="BackgroundImageFix" result="shape"/>
<feGaussianBlur stdDeviation="119.799" result="effect1_foregroundBlur_706_2591"/>
</filter>
<filter id="filter2_f_706_2591" x="-512.597" y="-515.642" width="836.195" height="836.195" filterUnits="userSpaceOnUse" color-interpolation-filters="sRGB">
<feFlood flood-opacity="0" result="BackgroundImageFix"/>
<feBlend mode="normal" in="SourceGraphic" in2="BackgroundImageFix" result="shape"/>
<feGaussianBlur stdDeviation="119.799" result="effect1_foregroundBlur_706_2591"/>
</filter>
<filter id="filter3_d_706_2591" x="224.039" y="0.994011" width="400.922" height="184.611" filterUnits="userSpaceOnUse" color-interpolation-filters="sRGB">
<feFlood flood-opacity="0" result="BackgroundImageFix"/>
<feColorMatrix in="SourceAlpha" type="matrix" values="0 0 0 0 0 0 0 0 0 0 0 0 0 0 0 0 0 0 127 0" result="hardAlpha"/>
<feOffset/>
<feGaussianBlur stdDeviation="18.9805"/>
<feComposite in2="hardAlpha" operator="out"/>
<feColorMatrix type="matrix" values="0 0 0 0 0 0 0 0 0 0 0 0 0 0 0 0 0 0 0.08 0"/>
<feBlend mode="normal" in2="BackgroundImageFix" result="effect1_dropShadow_706_2591"/>
<feBlend mode="normal" in="SourceGraphic" in2="effect1_dropShadow_706_2591" result="shape"/>
</filter>
<linearGradient id="paint0_linear_706_2591" x1="424" y1="727.698" x2="813.861" y2="717.453" gradientUnits="userSpaceOnUse">
<stop stop-color="#00B0FF"/>
<stop offset="0.49591" stop-color="#3D5AFE"/>
<stop offset="1" stop-color="#5444F2"/>
</linearGradient>
<linearGradient id="paint1_linear_706_2591" x1="-273" y1="69.6983" x2="116.861" y2="59.4534" gradientUnits="userSpaceOnUse">
<stop stop-color="#00B0FF"/>
<stop offset="0.49591" stop-color="#3D5AFE"/>
<stop offset="1" stop-color="#5444F2"/>
</linearGradient>
</defs>
</svg>
