<svg width="490" height="439" viewBox="0 0 490 439" fill="none" xmlns="http://www.w3.org/2000/svg">
<g filter="url(#filter0_d_729_2598)">
<rect x="24" y="50.8809" width="429.005" height="364.005" rx="19.9848" fill="white"/>
<rect x="24.2638" y="51.1446" width="428.478" height="363.477" rx="19.721" stroke="#E1E1E1" stroke-width="0.527543"/>
</g>
<mask id="mask0_729_2598" style="mask-type:alpha" maskUnits="userSpaceOnUse" x="24" y="50" width="430" height="365">
<rect x="24.2638" y="51.1446" width="428.478" height="363.477" rx="19.721" fill="white" stroke="#E1E1E1" stroke-width="0.527543"/>
</mask>
<g mask="url(#mask0_729_2598)">
<g opacity="0.3" filter="url(#filter1_f_729_2598)">
<circle cx="602.5" cy="527.381" r="178.5" fill="url(#paint0_linear_729_2598)"/>
</g>
<g opacity="0.3" filter="url(#filter2_f_729_2598)">
<circle cx="-94.5" cy="-130.619" r="178.5" fill="url(#paint1_linear_729_2598)"/>
</g>
</g>
<path d="M62.4014 163.881V154.078H66.0107C67.0042 154.078 67.7926 154.363 68.376 154.933C68.9548 155.511 69.2441 156.259 69.2441 157.175C69.2441 158.123 68.9502 158.884 68.3623 159.458C67.7699 160.037 66.986 160.326 66.0107 160.326H63.6182V163.881H62.4014ZM63.6182 159.205H65.8604C66.5303 159.205 67.0566 159.027 67.4395 158.672C67.804 158.321 67.9863 157.822 67.9863 157.175C67.9863 156.541 67.7995 156.051 67.4258 155.705C67.0521 155.359 66.5303 155.186 65.8604 155.186H63.6182V159.205ZM73.0671 164.004C72.3197 164.004 71.7181 163.794 71.2624 163.375C70.8021 162.96 70.572 162.434 70.572 161.796C70.572 161.14 70.8203 160.602 71.3171 160.183C71.8138 159.763 72.5521 159.554 73.5319 159.554C74.1152 159.554 74.7031 159.638 75.2956 159.807V159.096C75.2956 158.672 75.1589 158.316 74.8854 158.029C74.6029 157.747 74.1882 157.605 73.6413 157.605C73.14 157.605 72.7526 157.729 72.4792 157.975C72.2103 158.216 72.069 158.519 72.0554 158.884H70.9274C70.9274 158.191 71.1826 157.64 71.693 157.229C72.2035 156.81 72.8529 156.601 73.6413 156.601C74.53 156.601 75.2204 156.833 75.7126 157.298C76.2002 157.758 76.444 158.346 76.444 159.062V163.881H75.446L75.3639 162.876H75.3093C74.8626 163.628 74.1152 164.004 73.0671 164.004ZM73.279 163.026C73.876 163.026 74.3613 162.84 74.735 162.466C75.1087 162.092 75.2956 161.639 75.2956 161.105V160.743C74.7578 160.575 74.1699 160.49 73.5319 160.49C72.3516 160.49 71.7614 160.921 71.7614 161.782C71.7614 162.156 71.8936 162.454 72.1579 162.678C72.404 162.91 72.7777 163.026 73.279 163.026ZM79.4398 167.087V166.95L80.6566 163.826L80.6429 163.799L77.7718 156.867V156.724H79.0296L81.2035 162.343H81.2582L83.3568 156.724H84.5873V156.867L80.6293 167.087H79.4398ZM94.043 156.601C94.8223 156.601 95.4284 156.833 95.8614 157.298C96.2943 157.781 96.5108 158.426 96.5108 159.232V163.881H95.335V159.417C95.335 158.241 94.8064 157.653 93.7491 157.653C93.1931 157.653 92.7556 157.854 92.4366 158.255C92.1176 158.656 91.958 159.214 91.958 159.93V163.881H90.7823V159.417C90.7823 158.241 90.2559 157.653 89.2032 157.653C88.6335 157.653 88.1892 157.854 87.8702 158.255C87.542 158.665 87.378 159.223 87.378 159.93V163.881H86.2022V156.724H87.2276L87.3233 157.845H87.378C87.8109 157.015 88.5264 156.601 89.5245 156.601C90.5544 156.601 91.2722 157.015 91.6778 157.845H91.7325C92.1654 157.015 92.9356 156.601 94.043 156.601ZM101.653 164.004C100.632 164.004 99.8324 163.66 99.2536 162.972C98.684 162.293 98.3991 161.406 98.3991 160.312C98.3991 159.219 98.6749 158.328 99.2263 157.64C99.7823 156.947 100.584 156.601 101.633 156.601C102.608 156.601 103.369 156.922 103.916 157.564C104.458 158.216 104.729 159.057 104.729 160.087V160.661H99.6364C99.6364 161.377 99.8073 161.933 100.149 162.329C100.5 162.748 101.001 162.958 101.653 162.958C102.127 162.958 102.523 162.86 102.842 162.664C103.157 162.468 103.362 162.183 103.458 161.81H104.634C104.538 162.457 104.21 162.983 103.649 163.389C103.079 163.799 102.414 164.004 101.653 164.004ZM99.6501 159.684H103.512C103.512 159.077 103.353 158.588 103.034 158.214C102.715 157.84 102.248 157.653 101.633 157.653C100.995 157.653 100.509 157.84 100.176 158.214C99.8392 158.592 99.6638 159.082 99.6501 159.684ZM106.754 163.881V156.724H107.78L107.875 157.845H107.93C108.363 157.015 109.101 156.601 110.145 156.601C110.924 156.601 111.539 156.833 111.991 157.298C112.433 157.776 112.654 158.421 112.654 159.232V163.881H111.471V159.417C111.471 158.241 110.922 157.653 109.824 157.653C109.218 157.653 108.755 157.854 108.436 158.255C108.099 158.66 107.93 159.219 107.93 159.93V163.881H106.754ZM117.475 164.004C116.8 164.004 116.315 163.842 116.019 163.519C115.732 163.204 115.588 162.728 115.588 162.09V157.722H114.399V156.724H115.615V155.199L116.627 154.81H116.764V156.724H118.514V157.722H116.764V161.994C116.764 162.336 116.839 162.582 116.989 162.732C117.149 162.892 117.386 162.972 117.7 162.972C117.96 162.972 118.195 162.944 118.404 162.89H118.541V163.895C118.227 163.967 117.871 164.004 117.475 164.004ZM124.909 163.881V154.078H126.125V162.76H130.856V163.881H124.909ZM133.12 155.356C132.582 155.356 132.314 155.081 132.314 154.529C132.314 153.987 132.582 153.716 133.12 153.716C133.38 153.716 133.581 153.786 133.722 153.928C133.863 154.092 133.934 154.292 133.934 154.529C133.934 154.766 133.863 154.967 133.722 155.131C133.59 155.281 133.389 155.356 133.12 155.356ZM132.532 163.881V156.724H133.708V163.881H132.532ZM136.157 163.881V156.724H137.182L137.278 157.845H137.333C137.766 157.015 138.504 156.601 139.548 156.601C140.327 156.601 140.942 156.833 141.393 157.298C141.835 157.776 142.056 158.421 142.056 159.232V163.881H140.874V159.417C140.874 158.241 140.325 157.653 139.226 157.653C138.62 157.653 138.158 157.854 137.839 158.255C137.501 158.66 137.333 159.219 137.333 159.93V163.881H136.157ZM144.499 153.518H145.674V163.881H144.499V153.518ZM147.192 159.861L150.172 163.744V163.881H148.812L145.674 159.861L148.703 156.724H150.083V156.867L147.192 159.861Z" fill="#65717C"/>
<rect x="62.35" y="179.231" width="353.3" height="39.3" rx="2.65" fill="#5444F2" fill-opacity="0.15" stroke="#5444F2" stroke-width="0.7"/>
<path d="M78.0781 202.881V193.998H79.0859V197.707H79.1387C79.5098 196.996 80.1328 196.641 81.0078 196.641C81.6836 196.641 82.2148 196.84 82.6016 197.238C82.9883 197.637 83.1816 198.189 83.1816 198.896V202.881H82.1738V199.055C82.1738 198.047 81.6934 197.543 80.7324 197.543C80.2363 197.543 79.8359 197.719 79.5312 198.07C79.2344 198.414 79.0859 198.898 79.0859 199.523V202.881H78.0781ZM87.3139 202.986C86.7358 202.986 86.3198 202.848 86.0659 202.57C85.8198 202.301 85.6967 201.893 85.6967 201.346V197.602H84.6772V196.746H85.7202V195.439L86.5873 195.105H86.7045V196.746H88.2045V197.602H86.7045V201.264C86.7045 201.557 86.769 201.768 86.8979 201.896C87.0346 202.033 87.2377 202.102 87.5073 202.102C87.7299 202.102 87.9311 202.078 88.1108 202.031H88.228V202.893C87.9584 202.955 87.6537 202.986 87.3139 202.986ZM91.9442 202.986C91.3661 202.986 90.9501 202.848 90.6962 202.57C90.4501 202.301 90.327 201.893 90.327 201.346V197.602H89.3075V196.746H90.3505V195.439L91.2177 195.105H91.3348V196.746H92.8348V197.602H91.3348V201.264C91.3348 201.557 91.3993 201.768 91.5282 201.896C91.6649 202.033 91.868 202.102 92.1376 202.102C92.3602 202.102 92.5614 202.078 92.7411 202.031H92.8583V202.893C92.5887 202.955 92.2841 202.986 91.9442 202.986ZM94.5355 205.629V196.746H95.4144L95.5433 197.602H95.596C95.9827 196.961 96.598 196.641 97.4417 196.641C98.2503 196.641 98.887 196.92 99.3519 197.479C99.8011 198.029 100.032 198.811 100.043 199.822C100.032 200.768 99.805 201.531 99.3636 202.113C98.9222 202.695 98.2816 202.986 97.4417 202.986C96.598 202.986 95.9827 202.668 95.596 202.031H95.5433V205.629H94.5355ZM97.2718 202.09C97.8734 202.09 98.3187 201.877 98.6077 201.451C98.8851 201.025 99.0238 200.482 99.0238 199.822C99.0238 199.15 98.8851 198.602 98.6077 198.176C98.3226 197.754 97.8773 197.543 97.2718 197.543C96.6976 197.543 96.262 197.758 95.9652 198.188C95.6683 198.617 95.5198 199.162 95.5198 199.822C95.5198 200.482 95.6683 201.021 95.9652 201.439C96.262 201.873 96.6976 202.09 97.2718 202.09ZM103.806 202.986C103.068 202.986 102.472 202.795 102.019 202.412C101.551 202.045 101.31 201.525 101.299 200.854H102.306C102.306 201.26 102.443 201.564 102.717 201.768C102.99 201.982 103.353 202.09 103.806 202.09C104.744 202.09 105.213 201.797 105.213 201.211C105.213 200.766 104.9 200.475 104.275 200.338L103.051 200.109C102.543 200.004 102.16 199.805 101.902 199.512C101.629 199.215 101.492 198.842 101.492 198.393C101.492 197.877 101.697 197.457 102.107 197.133C102.525 196.805 103.064 196.641 103.724 196.641C104.412 196.641 104.98 196.82 105.429 197.18C105.871 197.535 106.092 198.016 106.092 198.621H105.107C105.095 198.25 104.963 197.967 104.709 197.771C104.447 197.584 104.119 197.49 103.724 197.49C103.334 197.49 103.029 197.566 102.81 197.719C102.58 197.879 102.465 198.104 102.465 198.393C102.465 198.865 102.82 199.154 103.531 199.26L104.492 199.436C105.094 199.572 105.533 199.773 105.81 200.039C106.092 200.32 106.232 200.711 106.232 201.211C106.232 201.758 106 202.191 105.535 202.512C105.074 202.828 104.498 202.986 103.806 202.986ZM108.32 198.668C108.085 198.668 107.909 198.6 107.792 198.463C107.671 198.322 107.611 198.146 107.611 197.936C107.611 197.713 107.675 197.537 107.804 197.408C107.917 197.279 108.089 197.215 108.32 197.215C108.542 197.215 108.718 197.279 108.847 197.408C108.968 197.549 109.029 197.725 109.029 197.936C109.029 198.146 108.968 198.322 108.847 198.463C108.71 198.6 108.534 198.668 108.32 198.668ZM108.32 202.986C108.085 202.986 107.909 202.92 107.792 202.787C107.671 202.646 107.611 202.471 107.611 202.26C107.611 202.033 107.675 201.855 107.804 201.727C107.913 201.602 108.085 201.539 108.32 201.539C108.546 201.539 108.722 201.602 108.847 201.727C108.968 201.867 109.029 202.045 109.029 202.26C109.029 202.471 108.968 202.646 108.847 202.787C108.714 202.92 108.538 202.986 108.32 202.986ZM109.991 204.475V204.357L113.36 194.039H114.286V194.156L110.899 204.475H109.991ZM113.402 204.475V204.357L116.772 194.039H117.697V194.156L114.311 204.475H113.402ZM119.011 205.629V196.746H119.89L120.019 197.602H120.072C120.459 196.961 121.074 196.641 121.917 196.641C122.726 196.641 123.363 196.92 123.828 197.479C124.277 198.029 124.507 198.811 124.519 199.822C124.507 200.768 124.281 201.531 123.839 202.113C123.398 202.695 122.757 202.986 121.917 202.986C121.074 202.986 120.459 202.668 120.072 202.031H120.019V205.629H119.011ZM121.748 202.09C122.349 202.09 122.794 201.877 123.084 201.451C123.361 201.025 123.5 200.482 123.5 199.822C123.5 199.15 123.361 198.602 123.084 198.176C122.798 197.754 122.353 197.543 121.748 197.543C121.173 197.543 120.738 197.758 120.441 198.188C120.144 198.617 119.996 199.162 119.996 199.822C119.996 200.482 120.144 201.021 120.441 201.439C120.738 201.873 121.173 202.09 121.748 202.09ZM127.913 202.986C127.272 202.986 126.757 202.807 126.366 202.447C125.972 202.092 125.774 201.641 125.774 201.094C125.774 200.531 125.987 200.07 126.413 199.711C126.839 199.352 127.472 199.172 128.311 199.172C128.811 199.172 129.315 199.244 129.823 199.389V198.779C129.823 198.416 129.706 198.111 129.472 197.865C129.229 197.623 128.874 197.502 128.405 197.502C127.976 197.502 127.644 197.607 127.409 197.818C127.179 198.025 127.058 198.285 127.046 198.598H126.079C126.079 198.004 126.298 197.531 126.735 197.18C127.173 196.82 127.729 196.641 128.405 196.641C129.167 196.641 129.759 196.84 130.181 197.238C130.599 197.633 130.808 198.137 130.808 198.75V202.881H129.952L129.882 202.02H129.835C129.452 202.664 128.811 202.986 127.913 202.986ZM128.095 202.148C128.606 202.148 129.022 201.988 129.343 201.668C129.663 201.348 129.823 200.959 129.823 200.502V200.191C129.362 200.047 128.858 199.975 128.311 199.975C127.3 199.975 126.794 200.344 126.794 201.082C126.794 201.402 126.907 201.658 127.134 201.85C127.345 202.049 127.665 202.148 128.095 202.148ZM133.375 205.629V205.512L134.418 202.834L134.407 202.811L131.946 196.869V196.746H133.024L134.887 201.562H134.934L136.733 196.746H137.787V196.869L134.395 205.629H133.375ZM138.445 202.986C138.211 202.986 138.035 202.92 137.918 202.787C137.797 202.646 137.736 202.471 137.736 202.26C137.736 202.033 137.801 201.855 137.93 201.727C138.039 201.602 138.211 201.539 138.445 201.539C138.672 201.539 138.847 201.602 138.972 201.727C139.094 201.867 139.154 202.045 139.154 202.26C139.154 202.471 139.094 202.646 138.972 202.787C138.84 202.92 138.664 202.986 138.445 202.986ZM143.919 202.986C143.075 202.986 142.46 202.668 142.074 202.031H142.021L141.892 202.881H141.013V193.998H142.021V197.602H142.074C142.46 196.961 143.075 196.641 143.919 196.641C144.755 196.641 145.396 196.934 145.841 197.52C146.283 198.102 146.509 198.865 146.521 199.811C146.509 200.807 146.279 201.582 145.829 202.137C145.357 202.703 144.72 202.986 143.919 202.986ZM143.749 202.09C144.351 202.09 144.796 201.877 145.085 201.451C145.363 201.025 145.501 200.479 145.501 199.811C145.501 199.146 145.363 198.602 145.085 198.176C144.8 197.754 144.355 197.543 143.749 197.543C143.175 197.543 142.74 197.754 142.443 198.176C142.146 198.605 141.997 199.15 141.997 199.811C141.997 200.467 142.146 201.01 142.443 201.439C142.74 201.873 143.175 202.09 143.749 202.09ZM149.915 202.986C149.274 202.986 148.759 202.807 148.368 202.447C147.973 202.092 147.776 201.641 147.776 201.094C147.776 200.531 147.989 200.07 148.415 199.711C148.841 199.352 149.473 199.172 150.313 199.172C150.813 199.172 151.317 199.244 151.825 199.389V198.779C151.825 198.416 151.708 198.111 151.473 197.865C151.231 197.623 150.876 197.502 150.407 197.502C149.977 197.502 149.645 197.607 149.411 197.818C149.18 198.025 149.059 198.285 149.048 198.598H148.081C148.081 198.004 148.3 197.531 148.737 197.18C149.175 196.82 149.731 196.641 150.407 196.641C151.169 196.641 151.76 196.84 152.182 197.238C152.6 197.633 152.809 198.137 152.809 198.75V202.881H151.954L151.884 202.02H151.837C151.454 202.664 150.813 202.986 149.915 202.986ZM150.096 202.148C150.608 202.148 151.024 201.988 151.344 201.668C151.665 201.348 151.825 200.959 151.825 200.502V200.191C151.364 200.047 150.86 199.975 150.313 199.975C149.301 199.975 148.796 200.344 148.796 201.082C148.796 201.402 148.909 201.658 149.135 201.85C149.346 202.049 149.667 202.148 150.096 202.148ZM154.902 202.881V196.746H155.781L155.863 197.707H155.91C156.281 196.996 156.914 196.641 157.809 196.641C158.477 196.641 159.004 196.84 159.391 197.238C159.77 197.648 159.959 198.201 159.959 198.896V202.881H158.945V199.055C158.945 198.047 158.475 197.543 157.533 197.543C157.014 197.543 156.617 197.715 156.344 198.059C156.055 198.406 155.91 198.885 155.91 199.494V202.881H154.902ZM162.556 195.574C162.095 195.574 161.865 195.338 161.865 194.865C161.865 194.4 162.095 194.168 162.556 194.168C162.779 194.168 162.951 194.229 163.072 194.35C163.193 194.49 163.254 194.662 163.254 194.865C163.254 195.068 163.193 195.24 163.072 195.381C162.959 195.51 162.787 195.574 162.556 195.574ZM162.052 202.881V196.746H163.06V202.881H162.052ZM165.511 202.986C165.276 202.986 165.101 202.92 164.983 202.787C164.862 202.646 164.802 202.471 164.802 202.26C164.802 202.033 164.866 201.855 164.995 201.727C165.105 201.602 165.276 201.539 165.511 201.539C165.737 201.539 165.913 201.602 166.038 201.727C166.159 201.867 166.22 202.045 166.22 202.26C166.22 202.471 166.159 202.646 166.038 202.787C165.905 202.92 165.73 202.986 165.511 202.986ZM169.737 202.986C169.096 202.986 168.581 202.807 168.19 202.447C167.795 202.092 167.598 201.641 167.598 201.094C167.598 200.531 167.811 200.07 168.237 199.711C168.663 199.352 169.295 199.172 170.135 199.172C170.635 199.172 171.139 199.244 171.647 199.389V198.779C171.647 198.416 171.53 198.111 171.295 197.865C171.053 197.623 170.698 197.502 170.229 197.502C169.799 197.502 169.467 197.607 169.233 197.818C169.002 198.025 168.881 198.285 168.87 198.598H167.903C167.903 198.004 168.122 197.531 168.559 197.18C168.997 196.82 169.553 196.641 170.229 196.641C170.991 196.641 171.582 196.84 172.004 197.238C172.422 197.633 172.631 198.137 172.631 198.75V202.881H171.776L171.706 202.02H171.659C171.276 202.664 170.635 202.986 169.737 202.986ZM169.918 202.148C170.43 202.148 170.846 201.988 171.166 201.668C171.487 201.348 171.647 200.959 171.647 200.502V200.191C171.186 200.047 170.682 199.975 170.135 199.975C169.124 199.975 168.618 200.344 168.618 201.082C168.618 201.402 168.731 201.658 168.957 201.85C169.168 202.049 169.489 202.148 169.918 202.148ZM175.111 202.881V197.59H174.016V196.746H175.111V195.68C175.111 195.148 175.275 194.713 175.603 194.373C175.932 194.045 176.363 193.881 176.898 193.881C177.176 193.881 177.432 193.908 177.666 193.963V194.807C177.416 194.764 177.217 194.742 177.068 194.742C176.764 194.742 176.531 194.822 176.371 194.982C176.203 195.15 176.119 195.383 176.119 195.68V196.746H177.607V197.59H176.119V202.881H175.111ZM179.226 202.881V196.746H180.105L180.187 197.783H180.234C180.367 197.439 180.576 197.166 180.861 196.963C181.146 196.771 181.478 196.676 181.857 196.676H182.408V197.648H181.927C180.798 197.648 180.234 198.4 180.234 199.904V202.881H179.226ZM184.466 195.574C184.005 195.574 183.774 195.338 183.774 194.865C183.774 194.4 184.005 194.168 184.466 194.168C184.688 194.168 184.86 194.229 184.981 194.35C185.102 194.49 185.163 194.662 185.163 194.865C185.163 195.068 185.102 195.24 184.981 195.381C184.868 195.51 184.696 195.574 184.466 195.574ZM183.962 202.881V196.746H184.97V202.881H183.962ZM189.377 202.986C188.471 202.986 187.781 202.703 187.309 202.137C186.828 201.574 186.588 200.803 186.588 199.822C186.588 198.842 186.828 198.064 187.309 197.49C187.781 196.924 188.465 196.641 189.36 196.641C190.153 196.641 190.758 196.844 191.176 197.25C191.602 197.664 191.838 198.197 191.885 198.85H190.877C190.842 198.436 190.694 198.115 190.432 197.889C190.155 197.658 189.797 197.543 189.36 197.543C188.75 197.543 188.311 197.75 188.041 198.164C187.752 198.59 187.608 199.143 187.608 199.822C187.608 200.498 187.752 201.049 188.041 201.475C188.315 201.893 188.754 202.102 189.36 202.102C189.824 202.102 190.186 201.99 190.444 201.768C190.713 201.533 190.865 201.217 190.901 200.818H191.908C191.85 201.479 191.606 202.006 191.176 202.4C190.762 202.791 190.162 202.986 189.377 202.986ZM195.302 202.986C194.662 202.986 194.146 202.807 193.756 202.447C193.361 202.092 193.164 201.641 193.164 201.094C193.164 200.531 193.377 200.07 193.802 199.711C194.228 199.352 194.861 199.172 195.701 199.172C196.201 199.172 196.705 199.244 197.213 199.389V198.779C197.213 198.416 197.095 198.111 196.861 197.865C196.619 197.623 196.263 197.502 195.795 197.502C195.365 197.502 195.033 197.607 194.799 197.818C194.568 198.025 194.447 198.285 194.435 198.598H193.468C193.468 198.004 193.687 197.531 194.125 197.18C194.562 196.82 195.119 196.641 195.795 196.641C196.556 196.641 197.148 196.84 197.57 197.238C197.988 197.633 198.197 198.137 198.197 198.75V202.881H197.341L197.271 202.02H197.224C196.841 202.664 196.201 202.986 195.302 202.986ZM195.484 202.148C195.996 202.148 196.412 201.988 196.732 201.668C197.052 201.348 197.213 200.959 197.213 200.502V200.191C196.752 200.047 196.248 199.975 195.701 199.975C194.689 199.975 194.183 200.344 194.183 201.082C194.183 201.402 194.297 201.658 194.523 201.85C194.734 202.049 195.054 202.148 195.484 202.148ZM199.394 204.475V204.357L202.763 194.039H203.689V194.156L200.302 204.475H199.394ZM205.003 202.881V193.998H206.01V202.881H205.003ZM208.613 195.574C208.152 195.574 207.922 195.338 207.922 194.865C207.922 194.4 208.152 194.168 208.613 194.168C208.836 194.168 209.008 194.229 209.129 194.35C209.25 194.49 209.311 194.662 209.311 194.865C209.311 195.068 209.25 195.24 209.129 195.381C209.016 195.51 208.844 195.574 208.613 195.574ZM208.109 202.881V196.746H209.117V202.881H208.109ZM211.216 202.881V196.746H212.095L212.177 197.707H212.224C212.595 196.996 213.228 196.641 214.122 196.641C214.79 196.641 215.318 196.84 215.705 197.238C216.083 197.648 216.273 198.201 216.273 198.896V202.881H215.259V199.055C215.259 198.047 214.789 197.543 213.847 197.543C213.328 197.543 212.931 197.715 212.658 198.059C212.369 198.406 212.224 198.885 212.224 199.494V202.881H211.216ZM218.366 193.998H219.374V202.881H218.366V193.998ZM220.675 199.436L223.229 202.764V202.881H222.063L219.374 199.436L221.97 196.746H223.153V196.869L220.675 199.436ZM226.178 200.215V200.027C226.178 199.547 226.262 199.182 226.43 198.932C226.59 198.678 226.866 198.398 227.256 198.094L227.637 197.795C228.043 197.475 228.252 197.062 228.264 196.559C228.264 196.172 228.139 195.859 227.889 195.621C227.639 195.383 227.28 195.264 226.811 195.264C226.291 195.264 225.909 195.398 225.662 195.668C225.405 195.949 225.276 196.322 225.276 196.787H224.244C224.244 196.107 224.469 195.531 224.918 195.059C225.36 194.594 225.991 194.361 226.811 194.361C227.565 194.361 228.172 194.557 228.633 194.947C229.09 195.346 229.319 195.875 229.319 196.535C229.319 197.293 229.016 197.904 228.41 198.369L227.907 198.768C227.606 198.998 227.405 199.189 227.303 199.342C227.19 199.514 227.133 199.742 227.133 200.027V200.215H226.178ZM226.659 202.986C226.42 202.986 226.242 202.92 226.125 202.787C226.008 202.65 225.95 202.475 225.95 202.26C225.95 202.029 226.012 201.852 226.137 201.727C226.246 201.602 226.42 201.539 226.659 201.539C226.885 201.539 227.061 201.602 227.186 201.727C227.303 201.859 227.362 202.037 227.362 202.26C227.362 202.479 227.303 202.654 227.186 202.787C227.053 202.92 226.877 202.986 226.659 202.986ZM234.084 202.986C233.24 202.986 232.625 202.668 232.238 202.031H232.185L232.056 202.881H231.178V193.998H232.185V197.602H232.238C232.625 196.961 233.24 196.641 234.084 196.641C234.92 196.641 235.56 196.934 236.006 197.52C236.447 198.102 236.674 198.865 236.685 199.811C236.674 200.807 236.443 201.582 235.994 202.137C235.521 202.703 234.885 202.986 234.084 202.986ZM233.914 202.09C234.515 202.09 234.961 201.877 235.25 201.451C235.527 201.025 235.666 200.479 235.666 199.811C235.666 199.146 235.527 198.602 235.25 198.176C234.965 197.754 234.519 197.543 233.914 197.543C233.34 197.543 232.904 197.754 232.607 198.176C232.31 198.605 232.162 199.15 232.162 199.811C232.162 200.467 232.31 201.01 232.607 201.439C232.904 201.873 233.34 202.09 233.914 202.09ZM242.312 196.746H243.32V200.648C243.32 201.352 243.087 201.912 242.622 202.33C242.157 202.76 241.554 202.975 240.812 202.975C240.07 202.975 239.466 202.76 239.001 202.33C238.536 201.912 238.304 201.352 238.304 200.648V196.746H239.312V200.479C239.312 201.545 239.812 202.078 240.812 202.078C241.812 202.078 242.312 201.545 242.312 200.479V196.746ZM247.446 202.986C246.708 202.986 246.112 202.795 245.659 202.412C245.19 202.045 244.95 201.525 244.938 200.854H245.946C245.946 201.26 246.083 201.564 246.356 201.768C246.63 201.982 246.993 202.09 247.446 202.09C248.383 202.09 248.852 201.797 248.852 201.211C248.852 200.766 248.54 200.475 247.915 200.338L246.69 200.109C246.182 200.004 245.799 199.805 245.542 199.512C245.268 199.215 245.131 198.842 245.131 198.393C245.131 197.877 245.337 197.457 245.747 197.133C246.165 196.805 246.704 196.641 247.364 196.641C248.051 196.641 248.62 196.82 249.069 197.18C249.51 197.535 249.731 198.016 249.731 198.621H248.747C248.735 198.25 248.602 197.967 248.348 197.771C248.087 197.584 247.758 197.49 247.364 197.49C246.973 197.49 246.669 197.566 246.45 197.719C246.219 197.879 246.104 198.104 246.104 198.393C246.104 198.865 246.46 199.154 247.171 199.26L248.131 199.436C248.733 199.572 249.173 199.773 249.45 200.039C249.731 200.32 249.872 200.711 249.872 201.211C249.872 201.758 249.639 202.191 249.174 202.512C248.714 202.828 248.137 202.986 247.446 202.986ZM252.111 195.574C251.65 195.574 251.42 195.338 251.42 194.865C251.42 194.4 251.65 194.168 252.111 194.168C252.334 194.168 252.506 194.229 252.627 194.35C252.748 194.49 252.809 194.662 252.809 194.865C252.809 195.068 252.748 195.24 252.627 195.381C252.514 195.51 252.342 195.574 252.111 195.574ZM251.607 202.881V196.746H252.615V202.881H251.607ZM254.714 202.881V196.746H255.593L255.675 197.707H255.722C256.093 196.996 256.726 196.641 257.621 196.641C258.289 196.641 258.816 196.84 259.203 197.238C259.582 197.648 259.771 198.201 259.771 198.896V202.881H258.757V199.055C258.757 198.047 258.287 197.543 257.345 197.543C256.826 197.543 256.429 197.715 256.156 198.059C255.867 198.406 255.722 198.885 255.722 199.494V202.881H254.714ZM264.173 202.986C263.298 202.986 262.612 202.691 262.116 202.102C261.628 201.52 261.384 200.76 261.384 199.822C261.384 198.885 261.62 198.121 262.093 197.531C262.569 196.938 263.257 196.641 264.155 196.641C264.991 196.641 265.644 196.916 266.112 197.467C266.577 198.025 266.81 198.746 266.81 199.629V200.121H262.444C262.444 200.734 262.591 201.211 262.884 201.551C263.185 201.91 263.614 202.09 264.173 202.09C264.579 202.09 264.919 202.006 265.192 201.838C265.462 201.67 265.638 201.426 265.72 201.105H266.727C266.645 201.66 266.364 202.111 265.884 202.459C265.395 202.811 264.825 202.986 264.173 202.986ZM262.456 199.283H265.767C265.767 198.764 265.63 198.344 265.356 198.023C265.083 197.703 264.683 197.543 264.155 197.543C263.608 197.543 263.192 197.703 262.907 198.023C262.618 198.348 262.468 198.768 262.456 199.283ZM270.573 202.986C269.834 202.986 269.239 202.795 268.786 202.412C268.317 202.045 268.077 201.525 268.065 200.854H269.073C269.073 201.26 269.209 201.564 269.483 201.768C269.756 201.982 270.12 202.09 270.573 202.09C271.51 202.09 271.979 201.797 271.979 201.211C271.979 200.766 271.666 200.475 271.041 200.338L269.817 200.109C269.309 200.004 268.926 199.805 268.668 199.512C268.395 199.215 268.258 198.842 268.258 198.393C268.258 197.877 268.463 197.457 268.873 197.133C269.291 196.805 269.83 196.641 270.491 196.641C271.178 196.641 271.746 196.82 272.196 197.18C272.637 197.535 272.858 198.016 272.858 198.621H271.873C271.862 198.25 271.729 197.967 271.475 197.771C271.213 197.584 270.885 197.49 270.491 197.49C270.1 197.49 269.795 197.566 269.577 197.719C269.346 197.879 269.231 198.104 269.231 198.393C269.231 198.865 269.586 199.154 270.297 199.26L271.258 199.436C271.86 199.572 272.299 199.773 272.577 200.039C272.858 200.32 272.998 200.711 272.998 201.211C272.998 201.758 272.766 202.191 272.301 202.512C271.84 202.828 271.264 202.986 270.573 202.986ZM276.762 202.986C276.023 202.986 275.428 202.795 274.974 202.412C274.506 202.045 274.265 201.525 274.254 200.854H275.262C275.262 201.26 275.398 201.564 275.672 201.768C275.945 201.982 276.308 202.09 276.762 202.09C277.699 202.09 278.168 201.797 278.168 201.211C278.168 200.766 277.855 200.475 277.23 200.338L276.006 200.109C275.498 200.004 275.115 199.805 274.857 199.512C274.584 199.215 274.447 198.842 274.447 198.393C274.447 197.877 274.652 197.457 275.062 197.133C275.48 196.805 276.019 196.641 276.68 196.641C277.367 196.641 277.935 196.82 278.385 197.18C278.826 197.535 279.047 198.016 279.047 198.621H278.062C278.051 198.25 277.918 197.967 277.664 197.771C277.402 197.584 277.074 197.49 276.68 197.49C276.289 197.49 275.984 197.566 275.765 197.719C275.535 197.879 275.42 198.104 275.42 198.393C275.42 198.865 275.775 199.154 276.486 199.26L277.447 199.436C278.049 199.572 278.488 199.773 278.765 200.039C279.047 200.32 279.187 200.711 279.187 201.211C279.187 201.758 278.955 202.191 278.49 202.512C278.029 202.828 277.453 202.986 276.762 202.986ZM280.806 199.834V198.896H284.48V199.834H280.806ZM287.077 195.574C286.616 195.574 286.385 195.338 286.385 194.865C286.385 194.4 286.616 194.168 287.077 194.168C287.3 194.168 287.471 194.229 287.592 194.35C287.714 194.49 287.774 194.662 287.774 194.865C287.774 195.068 287.714 195.24 287.592 195.381C287.479 195.51 287.307 195.574 287.077 195.574ZM286.573 202.881V196.746H287.581V202.881H286.573ZM291.707 202.986C290.969 202.986 290.373 202.795 289.92 202.412C289.451 202.045 289.211 201.525 289.199 200.854H290.207C290.207 201.26 290.344 201.564 290.617 201.768C290.891 201.982 291.254 202.09 291.707 202.09C292.645 202.09 293.113 201.797 293.113 201.211C293.113 200.766 292.801 200.475 292.176 200.338L290.951 200.109C290.444 200.004 290.061 199.805 289.803 199.512C289.529 199.215 289.393 198.842 289.393 198.393C289.393 197.877 289.598 197.457 290.008 197.133C290.426 196.805 290.965 196.641 291.625 196.641C292.313 196.641 292.881 196.82 293.33 197.18C293.772 197.535 293.992 198.016 293.992 198.621H293.008C292.996 198.25 292.863 197.967 292.61 197.771C292.348 197.584 292.02 197.49 291.625 197.49C291.235 197.49 290.93 197.566 290.711 197.719C290.481 197.879 290.365 198.104 290.365 198.393C290.365 198.865 290.721 199.154 291.432 199.26L292.393 199.436C292.994 199.572 293.434 199.773 293.711 200.039C293.992 200.32 294.133 200.711 294.133 201.211C294.133 201.758 293.901 202.191 293.436 202.512C292.975 202.828 292.399 202.986 291.707 202.986ZM295.752 199.834V198.896H299.425V199.834H295.752ZM304.425 202.986C303.581 202.986 302.966 202.668 302.579 202.031H302.526L302.398 202.881H301.519V193.998H302.526V197.602H302.579C302.966 196.961 303.581 196.641 304.425 196.641C305.261 196.641 305.901 196.934 306.347 197.52C306.788 198.102 307.015 198.865 307.026 199.811C307.015 200.807 306.784 201.582 306.335 202.137C305.862 202.703 305.226 202.986 304.425 202.986ZM304.255 202.09C304.856 202.09 305.302 201.877 305.591 201.451C305.868 201.025 306.007 200.479 306.007 199.811C306.007 199.146 305.868 198.602 305.591 198.176C305.306 197.754 304.86 197.543 304.255 197.543C303.681 197.543 303.245 197.754 302.948 198.176C302.651 198.605 302.503 199.15 302.503 199.811C302.503 200.467 302.651 201.01 302.948 201.439C303.245 201.873 303.681 202.09 304.255 202.09ZM311.053 202.986C310.143 202.986 309.452 202.691 308.979 202.102C308.514 201.52 308.282 200.76 308.282 199.822C308.282 198.885 308.518 198.121 308.991 197.531C309.467 196.938 310.155 196.641 311.053 196.641C311.956 196.641 312.645 196.938 313.122 197.531C313.594 198.121 313.831 198.885 313.831 199.822C313.831 200.76 313.598 201.52 313.133 202.102C312.661 202.691 311.967 202.986 311.053 202.986ZM311.053 202.09C311.659 202.09 312.104 201.885 312.389 201.475C312.666 201.061 312.805 200.51 312.805 199.822C312.805 199.135 312.666 198.578 312.389 198.152C312.104 197.746 311.659 197.543 311.053 197.543C310.459 197.543 310.02 197.746 309.735 198.152C309.446 198.578 309.301 199.135 309.301 199.822C309.301 200.51 309.446 201.061 309.735 201.475C310.024 201.885 310.463 202.09 311.053 202.09ZM317.851 202.986C316.941 202.986 316.25 202.691 315.777 202.102C315.312 201.52 315.08 200.76 315.08 199.822C315.08 198.885 315.316 198.121 315.789 197.531C316.266 196.938 316.953 196.641 317.851 196.641C318.754 196.641 319.443 196.938 319.92 197.531C320.393 198.121 320.629 198.885 320.629 199.822C320.629 200.76 320.396 201.52 319.932 202.102C319.459 202.691 318.766 202.986 317.851 202.986ZM317.851 202.09C318.457 202.09 318.902 201.885 319.187 201.475C319.465 201.061 319.603 200.51 319.603 199.822C319.603 199.135 319.465 198.578 319.187 198.152C318.902 197.746 318.457 197.543 317.851 197.543C317.258 197.543 316.818 197.746 316.533 198.152C316.244 198.578 316.1 199.135 316.1 199.822C316.1 200.51 316.244 201.061 316.533 201.475C316.822 201.885 317.262 202.09 317.851 202.09ZM329.079 196.641C329.747 196.641 330.267 196.84 330.638 197.238C331.009 197.652 331.195 198.205 331.195 198.896V202.881H330.187V199.055C330.187 198.047 329.734 197.543 328.827 197.543C328.351 197.543 327.976 197.715 327.702 198.059C327.429 198.402 327.292 198.881 327.292 199.494V202.881H326.285V199.055C326.285 198.047 325.833 197.543 324.931 197.543C324.443 197.543 324.062 197.715 323.788 198.059C323.507 198.41 323.367 198.889 323.367 199.494V202.881H322.359V196.746H323.238L323.32 197.707H323.367C323.738 196.996 324.351 196.641 325.206 196.641C326.089 196.641 326.704 196.996 327.052 197.707H327.099C327.47 196.996 328.13 196.641 329.079 196.641ZM333.798 195.574C333.337 195.574 333.106 195.338 333.106 194.865C333.106 194.4 333.337 194.168 333.798 194.168C334.02 194.168 334.192 194.229 334.313 194.35C334.434 194.49 334.495 194.662 334.495 194.865C334.495 195.068 334.434 195.24 334.313 195.381C334.2 195.51 334.028 195.574 333.798 195.574ZM333.294 202.881V196.746H334.302V202.881H333.294ZM336.401 202.881V196.746H337.28L337.362 197.707H337.408C337.78 196.996 338.412 196.641 339.307 196.641C339.975 196.641 340.502 196.84 340.889 197.238C341.268 197.648 341.457 198.201 341.457 198.896V202.881H340.444V199.055C340.444 198.047 339.973 197.543 339.031 197.543C338.512 197.543 338.115 197.715 337.842 198.059C337.553 198.406 337.408 198.885 337.408 199.494V202.881H336.401ZM345.871 205.734C345.093 205.734 344.468 205.539 343.996 205.148C343.511 204.746 343.263 204.25 343.252 203.66H344.224C344.248 203.996 344.4 204.281 344.681 204.516C344.955 204.754 345.351 204.873 345.871 204.873C346.429 204.873 346.853 204.717 347.142 204.404C347.427 204.107 347.57 203.711 347.57 203.215V202.031H347.523C347.136 202.668 346.521 202.986 345.677 202.986C344.838 202.986 344.197 202.695 343.756 202.113C343.31 201.527 343.082 200.764 343.07 199.822C343.082 198.814 343.318 198.033 343.779 197.479C344.232 196.92 344.865 196.641 345.677 196.641C346.521 196.641 347.136 196.961 347.523 197.602H347.57L347.705 196.746H348.578V203.238C348.578 203.969 348.34 204.566 347.863 205.031C347.383 205.5 346.718 205.734 345.871 205.734ZM345.841 202.09C346.416 202.09 346.853 201.873 347.154 201.439C347.447 201.025 347.593 200.486 347.593 199.822C347.593 199.158 347.447 198.613 347.154 198.188C346.857 197.758 346.42 197.543 345.841 197.543C345.236 197.543 344.797 197.754 344.523 198.176C344.234 198.602 344.09 199.15 344.09 199.822C344.09 200.482 344.234 201.025 344.523 201.451C344.8 201.877 345.24 202.09 345.841 202.09Z" fill="#5444F2"/>
<rect x="61" y="261" width="354" height="56" rx="8.84589" fill="#5444F2"/>
<path d="M203.246 295.03C201.505 295.03 200.161 294.473 199.214 293.361C198.267 292.265 197.793 290.802 197.793 288.974C197.793 287.145 198.267 285.675 199.214 284.562C200.167 283.444 201.511 282.885 203.246 282.885C204.678 282.885 205.835 283.284 206.716 284.083C207.592 284.876 208.087 285.92 208.203 287.214H206.17C206.088 286.454 205.801 285.845 205.311 285.388C204.827 284.937 204.138 284.711 203.246 284.711C202.089 284.711 201.23 285.099 200.668 285.876C200.106 286.669 199.826 287.701 199.826 288.974C199.826 290.252 200.106 291.279 200.668 292.055C201.23 292.832 202.089 293.22 203.246 293.22C204.089 293.22 204.758 293.005 205.253 292.576C205.744 292.152 206.055 291.565 206.187 290.816H208.203C208.054 292.061 207.545 293.077 206.674 293.865C205.815 294.641 204.672 295.03 203.246 295.03ZM213.872 295.03C212.528 295.03 211.507 294.614 210.807 293.782C210.097 292.956 209.742 291.868 209.742 290.519C209.742 289.175 210.102 288.084 210.824 287.247C211.54 286.415 212.556 286 213.872 286C215.178 286 216.197 286.415 216.929 287.247C217.64 288.09 217.995 289.18 217.995 290.519C217.995 291.868 217.64 292.956 216.929 293.782C216.213 294.614 215.194 295.03 213.872 295.03ZM213.872 293.328C215.315 293.328 216.037 292.391 216.037 290.519C216.037 289.632 215.855 288.938 215.492 288.437C215.139 287.952 214.599 287.71 213.872 287.71C213.14 287.71 212.597 287.952 212.245 288.437C211.881 288.938 211.7 289.632 211.7 290.519C211.7 291.4 211.887 292.086 212.261 292.576C212.625 293.077 213.162 293.328 213.872 293.328ZM219.988 298.756V286.148H221.69L221.913 287.197H221.979C222.502 286.399 223.331 286 224.466 286C225.578 286 226.465 286.404 227.126 287.214C227.782 288.035 228.109 289.136 228.109 290.519C228.109 291.863 227.793 292.95 227.159 293.782C226.509 294.614 225.612 295.03 224.466 295.03C223.331 295.03 222.502 294.63 221.979 293.832H221.913V298.756H219.988ZM223.995 293.328C224.733 293.328 225.281 293.066 225.639 292.543C225.986 292.036 226.16 291.361 226.16 290.519C226.16 289.67 225.986 288.993 225.639 288.486C225.287 287.969 224.739 287.71 223.995 287.71C223.273 287.71 222.736 287.969 222.384 288.486C222.026 289.01 221.847 289.687 221.847 290.519C221.847 291.334 222.026 292.003 222.384 292.526C222.747 293.061 223.284 293.328 223.995 293.328ZM230.912 298.756V298.59L232.3 294.848L232.102 294.831L228.921 286.322V286.148H230.929L233.2 292.716H233.267L235.539 286.148H237.579V286.322L232.944 298.756H230.912ZM244.416 294.881V283.034H246.398V293.088H251.983V294.881H244.416ZM254.563 284.81C254.166 284.81 253.863 284.705 253.654 284.496C253.439 284.281 253.332 283.981 253.332 283.595C253.332 283.221 253.439 282.926 253.654 282.711C253.847 282.502 254.15 282.397 254.563 282.397C254.965 282.397 255.271 282.502 255.48 282.711C255.695 282.926 255.802 283.221 255.802 283.595C255.802 283.964 255.695 284.256 255.48 284.471C255.254 284.697 254.949 284.81 254.563 284.81ZM253.605 294.881V286.148H255.53V294.881H253.605ZM257.919 294.881V286.148H259.621L259.778 287.28H259.844C260.384 286.426 261.235 286 262.397 286C263.372 286 264.14 286.28 264.702 286.842C265.264 287.404 265.545 288.183 265.545 289.18V294.881H263.62V289.651C263.62 288.379 263.028 287.743 261.844 287.743C261.227 287.743 260.742 287.944 260.389 288.346C260.026 288.775 259.844 289.346 259.844 290.056V294.881H257.919ZM271.801 290.106L275.477 294.716V294.881H273.189L269.793 290.585V294.881H267.934V282.356H269.793V289.701L273.073 286.148H275.345V286.322L271.801 290.106Z" fill="white"/>
<path d="M387.261 200.621L391.74 196.143M385.582 197.822L384.463 198.942C383.226 200.178 383.226 202.183 384.462 203.42C385.699 204.657 387.705 204.656 388.941 203.42L390.06 202.3M388.941 194.463L390.06 193.343C391.297 192.107 393.302 192.107 394.538 193.344C395.775 194.58 395.775 196.585 394.538 197.822L393.419 198.942" stroke="#5444F2" stroke-width="1.58333" stroke-linecap="round" stroke-linejoin="round"/>
<circle cx="440" cy="50.8809" r="50" fill="url(#paint2_linear_729_2598)"/>
<path d="M434.198 55.6862L444.804 45.0796M430.221 49.0567L427.569 51.7083C424.64 54.6373 424.639 59.3863 427.568 62.3153C430.497 65.2442 435.247 65.2434 438.176 62.3144L440.825 59.6631M438.175 41.101L440.826 38.4494C443.755 35.5204 448.503 35.521 451.432 38.4499C454.361 41.3788 454.361 46.1276 451.432 49.0565L448.782 51.7081" stroke="#F5F6FA" stroke-width="3.75" stroke-linecap="round" stroke-linejoin="round"/>
<defs>
<filter id="filter0_d_729_2598" x="0.260565" y="27.1414" width="476.485" height="411.484" filterUnits="userSpaceOnUse" color-interpolation-filters="sRGB">
<feFlood flood-opacity="0" result="BackgroundImageFix"/>
<feColorMatrix in="SourceAlpha" type="matrix" values="0 0 0 0 0 0 0 0 0 0 0 0 0 0 0 0 0 0 127 0" result="hardAlpha"/>
<feOffset/>
<feGaussianBlur stdDeviation="11.8697"/>
<feComposite in2="hardAlpha" operator="out"/>
<feColorMatrix type="matrix" values="0 0 0 0 0 0 0 0 0 0 0 0 0 0 0 0 0 0 0.08 0"/>
<feBlend mode="normal" in2="BackgroundImageFix" result="effect1_dropShadow_729_2598"/>
<feBlend mode="normal" in="SourceGraphic" in2="effect1_dropShadow_729_2598" result="shape"/>
</filter>
<filter id="filter1_f_729_2598" x="184.403" y="109.284" width="836.195" height="836.195" filterUnits="userSpaceOnUse" color-interpolation-filters="sRGB">
<feFlood flood-opacity="0" result="BackgroundImageFix"/>
<feBlend mode="normal" in="SourceGraphic" in2="BackgroundImageFix" result="shape"/>
<feGaussianBlur stdDeviation="119.799" result="effect1_foregroundBlur_729_2598"/>
</filter>
<filter id="filter2_f_729_2598" x="-512.597" y="-548.716" width="836.195" height="836.195" filterUnits="userSpaceOnUse" color-interpolation-filters="sRGB">
<feFlood flood-opacity="0" result="BackgroundImageFix"/>
<feBlend mode="normal" in="SourceGraphic" in2="BackgroundImageFix" result="shape"/>
<feGaussianBlur stdDeviation="119.799" result="effect1_foregroundBlur_729_2598"/>
</filter>
<linearGradient id="paint0_linear_729_2598" x1="424" y1="694.624" x2="813.861" y2="684.379" gradientUnits="userSpaceOnUse">
<stop stop-color="#00B0FF"/>
<stop offset="0.49591" stop-color="#3D5AFE"/>
<stop offset="1" stop-color="#5444F2"/>
</linearGradient>
<linearGradient id="paint1_linear_729_2598" x1="-273" y1="36.6241" x2="116.861" y2="26.3792" gradientUnits="userSpaceOnUse">
<stop stop-color="#00B0FF"/>
<stop offset="0.49591" stop-color="#3D5AFE"/>
<stop offset="1" stop-color="#5444F2"/>
</linearGradient>
<linearGradient id="paint2_linear_729_2598" x1="390" y1="97.7277" x2="499.205" y2="94.858" gradientUnits="userSpaceOnUse">
<stop stop-color="#00B0FF"/>
<stop offset="0.49591" stop-color="#3D5AFE"/>
<stop offset="1" stop-color="#5444F2"/>
</linearGradient>
</defs>
</svg>
