<svg width="113" height="113" viewBox="0 0 113 113" fill="none" xmlns="http://www.w3.org/2000/svg">
<circle cx="56.1836" cy="56.1836" r="56.1836" fill="#F1F0FE"/>
<path d="M81.4865 32.3187C79.2417 30.083 75.556 30.0386 73.361 32.3169C66.875 39.0549 50.3477 57.1572 44.3221 63.771L44.1535 63.6034L41.2707 66.4735L41.3097 66.5124C40.6291 66.7317 39.9023 66.9547 39.0667 67.1912C36.2329 67.9914 34.6179 70.0976 33.8857 72.3541C33.718 72.5689 33.5821 72.8544 33.4933 73.2631L33.4833 73.312L33.4779 73.3601C33.4752 73.39 33.119 76.6081 30.0242 79.9476L29.697 80.301C29.6825 80.3065 29.6716 80.3137 29.6562 80.3192L29.678 80.3219L28.8125 81.2553L30.6005 81.3423C30.8588 81.3559 36.9977 81.6341 40.6934 80.2793C40.8101 80.2305 40.9236 80.1745 41.0333 80.1116C43.8562 79.5343 46.5433 77.8415 46.8405 74.5001C46.913 73.689 47.0163 72.9677 47.1387 72.3142L47.1704 72.3442L50.0532 69.4732L49.8855 69.3055C56.5311 63.3088 74.7177 46.8604 81.4865 40.4052C83.7766 38.2193 83.7322 34.5508 81.4865 32.3187M40.4043 79.499C36.8256 80.8112 30.6404 80.5104 30.6404 80.5104C33.9908 76.8962 34.3134 73.4371 34.3134 73.4371C34.4784 72.665 34.7919 72.6586 35.3321 72.4203C35.4299 72.3768 35.4988 72.3922 35.5468 72.4402C35.6927 72.5852 35.6728 73.0311 35.7843 73.1417C35.8423 73.1997 35.9374 73.1661 36.1096 72.9504C36.2419 72.7846 36.3226 72.7619 36.3815 72.819C36.5211 72.9586 36.5256 73.5757 36.773 73.8213C36.8981 73.9455 37.0857 73.9754 37.3847 73.8014C37.6049 73.67 37.7264 73.6591 37.7898 73.7226C37.9819 73.9138 37.6394 74.8001 37.9892 75.1481C38.1124 75.2722 38.3218 75.3257 38.6716 75.2605C39.0096 75.1952 39.1882 75.2188 39.2643 75.2949C39.5099 75.5405 38.7178 76.3317 38.8954 76.5084C38.9344 76.5473 39.0178 76.5564 39.1655 76.5265C39.3848 76.4821 39.4854 76.4857 39.5244 76.5238C39.6413 76.6407 39.2199 77.073 39.7011 77.5533C39.8379 77.6892 40.05 77.8315 40.3681 77.9692C40.6726 78.1007 40.8765 78.2312 41.0034 78.3589C41.6305 78.9824 40.4043 79.499 40.4043 79.499M46.3738 74.2427C46.1463 75.3982 45.8228 76.6425 44.9682 77.3639C44.1109 78.0834 45.2347 73.7842 44.2677 74.6487C43.2998 75.5133 43.5409 72.4882 42.1307 73.1009C40.717 73.7108 41.8897 70.6522 40.3318 71.3083C38.7731 71.9681 39.2634 69.0952 38.3336 69.3218C37.4074 69.5502 37.5252 68.5162 37.5252 68.5162C37.5252 68.5162 38.3952 67.9824 39.6277 67.6063C39.6277 67.6063 41.7211 67.8419 41.442 69.4088C41.162 70.9802 43.0986 69.4496 43.1457 70.6966C43.1911 71.9427 45.3144 71.1243 45.2455 72.3768C45.183 73.6392 46.6022 73.0918 46.3738 74.2427M47.1704 71.1678L42.4543 66.4735L44.1544 64.7797L48.8705 69.4732L47.1704 71.1678Z" fill="#5444F2"/>
</svg>
