<svg width="114" height="114" viewBox="0 0 114 114" fill="none" xmlns="http://www.w3.org/2000/svg">
<circle cx="57.0835" cy="57.1211" r="56.1836" fill="#F1F0FE"/>
<path d="M49.5712 43.4249C49.5712 41.2591 50.4315 39.182 51.963 37.6505C53.4945 36.119 55.5716 35.2587 57.7374 35.2587C59.9032 35.2587 61.9803 36.119 63.5118 37.6505C65.0433 39.182 65.9036 41.2591 65.9036 43.4249V47.9653H69.1701V43.4249C69.1701 41.9235 68.8744 40.4369 68.2998 39.0498C67.7253 37.6627 66.8832 36.4024 65.8215 35.3408C64.7599 34.2791 63.4996 33.437 62.1125 32.8625C60.7254 32.2879 59.2388 31.9922 57.7374 31.9922C56.236 31.9922 54.7494 32.2879 53.3623 32.8625C51.9752 33.437 50.7149 34.2791 49.6533 35.3408C48.5916 36.4024 47.7495 37.6627 47.175 39.0498C46.6004 40.4369 46.3047 41.9235 46.3047 43.4249V47.9653H49.5712V43.4249Z" fill="#5444F2"/>
<path d="M69.1702 47.9688V53.0318C69.1702 53.465 68.9981 53.8804 68.6918 54.1867C68.3855 54.493 67.9701 54.6651 67.537 54.6651C67.1038 54.6651 66.6884 54.493 66.3821 54.1867C66.0758 53.8804 65.9037 53.465 65.9037 53.0318V47.9688H49.5713V53.0318C49.5713 53.465 49.3992 53.8804 49.0929 54.1867C48.7866 54.493 48.3712 54.6651 47.938 54.6651C47.5049 54.6651 47.0894 54.493 46.7831 54.1867C46.4769 53.8804 46.3048 53.465 46.3048 53.0318V47.9688H34.8721V80.6336C34.8721 81.5 35.2162 82.3308 35.8288 82.9434C36.4414 83.556 37.2722 83.9001 38.1386 83.9001H77.3364C78.2027 83.9001 79.0336 83.556 79.6462 82.9434C80.2588 82.3308 80.6029 81.5 80.6029 80.6336V47.9688H69.1702Z" fill="#5444F2"/>
</svg>
