<svg width="37" height="37" viewBox="0 0 37 37" fill="none" xmlns="http://www.w3.org/2000/svg">
<circle cx="18.5" cy="18.5" r="18.5" fill="#5444F2"/>
<path d="M27.6616 17.2923L26.3583 15.7781C26.1091 15.4906 25.9078 14.954 25.9078 14.5706V12.9415C25.9078 11.9256 25.0741 11.0919 24.0583 11.0919H22.4291C22.0553 11.0919 21.5091 10.8906 21.2216 10.6415L19.7074 9.33813C19.0462 8.77271 17.9633 8.77271 17.2924 9.33813L15.7878 10.651C15.5003 10.8906 14.9541 11.0919 14.5803 11.0919H12.9224C11.9066 11.0919 11.0728 11.9256 11.0728 12.9415V14.5802C11.0728 14.954 10.8716 15.4906 10.632 15.7781L9.33826 17.3019C8.78243 17.9631 8.78243 19.0365 9.33826 19.6977L10.632 21.2215C10.8716 21.509 11.0728 22.0456 11.0728 22.4194V24.0581C11.0728 25.074 11.9066 25.9077 12.9224 25.9077H14.5803C14.9541 25.9077 15.5003 26.109 15.7878 26.3581L17.302 27.6615C17.9633 28.2269 19.0462 28.2269 19.717 27.6615L21.2312 26.3581C21.5187 26.109 22.0553 25.9077 22.4387 25.9077H24.0678C25.0837 25.9077 25.9174 25.074 25.9174 24.0581V22.429C25.9174 22.0552 26.1187 21.509 26.3678 21.2215L27.6712 19.7073C28.227 19.046 28.227 17.9535 27.6616 17.2923ZM22.4866 16.6885L17.8578 21.3173C17.7237 21.4515 17.5416 21.5281 17.3499 21.5281C17.1583 21.5281 16.9762 21.4515 16.842 21.3173L14.5228 18.9981C14.2449 18.7202 14.2449 18.2602 14.5228 17.9823C14.8008 17.7044 15.2608 17.7044 15.5387 17.9823L17.3499 19.7935L21.4708 15.6727C21.7487 15.3948 22.2087 15.3948 22.4866 15.6727C22.7645 15.9506 22.7645 16.4106 22.4866 16.6885Z" fill="white"/>
</svg>
