<svg width="222" height="54" viewBox="0 0 222 54" fill="none" xmlns="http://www.w3.org/2000/svg">
<g clip-path="url(#clip0_4606_52504)">
<path d="M4.04137 40.6607V24.2449H0.0549316V19.6084H4.04137V18.19C4.04137 12.4736 7.88543 9.84375 12.1835 9.84375C14.1596 9.8775 16.0843 10.479 17.7279 11.5764L15.7777 15.5037C14.6522 14.7677 13.6126 14.3782 12.53 14.3782C10.7114 14.3782 9.32259 15.5897 9.32259 18.19V19.6191H15.6138V24.2529H9.32259V40.6688L4.04137 40.6607ZM25.0883 13.2876C25.0883 17.4029 18.8508 17.4029 18.8508 13.2876C18.8508 9.17218 25.0883 9.17218 25.0883 13.2876ZM19.329 19.2215V40.6688H24.6129V19.2215H19.329ZM33.8805 31.8685C34.2217 34.5091 36.5211 36.4164 40.247 36.4164C42.1972 36.4164 44.7519 35.6804 45.9661 34.4259L49.3427 37.7622C47.089 40.102 43.4087 41.2275 40.1503 41.2275C32.7872 41.2275 28.414 36.6797 28.414 29.8377C28.414 23.3423 32.8382 18.6628 39.7635 18.6628C46.9117 18.6628 51.3709 23.0871 50.5489 31.8739L33.8805 31.8685ZM45.4879 27.4953C45.1468 24.723 42.9763 23.3396 39.9435 23.3396C37.0853 23.3396 34.7455 24.7257 33.9665 27.4953H45.4879ZM59.8676 10.3837V40.6607H54.6266V10.3837H59.8676ZM86.6793 10.3837V40.6607H81.7527L81.4115 37.7058C79.7648 40.2632 77.1135 41.1281 74.5239 41.1281C68.2434 41.1281 63.5102 36.9725 63.5102 29.9532C63.5102 22.5901 68.144 18.7783 74.3842 18.7783C76.638 18.7783 80.1436 19.9898 81.4008 22.2006V10.381L86.6793 10.3837ZM68.8021 29.9613C68.8021 33.6845 71.4884 36.2418 74.8651 36.2418C78.2417 36.2418 81.0569 33.8241 81.0569 29.9613C81.0758 29.1614 80.937 28.3656 80.6483 27.6193C80.3597 26.8731 79.9269 26.191 79.3746 25.612C78.8223 25.033 78.1614 24.5685 77.4296 24.245C76.6978 23.9215 75.9094 23.7453 75.1095 23.7264H74.8651C71.4884 23.7264 68.8021 26.1092 68.8021 29.9613ZM97.0322 13.2876C97.0322 17.4029 90.7947 17.4029 90.7947 13.2876C90.7947 9.17218 97.0322 9.17218 97.0322 13.2876ZM91.2863 19.2215V40.6688H96.5702V19.2215H91.2863ZM117.042 40.6607V29.4724C117.042 26.2247 115.267 23.7533 111.887 23.7533C108.64 23.7533 106.44 26.4772 106.44 29.7303V40.6446H101.199V19.2645H105.924L106.265 22.1684C108.43 20.0435 110.595 18.961 113.281 18.961C118.305 18.961 122.334 22.7218 122.334 29.4375V40.6715L117.042 40.6607ZM140.819 24.9809C139.303 23.5518 137.571 23.0737 135.535 23.0737C133.023 23.0737 131.637 23.8527 131.637 25.1931C131.637 26.5336 132.894 27.3583 135.623 27.5329C139.653 27.8015 144.757 28.7041 144.757 34.3748C144.757 38.1356 141.692 41.3914 135.564 41.3914C132.188 41.3914 128.808 40.83 125.692 37.5796L128.29 33.8188C129.805 35.5219 133.27 36.7737 135.653 36.8086C137.643 36.8516 139.508 35.812 139.508 34.2513C139.508 32.7765 138.296 32.1721 135.263 31.9975C131.234 31.6939 126.412 30.2218 126.412 25.3704C126.412 20.4304 131.516 18.7004 135.422 18.7004C138.758 18.7004 141.27 19.3505 143.749 21.5156L140.819 24.9809Z" fill="#65717C"/>
<path d="M148.139 19.2188H153.423V40.6579H148.139V19.2188Z" fill="#65717C"/>
<path d="M174.951 17.1454L178.848 20.1003L176.466 23.1331C178.112 24.9947 178.719 27.1195 178.719 29.4593C178.719 32.0999 177.723 35.8258 174.215 37.4295C177.766 39.2051 178.639 41.7598 178.639 44.489C178.639 50.3773 174.134 54.0199 167.939 54.0199C161.745 54.0199 157.111 50.2591 157.111 44.489H162.355C162.355 47.2613 164.912 49.0825 167.942 49.0825C170.972 49.0825 173.355 47.4385 173.355 44.489C173.355 41.5395 170.583 40.191 167.942 40.191C161.272 40.191 157.114 36.1051 157.114 29.4459C157.114 22.7866 161.949 18.6202 167.931 18.6202C169.635 18.6202 171.354 18.8378 172.826 19.8317L174.951 17.1454ZM162.355 29.4459C162.355 33.169 164.866 35.3798 167.942 35.3798C171.018 35.3798 173.487 33.1261 173.487 29.4459C173.487 25.7657 170.975 23.4232 167.942 23.4232C164.909 23.4232 162.347 25.72 162.347 29.4485L162.355 29.4459ZM187.804 10.3438V22.2225C189.712 19.7538 192.049 19.0151 194.475 19.0151C200.537 19.0151 203.224 23.1304 203.224 29.4109V40.6718H197.948V29.4297C197.948 25.532 195.906 23.8853 193.096 23.8853C189.978 23.8853 187.804 26.5205 187.804 29.744V40.6584H182.518V10.3438H187.804ZM215.143 13.2906V19.367H221.031V23.9014H215.097V33.1261C215.097 35.1676 216.223 36.1589 217.869 36.1589C218.759 36.1334 219.633 35.9114 220.427 35.5088L221.901 40.0137C220.515 40.592 219.03 40.9002 217.528 40.9216C212.894 41.0962 209.861 38.4529 209.861 33.1314V23.9014H205.872V19.367H209.859V13.852L215.143 13.2906Z" fill="#65717C"/>
<path d="M139.615 14.9382C140.845 14.9382 141.842 13.9412 141.842 12.7113C141.842 11.4814 140.845 10.4844 139.615 10.4844C138.385 10.4844 137.388 11.4814 137.388 12.7113C137.388 13.9412 138.385 14.9382 139.615 14.9382Z" fill="#65717C"/>
<path d="M145.079 9.47658C146.585 9.47658 147.805 8.25585 147.805 6.75001C147.805 5.24416 146.585 4.02344 145.079 4.02344C143.573 4.02344 142.352 5.24416 142.352 6.75001C142.352 8.25585 143.573 9.47658 145.079 9.47658Z" fill="#65717C"/>
<path d="M150.533 16.7666C152.494 16.7666 154.084 15.1766 154.084 13.2153C154.084 11.254 152.494 9.66406 150.533 9.66406C148.572 9.66406 146.982 11.254 146.982 13.2153C146.982 15.1766 148.572 16.7666 150.533 16.7666Z" fill="#65717C"/>
<path d="M157.629 9.07553C159.958 9.07553 161.847 7.18732 161.847 4.85808C161.847 2.52884 159.958 0.640625 157.629 0.640625C155.3 0.640625 153.412 2.52884 153.412 4.85808C153.412 7.18732 155.3 9.07553 157.629 9.07553Z" fill="#65717C"/>
<path d="M139.288 12.4062L144.75 6.44484L145.408 7.04737L139.945 13.0088L139.288 12.4062Z" fill="#65717C"/>
<path d="M150.348 12.4062L155.809 6.4439L156.467 7.04631L151.006 13.0087L150.348 12.4062Z" fill="#65717C"/>
<path d="M144.853 7.04688L145.511 6.44448L150.972 12.4068L150.315 13.0092L144.853 7.04688Z" fill="#65717C"/>
</g>
<defs>
<clipPath id="clip0_4606_52504">
<rect width="221.843" height="53.3629" fill="white" transform="translate(0.0549316 0.640625)"/>
</clipPath>
</defs>
</svg>
