<svg width="113" height="113" viewBox="0 0 113 113" fill="none" xmlns="http://www.w3.org/2000/svg">
<circle cx="56.1836" cy="56.1836" r="56.1836" fill="#F1F0FE"/>
<path d="M80.1666 72.9167V80.1667H31.8333V72.9167C31.8333 71.5875 32.9208 70.5 34.2499 70.5H77.7499C79.0791 70.5 80.1666 71.5875 80.1666 72.9167Z" fill="#5444F2" stroke="#5444F2" stroke-width="1.5" stroke-miterlimit="10" stroke-linecap="round" stroke-linejoin="round"/>
<path d="M46 53H39V70H46V53Z" fill="#5444F2"/>
<path d="M60 53H53V70H60V53Z" fill="#5444F2"/>
<path d="M74 53H67V70H74V53Z" fill="#5444F2"/>
<path d="M82.5834 81.9766H29.4167C28.4259 81.9766 27.6042 81.1549 27.6042 80.1641C27.6042 79.1732 28.4259 78.3516 29.4167 78.3516H82.5834C83.5742 78.3516 84.3959 79.1732 84.3959 80.1641C84.3959 81.1549 83.5742 81.9766 82.5834 81.9766Z" fill="#5444F2"/>
<path d="M78.6441 40.8997L56.8941 32.1997C56.4107 32.0064 55.5891 32.0064 55.1058 32.1997L33.3558 40.8997C32.5099 41.238 31.8333 42.2289 31.8333 43.1472V51.1705C31.8333 52.4997 32.9208 53.5872 34.2499 53.5872H77.7499C79.0791 53.5872 80.1666 52.4997 80.1666 51.1705V43.1472C80.1666 42.2289 79.4899 41.238 78.6441 40.8997ZM55.9999 47.5455C53.9941 47.5455 52.3749 45.9264 52.3749 43.9205C52.3749 41.9147 53.9941 40.2955 55.9999 40.2955C58.0058 40.2955 59.6249 41.9147 59.6249 43.9205C59.6249 45.9264 58.0058 47.5455 55.9999 47.5455Z" fill="#5444F2"/>
</svg>
