<svg width="42" height="41" viewBox="0 0 42 41" fill="none" xmlns="http://www.w3.org/2000/svg">
<path fill-rule="evenodd" clip-rule="evenodd" d="M37.359 19.0474C36.0852 24.2266 36.1686 29.2142 36.0159 34.4676C35.9863 35.4936 36.7922 36.3466 37.8151 36.3775C38.8386 36.4084 39.6927 35.5987 39.723 34.5727C39.8676 29.5913 39.7508 24.8509 40.9597 19.9312C41.2045 18.9361 40.5957 17.9287 39.6018 17.6877C38.6086 17.4405 37.6031 18.0523 37.359 19.0474Z" fill="#5444F2"/>
<path fill-rule="evenodd" clip-rule="evenodd" d="M26.5371 9.00902C17.8956 16.9077 9.75339 27.0684 4.0624 37.328C3.5661 38.2241 3.88936 39.3552 4.78429 39.8497C5.67923 40.3441 6.80901 40.0227 7.3053 39.1265C12.8084 29.2068 20.683 19.3798 29.039 11.7469C29.7942 11.0547 29.8468 9.88043 29.1564 9.12641C28.466 8.37239 27.2924 8.3168 26.5371 9.00902Z" fill="#5444F2"/>
<path fill-rule="evenodd" clip-rule="evenodd" d="M24.3478 0.379833C16.4442 -0.924249 8.29773 1.3007 1.11107 4.44657C0.173486 4.86066 -0.254217 5.95457 0.155549 6.88783C0.565934 7.82726 1.66051 8.25375 2.59809 7.84583C9.14323 4.97809 16.5456 2.85198 23.744 4.03863C24.7539 4.20551 25.7088 3.51949 25.875 2.51207C26.0419 1.50465 25.3571 0.546706 24.3478 0.379833Z" fill="#5444F2"/>
</svg>
