<svg width="56" height="56" viewBox="0 0 56 56" fill="none" xmlns="http://www.w3.org/2000/svg">
<path fill-rule="evenodd" clip-rule="evenodd" d="M13.4749 36.6187C12.0529 31.4782 9.54088 27.1685 7.10474 22.5116C6.62885 21.6022 5.50871 21.2524 4.60141 21.7257C3.69356 22.1993 3.34451 23.3233 3.81986 24.233C6.13001 28.6488 8.5503 32.7264 9.90191 37.6088C10.1751 38.5964 11.1988 39.1774 12.1835 38.9016C13.1708 38.6315 13.7486 37.606 13.4749 36.6187Z" fill="#5444F2"/>
<path fill-rule="evenodd" clip-rule="evenodd" d="M27.8237 40.0805C31.4982 28.9646 33.6309 16.1199 33.5771 4.38771C33.5717 3.36331 32.7366 2.53483 31.7142 2.54125C30.6918 2.54766 29.8635 3.38056 29.8689 4.40496C29.9203 15.7488 27.8579 28.1715 24.3024 38.9159C23.9822 39.8891 24.5107 40.9391 25.4816 41.2591C26.4526 41.5792 27.5035 41.0536 27.8237 40.0805Z" fill="#5444F2"/>
<path fill-rule="evenodd" clip-rule="evenodd" d="M33.9535 46.5375C41.4851 43.8095 47.5027 37.8846 52.2327 31.6258C52.8479 30.8061 52.686 29.6428 51.8721 29.0291C51.0547 28.4104 49.8914 28.5738 49.2731 29.3881C44.9667 35.0905 39.5499 40.5653 32.6907 43.0508C31.7282 43.3991 31.2309 44.4645 31.5785 45.4245C31.9257 46.3849 32.9915 46.8855 33.9535 46.5375Z" fill="#5444F2"/>
</svg>
