<svg width="42" height="41" viewBox="0 0 42 41" fill="none" xmlns="http://www.w3.org/2000/svg">
<path fill-rule="evenodd" clip-rule="evenodd" d="M3.65543 21.0308C4.92923 15.8515 4.84582 10.8639 4.99847 5.61048C5.02814 4.58452 4.2222 3.73156 3.19933 3.70065C2.17584 3.66975 1.32167 4.47942 1.29139 5.50538C1.14677 10.4869 1.26359 15.2273 0.0546894 20.1469C-0.190058 21.142 0.418733 22.1494 1.41256 22.3904C2.40576 22.6377 3.4113 22.0258 3.65543 21.0308Z" fill="#5444F2"/>
<path fill-rule="evenodd" clip-rule="evenodd" d="M14.4773 31.0691C23.1188 23.1704 31.261 13.0098 36.952 2.75015C37.4483 1.85398 37.125 0.722898 36.2301 0.22846C35.3352 -0.26598 34.2054 0.0554333 33.7091 0.951605C28.206 10.8713 20.3315 20.6983 11.9754 28.3312C11.2202 29.0234 11.1676 30.1977 11.858 30.9517C12.5484 31.7057 13.722 31.7613 14.4773 31.0691Z" fill="#5444F2"/>
<path fill-rule="evenodd" clip-rule="evenodd" d="M16.6666 39.6983C24.5702 41.0024 32.7167 38.7774 39.9033 35.6316C40.8409 35.2175 41.2686 34.1236 40.8589 33.1903C40.4485 32.2509 39.3539 31.8244 38.4163 32.2323C31.8712 35.1 24.4688 37.2261 17.2704 36.0395C16.2605 35.8726 15.3056 36.5586 15.1394 37.5661C14.9725 38.5735 15.6573 39.5314 16.6666 39.6983Z" fill="#5444F2"/>
</svg>
