<svg width="417" height="238" viewBox="0 0 417 238" fill="none" xmlns="http://www.w3.org/2000/svg">
<g filter="url(#filter0_d_4546_52024)">
<rect x="60" y="56" width="297" height="118" rx="10.4211" fill="white"/>
<path d="M83.8493 73.6048H82.1833C82.0807 72.4381 81.3573 71.8548 80.0133 71.8548C79.416 71.8548 78.9493 71.9808 78.6133 72.2328C78.2773 72.4755 78.1093 72.8115 78.1093 73.2408C78.1093 73.6421 78.2307 73.9175 78.4733 74.0668C78.7253 74.2161 79.276 74.3981 80.1253 74.6128C80.3493 74.6781 80.522 74.7248 80.6433 74.7528C81.754 75.0328 82.51 75.2848 82.9113 75.5088C83.798 75.9848 84.2413 76.7268 84.2413 77.7348C84.2413 78.1735 84.1667 78.5701 84.0173 78.9248C83.868 79.2795 83.6673 79.5781 83.4153 79.8208C83.1633 80.0541 82.8647 80.2501 82.5193 80.4088C82.174 80.5675 81.8147 80.6795 81.4413 80.7448C81.068 80.8195 80.6807 80.8568 80.2793 80.8568C79.0287 80.8568 78.016 80.5581 77.2413 79.9608C76.4667 79.3635 76.0793 78.4861 76.0793 77.3288H77.8013C77.8013 78.0568 78.0393 78.5981 78.5153 78.9528C78.9913 79.2981 79.612 79.4708 80.3773 79.4708C81.0493 79.4708 81.572 79.3355 81.9453 79.0648C82.328 78.7848 82.5193 78.3975 82.5193 77.9028C82.5193 77.5855 82.4167 77.3288 82.2113 77.1328C82.0153 76.9275 81.8007 76.7828 81.5673 76.6988C81.334 76.6148 80.928 76.4981 80.3493 76.3488C80.284 76.3301 80.2327 76.3161 80.1953 76.3068C78.954 75.9895 78.1373 75.7281 77.7453 75.5228C76.9333 75.1028 76.4993 74.4541 76.4433 73.5768C76.4433 73.5115 76.4433 73.4461 76.4433 73.3808C76.4433 72.4941 76.7747 71.7895 77.4373 71.2668C78.1093 70.7348 79.0053 70.4688 80.1253 70.4688C81.208 70.4688 82.09 70.7255 82.7713 71.2388C83.4527 71.7521 83.812 72.5408 83.8493 73.6048ZM92.0175 78.3788C91.8401 79.1628 91.4528 79.7741 90.8555 80.2128C90.2675 80.6515 89.5628 80.8708 88.7415 80.8708C87.6495 80.8708 86.7815 80.5208 86.1375 79.8208C85.5028 79.1115 85.1855 78.2061 85.1855 77.1048C85.1855 75.9755 85.5121 75.0421 86.1655 74.3048C86.8281 73.5675 87.6681 73.1988 88.6855 73.1988C89.7401 73.1988 90.5755 73.5628 91.1915 74.2908C91.8075 75.0095 92.1155 75.9941 92.1155 77.2448V77.4128H86.7815C86.8001 78.1408 86.9821 78.7055 87.3275 79.1068C87.6728 79.4988 88.1535 79.6948 88.7695 79.6948C89.2081 79.6948 89.5628 79.5921 89.8335 79.3868C90.1135 79.1721 90.3328 78.8361 90.4915 78.3788H92.0175ZM90.5195 76.3488C90.4728 75.7421 90.2815 75.2661 89.9455 74.9208C89.6188 74.5661 89.1941 74.3888 88.6715 74.3888C88.1488 74.3888 87.7241 74.5568 87.3975 74.8928C87.0801 75.2288 86.8841 75.7141 86.8095 76.3488H90.5195ZM94.9668 70.6648V80.6328H93.3848V70.6648H94.9668ZM98.3437 70.6648V80.6328H96.7617V70.6648H98.3437ZM110.349 73.4088L107.675 80.4928C107.647 80.5581 107.596 80.6935 107.521 80.8988C107.446 81.1135 107.395 81.2581 107.367 81.3328C107.339 81.4075 107.283 81.5381 107.199 81.7248C107.124 81.9115 107.064 82.0421 107.017 82.1168C106.97 82.1915 106.9 82.3035 106.807 82.4528C106.714 82.6021 106.625 82.7095 106.541 82.7748C106.466 82.8401 106.368 82.9195 106.247 83.0128C106.135 83.1155 106.018 83.1855 105.897 83.2228C105.776 83.2695 105.636 83.3068 105.477 83.3348C105.328 83.3721 105.164 83.3908 104.987 83.3908C104.688 83.3908 104.32 83.3628 103.881 83.3068V81.9628C104.217 82.0281 104.497 82.0608 104.721 82.0608C104.833 82.0608 104.936 82.0421 105.029 82.0048C105.122 81.9768 105.206 81.9208 105.281 81.8368C105.356 81.7621 105.421 81.6875 105.477 81.6128C105.533 81.5475 105.584 81.4495 105.631 81.3188C105.687 81.1975 105.729 81.0995 105.757 81.0248C105.785 80.9595 105.822 80.8521 105.869 80.7028C105.916 80.5535 105.944 80.4601 105.953 80.4228L103.181 73.4088H104.931L106.863 78.7288L108.683 73.4088H110.349ZM114.585 73.1988C115.686 73.1988 116.564 73.5441 117.217 74.2348C117.87 74.9255 118.197 75.8541 118.197 77.0208C118.197 78.1968 117.87 79.1301 117.217 79.8208C116.573 80.5115 115.696 80.8568 114.585 80.8568C113.456 80.8568 112.56 80.5115 111.897 79.8208C111.234 79.1301 110.903 78.1968 110.903 77.0208C110.903 75.8541 111.234 74.9255 111.897 74.2348C112.569 73.5441 113.465 73.1988 114.585 73.1988ZM116.041 75.1448C115.686 74.6875 115.192 74.4588 114.557 74.4588C113.922 74.4588 113.423 74.6875 113.059 75.1448C112.695 75.6021 112.513 76.2275 112.513 77.0208C112.513 77.8328 112.695 78.4675 113.059 78.9248C113.423 79.3821 113.927 79.6108 114.571 79.6108C115.196 79.6108 115.686 79.3821 116.041 78.9248C116.405 78.4581 116.587 77.8188 116.587 77.0068C116.587 76.2135 116.405 75.5928 116.041 75.1448ZM125.88 73.4088V80.6328H124.382V79.5548C123.775 80.4041 122.982 80.8288 122.002 80.8288C121.208 80.8288 120.597 80.6048 120.168 80.1568C119.748 79.6995 119.538 79.0461 119.538 78.1968V73.4088H121.134V77.5388C121.134 77.7908 121.138 77.9961 121.148 78.1548C121.157 78.3041 121.185 78.4768 121.232 78.6728C121.288 78.8595 121.362 79.0041 121.456 79.1068C121.558 79.2095 121.698 79.2981 121.876 79.3728C122.062 79.4475 122.286 79.4848 122.548 79.4848C123.145 79.4848 123.584 79.2748 123.864 78.8548C124.144 78.4255 124.284 77.8841 124.284 77.2308V73.4088H125.88ZM131.665 73.2688V74.7948C131.385 74.7668 131.198 74.7528 131.105 74.7528C129.714 74.7528 129.019 75.6535 129.019 77.4548V80.6328H127.437V73.4088H128.935V74.8508C129.448 73.7775 130.255 73.2408 131.357 73.2408L131.665 73.2688ZM137.921 73.4088V74.3748C138.407 73.5908 139.191 73.1988 140.273 73.1988C141.272 73.1988 142.07 73.5488 142.667 74.2488C143.265 74.9488 143.563 75.8821 143.563 77.0488C143.563 78.1875 143.269 79.1021 142.681 79.7928C142.103 80.4741 141.328 80.8148 140.357 80.8148C139.331 80.8148 138.547 80.4368 138.005 79.6808V83.3068H136.423V73.4088H137.921ZM139.951 74.4868C139.326 74.4868 138.836 74.7108 138.481 75.1588C138.127 75.6068 137.949 76.2275 137.949 77.0208C137.949 77.8048 138.127 78.4208 138.481 78.8688C138.845 79.3168 139.345 79.5408 139.979 79.5408C140.586 79.5408 141.067 79.3168 141.421 78.8688C141.776 78.4208 141.953 77.8141 141.953 77.0488C141.953 76.2648 141.771 75.6441 141.407 75.1868C141.053 74.7201 140.567 74.4868 139.951 74.4868ZM149.042 73.2688V74.7948C148.762 74.7668 148.575 74.7528 148.482 74.7528C147.091 74.7528 146.396 75.6535 146.396 77.4548V80.6328H144.814V73.4088H146.312V74.8508C146.825 73.7775 147.632 73.2408 148.734 73.2408L149.042 73.2688ZM152.976 73.1988C154.077 73.1988 154.954 73.5441 155.608 74.2348C156.261 74.9255 156.588 75.8541 156.588 77.0208C156.588 78.1968 156.261 79.1301 155.608 79.8208C154.964 80.5115 154.086 80.8568 152.976 80.8568C151.846 80.8568 150.95 80.5115 150.288 79.8208C149.625 79.1301 149.294 78.1968 149.294 77.0208C149.294 75.8541 149.625 74.9255 150.288 74.2348C150.96 73.5441 151.856 73.1988 152.976 73.1988ZM154.432 75.1448C154.077 74.6875 153.582 74.4588 152.948 74.4588C152.313 74.4588 151.814 74.6875 151.45 75.1448C151.086 75.6021 150.904 76.2275 150.904 77.0208C150.904 77.8328 151.086 78.4675 151.45 78.9248C151.814 79.3821 152.318 79.6108 152.962 79.6108C153.587 79.6108 154.077 79.3821 154.432 78.9248C154.796 78.4581 154.978 77.8188 154.978 77.0068C154.978 76.2135 154.796 75.5928 154.432 75.1448ZM164.774 70.6648V80.6328H163.276V79.6388C162.819 80.4321 162.049 80.8288 160.966 80.8288C159.949 80.8288 159.137 80.4835 158.53 79.7928C157.933 79.1021 157.634 78.1735 157.634 77.0068C157.634 75.8495 157.928 74.9301 158.516 74.2488C159.114 73.5581 159.912 73.2128 160.91 73.2128C161.928 73.2128 162.693 73.5908 163.206 74.3468V70.6648H164.774ZM161.204 74.5008C160.598 74.5008 160.117 74.7248 159.762 75.1728C159.417 75.6115 159.244 76.2135 159.244 76.9788C159.244 77.7721 159.422 78.3975 159.776 78.8548C160.14 79.3121 160.635 79.5408 161.26 79.5408C161.886 79.5408 162.371 79.3168 162.716 78.8688C163.071 78.4208 163.248 77.8001 163.248 77.0068C163.248 76.2135 163.066 75.5975 162.702 75.1588C162.348 74.7201 161.848 74.5008 161.204 74.5008ZM172.829 73.4088V80.6328H171.331V79.5548C170.724 80.4041 169.931 80.8288 168.951 80.8288C168.158 80.8288 167.546 80.6048 167.117 80.1568C166.697 79.6995 166.487 79.0461 166.487 78.1968V73.4088H168.083V77.5388C168.083 77.7908 168.088 77.9961 168.097 78.1548C168.106 78.3041 168.134 78.4768 168.181 78.6728C168.237 78.8595 168.312 79.0041 168.405 79.1068C168.508 79.2095 168.648 79.2981 168.825 79.3728C169.012 79.4475 169.236 79.4848 169.497 79.4848C170.094 79.4848 170.533 79.2748 170.813 78.8548C171.093 78.4255 171.233 77.8841 171.233 77.2308V73.4088H172.829ZM181.078 77.9028C180.966 78.7895 180.611 79.4988 180.014 80.0308C179.417 80.5535 178.665 80.8148 177.76 80.8148C176.677 80.8148 175.814 80.4741 175.17 79.7928C174.526 79.1021 174.204 78.2015 174.204 77.0908C174.204 75.8961 174.526 74.9488 175.17 74.2488C175.823 73.5395 176.701 73.1848 177.802 73.1848C178.726 73.1848 179.468 73.4181 180.028 73.8848C180.597 74.3515 180.929 75.0001 181.022 75.8308H179.44C179.347 75.3735 179.16 75.0235 178.88 74.7808C178.6 74.5381 178.245 74.4168 177.816 74.4168C177.2 74.4168 176.715 74.6501 176.36 75.1168C176.005 75.5741 175.828 76.2041 175.828 77.0068C175.828 77.8095 175.996 78.4348 176.332 78.8828C176.677 79.3308 177.153 79.5548 177.76 79.5548C178.236 79.5548 178.623 79.4148 178.922 79.1348C179.23 78.8455 179.426 78.4348 179.51 77.9028H181.078ZM185.833 73.4088V74.5708H184.377V78.3788C184.377 78.6028 184.382 78.7615 184.391 78.8548C184.401 78.9388 184.429 79.0368 184.475 79.1488C184.522 79.2515 184.601 79.3215 184.713 79.3588C184.835 79.3961 184.998 79.4148 185.203 79.4148C185.465 79.4148 185.675 79.4055 185.833 79.3868V80.6468C185.516 80.6841 185.157 80.7028 184.755 80.7028C184.475 80.7028 184.228 80.6795 184.013 80.6328C183.808 80.5955 183.635 80.5488 183.495 80.4928C183.355 80.4368 183.239 80.3435 183.145 80.2128C183.052 80.0728 182.977 79.9608 182.921 79.8768C182.875 79.7835 182.837 79.6248 182.809 79.4008C182.791 79.1768 182.781 79.0088 182.781 78.8968C182.781 78.7755 182.781 78.5701 182.781 78.2808C182.781 78.2435 182.781 78.2155 182.781 78.1968C182.781 78.1688 182.781 78.1408 182.781 78.1128C182.781 78.0755 182.781 78.0428 182.781 78.0148V74.5708H181.577V73.4088H182.781V71.2388H184.377V73.4088H185.833ZM192.693 75.5088H191.167C191.074 74.7435 190.551 74.3608 189.599 74.3608C189.189 74.3608 188.871 74.4355 188.647 74.5848C188.423 74.7341 188.311 74.9395 188.311 75.2008C188.311 75.2848 188.316 75.3595 188.325 75.4248C188.344 75.4901 188.372 75.5508 188.409 75.6068C188.456 75.6535 188.493 75.6955 188.521 75.7328C188.559 75.7701 188.619 75.8075 188.703 75.8448C188.787 75.8821 188.853 75.9148 188.899 75.9428C188.955 75.9615 189.044 75.9895 189.165 76.0268C189.287 76.0548 189.38 76.0781 189.445 76.0968C189.52 76.1155 189.637 76.1435 189.795 76.1808C189.954 76.2088 190.075 76.2321 190.159 76.2508C190.523 76.3348 190.785 76.4001 190.943 76.4468C191.111 76.4841 191.349 76.5681 191.657 76.6988C191.975 76.8201 192.208 76.9508 192.357 77.0908C192.507 77.2215 192.642 77.4081 192.763 77.6508C192.894 77.8841 192.959 78.1548 192.959 78.4628C192.959 79.1908 192.675 79.7695 192.105 80.1988C191.536 80.6281 190.771 80.8428 189.809 80.8428C188.783 80.8428 187.994 80.6281 187.443 80.1988C186.893 79.7695 186.599 79.1441 186.561 78.3228H188.087C188.171 79.2281 188.755 79.6808 189.837 79.6808C190.304 79.6808 190.677 79.5875 190.957 79.4008C191.247 79.2048 191.391 78.9481 191.391 78.6308C191.391 78.4721 191.354 78.3368 191.279 78.2248C191.214 78.1128 191.102 78.0195 190.943 77.9448C190.785 77.8608 190.631 77.8001 190.481 77.7628C190.341 77.7161 190.15 77.6648 189.907 77.6088C189.87 77.5995 189.842 77.5948 189.823 77.5948C189.805 77.5855 189.781 77.5808 189.753 77.5808C189.725 77.5715 189.697 77.5621 189.669 77.5528C188.643 77.3008 187.989 77.1048 187.709 76.9648C187.047 76.6475 186.715 76.1201 186.715 75.3828C186.715 74.7015 186.977 74.1695 187.499 73.7868C188.022 73.3948 188.745 73.1988 189.669 73.1988C190.556 73.1988 191.279 73.3901 191.839 73.7728C192.409 74.1555 192.693 74.7341 192.693 75.5088Z" fill="black"/>
<rect x="75.7942" y="99.1472" width="265.411" height="54.3849" rx="5.0477" fill="#F5F6FA" stroke="#E1E1E1" stroke-width="0.325658"/>
<path d="M117.664 122.88H120.754C121.521 122.88 122.124 123.063 122.564 123.43C123.011 123.79 123.234 124.33 123.234 125.05C123.234 125.73 123.027 126.27 122.614 126.67C122.201 127.063 121.637 127.26 120.924 127.26H118.914V130H117.664V122.88ZM118.914 123.92V126.25H120.654C121.561 126.25 122.014 125.86 122.014 125.08C122.014 124.307 121.524 123.92 120.544 123.92H118.914ZM127.084 124.74V125.83C126.884 125.81 126.751 125.8 126.684 125.8C125.691 125.8 125.194 126.443 125.194 127.73V130H124.064V124.84H125.134V125.87C125.501 125.103 126.077 124.72 126.864 124.72L127.084 124.74ZM129.894 124.69C130.68 124.69 131.307 124.937 131.774 125.43C132.24 125.923 132.474 126.587 132.474 127.42C132.474 128.26 132.24 128.927 131.774 129.42C131.314 129.913 130.687 130.16 129.894 130.16C129.087 130.16 128.447 129.913 127.974 129.42C127.5 128.927 127.264 128.26 127.264 127.42C127.264 126.587 127.5 125.923 127.974 125.43C128.454 124.937 129.094 124.69 129.894 124.69ZM130.934 126.08C130.68 125.753 130.327 125.59 129.874 125.59C129.42 125.59 129.064 125.753 128.804 126.08C128.544 126.407 128.414 126.853 128.414 127.42C128.414 128 128.544 128.453 128.804 128.78C129.064 129.107 129.424 129.27 129.884 129.27C130.33 129.27 130.68 129.107 130.934 128.78C131.194 128.447 131.324 127.99 131.324 127.41C131.324 126.843 131.194 126.4 130.934 126.08ZM138.322 122.88V130H137.252V129.29C136.925 129.857 136.375 130.14 135.602 130.14C134.875 130.14 134.295 129.893 133.862 129.4C133.435 128.907 133.222 128.243 133.222 127.41C133.222 126.583 133.432 125.927 133.852 125.44C134.278 124.947 134.848 124.7 135.562 124.7C136.288 124.7 136.835 124.97 137.202 125.51V122.88H138.322ZM135.772 125.62C135.338 125.62 134.995 125.78 134.742 126.1C134.495 126.413 134.372 126.843 134.372 127.39C134.372 127.957 134.498 128.403 134.752 128.73C135.012 129.057 135.365 129.22 135.812 129.22C136.258 129.22 136.605 129.06 136.852 128.74C137.105 128.42 137.232 127.977 137.232 127.41C137.232 126.843 137.102 126.403 136.842 126.09C136.588 125.777 136.232 125.62 135.772 125.62ZM144.075 124.84V130H143.005V129.23C142.571 129.837 142.005 130.14 141.305 130.14C140.738 130.14 140.301 129.98 139.995 129.66C139.695 129.333 139.545 128.867 139.545 128.26V124.84H140.685V127.79C140.685 127.97 140.688 128.117 140.695 128.23C140.701 128.337 140.721 128.46 140.755 128.6C140.795 128.733 140.848 128.837 140.915 128.91C140.988 128.983 141.088 129.047 141.215 129.1C141.348 129.153 141.508 129.18 141.695 129.18C142.121 129.18 142.435 129.03 142.635 128.73C142.835 128.423 142.935 128.037 142.935 127.57V124.84H144.075ZM149.967 128.05C149.887 128.683 149.634 129.19 149.207 129.57C148.78 129.943 148.244 130.13 147.597 130.13C146.824 130.13 146.207 129.887 145.747 129.4C145.287 128.907 145.057 128.263 145.057 127.47C145.057 126.617 145.287 125.94 145.747 125.44C146.214 124.933 146.84 124.68 147.627 124.68C148.287 124.68 148.817 124.847 149.217 125.18C149.624 125.513 149.86 125.977 149.927 126.57H148.797C148.73 126.243 148.597 125.993 148.397 125.82C148.197 125.647 147.944 125.56 147.637 125.56C147.197 125.56 146.85 125.727 146.597 126.06C146.344 126.387 146.217 126.837 146.217 127.41C146.217 127.983 146.337 128.43 146.577 128.75C146.824 129.07 147.164 129.23 147.597 129.23C147.937 129.23 148.214 129.13 148.427 128.93C148.647 128.723 148.787 128.43 148.847 128.05H149.967ZM153.364 124.84V125.67H152.324V128.39C152.324 128.55 152.327 128.663 152.334 128.73C152.34 128.79 152.36 128.86 152.394 128.94C152.427 129.013 152.484 129.063 152.564 129.09C152.65 129.117 152.767 129.13 152.914 129.13C153.1 129.13 153.25 129.123 153.364 129.11V130.01C153.137 130.037 152.88 130.05 152.594 130.05C152.394 130.05 152.217 130.033 152.064 130C151.917 129.973 151.794 129.94 151.694 129.9C151.594 129.86 151.51 129.793 151.444 129.7C151.377 129.6 151.324 129.52 151.284 129.46C151.25 129.393 151.224 129.28 151.204 129.12C151.19 128.96 151.184 128.84 151.184 128.76C151.184 128.673 151.184 128.527 151.184 128.32C151.184 128.293 151.184 128.273 151.184 128.26C151.184 128.24 151.184 128.22 151.184 128.2C151.184 128.173 151.184 128.15 151.184 128.13V125.67H150.324V124.84H151.184V123.29H152.324V124.84H153.364ZM158.264 126.34H157.174C157.107 125.793 156.734 125.52 156.054 125.52C155.76 125.52 155.534 125.573 155.374 125.68C155.214 125.787 155.134 125.933 155.134 126.12C155.134 126.18 155.137 126.233 155.144 126.28C155.157 126.327 155.177 126.37 155.204 126.41C155.237 126.443 155.264 126.473 155.284 126.5C155.31 126.527 155.354 126.553 155.414 126.58C155.474 126.607 155.52 126.63 155.554 126.65C155.594 126.663 155.657 126.683 155.744 126.71C155.83 126.73 155.897 126.747 155.944 126.76C155.997 126.773 156.08 126.793 156.194 126.82C156.307 126.84 156.394 126.857 156.454 126.87C156.714 126.93 156.9 126.977 157.014 127.01C157.134 127.037 157.304 127.097 157.524 127.19C157.75 127.277 157.917 127.37 158.024 127.47C158.13 127.563 158.227 127.697 158.314 127.87C158.407 128.037 158.454 128.23 158.454 128.45C158.454 128.97 158.25 129.383 157.844 129.69C157.437 129.997 156.89 130.15 156.204 130.15C155.47 130.15 154.907 129.997 154.514 129.69C154.12 129.383 153.91 128.937 153.884 128.35H154.974C155.034 128.997 155.45 129.32 156.224 129.32C156.557 129.32 156.824 129.253 157.024 129.12C157.23 128.98 157.334 128.797 157.334 128.57C157.334 128.457 157.307 128.36 157.254 128.28C157.207 128.2 157.127 128.133 157.014 128.08C156.9 128.02 156.79 127.977 156.684 127.95C156.584 127.917 156.447 127.88 156.274 127.84C156.247 127.833 156.227 127.83 156.214 127.83C156.2 127.823 156.184 127.82 156.164 127.82C156.144 127.813 156.124 127.807 156.104 127.8C155.37 127.62 154.904 127.48 154.704 127.38C154.23 127.153 153.994 126.777 153.994 126.25C153.994 125.763 154.18 125.383 154.554 125.11C154.927 124.83 155.444 124.69 156.104 124.69C156.737 124.69 157.254 124.827 157.654 125.1C158.06 125.373 158.264 125.787 158.264 126.34Z" fill="black"/>
<path d="M104.09 124.522C104.09 124.874 103.901 125.193 103.602 125.355L102.469 125.968L101.505 126.482L99.5055 127.563C99.2906 127.68 99.0561 127.739 98.8152 127.739C98.5742 127.739 98.3398 127.68 98.1248 127.563L94.0285 125.355C93.7289 125.193 93.54 124.874 93.54 124.522C93.54 124.17 93.7289 123.851 94.0285 123.688L95.3114 122.998L96.3339 122.444L98.1248 121.481C98.5547 121.246 99.0757 121.246 99.5055 121.481L103.602 123.688C103.901 123.851 104.09 124.17 104.09 124.522Z" fill="#65717C"/>
<path d="M97.4476 128.331L93.6378 126.429C93.3447 126.279 93.0061 126.299 92.7261 126.468C92.446 126.638 92.2832 126.937 92.2832 127.263V130.864C92.2832 131.489 92.6284 132.05 93.1884 132.33L96.9983 134.231C97.1285 134.296 97.2718 134.329 97.4151 134.329C97.5844 134.329 97.7537 134.283 97.9035 134.186C98.1835 134.016 98.3463 133.717 98.3463 133.391V129.79C98.3529 129.171 98.0077 128.611 97.4476 128.331Z" fill="#65717C"/>
<path d="M105.347 127.265V130.866C105.347 131.485 105.002 132.045 104.442 132.325L100.632 134.233C100.502 134.299 100.358 134.331 100.215 134.331C100.046 134.331 99.8765 134.286 99.7202 134.188C99.4467 134.019 99.2773 133.719 99.2773 133.393V129.798C99.2773 129.173 99.6225 128.613 100.183 128.333L101.583 127.636L102.56 127.148L103.992 126.431C104.285 126.282 104.624 126.295 104.904 126.471C105.178 126.64 105.347 126.939 105.347 127.265Z" fill="#65717C"/>
<path d="M102.468 125.969L101.504 126.483L95.311 122.999L96.3335 122.445L102.312 125.819C102.377 125.858 102.429 125.91 102.468 125.969Z" fill="#65717C"/>
<path d="M102.56 127.141V128.619C102.56 128.886 102.338 129.107 102.071 129.107C101.804 129.107 101.583 128.886 101.583 128.619V127.629L102.56 127.141Z" fill="#65717C"/>
<path d="M199 115.039C192.373 115.039 187 120.396 187 127.002C187 133.608 192.373 138.965 199 138.965C205.628 138.965 211 133.608 211 127.002C211 120.396 205.627 115.039 199 115.039ZM198.459 119.839C200.369 119.709 202.335 120.234 203.891 121.773C205.317 123.21 206.401 125.213 206.379 127.09H208.512L204.068 132.053L199.623 127.09H201.936C201.935 125.366 201.509 124.348 200.156 123.014C198.831 121.678 197.489 120.904 195.178 120.711C196.209 120.221 197.321 119.925 198.459 119.84V119.839ZM193.934 121.952L198.379 126.915H196.066C196.066 128.639 196.492 129.657 197.844 130.991C199.17 132.327 200.511 133.103 202.822 133.296C200.138 134.564 196.602 134.694 194.112 132.232C192.685 130.795 191.6 128.792 191.623 126.915H189.488L193.934 121.952Z" fill="#5444F2"/>
<path d="M264.371 122.88H267.741C268.448 122.88 269.025 123.04 269.471 123.36C269.918 123.673 270.141 124.173 270.141 124.86C270.141 125.287 270.038 125.653 269.831 125.96C269.625 126.26 269.335 126.477 268.961 126.61C269.135 126.65 269.285 126.71 269.411 126.79C269.538 126.87 269.635 126.957 269.701 127.05C269.775 127.143 269.835 127.263 269.881 127.41C269.928 127.557 269.958 127.687 269.971 127.8C269.991 127.907 270.008 128.05 270.021 128.23C270.028 128.277 270.035 128.367 270.041 128.5C270.055 128.633 270.061 128.723 270.061 128.77C270.068 128.81 270.075 128.883 270.081 128.99C270.095 129.097 270.105 129.173 270.111 129.22C270.118 129.26 270.128 129.323 270.141 129.41C270.161 129.49 270.178 129.553 270.191 129.6C270.205 129.64 270.221 129.69 270.241 129.75C270.261 129.803 270.285 129.85 270.311 129.89C270.338 129.93 270.368 129.967 270.401 130H269.061C269.041 129.973 269.021 129.943 269.001 129.91C268.988 129.87 268.975 129.83 268.961 129.79C268.948 129.743 268.938 129.703 268.931 129.67C268.925 129.63 268.915 129.58 268.901 129.52C268.895 129.453 268.888 129.4 268.881 129.36C268.881 129.32 268.878 129.26 268.871 129.18C268.865 129.1 268.858 129.04 268.851 129C268.851 128.96 268.848 128.89 268.841 128.79C268.835 128.69 268.831 128.62 268.831 128.58C268.798 128 268.675 127.603 268.461 127.39C268.255 127.17 267.858 127.06 267.271 127.06H265.611V130H264.371V122.88ZM265.611 123.9V126.13H267.261C267.501 126.13 267.705 126.117 267.871 126.09C268.038 126.063 268.205 126.017 268.371 125.95C268.545 125.877 268.675 125.76 268.761 125.6C268.855 125.44 268.901 125.237 268.901 124.99C268.901 124.763 268.861 124.577 268.781 124.43C268.701 124.277 268.585 124.163 268.431 124.09C268.285 124.017 268.131 123.967 267.971 123.94C267.818 123.913 267.635 123.9 267.421 123.9H265.611ZM275.892 128.39C275.766 128.95 275.489 129.387 275.062 129.7C274.642 130.013 274.139 130.17 273.552 130.17C272.772 130.17 272.152 129.92 271.692 129.42C271.239 128.913 271.012 128.267 271.012 127.48C271.012 126.673 271.246 126.007 271.712 125.48C272.186 124.953 272.786 124.69 273.512 124.69C274.266 124.69 274.862 124.95 275.302 125.47C275.742 125.983 275.962 126.687 275.962 127.58V127.7H272.152C272.166 128.22 272.296 128.623 272.542 128.91C272.789 129.19 273.132 129.33 273.572 129.33C273.886 129.33 274.139 129.257 274.332 129.11C274.532 128.957 274.689 128.717 274.802 128.39H275.892ZM274.822 126.94C274.789 126.507 274.652 126.167 274.412 125.92C274.179 125.667 273.876 125.54 273.502 125.54C273.129 125.54 272.826 125.66 272.592 125.9C272.366 126.14 272.226 126.487 272.172 126.94H274.822ZM276.779 126.43C276.899 125.263 277.652 124.68 279.039 124.68C279.686 124.68 280.199 124.807 280.579 125.06C280.966 125.313 281.159 125.707 281.159 126.24V128.86C281.159 129.007 281.176 129.107 281.209 129.16C281.249 129.213 281.322 129.24 281.429 129.24C281.509 129.24 281.596 129.233 281.689 129.22V130.02C281.396 130.093 281.149 130.13 280.949 130.13C280.462 130.13 280.182 129.923 280.109 129.51C279.676 129.923 279.072 130.13 278.299 130.13C277.766 130.13 277.342 129.993 277.029 129.72C276.716 129.44 276.559 129.063 276.559 128.59C276.559 128.443 276.576 128.307 276.609 128.18C276.642 128.053 276.679 127.943 276.719 127.85C276.766 127.757 276.836 127.67 276.929 127.59C277.029 127.51 277.109 127.443 277.169 127.39C277.236 127.337 277.339 127.287 277.479 127.24C277.626 127.193 277.732 127.16 277.799 127.14C277.872 127.113 277.996 127.087 278.169 127.06C278.342 127.033 278.456 127.017 278.509 127.01C278.569 126.997 278.689 126.98 278.869 126.96C279.276 126.907 279.552 126.863 279.699 126.83C279.846 126.79 279.946 126.733 279.999 126.66C280.046 126.607 280.069 126.483 280.069 126.29C280.069 125.77 279.716 125.51 279.009 125.51C278.636 125.51 278.362 125.58 278.189 125.72C278.016 125.86 277.906 126.097 277.859 126.43H276.779ZM280.059 127.41C279.972 127.457 279.872 127.5 279.759 127.54C279.646 127.573 279.552 127.597 279.479 127.61C279.412 127.617 279.302 127.63 279.149 127.65C279.002 127.67 278.906 127.683 278.859 127.69C278.719 127.71 278.609 127.73 278.529 127.75C278.449 127.763 278.349 127.79 278.229 127.83C278.116 127.87 278.026 127.92 277.959 127.98C277.899 128.033 277.846 128.11 277.799 128.21C277.752 128.303 277.729 128.417 277.729 128.55C277.729 128.797 277.809 128.987 277.969 129.12C278.136 129.253 278.366 129.32 278.659 129.32C279.166 129.32 279.556 129.183 279.829 128.91C279.982 128.757 280.059 128.46 280.059 128.02V127.41ZM283.556 122.88V130H282.426V122.88H283.556ZM295.131 122.88V130H293.941V124.51L291.961 130H290.941L288.911 124.51V130H287.731V122.88H289.481L291.471 128.45L293.391 122.88H295.131ZM298.858 124.69C299.644 124.69 300.271 124.937 300.738 125.43C301.204 125.923 301.438 126.587 301.438 127.42C301.438 128.26 301.204 128.927 300.738 129.42C300.278 129.913 299.651 130.16 298.858 130.16C298.051 130.16 297.411 129.913 296.938 129.42C296.464 128.927 296.228 128.26 296.228 127.42C296.228 126.587 296.464 125.923 296.938 125.43C297.418 124.937 298.058 124.69 298.858 124.69ZM299.898 126.08C299.644 125.753 299.291 125.59 298.838 125.59C298.384 125.59 298.028 125.753 297.768 126.08C297.508 126.407 297.378 126.853 297.378 127.42C297.378 128 297.508 128.453 297.768 128.78C298.028 129.107 298.388 129.27 298.848 129.27C299.294 129.27 299.644 129.107 299.898 128.78C300.158 128.447 300.288 127.99 300.288 127.41C300.288 126.843 300.158 126.4 299.898 126.08ZM303.485 124.84V125.6C303.899 125 304.469 124.7 305.195 124.7C305.782 124.7 306.219 124.86 306.505 125.18C306.799 125.5 306.945 125.96 306.945 126.56V130H305.805V127C305.805 126.793 305.795 126.623 305.775 126.49C305.755 126.35 305.712 126.21 305.645 126.07C305.585 125.93 305.485 125.827 305.345 125.76C305.205 125.687 305.025 125.65 304.805 125.65C303.965 125.65 303.545 126.173 303.545 127.22V130H302.405V124.84H303.485ZM312.758 128.39C312.631 128.95 312.354 129.387 311.928 129.7C311.508 130.013 311.004 130.17 310.418 130.17C309.638 130.17 309.018 129.92 308.558 129.42C308.104 128.913 307.878 128.267 307.878 127.48C307.878 126.673 308.111 126.007 308.578 125.48C309.051 124.953 309.651 124.69 310.378 124.69C311.131 124.69 311.728 124.95 312.168 125.47C312.608 125.983 312.828 126.687 312.828 127.58V127.7H309.018C309.031 128.22 309.161 128.623 309.408 128.91C309.654 129.19 309.998 129.33 310.438 129.33C310.751 129.33 311.004 129.257 311.198 129.11C311.398 128.957 311.554 128.717 311.668 128.39H312.758ZM311.688 126.94C311.654 126.507 311.518 126.167 311.278 125.92C311.044 125.667 310.741 125.54 310.368 125.54C309.994 125.54 309.691 125.66 309.458 125.9C309.231 126.14 309.091 126.487 309.038 126.94H311.688ZM318.244 124.84L316.334 129.9C316.314 129.947 316.278 130.043 316.224 130.19C316.171 130.343 316.134 130.447 316.114 130.5C316.094 130.553 316.054 130.647 315.994 130.78C315.941 130.913 315.898 131.007 315.864 131.06C315.831 131.113 315.781 131.193 315.714 131.3C315.648 131.407 315.584 131.483 315.524 131.53C315.471 131.577 315.401 131.633 315.314 131.7C315.234 131.773 315.151 131.823 315.064 131.85C314.978 131.883 314.878 131.91 314.764 131.93C314.658 131.957 314.541 131.97 314.414 131.97C314.201 131.97 313.938 131.95 313.624 131.91V130.95C313.864 130.997 314.064 131.02 314.224 131.02C314.304 131.02 314.378 131.007 314.444 130.98C314.511 130.96 314.571 130.92 314.624 130.86C314.678 130.807 314.724 130.753 314.764 130.7C314.804 130.653 314.841 130.583 314.874 130.49C314.914 130.403 314.944 130.333 314.964 130.28C314.984 130.233 315.011 130.157 315.044 130.05C315.078 129.943 315.098 129.877 315.104 129.85L313.124 124.84H314.374L315.754 128.64L317.054 124.84H318.244Z" fill="black"/>
<path d="M250.485 124.321C250.205 122.908 249.156 122.289 247.697 122.289H241.979C240.26 122.289 239.114 123.149 239.114 125.155V128.508C239.114 129.954 239.706 130.801 240.683 131.166C240.827 131.218 240.983 131.263 241.146 131.289C241.406 131.348 241.686 131.374 241.979 131.374H247.704C249.423 131.374 250.569 130.514 250.569 128.508V125.155C250.569 124.848 250.543 124.575 250.485 124.321ZM241.602 127.812C241.602 128.079 241.38 128.3 241.113 128.3C240.846 128.3 240.625 128.079 240.625 127.812V125.858C240.625 125.591 240.846 125.369 241.113 125.369C241.38 125.369 241.602 125.591 241.602 125.858V127.812ZM244.838 128.554C243.887 128.554 243.119 127.786 243.119 126.835C243.119 125.884 243.887 125.115 244.838 125.115C245.789 125.115 246.558 125.884 246.558 126.835C246.558 127.786 245.789 128.554 244.838 128.554ZM249.045 127.812C249.045 128.079 248.824 128.3 248.557 128.3C248.29 128.3 248.068 128.079 248.068 127.812V125.858C248.068 125.591 248.29 125.369 248.557 125.369C248.824 125.369 249.045 125.591 249.045 125.858V127.812Z" fill="#65717C"/>
<path d="M252.523 127.111V130.465C252.523 132.471 251.377 133.337 249.651 133.337H243.933C243.445 133.337 243.008 133.265 242.631 133.122C242.324 133.011 242.057 132.848 241.843 132.64C241.725 132.529 241.817 132.354 241.979 132.354H247.697C250.107 132.354 251.54 130.921 251.54 128.518V125.157C251.54 125.001 251.716 124.903 251.826 125.02C252.269 125.489 252.523 126.173 252.523 127.111Z" fill="#65717C"/>
</g>
<defs>
<filter id="filter0_d_4546_52024" x="0" y="0" width="417" height="238" filterUnits="userSpaceOnUse" color-interpolation-filters="sRGB">
<feFlood flood-opacity="0" result="BackgroundImageFix"/>
<feColorMatrix in="SourceAlpha" type="matrix" values="0 0 0 0 0 0 0 0 0 0 0 0 0 0 0 0 0 0 127 0" result="hardAlpha"/>
<feOffset dy="4"/>
<feGaussianBlur stdDeviation="30"/>
<feComposite in2="hardAlpha" operator="out"/>
<feColorMatrix type="matrix" values="0 0 0 0 0 0 0 0 0 0 0 0 0 0 0 0 0 0 0.16 0"/>
<feBlend mode="normal" in2="BackgroundImageFix" result="effect1_dropShadow_4546_52024"/>
<feBlend mode="normal" in="SourceGraphic" in2="effect1_dropShadow_4546_52024" result="shape"/>
</filter>
</defs>
</svg>
