<svg width="91" height="91" viewBox="0 0 91 91" fill="none" xmlns="http://www.w3.org/2000/svg">
<path opacity="0.4" d="M45.4997 83.4193C66.4405 83.4193 83.4163 66.4434 83.4163 45.5026C83.4163 24.5618 66.4405 7.58594 45.4997 7.58594C24.5589 7.58594 7.58301 24.5618 7.58301 45.5026C7.58301 66.4434 24.5589 83.4193 45.4997 83.4193Z" fill="#5444F2"/>
<path d="M40.1155 59.0752C39.3571 59.0752 38.6367 58.7719 38.1059 58.241L27.3755 47.5106C26.2759 46.411 26.2759 44.591 27.3755 43.4915C28.4751 42.3919 30.2951 42.3919 31.3946 43.4915L40.1155 52.2123L59.6046 32.7231C60.7042 31.6235 62.5242 31.6235 63.6238 32.7231C64.7234 33.8227 64.7234 35.6427 63.6238 36.7423L42.1251 58.241C41.5942 58.7719 40.8738 59.0752 40.1155 59.0752Z" fill="#5444F2"/>
</svg>
