<svg width="72" height="72" viewBox="0 0 72 72" fill="none" xmlns="http://www.w3.org/2000/svg">
<circle cx="36" cy="36" r="36" fill="#5444F2"/>
<path d="M33.1794 38.8205L41.2563 30.7436M49.5186 25.8144L42.7008 47.9721C42.0897 49.9584 41.7842 50.9515 41.2572 51.2808C40.8001 51.5664 40.2336 51.6133 39.7357 51.4068C39.1617 51.1686 38.6964 50.2392 37.767 48.3804L33.4487 39.7439C33.3012 39.4489 33.2274 39.3014 33.1289 39.1736C33.0415 39.0602 32.9402 38.9584 32.8268 38.871C32.699 38.7725 32.5511 38.6987 32.2561 38.5512L23.6196 34.233C21.7608 33.3036 20.8313 32.839 20.5931 32.265C20.3865 31.7672 20.4336 31.2 20.7192 30.7429C21.0485 30.2159 22.0418 29.9104 24.0282 29.2992L46.1858 22.4815C47.7474 22.001 48.5279 21.7607 49.0554 21.9543C49.5149 22.123 49.8773 22.4851 50.046 22.9445C50.2396 23.472 49.9991 24.2528 49.5186 25.8144Z" stroke="white" stroke-width="3" stroke-linecap="round" stroke-linejoin="round"/>
</svg>
