<svg width="72" height="72" viewBox="0 0 72 72" fill="none" xmlns="http://www.w3.org/2000/svg">
<circle cx="36" cy="36" r="36" fill="#5444F2"/>
<path d="M46 27.6665L46 44.3332C46 47.0946 41.5228 49.3332 36 49.3332C30.4772 49.3332 26 47.0946 26 44.3332L26 27.6665M46 27.6665C46 24.9051 41.5228 22.6665 36 22.6665C30.4772 22.6665 26 24.9051 26 27.6665M46 27.6665C46 30.4279 41.5228 32.6665 36 32.6665C30.4772 32.6665 26 30.4279 26 27.6665M46 35.9998C46 38.7613 41.5228 40.9998 36 40.9998C30.4772 40.9998 26 38.7613 26 35.9998" stroke="white" stroke-width="3" stroke-linecap="round" stroke-linejoin="round"/>
</svg>
