<svg width="72" height="72" viewBox="0 0 72 72" fill="none" xmlns="http://www.w3.org/2000/svg">
<circle cx="36" cy="36" r="36" fill="#5444F2"/>
<path d="M26 28.5003V28.0003C26 26.1335 26 25.2001 26.3633 24.4871C26.6829 23.8599 27.1925 23.3499 27.8197 23.0303C28.5327 22.667 29.4668 22.667 31.3337 22.667H45.667C47.5338 22.667 48.4666 22.667 49.1796 23.0303C49.8068 23.3499 50.3175 23.8599 50.637 24.4871C51.0004 25.2001 51 26.1335 51 28.0003V39.0003C51 40.8672 51.0004 41.8006 50.637 42.5136C50.3175 43.1408 49.8068 43.6507 49.1796 43.9703C48.4666 44.3336 47.5335 44.3337 45.6667 44.3337H33.5M32.6667 34.667V44.0003C32.6667 45.8672 32.667 46.8006 32.3037 47.5136C31.9841 48.1408 31.4735 48.6507 30.8463 48.9703C30.1333 49.3336 29.2005 49.3337 27.3337 49.3337H26.3337C24.4668 49.3337 23.5327 49.3336 22.8197 48.9703C22.1925 48.6507 21.6829 48.1408 21.3633 47.5136C21 46.8006 21 45.8672 21 44.0003V34.667C21 32.8002 21 31.8668 21.3633 31.1537C21.6829 30.5265 22.1925 30.0165 22.8197 29.697C23.5327 29.3337 24.4668 29.3337 26.3337 29.3337H27.3337C29.2005 29.3337 30.1333 29.3337 30.8463 29.697C31.4735 30.0165 31.9841 30.5265 32.3037 31.1537C32.667 31.8668 32.6667 32.8002 32.6667 34.667Z" stroke="white" stroke-width="3" stroke-linecap="round" stroke-linejoin="round"/>
</svg>
