<svg width="72" height="72" viewBox="0 0 72 72" fill="none" xmlns="http://www.w3.org/2000/svg">
<circle cx="36" cy="36" r="36" fill="#5444F2"/>
<path d="M21 21H21.4472C22.2369 21 22.632 21 22.9541 21.1425C23.2381 21.2681 23.4812 21.4705 23.6563 21.7269C23.8548 22.0178 23.9263 22.4061 24.0697 23.1826L27.6667 42.6667L45.0325 42.6667C45.7899 42.6667 46.1693 42.6666 46.4827 42.533C46.759 42.4151 46.9981 42.2247 47.1751 41.9819C47.3758 41.7067 47.4605 41.3376 47.6309 40.5995L50.2462 29.2662C50.5037 28.1504 50.6327 27.5927 50.4911 27.1544C50.3669 26.7701 50.1066 26.4439 49.76 26.2365C49.3648 26 48.793 26 47.6479 26H25.1667M46 51C45.0795 51 44.3333 50.2538 44.3333 49.3333C44.3333 48.4129 45.0795 47.6667 46 47.6667C46.9205 47.6667 47.6667 48.4129 47.6667 49.3333C47.6667 50.2538 46.9205 51 46 51ZM29.3333 51C28.4129 51 27.6667 50.2538 27.6667 49.3333C27.6667 48.4129 28.4129 47.6667 29.3333 47.6667C30.2538 47.6667 31 48.4129 31 49.3333C31 50.2538 30.2538 51 29.3333 51Z" stroke="white" stroke-width="3" stroke-linecap="round" stroke-linejoin="round"/>
</svg>
