<svg width="72" height="72" viewBox="0 0 72 72" fill="none" xmlns="http://www.w3.org/2000/svg">
<circle cx="36" cy="36" r="36" fill="#5444F2"/>
<path d="M47.6667 39.3333L46.3271 48.7105C46.2112 49.5223 46.1528 49.9281 45.9569 50.2334C45.7842 50.5025 45.538 50.7164 45.2472 50.8492C44.9173 51 44.5073 51 43.6873 51H28.3128C27.4928 51 27.0827 51 26.7528 50.8492C26.462 50.7164 26.2154 50.5025 26.0428 50.2334C25.8468 49.9281 25.7889 49.5223 25.6729 48.7105L24.3333 39.3333M47.6667 39.3333H24.3333M47.6667 39.3333C49.8385 38.3259 51 35.606 51 33.2223C51 30.6632 49.2843 28.4715 46.8496 27.5613C46.3284 27.3664 46 26.8633 46 26.3473C46 24.2379 44.1345 22.5277 41.8333 22.5277C41.4562 22.5277 41.0911 22.5736 40.7437 22.6597C40.0233 22.8382 39.2175 22.7989 38.5977 22.4181C37.1401 21.5224 35.3866 21 33.5 21C28.4374 21 24.3333 24.7621 24.3333 29.4028C24.3333 29.9894 23.9515 30.5266 23.4048 30.8315C21.9629 31.6356 21 33.0897 21 34.75C21 36.8789 22.1871 38.8181 24.3333 39.3333M39.3333 51V39.3333M32.6667 51L32.6667 39.3333" stroke="white" stroke-width="3" stroke-linecap="round" stroke-linejoin="round"/>
</svg>
