<svg width="72" height="72" viewBox="0 0 72 72" fill="none" xmlns="http://www.w3.org/2000/svg">
<circle cx="36" cy="36" r="36" fill="#5444F2"/>
<path d="M21 37.5002H51V34.5002H21V37.5002ZM36 49.5002C28.5442 49.5002 22.5 43.4561 22.5 36.0002H19.5C19.5 45.1129 26.8873 52.5002 36 52.5002V49.5002ZM22.5 36.0002C22.5 28.5444 28.5442 22.5002 36 22.5002V19.5002C26.8873 19.5002 19.5 26.8875 19.5 36.0002H22.5ZM36 22.5002C43.4558 22.5002 49.5 28.5444 49.5 36.0002H52.5C52.5 26.8875 45.1127 19.5002 36 19.5002V22.5002ZM49.5 36.0002C49.5 43.4561 43.4558 49.5002 36 49.5002V52.5002C45.1127 52.5002 52.5 45.1129 52.5 36.0002H49.5ZM36 49.5002C35.5676 49.5002 35.0427 49.3093 34.4391 48.7349C33.8278 48.1531 33.209 47.2403 32.6567 45.9976C31.5538 43.5161 30.8333 39.9827 30.8333 36.0002H27.8333C27.8333 40.302 28.6053 44.2687 29.9152 47.2161C30.5694 48.6879 31.3871 49.9718 32.371 50.9081C33.3625 51.8517 34.5915 52.5002 36 52.5002V49.5002ZM30.8333 36.0002C30.8333 32.0177 31.5538 28.4844 32.6567 26.0029C33.209 24.7602 33.8278 23.8474 34.4391 23.2656C35.0427 22.6912 35.5676 22.5002 36 22.5002V19.5002C34.5915 19.5002 33.3625 20.1488 32.371 21.0924C31.3871 22.0287 30.5694 23.3126 29.9152 24.7844C28.6053 27.7318 27.8333 31.6985 27.8333 36.0002H30.8333ZM36 22.5002C36.4324 22.5002 36.9573 22.6912 37.5609 23.2656C38.1722 23.8474 38.791 24.7602 39.3433 26.0029C40.4462 28.4844 41.1667 32.0177 41.1667 36.0002H44.1667C44.1667 31.6985 43.3947 27.7318 42.0848 24.7844C41.4306 23.3126 40.6129 22.0287 39.629 21.0924C38.6375 20.1488 37.4085 19.5002 36 19.5002V22.5002ZM41.1667 36.0002C41.1667 39.9827 40.4462 43.5161 39.3433 45.9976C38.791 47.2403 38.1722 48.1531 37.5609 48.7349C36.9573 49.3093 36.4324 49.5002 36 49.5002V52.5002C37.4085 52.5002 38.6375 51.8517 39.629 50.9081C40.6129 49.9718 41.4306 48.6879 42.0848 47.2161C43.3947 44.2687 44.1667 40.302 44.1667 36.0002H41.1667Z" fill="white"/>
</svg>
