<svg width="72" height="72" viewBox="0 0 72 72" fill="none" xmlns="http://www.w3.org/2000/svg">
<circle cx="36" cy="36" r="36" fill="#5444F2"/>
<path d="M42.6664 29.3332C42.6664 25.6513 39.6817 22.6665 35.9998 22.6665C32.3179 22.6665 29.3331 25.6513 29.3331 29.3332M49.9642 35.5433L48.4086 44.8766C48.1447 46.4599 48.0126 47.2515 47.6176 47.8456C47.2694 48.3692 46.7806 48.7838 46.2068 49.0412C45.5559 49.3332 44.7538 49.3332 43.1486 49.3332H28.8513C27.2462 49.3332 26.444 49.3332 25.7931 49.0412C25.2193 48.7838 24.73 48.3692 24.3818 47.8456C23.9867 47.2515 23.8544 46.4599 23.5905 44.8766L22.0349 35.5433C21.6788 33.4067 21.5005 32.3384 21.8098 31.5058C22.0811 30.7752 22.6007 30.1629 23.2768 29.7751C24.0472 29.3332 25.1293 29.3332 27.2953 29.3332H44.7038C46.8698 29.3332 47.9532 29.3332 48.7236 29.7751C49.3997 30.1629 49.9181 30.7752 50.1895 31.5058C50.4987 32.3384 50.3203 33.4067 49.9642 35.5433Z" stroke="white" stroke-width="3" stroke-linecap="round" stroke-linejoin="round"/>
</svg>
