<svg width="276" height="32" viewBox="0 0 276 32" fill="none" xmlns="http://www.w3.org/2000/svg">
<path d="M195.393 35.3925H195.851C196.126 35.3925 196.126 35.3925 196.126 35.5759V37.8689L193.237 34.9798H191.311L191.357 35.3925H192.091V38.8778C192.091 39.0154 192.091 39.0612 191.724 39.0612H191.403L191.311 39.4739H193.375L193.329 39.0612H192.916C192.549 39.0612 192.549 39.0154 192.549 38.8778V35.8052L196.218 39.5198H196.539V35.5759C196.539 35.4384 196.539 35.3925 196.814 35.3925H197.273L197.365 34.9798H195.347L195.393 35.3925ZM154.487 34.9798H149.35L149.259 36.539H149.717C149.809 35.6677 150.267 35.3925 151.322 35.3925V39.0612H150.543L150.497 39.4739H153.294L153.202 39.0612H152.469V35.3925C153.569 35.3925 153.982 35.6677 154.074 36.539H154.532L154.487 34.9798ZM147.47 37.9606C147.47 38.7861 147.057 39.0612 145.682 39.0612H144.719V37.4103H145.177C145.957 37.4103 145.957 37.6396 145.957 37.9606V38.0982H146.415V36.218H145.957V36.4014C145.957 36.6766 145.957 36.9976 145.177 36.9976H144.719V35.3925H145.819C147.149 35.3925 147.149 36.1263 147.149 36.3097H147.608L147.47 34.9798H142.838L142.93 35.3925H143.526V39.0612H142.93L142.838 39.4739H147.745L147.883 37.9606H147.47ZM141.142 37.9606C141.142 38.7861 140.729 39.0612 139.353 39.0612H138.39V37.4103H138.849C139.628 37.4103 139.628 37.6396 139.628 37.9606V38.0982H140.087V36.218H139.628V36.4014C139.628 36.6766 139.628 36.9976 138.849 36.9976H138.39V35.3925H139.491C140.821 35.3925 140.821 36.1263 140.821 36.3097H141.279L141.142 34.9798H136.51L136.602 35.3925H137.198V39.0612H136.602L136.51 39.4739H141.417L141.554 37.9606H141.142ZM79.6448 35.3925H80.3785V38.8778C80.3785 38.9695 80.4244 39.0612 80.4703 39.1071C80.5161 39.1529 80.562 39.1988 80.562 39.3364C80.562 39.474 80.2868 39.5198 80.1034 39.5198C80.0575 39.5198 80.0575 39.5198 80.0117 39.5198C80.1034 39.474 80.1951 39.3822 80.1951 39.1988C80.1951 38.9237 79.9658 38.7861 79.6448 38.7861C79.2779 38.7861 79.0486 38.9695 79.0486 39.2905C79.0486 39.6115 79.3696 39.9325 80.0575 39.9325C80.9288 39.9325 81.525 39.4281 81.525 38.6944V35.3925H82.2129L82.3505 34.9798H79.5989L79.6448 35.3925ZM87.7618 37.9606C87.7618 38.7861 87.3491 39.0612 85.9733 39.0612H85.0103V37.4103H85.4689C86.2485 37.4103 86.2485 37.6396 86.2485 37.9606V38.0982H86.7071V36.218H86.2485V36.4014C86.2485 36.6766 86.2485 36.9976 85.4689 36.9976H85.0103V35.3925H86.1109C87.4408 35.3925 87.4408 36.1263 87.4408 36.3097H87.8994L87.7618 34.9798H83.1301L83.2218 35.3925H83.8179V39.0612H83.2218L83.1301 39.4739H88.037L88.1745 37.9606H87.7618ZM98.768 37.9606L97.1629 34.9798H95.3285L95.4202 35.3925H96.0623V38.7402C96.0623 39.0612 96.0623 39.0612 95.7413 39.0612H95.4661L95.3744 39.4739H97.3463L97.2546 39.0612H96.8877C96.5667 39.0612 96.5667 39.0154 96.5667 38.7402V36.1263L98.3552 39.3822H98.6304L100.373 36.0804V39.0612H99.6851L99.5934 39.4739H102.207L102.116 39.0612H101.474V35.3925H102.116L102.207 34.9798H100.419L98.768 37.9606ZM106.61 35.3925H106.977C107.114 35.3925 107.16 35.3925 107.16 35.3925C107.16 35.4842 107.068 35.576 106.977 35.7594L106.105 37.181L105.005 35.3466H105.463L105.555 34.9339H102.895L102.987 35.3466H103.721L105.188 37.7772V39.0154H104.409L104.317 39.4281H107.206L107.114 39.0154H106.335V37.7313L107.619 35.6218C107.71 35.4384 107.756 35.3925 107.986 35.3925H108.398L108.49 34.9798H106.518L106.61 35.3925ZM113.305 35.3925H113.764C114.039 35.3925 114.039 35.3925 114.039 35.5759V37.8689L111.15 34.9798H109.224L109.315 35.3925H110.003V38.8778C110.003 39.0154 110.003 39.0612 109.637 39.0612H109.315L109.224 39.4739H111.287L111.242 39.0612H110.829C110.462 39.0612 110.462 39.0154 110.462 38.8778V35.8052L114.131 39.5198H114.452V35.5759C114.452 35.4384 114.452 35.3925 114.727 35.3925H115.14L115.231 34.9798H113.214L113.305 35.3925ZM122.706 35.0256H123.119V36.5848H122.706V36.4473C122.615 35.7135 122.064 35.3008 121.193 35.3008C120.597 35.3008 120.184 35.5759 120.184 36.0345C120.184 36.4014 120.23 36.539 121.652 36.7224C122.752 36.86 123.44 37.1351 123.44 38.0982C123.44 38.8319 122.936 39.6115 121.514 39.6115C120.964 39.6115 120.597 39.474 120.322 39.3822L120.138 39.2905L119.909 39.5198H119.45V37.6855H119.909V37.823C119.909 39.0154 121.147 39.1071 121.514 39.1071C122.202 39.1071 122.706 38.7861 122.706 38.3733C122.706 37.9148 122.431 37.7313 121.468 37.6396C120.23 37.502 119.45 37.3186 119.45 36.1721C119.45 35.3925 120.138 34.8422 121.147 34.8422C121.697 34.8422 122.064 34.9798 122.294 35.1174C122.431 35.1632 122.431 35.2091 122.523 35.2091L122.706 35.0256ZM163.429 37.823C163.337 38.7861 162.787 39.1071 161.549 39.1071H160.677V35.4384H161.411L161.503 35.0256H158.751L158.797 35.4384H159.531V39.1071H158.797L158.751 39.5198H163.796L163.888 37.823H163.429ZM167.602 34.8881C166.089 34.8881 164.896 35.9428 164.896 37.2269C164.896 38.5109 166.135 39.5657 167.602 39.5657C169.115 39.5657 170.308 38.5109 170.308 37.2269C170.354 35.9428 169.115 34.8881 167.602 34.8881ZM167.602 35.3008C168.84 35.3008 169.07 36.3555 169.07 37.2269C169.07 38.0982 168.794 39.1529 167.602 39.1529C166.364 39.1529 166.135 38.0982 166.135 37.2269C166.135 36.3555 166.41 35.3008 167.602 35.3008ZM175.398 35.3925H175.857C176.132 35.3925 176.132 35.3925 176.132 35.5759V37.8689L173.289 34.9798H171.363L171.408 35.3925H172.142V38.8778C172.142 39.0154 172.142 39.0612 171.821 39.0612H171.454L171.363 39.4739H173.426L173.335 39.0612H172.922C172.601 39.0612 172.601 39.0154 172.601 38.8778V35.8052L176.269 39.5198H176.59V35.5759C176.59 35.4384 176.59 35.3925 176.866 35.3925H177.324L177.416 34.9798H175.352L175.398 35.3925ZM180.81 34.9798H178.104L178.196 35.3925H178.883V39.0612H178.196L178.104 39.4739H180.81C182.598 39.4739 183.744 38.6026 183.744 37.2269C183.744 36.4014 183.148 34.9798 180.81 34.9798ZM180.03 35.3925H180.259C182.231 35.3925 182.506 36.3555 182.506 37.2269C182.506 38.4192 181.864 39.0612 180.58 39.0612H180.03V35.3925ZM187.597 34.8881C186.083 34.8881 184.891 35.9428 184.891 37.2269C184.891 38.5109 186.129 39.5657 187.597 39.5657C189.11 39.5657 190.302 38.5109 190.302 37.2269C190.302 35.9428 189.064 34.8881 187.597 34.8881ZM187.597 35.3008C188.835 35.3008 189.064 36.3555 189.064 37.2269C189.064 38.0982 188.789 39.1529 187.597 39.1529C186.358 39.1529 186.129 38.0982 186.129 37.2269C186.083 36.3555 186.358 35.3008 187.597 35.3008ZM129.723 34.9798H124.587L124.495 36.539H124.953C125.045 35.6677 125.504 35.3925 126.558 35.3925V39.0612H125.779L125.733 39.4739H128.53L128.439 39.0612H127.705V35.3925C128.806 35.3925 129.218 35.6677 129.31 36.539H129.769L129.723 34.9798ZM94.0445 39.0612C93.9986 39.1071 93.8611 39.1071 93.7693 39.1071C93.6776 39.1071 93.54 39.1071 93.54 38.8778L93.4483 38.144C93.3566 37.5479 93.0815 37.2727 92.7146 37.181C93.3107 36.9976 93.6318 36.6766 93.6318 36.218C93.6318 35.0257 92.1643 35.0256 91.7057 35.0256H89.2752L89.3669 35.3925H90.0089V39.0612H89.3669L89.2752 39.4281H91.8433L91.7515 39.0612H91.1095V37.3645H91.4305C92.256 37.3645 92.256 37.6855 92.3018 37.9606L92.3477 38.3275C92.4394 39.0154 92.5311 39.4739 93.54 39.4739C93.8611 39.4739 94.0445 39.4281 94.1821 39.3822C94.3655 39.3364 94.5489 39.1988 94.5489 39.1988L94.3655 38.8778C94.3196 38.9236 94.1362 39.0154 94.0445 39.0612ZM91.0178 35.3925H91.3847C92.3477 35.3925 92.4853 35.8052 92.4853 36.1721C92.4853 36.539 92.3477 36.9517 91.2471 36.9517H91.0178V35.3925ZM135.409 39.0612C135.363 39.0612 135.226 39.1071 135.134 39.1071C135.042 39.1071 134.951 39.1071 134.905 38.8778L134.813 38.144C134.721 37.5479 134.446 37.2727 134.079 37.181C134.675 36.9976 134.996 36.6766 134.996 36.218C134.996 35.0257 133.529 35.0256 133.07 35.0256H130.64L130.732 35.3925H131.374V39.0612H130.732L130.64 39.4281H133.208L133.116 39.0612H132.474V37.3645H132.795C133.575 37.3645 133.621 37.6855 133.667 37.9606L133.712 38.3275C133.804 39.0154 133.896 39.4739 134.905 39.4739C135.226 39.4739 135.409 39.4281 135.547 39.3822C135.73 39.3364 135.914 39.1988 135.914 39.1988L135.73 38.8778C135.684 38.9236 135.501 39.0154 135.409 39.0612ZM132.383 35.3925H132.749C133.758 35.3925 133.85 35.8053 133.85 36.218C133.85 36.5849 133.712 36.9976 132.612 36.9976H132.383V35.3925ZM143.205 22.8272C140.958 21.6348 135.868 21.91 130.273 23.0106L125.183 23.9278C116.469 25.3494 108.765 25.5329 103.033 21.5431L103.125 21.3138C107.023 24.0195 113.81 23.8819 121.101 22.9189L128.485 21.7266C134.721 20.8094 140.133 20.8552 143.297 22.7355L143.205 22.8272ZM133.208 23.3316C135.409 24.524 140.545 24.2488 146.14 23.1482L151.231 22.231C159.99 20.8094 167.648 20.6259 173.38 24.6157L173.289 24.845C169.391 22.1393 162.604 22.2769 155.312 23.2399L147.929 24.4322C141.692 25.3494 136.281 25.3036 133.116 23.4233L133.208 23.3316ZM275.371 0.493892H262.117L261.705 4.34605H262.897C262.943 2.83271 263.952 1.45693 267.162 1.45693H267.208V10.8121H265.282L264.961 11.7752H272.481L272.16 10.8121H270.28V1.45693H270.326C273.536 1.45693 274.591 2.83271 274.591 4.34605H275.783L275.371 0.493892ZM257.073 0.493892H243.82L243.407 4.34605H244.599C244.599 2.83271 245.654 1.45693 248.864 1.45693H248.91V10.8121H246.984L246.663 11.7752H254.23L253.909 10.8121H251.983V1.45693H252.028C255.239 1.45693 256.293 2.83271 256.293 4.34605H257.486L257.073 0.493892ZM11.6819 1.36522C11.5443 1.2735 11.2692 1.18178 11.0399 1.0442C10.352 0.723192 9.38897 0.264598 7.92149 0.264598C3.97762 0.264598 0.675781 2.97028 0.675781 6.18041C0.675781 9.39053 3.97762 12.0962 7.92149 12.0962C9.48069 12.0962 10.5354 11.5459 11.2692 11.2249C11.4068 11.179 11.5443 11.0873 11.6819 11.0414L12.2781 11.7293H13.4704V7.41859H12.2781C12.2781 9.02365 10.4896 11.179 7.96735 11.179C4.71136 11.179 4.02348 8.5192 4.02348 6.27212C4.02348 4.02503 4.71136 1.36522 7.96735 1.36522C10.5354 1.36522 12.2781 3.33715 12.2781 4.80464H13.4704V0.860772H12.2781L11.6819 1.36522ZM28.558 1.45693H30.3006V5.49252H23.2384V1.45693H24.9351L25.2561 0.493892H18.2856L18.6066 1.50279H20.2117V10.858H18.6066L18.2856 11.821H25.2561L24.9351 10.858H23.2384V6.50141H30.2548V10.858H28.5121L28.1911 11.821H35.1617L34.8407 10.858H33.2356V1.50279H34.8407L35.1617 0.539754H28.237L28.558 1.45693ZM46.443 0.264598H45.6634L40.894 10.1701C40.573 10.8121 40.4813 10.8121 39.931 10.8121H39.1055L38.7845 11.7752H44.1042L43.7831 10.8121H42.545C42.2239 10.8121 42.0864 10.7663 42.0405 10.7663C42.0864 10.5829 42.2239 10.216 42.3157 10.0325L43.0953 8.38163H47.1308L48.3232 10.8121H46.764L46.443 11.7752H53.5969L53.2759 10.8121H51.625L46.443 0.264598ZM43.5997 7.41859L45.113 4.1626L46.7181 7.41859H43.5997ZM89 7.60202C89 10.0325 88.2663 10.8121 84.0014 10.8121H81.7084V1.45693H83.5428L83.8638 0.493892H76.4805L76.8015 1.45693H78.6818V10.8121H76.8015L76.4805 11.7752H90.1923V7.55617L89 7.60202ZM106.839 8.01476C106.839 10.1243 105.693 10.858 102.07 10.858H99.5475V6.54727H100.74C102.804 6.54727 102.804 7.46445 102.804 8.38163H103.996V3.61231H102.804C102.804 4.48362 102.666 5.53837 100.786 5.53837H99.5934V1.45693H102.574C105.739 1.45693 106.06 2.92442 106.06 3.79574H107.298L106.977 0.493892H94.6406L94.9617 1.45693H96.5667V10.8121H94.9617L94.6406 11.7752H107.665L108.077 7.92304C108.031 8.01476 106.839 8.01476 106.839 8.01476ZM119.404 4.80464C115.598 4.34605 115.461 4.02503 115.461 3.06199C115.461 1.91552 116.515 1.22764 118.166 1.22764C120.459 1.22764 121.973 2.32825 122.156 4.1626L122.202 4.48362H123.348V0.585616H122.248L121.652 1.09007C121.514 1.04421 121.376 0.998351 121.193 0.906633C120.551 0.63148 119.634 0.21875 118.12 0.21875C115.506 0.21875 113.672 1.59451 113.672 3.56644C113.672 6.45555 115.69 6.86828 119.038 7.23516C121.56 7.51031 122.339 7.92304 122.339 9.16123C122.339 10.2618 121.055 11.0414 119.221 11.0414C116.515 11.0414 114.91 9.43639 114.91 7.32688H113.718V11.8669H114.91L115.415 11.2707C115.598 11.3166 115.782 11.3625 115.965 11.4542C116.699 11.6835 117.708 12.0045 119.129 12.0045C122.294 12.0045 124.22 10.537 124.22 8.19819C124.174 5.90525 122.339 5.17151 119.404 4.80464ZM203.005 0.493892L202.684 1.50279H203.922C203.922 1.50279 204.335 1.45693 204.427 1.64036C204.519 1.8238 204.289 2.19068 204.289 2.19068L201.033 8.56506L199.061 4.3919L200.254 2.09895C200.254 2.05309 200.3 2.0531 200.3 2.00724C200.391 1.86967 200.483 1.73208 200.621 1.64036C200.804 1.50279 201.125 1.45693 201.584 1.45693H202.18L202.501 0.448044H197.548H187.184L187.505 1.45693H188.881L194.246 12.1879H195.072L197.456 7.55617L199.658 12.1879H200.483L205.573 2.2824C205.986 1.41108 206.215 1.50279 207.362 1.50279L207.683 0.493892H203.005ZM195.622 8.56506L192.137 1.50279H194.43L196.814 6.31798L195.622 8.56506ZM197.548 1.50279C197.869 1.50279 198.373 1.50279 198.419 1.50279C198.694 1.50279 198.878 1.50279 198.97 1.64036C199.015 1.68622 198.97 1.77794 198.97 1.86966L198.832 2.14482C198.832 2.14482 198.832 2.14482 198.832 2.19068L198.328 3.19958L197.548 1.50279ZM221.67 1.45693H223.367V5.49252H216.35V1.45693H218.093L218.414 0.448044H211.443L211.764 1.45693H213.369V10.8121H211.764L211.443 11.7752H218.414L218.093 10.8121H216.35V6.45555H223.367V10.8121H221.67L221.349 11.7752H228.319L227.998 10.8121H226.393V1.45693H227.998L228.319 0.448044H221.349L221.67 1.45693ZM232.584 1.45693H234.235V10.8121H232.584L232.263 11.7752H239.234L238.913 10.8121H237.262V1.45693H238.913L239.234 0.448044H232.263L232.584 1.45693ZM148.341 0.493892H135.088L134.675 4.34605H135.868C135.868 2.83271 136.923 1.45693 140.133 1.45693H140.179V10.8121H138.252L137.931 11.7752H145.452L145.131 10.8121H143.251V1.45693H143.297C146.507 1.45693 147.562 2.83271 147.562 4.34605H148.754L148.341 0.493892ZM167.419 0.493892H162.328L162.053 1.50279C162.053 1.50279 163.2 1.50279 163.291 1.50279C163.567 1.50279 163.75 1.50279 163.842 1.64036C163.933 1.77794 163.796 2.00724 163.704 2.14482C163.658 2.23653 163.567 2.37412 163.475 2.51169L161.182 6.13454L158.293 1.45693H159.485L159.76 0.448044H152.652L152.973 1.45693H154.808L158.66 7.64788V10.8121H156.688L156.367 11.7752H163.979L163.658 10.8121H161.686V7.41859L165.126 2.09895C165.355 1.73208 165.584 1.45693 166.135 1.45693H167.144L167.419 0.493892ZM71.3902 10.8121C71.2068 10.858 70.794 10.9497 70.5189 10.9497C70.2437 10.9497 69.9227 10.9497 69.831 10.3077L69.51 8.47335C69.2807 6.96001 68.4552 6.27212 67.3087 5.95111C69.0514 5.44666 69.9686 4.6212 69.9686 3.52058C69.9686 0.493895 65.7495 0.493892 64.3279 0.493892H57.2657L57.5867 1.50279H59.421V10.9039H57.5867L57.2657 11.8669H64.6948L64.3738 10.9039H62.4936V6.54727H63.4566C65.7954 6.54727 65.8871 7.32688 66.0247 8.01476L66.1623 8.97779C66.4833 10.7204 66.6667 11.9586 69.6476 11.9586C70.5647 11.9586 71.1609 11.8669 71.5278 11.7293C72.0322 11.5917 72.5367 11.2707 72.5367 11.2707L71.9864 10.4453C72.1698 10.4911 71.7112 10.7204 71.3902 10.8121ZM62.5853 1.50279H63.64C66.4833 1.50279 66.896 2.60341 66.896 3.56644C66.896 4.57534 66.4833 5.53837 63.2732 5.53837H62.6311V1.50279H62.5853ZM185.258 10.7663C185.074 10.8122 184.662 10.9039 184.387 10.9039C184.111 10.9039 183.79 10.9039 183.699 10.2618L183.378 8.42749C183.148 6.91415 182.323 6.22626 181.176 5.90525C182.919 5.4008 183.836 4.57533 183.836 3.47472C183.836 0.448033 179.617 0.448044 178.196 0.448044H171.133L171.454 1.41107H173.289V10.8121H171.454L171.133 11.821H178.562L178.241 10.8121H176.315V6.45555H177.278C179.617 6.45555 179.755 7.23516 179.846 7.92304L179.984 8.88608C180.305 10.6287 180.489 11.8669 183.469 11.8669C184.387 11.8669 184.983 11.7752 185.35 11.6835C185.808 11.5459 186.358 11.2249 186.358 11.2249L185.808 10.3994C185.992 10.3994 185.533 10.6746 185.258 10.7663ZM176.407 1.41107H177.462C180.351 1.41107 180.672 2.51168 180.672 3.47472C180.672 4.43776 180.259 5.44666 177.049 5.44666H176.407V1.41107Z" fill="#65717C"/>
</svg>
