<svg width="299" height="36" viewBox="0 0 299 36" fill="none" xmlns="http://www.w3.org/2000/svg">
<g clip-path="url(#clip0_965_8315)">
<path d="M204.393 39.3925H204.851C205.126 39.3925 205.126 39.3925 205.126 39.5759V41.8689L202.237 38.9798H200.311L200.357 39.3925H201.091V42.8778C201.091 43.0154 201.091 43.0612 200.724 43.0612H200.403L200.311 43.4739H202.375L202.329 43.0612H201.916C201.549 43.0612 201.549 43.0154 201.549 42.8778V39.8052L205.218 43.5198H205.539V39.5759C205.539 39.4384 205.539 39.3925 205.814 39.3925H206.273L206.365 38.9798H204.347L204.393 39.3925ZM163.487 38.9798H158.35L158.259 40.539H158.717C158.809 39.6677 159.267 39.3925 160.322 39.3925V43.0612H159.543L159.497 43.4739H162.294L162.202 43.0612H161.469V39.3925C162.569 39.3925 162.982 39.6677 163.074 40.539H163.532L163.487 38.9798ZM156.47 41.9606C156.47 42.7861 156.057 43.0612 154.682 43.0612H153.719V41.4103H154.177C154.957 41.4103 154.957 41.6396 154.957 41.9606V42.0982H155.415V40.218H154.957V40.4014C154.957 40.6766 154.957 40.9976 154.177 40.9976H153.719V39.3925H154.819C156.149 39.3925 156.149 40.1263 156.149 40.3097H156.608L156.47 38.9798H151.838L151.93 39.3925H152.526V43.0612H151.93L151.838 43.4739H156.745L156.883 41.9606H156.47ZM150.142 41.9606C150.142 42.7861 149.729 43.0612 148.353 43.0612H147.39V41.4103H147.849C148.628 41.4103 148.628 41.6396 148.628 41.9606V42.0982H149.087V40.218H148.628V40.4014C148.628 40.6766 148.628 40.9976 147.849 40.9976H147.39V39.3925H148.491C149.821 39.3925 149.821 40.1263 149.821 40.3097H150.279L150.142 38.9798H145.51L145.602 39.3925H146.198V43.0612H145.602L145.51 43.4739H150.417L150.554 41.9606H150.142ZM88.6448 39.3925H89.3785V42.8778C89.3785 42.9695 89.4244 43.0612 89.4703 43.1071C89.5161 43.1529 89.562 43.1988 89.562 43.3364C89.562 43.474 89.2868 43.5198 89.1034 43.5198C89.0575 43.5198 89.0575 43.5198 89.0117 43.5198C89.1034 43.474 89.1951 43.3822 89.1951 43.1988C89.1951 42.9237 88.9658 42.7861 88.6448 42.7861C88.2779 42.7861 88.0486 42.9695 88.0486 43.2905C88.0486 43.6115 88.3696 43.9325 89.0575 43.9325C89.9288 43.9325 90.525 43.4281 90.525 42.6944V39.3925H91.2129L91.3505 38.9798H88.5989L88.6448 39.3925ZM96.7618 41.9606C96.7618 42.7861 96.3491 43.0612 94.9733 43.0612H94.0103V41.4103H94.4689C95.2485 41.4103 95.2485 41.6396 95.2485 41.9606V42.0982H95.7071V40.218H95.2485V40.4014C95.2485 40.6766 95.2485 40.9976 94.4689 40.9976H94.0103V39.3925H95.1109C96.4408 39.3925 96.4408 40.1263 96.4408 40.3097H96.8994L96.7618 38.9798H92.1301L92.2218 39.3925H92.8179V43.0612H92.2218L92.1301 43.4739H97.037L97.1745 41.9606H96.7618ZM107.768 41.9606L106.163 38.9798H104.329L104.42 39.3925H105.062V42.7402C105.062 43.0612 105.062 43.0612 104.741 43.0612H104.466L104.374 43.4739H106.346L106.255 43.0612H105.888C105.567 43.0612 105.567 43.0154 105.567 42.7402V40.1263L107.355 43.3822H107.63L109.373 40.0804V43.0612H108.685L108.593 43.4739H111.207L111.116 43.0612H110.474V39.3925H111.116L111.207 38.9798H109.419L107.768 41.9606ZM115.61 39.3925H115.977C116.114 39.3925 116.16 39.3925 116.16 39.3925C116.16 39.4842 116.068 39.576 115.977 39.7594L115.105 41.181L114.005 39.3466H114.463L114.555 38.9339H111.895L111.987 39.3466H112.721L114.188 41.7772V43.0154H113.409L113.317 43.4281H116.206L116.114 43.0154H115.335V41.7313L116.619 39.6218C116.71 39.4384 116.756 39.3925 116.986 39.3925H117.398L117.49 38.9798H115.518L115.61 39.3925ZM122.305 39.3925H122.764C123.039 39.3925 123.039 39.3925 123.039 39.5759V41.8689L120.15 38.9798H118.224L118.315 39.3925H119.003V42.8778C119.003 43.0154 119.003 43.0612 118.637 43.0612H118.315L118.224 43.4739H120.287L120.242 43.0612H119.829C119.462 43.0612 119.462 43.0154 119.462 42.8778V39.8052L123.131 43.5198H123.452V39.5759C123.452 39.4384 123.452 39.3925 123.727 39.3925H124.14L124.231 38.9798H122.214L122.305 39.3925ZM131.706 39.0256H132.119V40.5848H131.706V40.4473C131.615 39.7135 131.064 39.3008 130.193 39.3008C129.597 39.3008 129.184 39.5759 129.184 40.0345C129.184 40.4014 129.23 40.539 130.652 40.7224C131.752 40.86 132.44 41.1351 132.44 42.0982C132.44 42.8319 131.936 43.6115 130.514 43.6115C129.964 43.6115 129.597 43.474 129.322 43.3822L129.138 43.2905L128.909 43.5198H128.45V41.6855H128.909V41.823C128.909 43.0154 130.147 43.1071 130.514 43.1071C131.202 43.1071 131.706 42.7861 131.706 42.3733C131.706 41.9148 131.431 41.7313 130.468 41.6396C129.23 41.502 128.45 41.3186 128.45 40.1721C128.45 39.3925 129.138 38.8422 130.147 38.8422C130.697 38.8422 131.064 38.9798 131.294 39.1174C131.431 39.1632 131.431 39.2091 131.523 39.2091L131.706 39.0256ZM172.429 41.823C172.337 42.7861 171.787 43.1071 170.549 43.1071H169.677V39.4384H170.411L170.503 39.0256H167.751L167.797 39.4384H168.531V43.1071H167.797L167.751 43.5198H172.796L172.888 41.823H172.429ZM176.602 38.8881C175.089 38.8881 173.896 39.9428 173.896 41.2269C173.896 42.5109 175.135 43.5657 176.602 43.5657C178.115 43.5657 179.308 42.5109 179.308 41.2269C179.354 39.9428 178.115 38.8881 176.602 38.8881ZM176.602 39.3008C177.84 39.3008 178.07 40.3555 178.07 41.2269C178.07 42.0982 177.794 43.1529 176.602 43.1529C175.364 43.1529 175.135 42.0982 175.135 41.2269C175.135 40.3555 175.41 39.3008 176.602 39.3008ZM184.398 39.3925H184.857C185.132 39.3925 185.132 39.3925 185.132 39.5759V41.8689L182.289 38.9798H180.363L180.408 39.3925H181.142V42.8778C181.142 43.0154 181.142 43.0612 180.821 43.0612H180.454L180.363 43.4739H182.426L182.335 43.0612H181.922C181.601 43.0612 181.601 43.0154 181.601 42.8778V39.8052L185.269 43.5198H185.59V39.5759C185.59 39.4384 185.59 39.3925 185.866 39.3925H186.324L186.416 38.9798H184.352L184.398 39.3925ZM189.81 38.9798H187.104L187.196 39.3925H187.883V43.0612H187.196L187.104 43.4739H189.81C191.598 43.4739 192.744 42.6026 192.744 41.2269C192.744 40.4014 192.148 38.9798 189.81 38.9798ZM189.03 39.3925H189.259C191.231 39.3925 191.506 40.3555 191.506 41.2269C191.506 42.4192 190.864 43.0612 189.58 43.0612H189.03V39.3925ZM196.597 38.8881C195.083 38.8881 193.891 39.9428 193.891 41.2269C193.891 42.5109 195.129 43.5657 196.597 43.5657C198.11 43.5657 199.302 42.5109 199.302 41.2269C199.302 39.9428 198.064 38.8881 196.597 38.8881ZM196.597 39.3008C197.835 39.3008 198.064 40.3555 198.064 41.2269C198.064 42.0982 197.789 43.1529 196.597 43.1529C195.358 43.1529 195.129 42.0982 195.129 41.2269C195.083 40.3555 195.358 39.3008 196.597 39.3008ZM138.723 38.9798H133.587L133.495 40.539H133.953C134.045 39.6677 134.504 39.3925 135.558 39.3925V43.0612H134.779L134.733 43.4739H137.53L137.439 43.0612H136.705V39.3925C137.806 39.3925 138.218 39.6677 138.31 40.539H138.769L138.723 38.9798ZM103.044 43.0612C102.999 43.1071 102.861 43.1071 102.769 43.1071C102.678 43.1071 102.54 43.1071 102.54 42.8778L102.448 42.144C102.357 41.5479 102.081 41.2727 101.715 41.181C102.311 40.9976 102.632 40.6766 102.632 40.218C102.632 39.0257 101.164 39.0256 100.706 39.0256H98.2752L98.3669 39.3925H99.0089V43.0612H98.3669L98.2752 43.4281H100.843L100.752 43.0612H100.11V41.3645H100.431C101.256 41.3645 101.256 41.6855 101.302 41.9606L101.348 42.3275C101.439 43.0154 101.531 43.4739 102.54 43.4739C102.861 43.4739 103.044 43.4281 103.182 43.3822C103.365 43.3364 103.549 43.1988 103.549 43.1988L103.365 42.8778C103.32 42.9236 103.136 43.0154 103.044 43.0612ZM100.018 39.3925H100.385C101.348 39.3925 101.485 39.8052 101.485 40.1721C101.485 40.539 101.348 40.9517 100.247 40.9517H100.018V39.3925ZM144.409 43.0612C144.363 43.0612 144.226 43.1071 144.134 43.1071C144.042 43.1071 143.951 43.1071 143.905 42.8778L143.813 42.144C143.721 41.5479 143.446 41.2727 143.079 41.181C143.675 40.9976 143.996 40.6766 143.996 40.218C143.996 39.0257 142.529 39.0256 142.07 39.0256H139.64L139.732 39.3925H140.374V43.0612H139.732L139.64 43.4281H142.208L142.116 43.0612H141.474V41.3645H141.795C142.575 41.3645 142.621 41.6855 142.667 41.9606L142.712 42.3275C142.804 43.0154 142.896 43.4739 143.905 43.4739C144.226 43.4739 144.409 43.4281 144.547 43.3822C144.73 43.3364 144.914 43.1988 144.914 43.1988L144.73 42.8778C144.684 42.9236 144.501 43.0154 144.409 43.0612ZM141.383 39.3925H141.749C142.758 39.3925 142.85 39.8053 142.85 40.218C142.85 40.5849 142.712 40.9976 141.612 40.9976H141.383V39.3925ZM152.205 26.8272C149.958 25.6348 144.868 25.91 139.273 27.0106L134.183 27.9278C125.469 29.3494 117.765 29.5329 112.033 25.5431L112.125 25.3138C116.023 28.0195 122.81 27.8819 130.101 26.9189L137.485 25.7266C143.721 24.8094 149.133 24.8552 152.297 26.7355L152.205 26.8272ZM142.208 27.3316C144.409 28.524 149.545 28.2488 155.14 27.1482L160.231 26.231C168.99 24.8094 176.648 24.6259 182.38 28.6157L182.289 28.845C178.391 26.1393 171.604 26.2769 164.312 27.2399L156.929 28.4322C150.692 29.3494 145.281 29.3036 142.116 27.4233L142.208 27.3316ZM284.371 4.49389H271.117L270.705 8.34605H271.897C271.943 6.83271 272.952 5.45693 276.162 5.45693H276.208V14.8121H274.282L273.961 15.7752H281.481L281.16 14.8121H279.28V5.45693H279.326C282.536 5.45693 283.591 6.83271 283.591 8.34605H284.783L284.371 4.49389ZM266.073 4.49389H252.82L252.407 8.34605H253.599C253.599 6.83271 254.654 5.45693 257.864 5.45693H257.91V14.8121H255.984L255.663 15.7752H263.23L262.909 14.8121H260.983V5.45693H261.028C264.239 5.45693 265.293 6.83271 265.293 8.34605H266.486L266.073 4.49389ZM20.6819 5.36522C20.5443 5.2735 20.2692 5.18178 20.0399 5.0442C19.352 4.72319 18.389 4.2646 16.9215 4.2646C12.9776 4.2646 9.67578 6.97028 9.67578 10.1804C9.67578 13.3905 12.9776 16.0962 16.9215 16.0962C18.4807 16.0962 19.5354 15.5459 20.2692 15.2249C20.4068 15.179 20.5443 15.0873 20.6819 15.0414L21.2781 15.7293H22.4704V11.4186H21.2781C21.2781 13.0236 19.4896 15.179 16.9673 15.179C13.7114 15.179 13.0235 12.5192 13.0235 10.2721C13.0235 8.02503 13.7114 5.36522 16.9673 5.36522C19.5354 5.36522 21.2781 7.33715 21.2781 8.80464H22.4704V4.86077H21.2781L20.6819 5.36522ZM37.558 5.45693H39.3006V9.49252H32.2384V5.45693H33.9351L34.2561 4.49389H27.2856L27.6066 5.50279H29.2117V14.858H27.6066L27.2856 15.821H34.2561L33.9351 14.858H32.2384V10.5014H39.2548V14.858H37.5121L37.1911 15.821H44.1617L43.8407 14.858H42.2356V5.50279H43.8407L44.1617 4.53975H37.237L37.558 5.45693ZM55.443 4.2646H54.6634L49.894 14.1701C49.573 14.8121 49.4813 14.8121 48.931 14.8121H48.1055L47.7845 15.7752H53.1042L52.7831 14.8121H51.545C51.2239 14.8121 51.0864 14.7663 51.0405 14.7663C51.0864 14.5829 51.2239 14.216 51.3157 14.0325L52.0953 12.3816H56.1308L57.3232 14.8121H55.764L55.443 15.7752H62.5969L62.2759 14.8121H60.625L55.443 4.2646ZM52.5997 11.4186L54.113 8.1626L55.7181 11.4186H52.5997ZM98 11.602C98 14.0325 97.2663 14.8121 93.0014 14.8121H90.7084V5.45693H92.5428L92.8638 4.49389H85.4805L85.8015 5.45693H87.6818V14.8121H85.8015L85.4805 15.7752H99.1923V11.5562L98 11.602ZM115.839 12.0148C115.839 14.1243 114.693 14.858 111.07 14.858H108.548V10.5473H109.74C111.804 10.5473 111.804 11.4644 111.804 12.3816H112.996V7.61231H111.804C111.804 8.48362 111.666 9.53837 109.786 9.53837H108.593V5.45693H111.574C114.739 5.45693 115.06 6.92442 115.06 7.79574H116.298L115.977 4.49389H103.641L103.962 5.45693H105.567V14.8121H103.962L103.641 15.7752H116.665L117.077 11.923C117.031 12.0148 115.839 12.0148 115.839 12.0148ZM128.404 8.80464C124.598 8.34605 124.461 8.02503 124.461 7.06199C124.461 5.91552 125.515 5.22764 127.166 5.22764C129.459 5.22764 130.973 6.32825 131.156 8.1626L131.202 8.48362H132.348V4.58562H131.248L130.652 5.09007C130.514 5.04421 130.376 4.99835 130.193 4.90663C129.551 4.63148 128.634 4.21875 127.12 4.21875C124.506 4.21875 122.672 5.59451 122.672 7.56644C122.672 10.4556 124.69 10.8683 128.038 11.2352C130.56 11.5103 131.339 11.923 131.339 13.1612C131.339 14.2618 130.055 15.0414 128.221 15.0414C125.515 15.0414 123.91 13.4364 123.91 11.3269H122.718V15.8669H123.91L124.415 15.2707C124.598 15.3166 124.782 15.3625 124.965 15.4542C125.699 15.6835 126.708 16.0045 128.129 16.0045C131.294 16.0045 133.22 14.537 133.22 12.1982C133.174 9.90525 131.339 9.17151 128.404 8.80464ZM212.005 4.49389L211.684 5.50279H212.922C212.922 5.50279 213.335 5.45693 213.427 5.64036C213.519 5.8238 213.289 6.19068 213.289 6.19068L210.033 12.5651L208.061 8.3919L209.254 6.09895C209.254 6.05309 209.3 6.0531 209.3 6.00724C209.391 5.86967 209.483 5.73208 209.621 5.64036C209.804 5.50279 210.125 5.45693 210.584 5.45693H211.18L211.501 4.44804H206.548H196.184L196.505 5.45693H197.881L203.246 16.1879H204.072L206.456 11.5562L208.658 16.1879H209.483L214.573 6.2824C214.986 5.41108 215.215 5.50279 216.362 5.50279L216.683 4.49389H212.005ZM204.622 12.5651L201.137 5.50279H203.43L205.814 10.318L204.622 12.5651ZM206.548 5.50279C206.869 5.50279 207.373 5.50279 207.419 5.50279C207.694 5.50279 207.878 5.50279 207.97 5.64036C208.015 5.68622 207.97 5.77794 207.97 5.86966L207.832 6.14482C207.832 6.14482 207.832 6.14482 207.832 6.19068L207.328 7.19958L206.548 5.50279ZM230.67 5.45693H232.367V9.49252H225.35V5.45693H227.093L227.414 4.44804H220.443L220.764 5.45693H222.369V14.8121H220.764L220.443 15.7752H227.414L227.093 14.8121H225.35V10.4555H232.367V14.8121H230.67L230.349 15.7752H237.319L236.998 14.8121H235.393V5.45693H236.998L237.319 4.44804H230.349L230.67 5.45693ZM241.584 5.45693H243.235V14.8121H241.584L241.263 15.7752H248.234L247.913 14.8121H246.262V5.45693H247.913L248.234 4.44804H241.263L241.584 5.45693ZM157.341 4.49389H144.088L143.675 8.34605H144.868C144.868 6.83271 145.923 5.45693 149.133 5.45693H149.179V14.8121H147.252L146.931 15.7752H154.452L154.131 14.8121H152.251V5.45693H152.297C155.507 5.45693 156.562 6.83271 156.562 8.34605H157.754L157.341 4.49389ZM176.419 4.49389H171.328L171.053 5.50279C171.053 5.50279 172.2 5.50279 172.291 5.50279C172.567 5.50279 172.75 5.50279 172.842 5.64036C172.933 5.77794 172.796 6.00724 172.704 6.14482C172.658 6.23653 172.567 6.37412 172.475 6.51169L170.182 10.1345L167.293 5.45693H168.485L168.76 4.44804H161.652L161.973 5.45693H163.808L167.66 11.6479V14.8121H165.688L165.367 15.7752H172.979L172.658 14.8121H170.686V11.4186L174.126 6.09895C174.355 5.73208 174.584 5.45693 175.135 5.45693H176.144L176.419 4.49389ZM80.3902 14.8121C80.2068 14.858 79.794 14.9497 79.5189 14.9497C79.2437 14.9497 78.9227 14.9497 78.831 14.3077L78.51 12.4734C78.2807 10.96 77.4552 10.2721 76.3087 9.95111C78.0514 9.44666 78.9686 8.6212 78.9686 7.52058C78.9686 4.49389 74.7495 4.49389 73.3279 4.49389H66.2657L66.5867 5.50279H68.421V14.9039H66.5867L66.2657 15.8669H73.6948L73.3738 14.9039H71.4936V10.5473H72.4566C74.7954 10.5473 74.8871 11.3269 75.0247 12.0148L75.1623 12.9778C75.4833 14.7204 75.6667 15.9586 78.6476 15.9586C79.5647 15.9586 80.1609 15.8669 80.5278 15.7293C81.0322 15.5917 81.5367 15.2707 81.5367 15.2707L80.9864 14.4453C81.1698 14.4911 80.7112 14.7204 80.3902 14.8121ZM71.5853 5.50279H72.64C75.4833 5.50279 75.896 6.60341 75.896 7.56644C75.896 8.57534 75.4833 9.53837 72.2732 9.53837H71.6311V5.50279H71.5853ZM194.258 14.7663C194.074 14.8122 193.662 14.9039 193.387 14.9039C193.111 14.9039 192.79 14.9039 192.699 14.2618L192.378 12.4275C192.148 10.9141 191.323 10.2263 190.176 9.90525C191.919 9.4008 192.836 8.57533 192.836 7.47472C192.836 4.44803 188.617 4.44804 187.196 4.44804H180.133L180.454 5.41107H182.289V14.8121H180.454L180.133 15.821H187.562L187.241 14.8121H185.315V10.4555H186.278C188.617 10.4555 188.755 11.2352 188.846 11.923L188.984 12.8861C189.305 14.6287 189.489 15.8669 192.469 15.8669C193.387 15.8669 193.983 15.7752 194.35 15.6835C194.808 15.5459 195.358 15.2249 195.358 15.2249L194.808 14.3994C194.992 14.3994 194.533 14.6746 194.258 14.7663ZM185.407 5.41107H186.462C189.351 5.41107 189.672 6.51168 189.672 7.47472C189.672 8.43776 189.259 9.44666 186.049 9.44666H185.407V5.41107Z" fill="#65717C"/>
</g>
<defs>
<clipPath id="clip0_965_8315">
<rect width="299" height="35.3114" fill="white"/>
</clipPath>
</defs>
</svg>
