<svg width="49" height="49" viewBox="0 0 49 49" fill="none" xmlns="http://www.w3.org/2000/svg">
<rect width="49" height="49" rx="7" fill="#F7F7F7"/>
<path d="M17.9999 19.7503V19.4003C17.9999 18.0935 17.9999 17.4401 18.2542 16.941C18.4779 16.502 18.8346 16.145 19.2736 15.9213C19.7728 15.667 20.4267 15.667 21.7334 15.667H31.7668C33.0736 15.667 33.7265 15.667 34.2256 15.9213C34.6647 16.145 35.0221 16.502 35.2458 16.941C35.5001 17.4401 35.4999 18.0935 35.4999 19.4003V27.1003C35.4999 28.4071 35.5001 29.0605 35.2458 29.5596C35.0221 29.9986 34.6647 30.3556 34.2256 30.5793C33.7265 30.8336 33.0733 30.8336 31.7665 30.8336H23.2499M22.6665 24.067V30.6003C22.6665 31.9071 22.6668 32.5605 22.4125 33.0596C22.1888 33.4986 21.8313 33.8556 21.3923 34.0793C20.8932 34.3336 20.2402 34.3336 18.9334 34.3336H18.2334C16.9267 34.3336 16.2728 34.3336 15.7736 34.0793C15.3346 33.8556 14.9779 33.4986 14.7542 33.0596C14.4999 32.5605 14.4999 31.9071 14.4999 30.6003V24.067C14.4999 22.7602 14.4999 22.1068 14.7542 21.6077C14.9779 21.1686 15.3346 20.8117 15.7736 20.5879C16.2728 20.3336 16.9267 20.3336 18.2334 20.3336H18.9334C20.2402 20.3336 20.8932 20.3336 21.3923 20.5879C21.8313 20.8117 22.1888 21.1686 22.4125 21.6077C22.6668 22.1068 22.6665 22.7602 22.6665 24.067Z" stroke="#5444F2" stroke-width="2.91667" stroke-linecap="round" stroke-linejoin="round"/>
</svg>
