<svg width="49" height="49" viewBox="0 0 49 49" fill="none" xmlns="http://www.w3.org/2000/svg">
<rect width="49" height="49" rx="7" fill="#F7F7F7"/>
<path d="M14.5 25.1017H35.5V22.8982H14.5V25.1017ZM25 33.3982C19.8095 33.3982 15.6017 29.1905 15.6017 23.9999H13.3983C13.3983 30.4074 18.5925 35.6017 25 35.6017V33.3982ZM15.6017 23.9999C15.6017 18.8094 19.8095 14.6017 25 14.6017V12.3982C18.5925 12.3982 13.3983 17.5925 13.3983 23.9999H15.6017ZM25 14.6017C30.1905 14.6017 34.3983 18.8094 34.3983 23.9999H36.6017C36.6017 17.5925 31.4075 12.3982 25 12.3982V14.6017ZM34.3983 23.9999C34.3983 29.1905 30.1905 33.3982 25 33.3982V35.6017C31.4075 35.6017 36.6017 30.4074 36.6017 23.9999H34.3983ZM25 33.3982C24.7142 33.3982 24.3589 33.2725 23.943 32.8767C23.5215 32.4756 23.0918 31.843 22.7069 30.9771C21.9385 29.2481 21.4351 26.7822 21.4351 23.9999H19.2316C19.2316 27.0167 19.7729 29.8008 20.6934 31.872C21.153 32.9062 21.7289 33.8114 22.424 34.4729C23.1248 35.1398 23.9972 35.6017 25 35.6017V33.3982ZM21.4351 23.9999C21.4351 21.2177 21.9385 18.7518 22.7069 17.0228C23.0918 16.1569 23.5215 15.5243 23.943 15.1232C24.3589 14.7274 24.7142 14.6017 25 14.6017V12.3982C23.9972 12.3982 23.1248 12.8601 22.424 13.527C21.7289 14.1885 21.153 15.0936 20.6934 16.1279C19.7729 18.1991 19.2316 20.9832 19.2316 23.9999H21.4351ZM25 14.6017C25.2858 14.6017 25.6411 14.7274 26.057 15.1232C26.4785 15.5243 26.9082 16.1569 27.2931 17.0228C28.0615 18.7518 28.5649 21.2177 28.5649 23.9999H30.7684C30.7684 20.9832 30.2271 18.1991 29.3066 16.1279C28.847 15.0936 28.2711 14.1885 27.576 13.527C26.8752 12.8601 26.0028 12.3982 25 12.3982V14.6017ZM28.5649 23.9999C28.5649 26.7822 28.0615 29.2481 27.2931 30.9771C26.9082 31.843 26.4785 32.4756 26.057 32.8767C25.6411 33.2725 25.2858 33.3982 25 33.3982V35.6017C26.0028 35.6017 26.8752 35.1398 27.576 34.4729C28.2711 33.8114 28.847 32.9062 29.3066 31.872C30.2271 29.8008 30.7684 27.0167 30.7684 23.9999H28.5649Z" fill="#5444F2"/>
</svg>
