<svg width="49" height="49" viewBox="0 0 49 49" fill="none" xmlns="http://www.w3.org/2000/svg">
<rect width="49" height="49" rx="7" fill="#F7F7F7"/>
<path d="M32 18.1667L32 29.8333C32 31.7663 28.866 33.3333 25 33.3333C21.134 33.3333 18 31.7663 18 29.8333L18 18.1667M32 18.1667C32 16.2337 28.866 14.6667 25 14.6667C21.134 14.6667 18 16.2337 18 18.1667M32 18.1667C32 20.0997 28.866 21.6667 25 21.6667C21.134 21.6667 18 20.0997 18 18.1667M32 24C32 25.933 28.866 27.5 25 27.5C21.134 27.5 18 25.933 18 24" stroke="#5444F2" stroke-width="2.33333" stroke-linecap="round" stroke-linejoin="round"/>
</svg>
