<svg width="49" height="49" viewBox="0 0 49 49" fill="none" xmlns="http://www.w3.org/2000/svg">
<rect width="49" height="49" rx="7" fill="#F7F7F7"/>
<path d="M35.5 23.0479V18.1666C35.5 17.8572 35.3771 17.5604 35.1583 17.3416C34.9395 17.1228 34.6428 16.9999 34.3334 16.9999H15.6667C15.3573 16.9999 15.0605 16.877 14.8417 16.6582C14.6229 16.4394 14.5 16.1427 14.5 15.8333C14.5 15.5238 14.6229 15.2271 14.8417 15.0083C15.0605 14.7895 15.3573 14.6666 15.6667 14.6666H34.3334C34.6428 14.6666 34.9395 14.5437 35.1583 14.3249C35.3771 14.1061 35.5 13.8093 35.5 13.4999C35.5 13.1905 35.3771 12.8938 35.1583 12.675C34.9395 12.4562 34.6428 12.3333 34.3334 12.3333H15.6667C14.7384 12.3333 13.8482 12.702 13.1918 13.3584C12.5354 14.0148 12.1667 14.905 12.1667 15.8333V32.1666C12.1667 33.0948 12.5354 33.9851 13.1918 34.6415C13.8482 35.2978 14.7384 35.6666 15.6667 35.6666H34.3334C34.6428 35.6666 34.9395 35.5437 35.1583 35.3249C35.3771 35.1061 35.5 34.8093 35.5 34.4999V29.6186C36.182 29.381 36.7731 28.9371 37.1914 28.3484C37.6097 27.7597 37.8345 27.0554 37.8345 26.3333C37.8345 25.6111 37.6097 24.9068 37.1914 24.3181C36.7731 23.7294 36.182 23.2855 35.5 23.0479V23.0479ZM33.1667 33.3333H15.6667C15.3573 33.3333 15.0605 33.2103 14.8417 32.9915C14.6229 32.7728 14.5 32.476 14.5 32.1666V19.1186C14.8737 19.2568 15.2683 19.3294 15.6667 19.3333H33.1667V22.8333H29.6667C28.7384 22.8333 27.8482 23.202 27.1918 23.8584C26.5354 24.5148 26.1667 25.405 26.1667 26.3333C26.1667 27.2615 26.5354 28.1517 27.1918 28.8081C27.8482 29.4645 28.7384 29.8333 29.6667 29.8333H33.1667V33.3333ZM34.3334 27.4999H29.6667C29.3573 27.4999 29.0605 27.377 28.8417 27.1582C28.6229 26.9394 28.5 26.6427 28.5 26.3333C28.5 26.0238 28.6229 25.7271 28.8417 25.5083C29.0605 25.2895 29.3573 25.1666 29.6667 25.1666H34.3334C34.6428 25.1666 34.9395 25.2895 35.1583 25.5083C35.3771 25.7271 35.5 26.0238 35.5 26.3333C35.5 26.6427 35.3771 26.9394 35.1583 27.1582C34.9395 27.377 34.6428 27.4999 34.3334 27.4999Z" fill="#5444F2"/>
</svg>
