<svg width="49" height="49" viewBox="0 0 49 49" fill="none" xmlns="http://www.w3.org/2000/svg">
<rect width="49" height="49" rx="7" fill="#F7F7F7"/>
<path d="M32.1667 27.3333L31.229 33.8973C31.1478 34.4656 31.107 34.7497 30.9698 34.9634C30.8489 35.1517 30.6766 35.3014 30.4731 35.3945C30.2421 35.5 29.9551 35.5 29.3811 35.5H18.619C18.0449 35.5 17.7579 35.5 17.5269 35.3945C17.3234 35.3014 17.1508 35.1517 17.0299 34.9634C16.8928 34.7497 16.8522 34.4656 16.771 33.8973L15.8333 27.3333M32.1667 27.3333H15.8333M32.1667 27.3333C33.687 26.6281 34.5 24.7242 34.5 23.0556C34.5 21.2643 33.299 19.73 31.5947 19.0929C31.2299 18.9565 31 18.6043 31 18.2431C31 16.7665 29.6942 15.5694 28.0833 15.5694C27.8194 15.5694 27.5638 15.6015 27.3206 15.6618C26.8163 15.7867 26.2522 15.7592 25.8184 15.4926C24.7981 14.8657 23.5706 14.5 22.25 14.5C18.7062 14.5 15.8333 17.1334 15.8333 20.3819C15.8333 20.7926 15.566 21.1686 15.1833 21.382C14.174 21.9449 13.5 22.9628 13.5 24.125C13.5 25.6152 14.331 26.9727 15.8333 27.3333M26.3333 35.5V27.3333M21.6667 35.5L21.6667 27.3333" stroke="#5444F2" stroke-width="2.1" stroke-linecap="round" stroke-linejoin="round"/>
</svg>
