<svg width="49" height="49" viewBox="0 0 49 49" fill="none" xmlns="http://www.w3.org/2000/svg">
<rect width="49" height="49" rx="7" fill="#F7F7F7"/>
<path d="M18.1667 18.2336V31.7669C18.1667 33.0737 18.1667 33.7267 18.421 34.2259C18.6447 34.6649 19.0014 35.0222 19.4405 35.2459C19.9391 35.5 20.5922 35.5 21.8964 35.5H26.1036C27.4079 35.5 28.06 35.5 28.5586 35.2459C28.9977 35.0222 29.3556 34.6649 29.5793 34.2259C29.8334 33.7272 29.8334 33.0751 29.8334 31.7708V18.2297C29.8334 16.9255 29.8334 16.2724 29.5793 15.7738C29.3556 15.3347 28.9977 14.978 28.5586 14.7543C28.0595 14.5 27.407 14.5 26.1002 14.5H21.9002C20.5935 14.5 19.9396 14.5 19.4405 14.7543C19.0014 14.978 18.6447 15.3347 18.421 15.7738C18.1667 16.2729 18.1667 16.9268 18.1667 18.2336Z" stroke="#5444F2" stroke-width="2" stroke-linecap="round" stroke-linejoin="round"/>
</svg>
