<svg width="49" height="49" viewBox="0 0 49 49" fill="none" xmlns="http://www.w3.org/2000/svg">
<rect width="49" height="49" rx="7" fill="#F7F7F7"/>
<path d="M29.6666 19.3333C29.6666 16.756 27.5772 14.6667 24.9999 14.6667C22.4226 14.6667 20.3332 16.756 20.3332 19.3333M34.775 23.6804L33.6861 30.2138C33.5014 31.3221 33.4089 31.8762 33.1324 32.292C32.8886 32.6586 32.5465 32.9488 32.1448 33.129C31.6892 33.3334 31.1277 33.3333 30.0041 33.3333H19.996C18.8724 33.3333 18.3109 33.3334 17.8552 33.129C17.4536 32.9488 17.1111 32.6586 16.8673 32.292C16.5908 31.8762 16.4981 31.3221 16.3134 30.2138L15.2245 23.6804C14.9752 22.1848 14.8504 21.437 15.0669 20.8542C15.2569 20.3428 15.6206 19.9141 16.0938 19.6427C16.6331 19.3333 17.3906 19.3333 18.9068 19.3333H31.0927C32.6089 19.3333 33.3673 19.3333 33.9066 19.6427C34.3799 19.9141 34.7428 20.3428 34.9327 20.8542C35.1492 21.437 35.0243 22.1848 34.775 23.6804Z" stroke="#5444F2" stroke-width="2.33333" stroke-linecap="round" stroke-linejoin="round"/>
</svg>
