<svg width="49" height="49" viewBox="0 0 49 49" fill="none" xmlns="http://www.w3.org/2000/svg">
<rect width="49" height="49" rx="7" fill="#F7F7F7"/>
<path d="M14.5 14.5H14.8131C15.3658 14.5 15.6424 14.5 15.8679 14.5997C16.0666 14.6876 16.2368 14.8293 16.3594 15.0089C16.4984 15.2124 16.5484 15.4843 16.6488 16.0278L19.1667 29.6667L31.3227 29.6667C31.8529 29.6667 32.1185 29.6667 32.3379 29.5731C32.5313 29.4906 32.6987 29.3573 32.8226 29.1873C32.9631 28.9947 33.0224 28.7363 33.1416 28.2197L34.9724 20.2863C35.1526 19.5053 35.2429 19.1149 35.1437 18.8081C35.0568 18.5391 34.8746 18.3107 34.632 18.1656C34.3554 18 33.9551 18 33.1535 18H17.4167M32 35.5C31.3557 35.5 30.8333 34.9777 30.8333 34.3333C30.8333 33.689 31.3557 33.1667 32 33.1667C32.6443 33.1667 33.1667 33.689 33.1667 34.3333C33.1667 34.9777 32.6443 35.5 32 35.5ZM20.3333 35.5C19.689 35.5 19.1667 34.9777 19.1667 34.3333C19.1667 33.689 19.689 33.1667 20.3333 33.1667C20.9777 33.1667 21.5 33.689 21.5 34.3333C21.5 34.9777 20.9777 35.5 20.3333 35.5Z" stroke="#5444F2" stroke-width="2.33333" stroke-linecap="round" stroke-linejoin="round"/>
</svg>
