<svg width="49" height="49" viewBox="0 0 49 49" fill="none" xmlns="http://www.w3.org/2000/svg">
<rect width="49" height="49" rx="7" fill="#F7F7F7"/>
<path d="M22.0256 26.9743L27.6795 21.3205M33.4631 17.87L28.6907 33.3804C28.2629 34.7708 28.049 35.466 27.6801 35.6965C27.3601 35.8964 26.9636 35.9293 26.6151 35.7847C26.2133 35.6179 25.8876 34.9674 25.237 33.6662L22.2142 27.6206C22.111 27.4141 22.0593 27.3109 21.9903 27.2214C21.9291 27.142 21.8582 27.0708 21.7789 27.0096C21.6894 26.9407 21.5859 26.889 21.3794 26.7858L15.3338 23.763C14.0326 23.1124 13.382 22.7873 13.2153 22.3854C13.0707 22.037 13.1036 21.6399 13.3036 21.32C13.5341 20.951 14.2294 20.7372 15.6198 20.3094L31.1301 15.537C32.2233 15.2006 32.7697 15.0324 33.1389 15.168C33.4605 15.286 33.7142 15.5395 33.8323 15.8611C33.9678 16.2303 33.7994 16.7769 33.4631 17.87Z" stroke="#5444F2" stroke-width="2.1" stroke-linecap="round" stroke-linejoin="round"/>
</svg>
