<svg width="49" height="49" viewBox="0 0 49 49" fill="none" xmlns="http://www.w3.org/2000/svg">
<rect width="49" height="49" rx="7" fill="#F7F7F7"/>
<path d="M14.5 35.6667H35.5C35.8094 35.6667 36.1061 35.5438 36.3249 35.325C36.5437 35.1062 36.6666 34.8095 36.6666 34.5001V29.8334C36.6666 29.524 36.5437 29.2272 36.3249 29.0084C36.1061 28.7896 35.8094 28.6667 35.5 28.6667V28.6667C34.8556 28.6667 34.3333 28.1444 34.3333 27.5001V24.0001C34.3333 23.3557 34.8556 22.8334 35.5 22.8334V22.8334C35.8094 22.8334 36.1061 22.7105 36.3249 22.4917C36.5437 22.2729 36.6666 21.9762 36.6666 21.6667V18.1667C36.6667 17.941 36.6012 17.7201 36.4782 17.5308C36.3552 17.3416 36.1799 17.192 35.9736 17.1004L25.4736 12.4337C25.3245 12.3675 25.1632 12.3333 25 12.3333C24.8368 12.3333 24.6754 12.3675 24.5263 12.4337L14.0263 17.1004C13.82 17.192 13.6448 17.3416 13.5217 17.5308C13.3987 17.7201 13.3333 17.941 13.3333 18.1667V21.6667C13.3333 21.9762 13.4562 22.2729 13.675 22.4917C13.8938 22.7105 14.1906 22.8334 14.5 22.8334V22.8334C15.1443 22.8334 15.6666 23.3557 15.6666 24.0001V27.5001C15.6666 28.1444 15.1443 28.6667 14.5 28.6667V28.6667C14.1906 28.6667 13.8938 28.7896 13.675 29.0084C13.4562 29.2272 13.3333 29.524 13.3333 29.8334V34.5001C13.3333 34.8095 13.4562 35.1062 13.675 35.325C13.8938 35.5438 14.1906 35.6667 14.5 35.6667ZM15.6666 19.5454C15.6666 19.1682 15.8888 18.8263 16.2335 18.6731L23.7814 15.318C24.5572 14.9732 25.4428 14.9732 26.2185 15.318L33.7664 18.6731C34.1112 18.8263 34.3333 19.1682 34.3333 19.5454V19.5454C34.3333 20.0727 33.9059 20.5001 33.3787 20.5001H16.6213C16.0941 20.5001 15.6666 20.0727 15.6666 19.5454V19.5454ZM30.4442 22.8334C31.3034 22.8334 32 23.5299 32 24.3891V27.111C32 27.9702 31.3034 28.6667 30.4442 28.6667V28.6667C29.585 28.6667 28.8885 27.9702 28.8885 27.111V24.3892C28.8885 23.5299 29.585 22.8334 30.4442 22.8334V22.8334ZM25 22.8334C25.8589 22.8334 26.5551 23.5297 26.5551 24.3886V27.1116C26.5551 27.9705 25.8589 28.6667 25 28.6667V28.6667C24.1411 28.6667 23.4448 27.9705 23.4448 27.1116V24.3886C23.4448 23.5297 24.1411 22.8334 25 22.8334V22.8334ZM19.5557 22.8334C20.4149 22.8334 21.1115 23.5299 21.1115 24.3891V27.111C21.1115 27.9702 20.4149 28.6667 19.5557 28.6667V28.6667C18.6965 28.6667 18 27.9702 18 27.111V24.3892C18 23.5299 18.6965 22.8334 19.5557 22.8334V22.8334ZM15.6666 32.1667C15.6666 31.5224 16.189 31.0001 16.8333 31.0001H33.1666C33.811 31.0001 34.3333 31.5224 34.3333 32.1667V32.1667C34.3333 32.8111 33.811 33.3334 33.1666 33.3334H16.8333C16.189 33.3334 15.6666 32.8111 15.6666 32.1667V32.1667ZM27.3333 18.1667C27.3333 18.4762 27.2104 18.7729 26.9916 18.9917C26.7728 19.2105 26.4761 19.3334 26.1666 19.3334H23.8333C23.5239 19.3334 23.2271 19.2105 23.0084 18.9917C22.7896 18.7729 22.6666 18.4762 22.6666 18.1667C22.6666 17.8573 22.7896 17.5606 23.0084 17.3418C23.2271 17.123 23.5239 17.0001 23.8333 17.0001H26.1666C26.4761 17.0001 26.7728 17.123 26.9916 17.3418C27.2104 17.5606 27.3333 17.8573 27.3333 18.1667Z" fill="#5444F2"/>
</svg>
