<svg width="477" height="412" viewBox="0 0 477 412" fill="none" xmlns="http://www.w3.org/2000/svg">
<g filter="url(#filter0_d_729_2597)">
<rect x="24" y="23.8809" width="429.005" height="364.005" rx="19.9848" fill="white"/>
<rect x="24.2638" y="24.1446" width="428.478" height="363.477" rx="19.721" stroke="#E1E1E1" stroke-width="0.527543"/>
</g>
<mask id="mask0_729_2597" style="mask-type:alpha" maskUnits="userSpaceOnUse" x="24" y="23" width="430" height="365">
<rect x="24.2638" y="24.1446" width="428.478" height="363.477" rx="19.721" fill="white" stroke="#E1E1E1" stroke-width="0.527543"/>
</mask>
<g mask="url(#mask0_729_2597)">
<g opacity="0.3" filter="url(#filter1_f_729_2597)">
<circle cx="602.5" cy="500.381" r="178.5" fill="url(#paint0_linear_729_2597)"/>
</g>
<g opacity="0.3" filter="url(#filter2_f_729_2597)">
<circle cx="-94.5" cy="-157.619" r="178.5" fill="url(#paint1_linear_729_2597)"/>
</g>
</g>
<rect x="69" y="157.045" width="301.875" height="69" rx="5.175" fill="#5444F2" fill-opacity="0.04"/>
<rect x="76.5899" y="161.185" width="112.47" height="58.995" rx="3.89915" fill="#5444F2" fill-opacity="0.04" stroke="#5444F2" stroke-width="1.38"/>
<path d="M169.05 189.819L163.875 194.994L158.7 189.819" stroke="black" stroke-width="3.45" stroke-linecap="round" stroke-linejoin="round"/>
<path d="M91.7989 200.295V183.385H95.0417L102.648 195.802H102.742V183.385H105.537V200.295H102.282L94.6762 187.949H94.5818V200.295H91.7989ZM116.636 200.507C114.152 200.507 112.241 199.721 110.905 198.149C109.568 196.577 108.9 194.489 108.9 191.887C108.9 189.262 109.576 187.155 110.928 185.567C112.265 183.971 114.167 183.173 116.636 183.173C118.68 183.173 120.338 183.711 121.612 184.788C122.878 185.889 123.593 187.3 123.758 189.022H120.857C120.739 188.078 120.323 187.296 119.607 186.675C118.915 186.078 117.925 185.779 116.636 185.779C115.001 185.779 113.782 186.333 112.98 187.442C112.194 188.55 111.801 190.032 111.801 191.887C111.801 193.743 112.194 195.201 112.98 196.262C113.782 197.371 115.001 197.925 116.636 197.925C118.019 197.925 119.096 197.54 119.867 196.769C120.637 195.999 121.058 195.016 121.128 193.821H117.119V191.309H123.97V192.925C123.97 195.228 123.31 197.064 121.989 198.432C120.653 199.815 118.868 200.507 116.636 200.507ZM127.322 200.295V183.385H130.565L138.171 195.802H138.265V183.385H141.06V200.295H137.805L130.199 187.949H130.105V200.295H127.322Z" fill="black"/>
<path d="M235.81 190.659C238.449 191.681 239.768 193.646 239.768 196.555C239.768 198.801 238.999 200.542 237.46 201.777C235.956 203.024 233.861 203.664 231.177 203.698C228.527 203.664 226.449 203.024 224.944 201.777C223.372 200.508 222.586 198.768 222.586 196.555C222.586 193.646 223.911 191.681 226.561 190.659V190.524C224.405 189.502 223.327 187.734 223.327 185.218C223.327 183.275 224.051 181.731 225.5 180.585C226.904 179.451 228.796 178.867 231.177 178.833C233.558 178.867 235.467 179.451 236.905 180.585C238.331 181.742 239.044 183.286 239.044 185.218C239.044 187.734 237.966 189.502 235.81 190.524V190.659ZM234.041 183.146C233.367 182.573 232.412 182.287 231.177 182.287C229.942 182.287 229.004 182.573 228.364 183.146C227.667 183.741 227.319 184.555 227.319 185.589C227.319 186.611 227.679 187.43 228.397 188.048C229.083 188.666 230.009 188.975 231.177 188.975C232.345 188.975 233.288 188.666 234.007 188.048C234.703 187.419 235.052 186.599 235.052 185.589C235.052 184.567 234.715 183.752 234.041 183.146ZM231.177 200.261C232.648 200.228 233.777 199.868 234.563 199.183C235.349 198.498 235.742 197.543 235.742 196.319C235.742 195.163 235.36 194.219 234.597 193.489C233.822 192.815 232.682 192.462 231.177 192.428C229.672 192.462 228.549 192.815 227.808 193.489C227.022 194.208 226.629 195.151 226.629 196.319C226.629 197.543 227.022 198.498 227.808 199.183C228.594 199.868 229.717 200.228 231.177 200.261ZM252.558 203.698C249.504 203.698 247.274 202.586 245.87 200.362C244.422 198.116 243.697 195.078 243.697 191.249C243.697 187.442 244.422 184.415 245.87 182.169C247.274 179.945 249.504 178.833 252.558 178.833C255.602 178.833 257.842 179.945 259.28 182.169C260.706 184.426 261.419 187.453 261.419 191.249C261.419 195.067 260.706 198.105 259.28 200.362C257.842 202.586 255.602 203.698 252.558 203.698ZM248.802 197.869C249.52 199.419 250.773 200.194 252.558 200.194C254.344 200.194 255.596 199.419 256.315 197.869C257.034 196.331 257.393 194.124 257.393 191.249C257.393 188.396 257.034 186.201 256.315 184.662C255.596 183.124 254.344 182.354 252.558 182.354C250.795 182.354 249.554 183.124 248.835 184.662C248.094 186.246 247.724 188.441 247.724 191.249C247.724 194.124 248.083 196.331 248.802 197.869ZM264.556 208.162V207.808L265.635 199.705H270.082V200.042L267.673 208.162H264.556ZM282.788 203.698C279.733 203.698 277.504 202.586 276.1 200.362C274.651 198.116 273.927 195.078 273.927 191.249C273.927 187.442 274.651 184.415 276.1 182.169C277.504 179.945 279.733 178.833 282.788 178.833C285.831 178.833 288.071 179.945 289.509 182.169C290.935 184.426 291.648 187.453 291.648 191.249C291.648 195.067 290.935 198.105 289.509 200.362C288.071 202.586 285.831 203.698 282.788 203.698ZM279.031 197.869C279.75 199.419 281.002 200.194 282.788 200.194C284.573 200.194 285.825 199.419 286.544 197.869C287.263 196.331 287.622 194.124 287.622 191.249C287.622 188.396 287.263 186.201 286.544 184.662C285.825 183.124 284.573 182.354 282.788 182.354C281.024 182.354 279.783 183.124 279.065 184.662C278.323 186.246 277.953 188.441 277.953 191.249C277.953 194.124 278.312 196.331 279.031 197.869ZM304.624 203.698C301.569 203.698 299.34 202.586 297.936 200.362C296.487 198.116 295.763 195.078 295.763 191.249C295.763 187.442 296.487 184.415 297.936 182.169C299.34 179.945 301.569 178.833 304.624 178.833C307.667 178.833 309.908 179.945 311.345 182.169C312.771 184.426 313.484 187.453 313.484 191.249C313.484 195.067 312.771 198.105 311.345 200.362C309.908 202.586 307.667 203.698 304.624 203.698ZM300.867 197.869C301.586 199.419 302.838 200.194 304.624 200.194C306.409 200.194 307.661 199.419 308.38 197.869C309.099 196.331 309.458 194.124 309.458 191.249C309.458 188.396 309.099 186.201 308.38 184.662C307.661 183.124 306.409 182.354 304.624 182.354C302.86 182.354 301.619 183.124 300.901 184.662C300.159 186.246 299.789 188.441 299.789 191.249C299.789 194.124 300.148 196.331 300.867 197.869ZM326.46 203.698C323.405 203.698 321.176 202.586 319.772 200.362C318.323 198.116 317.599 195.078 317.599 191.249C317.599 187.442 318.323 184.415 319.772 182.169C321.176 179.945 323.405 178.833 326.46 178.833C329.503 178.833 331.744 179.945 333.181 182.169C334.607 184.426 335.321 187.453 335.321 191.249C335.321 195.067 334.607 198.105 333.181 200.362C331.744 202.586 329.503 203.698 326.46 203.698ZM322.703 197.869C323.422 199.419 324.674 200.194 326.46 200.194C328.245 200.194 329.498 199.419 330.216 197.869C330.935 196.331 331.294 194.124 331.294 191.249C331.294 188.396 330.935 186.201 330.216 184.662C329.498 183.124 328.245 182.354 326.46 182.354C324.696 182.354 323.456 183.124 322.737 184.662C321.996 186.246 321.625 188.441 321.625 191.249C321.625 194.124 321.984 196.331 322.703 197.869Z" fill="black"/>
<rect x="338" y="171.045" width="1" height="39" fill="#5444F2"/>
<rect x="69" y="271.045" width="157.356" height="55.8359" rx="8.84589" fill="#5444F2"/>
<path d="M116.329 305.194C114.853 305.194 113.718 304.838 112.925 304.128C112.11 303.428 111.677 302.476 111.628 301.269H113.635C113.685 301.958 113.947 302.489 114.42 302.864C114.872 303.233 115.508 303.417 116.329 303.417C118.069 303.417 118.94 302.856 118.94 301.732C118.94 301.286 118.791 300.931 118.493 300.666C118.19 300.413 117.728 300.22 117.105 300.088L115.379 299.716C114.299 299.479 113.465 299.096 112.875 298.568C112.303 298.05 112.016 297.315 112.016 296.362C112.016 295.365 112.404 294.561 113.181 293.949C113.963 293.349 115.018 293.049 116.345 293.049C117.651 293.049 118.716 293.388 119.543 294.065C120.352 294.743 120.765 295.627 120.782 296.717H118.766C118.733 296.144 118.513 295.687 118.105 295.346C117.703 295.01 117.105 294.842 116.312 294.842C114.814 294.842 114.065 295.348 114.065 296.362C114.065 297.089 114.641 297.582 115.792 297.841L117.395 298.179C119.785 298.67 120.98 299.84 120.98 301.691C120.98 302.776 120.586 303.629 119.799 304.252C119.006 304.88 117.849 305.194 116.329 305.194ZM126.567 305.194C125.273 305.194 124.262 304.772 123.535 303.93C122.802 303.081 122.436 301.999 122.436 300.683C122.436 299.355 122.791 298.27 123.502 297.428C124.196 296.585 125.204 296.164 126.526 296.164C127.782 296.164 128.754 296.557 129.442 297.345C130.131 298.133 130.475 299.154 130.475 300.41V301.22H124.436C124.436 301.941 124.62 302.511 124.989 302.93C125.353 303.36 125.879 303.574 126.567 303.574C127.614 303.574 128.25 303.178 128.475 302.385H130.351C130.235 303.211 129.83 303.883 129.136 304.401C128.431 304.929 127.575 305.194 126.567 305.194ZM124.452 299.848H128.492C128.475 299.242 128.308 298.747 127.988 298.361C127.647 297.987 127.159 297.799 126.526 297.799C125.87 297.799 125.364 297.987 125.006 298.361C124.653 298.747 124.469 299.242 124.452 299.848ZM135.781 305.194C134.057 305.194 133.195 304.348 133.195 302.657V297.956H131.749V296.312H133.278V294.47L134.955 293.999H135.12V296.312H137.235V297.956H135.12V302.319C135.12 302.737 135.211 303.037 135.393 303.219C135.585 303.412 135.872 303.508 136.252 303.508C136.56 303.508 136.844 303.467 137.103 303.384H137.268V305.012C136.86 305.133 136.365 305.194 135.781 305.194ZM144.6 305.045V293.198H149.408C150.604 293.198 151.556 293.553 152.267 294.263C152.966 294.979 153.316 295.894 153.316 297.006C153.316 298.152 152.961 299.088 152.25 299.815C151.545 300.537 150.598 300.898 149.408 300.898H146.583V305.045H144.6ZM146.583 299.105H149.07C149.775 299.105 150.323 298.926 150.714 298.568C151.094 298.221 151.284 297.7 151.284 297.006C151.284 296.367 151.085 295.866 150.689 295.503C150.303 295.15 149.764 294.974 149.07 294.974H146.583V299.105ZM155.441 305.045V296.312H157.061L157.234 297.7H157.3C157.499 297.232 157.785 296.866 158.159 296.601C158.545 296.332 159.013 296.197 159.564 296.197H160.274V297.989H159.531C158.793 297.989 158.239 298.232 157.87 298.716C157.49 299.196 157.3 299.884 157.3 300.782V305.045H155.441ZM163.077 294.974C162.681 294.974 162.378 294.869 162.168 294.66C161.954 294.445 161.846 294.145 161.846 293.759C161.846 293.385 161.954 293.09 162.168 292.875C162.361 292.666 162.664 292.561 163.077 292.561C163.479 292.561 163.785 292.666 163.994 292.875C164.209 293.09 164.316 293.385 164.316 293.759C164.316 294.128 164.209 294.42 163.994 294.635C163.768 294.861 163.463 294.974 163.077 294.974ZM162.119 305.045V296.312H164.044V305.045H162.119ZM170.019 305.194C168.697 305.194 167.675 304.783 166.954 303.963C166.221 303.147 165.855 302.054 165.855 300.683C165.855 299.3 166.216 298.199 166.937 297.378C167.648 296.568 168.659 296.164 169.969 296.164C171.143 296.164 172.049 296.467 172.688 297.072C173.332 297.7 173.687 298.507 173.753 299.493H171.828C171.779 298.997 171.591 298.604 171.267 298.312C170.942 298.02 170.509 297.874 169.969 297.874C169.259 297.874 168.722 298.122 168.358 298.617C167.995 299.119 167.813 299.807 167.813 300.683C167.813 301.569 167.995 302.263 168.358 302.765C168.722 303.26 169.259 303.508 169.969 303.508C170.504 303.508 170.936 303.36 171.267 303.062C171.603 302.759 171.795 302.365 171.845 301.881H173.77C173.687 302.889 173.332 303.69 172.704 304.285C172.065 304.891 171.17 305.194 170.019 305.194ZM179.307 305.194C178.013 305.194 177.002 304.772 176.275 303.93C175.543 303.081 175.176 301.999 175.176 300.683C175.176 299.355 175.532 298.27 176.242 297.428C176.936 296.585 177.944 296.164 179.266 296.164C180.522 296.164 181.494 296.557 182.182 297.345C182.871 298.133 183.215 299.154 183.215 300.41V301.22H177.176C177.176 301.941 177.36 302.511 177.729 302.93C178.093 303.36 178.619 303.574 179.307 303.574C180.354 303.574 180.99 303.178 181.216 302.385H183.091C182.975 303.211 182.571 303.883 181.877 304.401C181.172 304.929 180.315 305.194 179.307 305.194ZM177.192 299.848H181.232C181.216 299.242 181.048 298.747 180.728 298.361C180.387 297.987 179.899 297.799 179.266 297.799C178.61 297.799 178.104 297.987 177.746 298.361C177.393 298.747 177.209 299.242 177.192 299.848Z" fill="white"/>
<path d="M72.5586 97.0918C70.4648 97.0918 68.8555 96.5879 67.7305 95.5801C66.5742 94.5879 65.9609 93.2363 65.8906 91.5254H68.7383C68.8086 92.502 69.1797 93.2559 69.8516 93.7871C70.4922 94.3105 71.3945 94.5723 72.5586 94.5723C75.0273 94.5723 76.2617 93.7754 76.2617 92.1816C76.2617 91.5488 76.0508 91.0449 75.6289 90.6699C75.1992 90.3105 74.543 90.0371 73.6602 89.8496L71.2109 89.3223C69.6797 88.9863 68.4961 88.4434 67.6602 87.6934C66.8477 86.959 66.4414 85.916 66.4414 84.5645C66.4414 83.1504 66.9922 82.0098 68.0938 81.1426C69.2031 80.291 70.6992 79.8652 72.582 79.8652C74.4336 79.8652 75.9453 80.3457 77.1172 81.3066C78.2656 82.2676 78.8516 83.5215 78.875 85.0684H76.0156C75.9688 84.2559 75.6562 83.6074 75.0781 83.123C74.5078 82.6465 73.6602 82.4082 72.5352 82.4082C70.4102 82.4082 69.3477 83.127 69.3477 84.5645C69.3477 85.5957 70.1641 86.2949 71.7969 86.6621L74.0703 87.1426C77.4609 87.8379 79.1562 89.498 79.1562 92.123C79.1562 93.6621 78.5977 94.873 77.4805 95.7559C76.3555 96.6465 74.7148 97.0918 72.5586 97.0918ZM87.0809 97.0918C85.245 97.0918 83.8114 96.4941 82.7802 95.2988C81.7411 94.0957 81.2216 92.5605 81.2216 90.6934C81.2216 88.8105 81.7255 87.2715 82.7333 86.0762C83.7177 84.8809 85.1473 84.2832 87.0223 84.2832C88.8036 84.2832 90.1825 84.8418 91.1591 85.959C92.1356 87.0762 92.6239 88.5254 92.6239 90.3066V91.4551H84.0575C84.0575 92.4785 84.3192 93.2871 84.8427 93.8809C85.3583 94.4902 86.1044 94.7949 87.0809 94.7949C88.5653 94.7949 89.4677 94.2324 89.788 93.1074H92.4481C92.2841 94.2793 91.7098 95.2324 90.7255 95.9668C89.7255 96.7168 88.5106 97.0918 87.0809 97.0918ZM84.0809 89.5098H89.8114C89.788 88.6504 89.5497 87.9473 89.0966 87.4004C88.6122 86.8691 87.9208 86.6035 87.0223 86.6035C86.0927 86.6035 85.3739 86.8691 84.8661 87.4004C84.3661 87.9473 84.1044 88.6504 84.0809 89.5098ZM100.15 97.0918C97.7048 97.0918 96.4822 95.8926 96.4822 93.4941V86.8262H94.4314V84.4941H96.5994V81.8809L98.9783 81.2129H99.2127V84.4941H102.213V86.8262H99.2127V93.0137C99.2127 93.6074 99.3416 94.0332 99.5994 94.291C99.8728 94.5645 100.279 94.7012 100.818 94.7012C101.256 94.7012 101.658 94.6426 102.025 94.5254H102.26V96.834C101.681 97.0059 100.978 97.0918 100.15 97.0918ZM112.66 96.8809V80.0762H119.48C121.175 80.0762 122.527 80.5801 123.535 81.5879C124.527 82.6035 125.023 83.9004 125.023 85.4785C125.023 87.1035 124.519 88.4316 123.511 89.4629C122.511 90.4863 121.167 90.998 119.48 90.998H115.472V96.8809H112.66ZM115.472 88.4551H119C120 88.4551 120.777 88.2012 121.332 87.6934C121.871 87.2012 122.14 86.4629 122.14 85.4785C122.14 84.5723 121.859 83.8613 121.296 83.3457C120.75 82.8457 119.984 82.5957 119 82.5957H115.472V88.4551ZM128.037 96.8809V84.4941H130.334L130.58 86.4629H130.674C130.955 85.7988 131.362 85.2793 131.893 84.9043C132.44 84.5215 133.104 84.3301 133.885 84.3301H134.893V86.873H133.838C132.791 86.873 132.006 87.2168 131.483 87.9043C130.944 88.584 130.674 89.5605 130.674 90.834V96.8809H128.037ZM138.868 82.5957C138.306 82.5957 137.876 82.4473 137.579 82.1504C137.275 81.8457 137.122 81.4199 137.122 80.873C137.122 80.3418 137.275 79.9238 137.579 79.6191C137.853 79.3223 138.283 79.1738 138.868 79.1738C139.439 79.1738 139.872 79.3223 140.169 79.6191C140.474 79.9238 140.626 80.3418 140.626 80.873C140.626 81.3965 140.474 81.8105 140.169 82.1152C139.849 82.4355 139.415 82.5957 138.868 82.5957ZM137.509 96.8809V84.4941H140.24V96.8809H137.509ZM148.715 97.0918C146.84 97.0918 145.391 96.5098 144.367 95.3457C143.328 94.1895 142.809 92.6387 142.809 90.6934C142.809 88.7324 143.32 87.1699 144.344 86.0059C145.352 84.8574 146.785 84.2832 148.645 84.2832C150.309 84.2832 151.594 84.7129 152.5 85.5723C153.414 86.4629 153.918 87.6074 154.012 89.0059H151.281C151.211 88.3027 150.945 87.7441 150.485 87.3301C150.024 86.916 149.41 86.709 148.645 86.709C147.637 86.709 146.875 87.0605 146.36 87.7637C145.844 88.4746 145.586 89.4512 145.586 90.6934C145.586 91.9512 145.844 92.9355 146.36 93.6465C146.875 94.3496 147.637 94.7012 148.645 94.7012C149.402 94.7012 150.016 94.4902 150.485 94.0684C150.961 93.6387 151.235 93.0801 151.305 92.3926H154.035C153.918 93.8223 153.414 94.959 152.524 95.8027C151.617 96.6621 150.348 97.0918 148.715 97.0918ZM161.89 97.0918C160.054 97.0918 158.62 96.4941 157.589 95.2988C156.55 94.0957 156.03 92.5605 156.03 90.6934C156.03 88.8105 156.534 87.2715 157.542 86.0762C158.526 84.8809 159.956 84.2832 161.831 84.2832C163.612 84.2832 164.991 84.8418 165.968 85.959C166.944 87.0762 167.433 88.5254 167.433 90.3066V91.4551H158.866C158.866 92.4785 159.128 93.2871 159.651 93.8809C160.167 94.4902 160.913 94.7949 161.89 94.7949C163.374 94.7949 164.276 94.2324 164.597 93.1074H167.257C167.093 94.2793 166.519 95.2324 165.534 95.9668C164.534 96.7168 163.319 97.0918 161.89 97.0918ZM158.89 89.5098H164.62C164.597 88.6504 164.358 87.9473 163.905 87.4004C163.421 86.8691 162.73 86.6035 161.831 86.6035C160.901 86.6035 160.183 86.8691 159.675 87.4004C159.175 87.9473 158.913 88.6504 158.89 89.5098Z" fill="black"/>
<defs>
<filter id="filter0_d_729_2597" x="0.260565" y="0.141424" width="476.484" height="411.484" filterUnits="userSpaceOnUse" color-interpolation-filters="sRGB">
<feFlood flood-opacity="0" result="BackgroundImageFix"/>
<feColorMatrix in="SourceAlpha" type="matrix" values="0 0 0 0 0 0 0 0 0 0 0 0 0 0 0 0 0 0 127 0" result="hardAlpha"/>
<feOffset/>
<feGaussianBlur stdDeviation="11.8697"/>
<feComposite in2="hardAlpha" operator="out"/>
<feColorMatrix type="matrix" values="0 0 0 0 0 0 0 0 0 0 0 0 0 0 0 0 0 0 0.08 0"/>
<feBlend mode="normal" in2="BackgroundImageFix" result="effect1_dropShadow_729_2597"/>
<feBlend mode="normal" in="SourceGraphic" in2="effect1_dropShadow_729_2597" result="shape"/>
</filter>
<filter id="filter1_f_729_2597" x="184.403" y="82.2836" width="836.195" height="836.195" filterUnits="userSpaceOnUse" color-interpolation-filters="sRGB">
<feFlood flood-opacity="0" result="BackgroundImageFix"/>
<feBlend mode="normal" in="SourceGraphic" in2="BackgroundImageFix" result="shape"/>
<feGaussianBlur stdDeviation="119.799" result="effect1_foregroundBlur_729_2597"/>
</filter>
<filter id="filter2_f_729_2597" x="-512.597" y="-575.716" width="836.195" height="836.195" filterUnits="userSpaceOnUse" color-interpolation-filters="sRGB">
<feFlood flood-opacity="0" result="BackgroundImageFix"/>
<feBlend mode="normal" in="SourceGraphic" in2="BackgroundImageFix" result="shape"/>
<feGaussianBlur stdDeviation="119.799" result="effect1_foregroundBlur_729_2597"/>
</filter>
<linearGradient id="paint0_linear_729_2597" x1="424" y1="667.624" x2="813.861" y2="657.379" gradientUnits="userSpaceOnUse">
<stop stop-color="#00B0FF"/>
<stop offset="0.49591" stop-color="#3D5AFE"/>
<stop offset="1" stop-color="#5444F2"/>
</linearGradient>
<linearGradient id="paint1_linear_729_2597" x1="-273" y1="9.62411" x2="116.861" y2="-0.620839" gradientUnits="userSpaceOnUse">
<stop stop-color="#00B0FF"/>
<stop offset="0.49591" stop-color="#3D5AFE"/>
<stop offset="1" stop-color="#5444F2"/>
</linearGradient>
</defs>
</svg>
