<svg width="477" height="412" viewBox="0 0 477 412" fill="none" xmlns="http://www.w3.org/2000/svg">
<g filter="url(#filter0_d_569_2825)">
<rect x="24" y="23.8809" width="429.005" height="364.005" rx="19.9848" fill="white"/>
<rect x="24.2638" y="24.1446" width="428.478" height="363.477" rx="19.721" stroke="#E1E1E1" stroke-width="0.527543"/>
</g>
<mask id="mask0_569_2825" style="mask-type:alpha" maskUnits="userSpaceOnUse" x="24" y="23" width="430" height="365">
<rect x="24.2638" y="24.1446" width="428.478" height="363.477" rx="19.721" fill="white" stroke="#E1E1E1" stroke-width="0.527543"/>
</mask>
<g mask="url(#mask0_569_2825)">
<g opacity="0.3" filter="url(#filter1_f_569_2825)">
<circle cx="602.5" cy="500.381" r="178.5" fill="url(#paint0_linear_569_2825)"/>
</g>
<g opacity="0.3" filter="url(#filter2_f_569_2825)">
<circle cx="-94.5" cy="-157.619" r="178.5" fill="url(#paint1_linear_569_2825)"/>
</g>
</g>
<path d="M62.4014 87.8809V78.0781H65.6484C67.0156 78.0781 68.0889 78.5225 68.8682 79.4111C69.6338 80.2861 70.0166 81.4756 70.0166 82.9795C70.0166 84.4196 69.6429 85.5954 68.8955 86.5068C68.1299 87.4229 67.0475 87.8809 65.6484 87.8809H62.4014ZM63.6182 86.7734H65.5254C66.5872 86.7734 67.3939 86.4157 67.9453 85.7002C68.4876 84.9938 68.7588 84.0869 68.7588 82.9795C68.7588 81.8766 68.4876 80.972 67.9453 80.2656C67.3984 79.5547 66.5918 79.1992 65.5254 79.1992H63.6182V86.7734ZM74.8786 88.0039C73.8578 88.0039 73.058 87.6598 72.4792 86.9717C71.9095 86.2926 71.6247 85.4062 71.6247 84.3125C71.6247 83.2188 71.9004 82.3278 72.4518 81.6396C73.0078 80.9469 73.8099 80.6006 74.8581 80.6006C75.8333 80.6006 76.5944 80.9219 77.1413 81.5645C77.6836 82.2161 77.9548 83.057 77.9548 84.0869V84.6611H72.862C72.862 85.3766 73.0329 85.9326 73.3747 86.3291C73.7256 86.7484 74.2269 86.958 74.8786 86.958C75.3526 86.958 75.749 86.86 76.068 86.6641C76.3825 86.4681 76.5876 86.1833 76.6833 85.8096H77.8591C77.7634 86.4567 77.4352 86.9831 76.8747 87.3887C76.305 87.7988 75.6397 88.0039 74.8786 88.0039ZM72.8757 83.6836H76.738C76.738 83.0775 76.5785 82.5876 76.2595 82.2139C75.9404 81.8402 75.4733 81.6533 74.8581 81.6533C74.2201 81.6533 73.7347 81.8402 73.402 82.2139C73.0648 82.5921 72.8893 83.082 72.8757 83.6836ZM79.9798 91.0869V80.7236H81.0052L81.1556 81.7217H81.2171C81.6683 80.9743 82.3861 80.6006 83.3705 80.6006C84.3138 80.6006 85.0567 80.9264 85.599 81.5781C86.1231 82.2207 86.392 83.1322 86.4056 84.3125C86.392 85.4154 86.1276 86.3063 85.6127 86.9854C85.0977 87.6644 84.3503 88.0039 83.3705 88.0039C82.3861 88.0039 81.6683 87.6325 81.2171 86.8896H81.1556V91.0869H79.9798ZM83.1722 86.958C83.874 86.958 84.3936 86.7096 84.7308 86.2129C85.0544 85.7161 85.2162 85.0827 85.2162 84.3125C85.2162 83.5286 85.0544 82.8883 84.7308 82.3916C84.3981 81.8994 83.8786 81.6533 83.1722 81.6533C82.5023 81.6533 81.9942 81.904 81.6478 82.4053C81.3015 82.9066 81.1283 83.5423 81.1283 84.3125C81.1283 85.0827 81.3015 85.7116 81.6478 86.1992C81.9942 86.7051 82.5023 86.958 83.1722 86.958ZM90.3653 88.0039C89.6179 88.0039 89.0163 87.7943 88.5606 87.375C88.1003 86.9603 87.8702 86.4339 87.8702 85.7959C87.8702 85.1396 88.1185 84.6019 88.6153 84.1826C89.112 83.7633 89.8503 83.5537 90.8301 83.5537C91.4134 83.5537 92.0013 83.638 92.5938 83.8066V83.0957C92.5938 82.6719 92.4571 82.3164 92.1836 82.0293C91.9011 81.7467 91.4864 81.6055 90.9395 81.6055C90.4382 81.6055 90.0508 81.7285 89.7774 81.9746C89.5085 82.2161 89.3672 82.5192 89.3536 82.8838H88.2256C88.2256 82.1911 88.4808 81.6396 88.9912 81.2295C89.5017 80.8102 90.1511 80.6006 90.9395 80.6006C91.8282 80.6006 92.5186 80.833 93.0108 81.2979C93.4984 81.7581 93.7422 82.346 93.7422 83.0615V87.8809H92.7442L92.6621 86.876H92.6075C92.1608 87.6279 91.4134 88.0039 90.3653 88.0039ZM90.5772 87.0264C91.1742 87.0264 91.6595 86.8395 92.0332 86.4658C92.4069 86.0921 92.5938 85.6387 92.5938 85.1055V84.7432C92.056 84.5745 91.4681 84.4902 90.8301 84.4902C89.6498 84.4902 89.0596 84.9209 89.0596 85.7822C89.0596 86.1559 89.1918 86.4544 89.4561 86.6777C89.7022 86.9102 90.0759 87.0264 90.5772 87.0264ZM96.1843 87.8809V80.7236H97.2097L97.3054 81.9336H97.3601C97.515 81.5326 97.7588 81.2135 98.0915 80.9766C98.4242 80.7533 98.8116 80.6416 99.2536 80.6416H99.8962V81.7764H99.3357C98.0186 81.7764 97.3601 82.6536 97.3601 84.4082V87.8809H96.1843ZM104.088 88.0039C103.414 88.0039 102.928 87.8421 102.632 87.5186C102.345 87.2041 102.202 86.7279 102.202 86.0898V81.7217H101.012V80.7236H102.229V79.1992L103.241 78.8096H103.377V80.7236H105.127V81.7217H103.377V85.9941C103.377 86.3359 103.453 86.582 103.603 86.7324C103.762 86.8919 103.999 86.9717 104.314 86.9717C104.574 86.9717 104.808 86.9443 105.018 86.8896H105.155V87.8945C104.84 87.9674 104.485 88.0039 104.088 88.0039ZM107.699 79.3564C107.162 79.3564 106.893 79.0807 106.893 78.5293C106.893 77.987 107.162 77.7158 107.699 77.7158C107.959 77.7158 108.16 77.7865 108.301 77.9277C108.442 78.0918 108.513 78.2923 108.513 78.5293C108.513 78.7663 108.442 78.9668 108.301 79.1309C108.169 79.2812 107.968 79.3564 107.699 79.3564ZM107.111 87.8809V80.7236H108.287V87.8809H107.111ZM110.736 87.8809V80.7236H111.761L111.857 81.8447H111.912C112.345 81.0153 113.083 80.6006 114.127 80.6006C114.906 80.6006 115.521 80.833 115.972 81.2979C116.414 81.7764 116.636 82.4212 116.636 83.2324V87.8809H115.453V83.417C115.453 82.2412 114.904 81.6533 113.805 81.6533C113.199 81.6533 112.737 81.8538 112.418 82.2549C112.08 82.6605 111.912 83.2188 111.912 83.9297V87.8809H110.736ZM121.785 91.21C120.878 91.21 120.149 90.9821 119.597 90.5264C119.032 90.057 118.743 89.4782 118.729 88.79H119.864C119.891 89.182 120.069 89.5146 120.397 89.7881C120.716 90.0661 121.178 90.2051 121.785 90.2051C122.436 90.2051 122.931 90.0228 123.268 89.6582C123.601 89.3118 123.767 88.8493 123.767 88.2705V86.8896H123.712C123.261 87.6325 122.543 88.0039 121.559 88.0039C120.579 88.0039 119.832 87.6644 119.317 86.9854C118.797 86.3018 118.531 85.4108 118.517 84.3125C118.531 83.1367 118.806 82.2253 119.344 81.5781C119.873 80.9264 120.611 80.6006 121.559 80.6006C122.543 80.6006 123.261 80.9743 123.712 81.7217H123.767L123.924 80.7236H124.943V88.2979C124.943 89.1501 124.665 89.8473 124.109 90.3896C123.548 90.9365 122.774 91.21 121.785 91.21ZM121.75 86.958C122.42 86.958 122.931 86.7051 123.282 86.1992C123.623 85.7161 123.794 85.0872 123.794 84.3125C123.794 83.5378 123.623 82.902 123.282 82.4053C122.935 81.904 122.425 81.6533 121.75 81.6533C121.044 81.6533 120.531 81.8994 120.212 82.3916C119.875 82.8883 119.706 83.5286 119.706 84.3125C119.706 85.0827 119.875 85.7161 120.212 86.2129C120.536 86.7096 121.049 86.958 121.75 86.958Z" fill="#65717C"/>
<rect x="62" y="102.881" width="354" height="40" rx="3" fill="white"/>
<rect x="62.35" y="103.231" width="353.3" height="39.3" rx="2.65" stroke="#979797" stroke-opacity="0.24" stroke-width="0.7"/>
<path d="M80.4014 125.881V116.078H81.6182V124.76H86.3486V125.881H80.4014ZM89.9596 126.004C89.2123 126.004 88.6107 125.794 88.155 125.375C87.6947 124.96 87.4645 124.434 87.4645 123.796C87.4645 123.14 87.7129 122.602 88.2096 122.183C88.7064 121.763 89.4447 121.554 90.4245 121.554C91.0078 121.554 91.5957 121.638 92.1882 121.807V121.096C92.1882 120.672 92.0514 120.316 91.778 120.029C91.4955 119.747 91.0807 119.605 90.5339 119.605C90.0326 119.605 89.6452 119.729 89.3718 119.975C89.1029 120.216 88.9616 120.519 88.9479 120.884H87.82C87.82 120.191 88.0752 119.64 88.5856 119.229C89.096 118.81 89.7455 118.601 90.5339 118.601C91.4225 118.601 92.113 118.833 92.6052 119.298C93.0928 119.758 93.3366 120.346 93.3366 121.062V125.881H92.3386L92.2565 124.876H92.2018C91.7552 125.628 91.0078 126.004 89.9596 126.004ZM90.1716 125.026C90.7686 125.026 91.2539 124.84 91.6276 124.466C92.0013 124.092 92.1882 123.639 92.1882 123.105V122.743C91.6504 122.575 91.0625 122.49 90.4245 122.49C89.2442 122.49 88.654 122.921 88.654 123.782C88.654 124.156 88.7861 124.454 89.0505 124.678C89.2966 124.91 89.6703 125.026 90.1716 125.026ZM98.4857 129.21C97.5788 129.21 96.8496 128.982 96.2982 128.526C95.7331 128.057 95.4437 127.478 95.43 126.79H96.5648C96.5921 127.182 96.7699 127.515 97.098 127.788C97.417 128.066 97.8796 128.205 98.4857 128.205C99.1374 128.205 99.6319 128.023 99.9691 127.658C100.302 127.312 100.468 126.849 100.468 126.271V124.89H100.413C99.9623 125.632 99.2445 126.004 98.2601 126.004C97.2803 126.004 96.5329 125.664 96.0179 124.985C95.4984 124.302 95.2318 123.411 95.2181 122.312C95.2318 121.137 95.5075 120.225 96.0453 119.578C96.5739 118.926 97.3122 118.601 98.2601 118.601C99.2445 118.601 99.9623 118.974 100.413 119.722H100.468L100.625 118.724H101.644V126.298C101.644 127.15 101.366 127.847 100.81 128.39C100.249 128.937 99.4746 129.21 98.4857 129.21ZM98.4515 124.958C99.1214 124.958 99.6319 124.705 99.9828 124.199C100.325 123.716 100.495 123.087 100.495 122.312C100.495 121.538 100.325 120.902 99.9828 120.405C99.6364 119.904 99.126 119.653 98.4515 119.653C97.7451 119.653 97.2324 119.899 96.9134 120.392C96.5762 120.888 96.4076 121.529 96.4076 122.312C96.4076 123.083 96.5762 123.716 96.9134 124.213C97.237 124.71 97.7497 124.958 98.4515 124.958ZM106.766 126.004C105.704 126.004 104.897 125.66 104.346 124.972C103.803 124.293 103.532 123.406 103.532 122.312C103.532 121.219 103.808 120.328 104.359 119.64C104.915 118.947 105.717 118.601 106.766 118.601C107.818 118.601 108.623 118.947 109.179 119.64C109.73 120.328 110.006 121.219 110.006 122.312C110.006 123.406 109.735 124.293 109.192 124.972C108.641 125.66 107.832 126.004 106.766 126.004ZM106.766 124.958C107.472 124.958 107.992 124.719 108.324 124.24C108.648 123.757 108.81 123.115 108.81 122.312C108.81 121.51 108.648 120.861 108.324 120.364C107.992 119.89 107.472 119.653 106.766 119.653C106.073 119.653 105.56 119.89 105.228 120.364C104.89 120.861 104.722 121.51 104.722 122.312C104.722 123.115 104.89 123.757 105.228 124.24C105.565 124.719 106.078 124.958 106.766 124.958ZM114.389 126.004C113.528 126.004 112.833 125.781 112.304 125.334C111.758 124.906 111.477 124.299 111.464 123.516H112.639C112.639 123.99 112.799 124.345 113.118 124.582C113.437 124.833 113.861 124.958 114.389 124.958C115.483 124.958 116.03 124.616 116.03 123.933C116.03 123.413 115.665 123.074 114.936 122.914L113.508 122.647C112.915 122.524 112.468 122.292 112.168 121.95C111.849 121.604 111.689 121.169 111.689 120.645C111.689 120.043 111.928 119.553 112.407 119.175C112.895 118.792 113.523 118.601 114.294 118.601C115.096 118.601 115.759 118.81 116.283 119.229C116.798 119.644 117.055 120.205 117.055 120.911H115.907C115.893 120.478 115.738 120.148 115.442 119.92C115.137 119.701 114.754 119.592 114.294 119.592C113.838 119.592 113.482 119.681 113.227 119.858C112.958 120.045 112.824 120.307 112.824 120.645C112.824 121.196 113.239 121.533 114.068 121.656L115.189 121.861C115.891 122.021 116.404 122.256 116.727 122.565C117.055 122.894 117.219 123.349 117.219 123.933C117.219 124.571 116.948 125.076 116.406 125.45C115.868 125.819 115.196 126.004 114.389 126.004ZM123.655 125.881V116.078H124.872V124.76H129.603V125.881H123.655ZM138.163 124.609C137.443 125.539 136.36 126.004 134.916 126.004C133.471 126.004 132.389 125.539 131.669 124.609C130.94 123.68 130.575 122.47 130.575 120.979C130.575 119.498 130.94 118.286 131.669 117.343C132.38 116.418 133.462 115.955 134.916 115.955C136.356 115.955 137.438 116.418 138.163 117.343C138.892 118.286 139.257 119.498 139.257 120.979C139.257 122.456 138.892 123.666 138.163 124.609ZM134.916 124.855C136 124.855 136.784 124.489 137.267 123.755C137.75 123.026 137.992 122.101 137.992 120.979C137.992 119.863 137.75 118.94 137.267 118.211C136.78 117.473 135.996 117.104 134.916 117.104C134.351 117.104 133.865 117.211 133.46 117.425C133.036 117.639 132.712 117.933 132.489 118.307C132.261 118.685 132.099 119.09 132.004 119.523C131.89 119.993 131.833 120.478 131.833 120.979C131.833 122.078 132.081 123.003 132.578 123.755C133.061 124.489 133.84 124.855 134.916 124.855ZM144.577 126.004C143.405 126.004 142.505 125.73 141.876 125.184C141.229 124.632 140.892 123.885 140.865 122.941H142.116C142.157 123.561 142.389 124.042 142.813 124.384C143.228 124.73 143.816 124.903 144.577 124.903C146.172 124.903 146.969 124.334 146.969 123.194C146.969 122.748 146.821 122.397 146.525 122.142C146.229 121.9 145.793 121.718 145.219 121.595L143.79 121.287C142.929 121.105 142.282 120.797 141.849 120.364C141.412 119.94 141.193 119.366 141.193 118.642C141.193 117.812 141.491 117.154 142.088 116.666C142.685 116.192 143.519 115.955 144.59 115.955C145.643 115.955 146.484 116.222 147.113 116.755C147.742 117.302 148.063 118.006 148.077 118.867H146.832C146.805 118.307 146.605 117.867 146.231 117.548C145.862 117.233 145.306 117.076 144.563 117.076C143.164 117.076 142.464 117.598 142.464 118.642C142.464 119.371 143.02 119.856 144.132 120.098L145.458 120.378C147.318 120.756 148.248 121.695 148.248 123.194C148.248 124.074 147.919 124.76 147.263 125.252C146.611 125.753 145.716 126.004 144.577 126.004Z" fill="black"/>
<path d="M67.5166 163.078L71.126 172.744V172.881H69.8271L68.9043 170.317H64.6182L63.6953 172.881H62.417V172.744L66.0195 163.078H67.5166ZM65.0078 169.224H68.5078L66.7852 164.438H66.7305L65.0078 169.224ZM72.8708 172.881V165.724H73.8962L73.9919 166.934H74.0466C74.2015 166.533 74.4453 166.214 74.778 165.977C75.1107 165.753 75.4981 165.642 75.9401 165.642H76.5827V166.776H76.0221C74.7051 166.776 74.0466 167.654 74.0466 169.408V172.881H72.8708ZM78.847 172.881V165.724H79.8724L79.9681 166.934H80.0228C80.1778 166.533 80.4216 166.214 80.7543 165.977C81.0869 165.753 81.4743 165.642 81.9164 165.642H82.5589V166.776H81.9984C80.6813 166.776 80.0228 167.654 80.0228 169.408V172.881H78.847ZM84.96 164.356C84.4222 164.356 84.1534 164.081 84.1534 163.529C84.1534 162.987 84.4222 162.716 84.96 162.716C85.2198 162.716 85.4203 162.786 85.5616 162.928C85.7028 163.092 85.7735 163.292 85.7735 163.529C85.7735 163.766 85.7028 163.967 85.5616 164.131C85.4294 164.281 85.2289 164.356 84.96 164.356ZM84.3721 172.881V165.724H85.5479V172.881H84.3721ZM89.8357 172.881L87.0193 165.867V165.724H88.2361L90.4372 171.507H90.4919L92.6042 165.724H93.821V165.867L91.0525 172.881H89.8357ZM96.0238 164.356C95.4861 164.356 95.2172 164.081 95.2172 163.529C95.2172 162.987 95.4861 162.716 96.0238 162.716C96.2836 162.716 96.4841 162.786 96.6254 162.928C96.7667 163.092 96.8373 163.292 96.8373 163.529C96.8373 163.766 96.7667 163.967 96.6254 164.131C96.4932 164.281 96.2927 164.356 96.0238 164.356ZM95.4359 172.881V165.724H96.6117V172.881H95.4359ZM99.0606 172.881V165.724H100.086L100.182 166.845H100.236C100.669 166.015 101.408 165.601 102.451 165.601C103.231 165.601 103.846 165.833 104.297 166.298C104.739 166.776 104.96 167.421 104.96 168.232V172.881H103.777V168.417C103.777 167.241 103.228 166.653 102.13 166.653C101.524 166.653 101.061 166.854 100.742 167.255C100.405 167.66 100.236 168.219 100.236 168.93V172.881H99.0606ZM110.109 176.21C109.202 176.21 108.473 175.982 107.922 175.526C107.357 175.057 107.067 174.478 107.053 173.79H108.188C108.216 174.182 108.393 174.515 108.721 174.788C109.04 175.066 109.503 175.205 110.109 175.205C110.761 175.205 111.255 175.023 111.593 174.658C111.925 174.312 112.092 173.849 112.092 173.271V171.89H112.037C111.586 172.632 110.868 173.004 109.884 173.004C108.904 173.004 108.156 172.664 107.641 171.985C107.122 171.302 106.855 170.411 106.842 169.312C106.855 168.137 107.131 167.225 107.669 166.578C108.197 165.926 108.936 165.601 109.884 165.601C110.868 165.601 111.586 165.974 112.037 166.722H112.092L112.249 165.724H113.267V173.298C113.267 174.15 112.989 174.847 112.433 175.39C111.873 175.937 111.098 176.21 110.109 176.21ZM110.075 171.958C110.745 171.958 111.255 171.705 111.606 171.199C111.948 170.716 112.119 170.087 112.119 169.312C112.119 168.538 111.948 167.902 111.606 167.405C111.26 166.904 110.749 166.653 110.075 166.653C109.369 166.653 108.856 166.899 108.537 167.392C108.2 167.888 108.031 168.529 108.031 169.312C108.031 170.083 108.2 170.716 108.537 171.213C108.86 171.71 109.373 171.958 110.075 171.958Z" fill="#65717C"/>
<rect x="63" y="187.881" width="354" height="40" rx="3" fill="white"/>
<rect x="63.35" y="188.231" width="353.3" height="39.3" rx="2.65" stroke="#979797" stroke-opacity="0.24" stroke-width="0.7"/>
<path d="M81.4014 210.881V201.078H84.6484C86.0156 201.078 87.0889 201.522 87.8682 202.411C88.6338 203.286 89.0166 204.476 89.0166 205.979C89.0166 207.42 88.6429 208.595 87.8955 209.507C87.1299 210.423 86.0475 210.881 84.6484 210.881H81.4014ZM82.6182 209.773H84.5254C85.5872 209.773 86.3939 209.416 86.9453 208.7C87.4876 207.994 87.7588 207.087 87.7588 205.979C87.7588 204.877 87.4876 203.972 86.9453 203.266C86.3984 202.555 85.5918 202.199 84.5254 202.199H82.6182V209.773ZM95.7243 203.724H96.9001V208.276C96.9001 209.097 96.6289 209.751 96.0866 210.238C95.5443 210.74 94.8402 210.99 93.9743 210.99C93.1084 210.99 92.4043 210.74 91.862 210.238C91.3197 209.751 91.0485 209.097 91.0485 208.276V203.724H92.2243V208.078C92.2243 209.322 92.8076 209.944 93.9743 209.944C95.141 209.944 95.7243 209.322 95.7243 208.078V203.724ZM102.74 211.004C101.755 211.004 101.037 210.632 100.586 209.89H100.525L100.374 210.881H99.349V200.518H100.525V204.722H100.586C101.037 203.974 101.755 203.601 102.74 203.601C103.715 203.601 104.462 203.942 104.982 204.626C105.497 205.305 105.761 206.196 105.775 207.299C105.761 208.461 105.492 209.366 104.968 210.013C104.417 210.674 103.674 211.004 102.74 211.004ZM102.541 209.958C103.243 209.958 103.763 209.71 104.1 209.213C104.424 208.716 104.585 208.078 104.585 207.299C104.585 206.524 104.424 205.888 104.1 205.392C103.767 204.899 103.248 204.653 102.541 204.653C101.871 204.653 101.363 204.899 101.017 205.392C100.671 205.893 100.497 206.529 100.497 207.299C100.497 208.064 100.671 208.698 101.017 209.199C101.363 209.705 101.871 209.958 102.541 209.958ZM109.734 211.004C108.987 211.004 108.385 210.794 107.93 210.375C107.469 209.96 107.239 209.434 107.239 208.796C107.239 208.14 107.488 207.602 107.984 207.183C108.481 206.763 109.219 206.554 110.199 206.554C110.783 206.554 111.37 206.638 111.963 206.807V206.096C111.963 205.672 111.826 205.316 111.553 205.029C111.27 204.747 110.856 204.605 110.309 204.605C109.807 204.605 109.42 204.729 109.147 204.975C108.878 205.216 108.736 205.519 108.723 205.884H107.595C107.595 205.191 107.85 204.64 108.36 204.229C108.871 203.81 109.52 203.601 110.309 203.601C111.197 203.601 111.888 203.833 112.38 204.298C112.868 204.758 113.111 205.346 113.111 206.062V210.881H112.113L112.031 209.876H111.977C111.53 210.628 110.783 211.004 109.734 211.004ZM109.946 210.026C110.543 210.026 111.029 209.84 111.402 209.466C111.776 209.092 111.963 208.639 111.963 208.105V207.743C111.425 207.575 110.837 207.49 110.199 207.49C109.019 207.49 108.429 207.921 108.429 208.782C108.429 209.156 108.561 209.454 108.825 209.678C109.071 209.91 109.445 210.026 109.946 210.026ZM116.141 202.356C115.604 202.356 115.335 202.081 115.335 201.529C115.335 200.987 115.604 200.716 116.141 200.716C116.401 200.716 116.602 200.786 116.743 200.928C116.884 201.092 116.955 201.292 116.955 201.529C116.955 201.766 116.884 201.967 116.743 202.131C116.611 202.281 116.41 202.356 116.141 202.356ZM115.553 210.881V203.724H116.729V210.881H115.553ZM123.589 210.881V201.078H126.836C128.203 201.078 129.276 201.522 130.056 202.411C130.821 203.286 131.204 204.476 131.204 205.979C131.204 207.42 130.83 208.595 130.083 209.507C129.317 210.423 128.235 210.881 126.836 210.881H123.589ZM124.806 209.773H126.713C127.775 209.773 128.581 209.416 129.133 208.7C129.675 207.994 129.946 207.087 129.946 205.979C129.946 204.877 129.675 203.972 129.133 203.266C128.586 202.555 127.779 202.199 126.713 202.199H124.806V209.773ZM132.108 210.881V210.744L135.451 205.979V205.925L132.204 201.222V201.078H133.564L136.21 205.07H136.264L138.91 201.078H140.27V201.222L137.023 205.925V205.979L140.366 210.744V210.881H139.012L136.264 206.964H136.21L133.469 210.881H132.108ZM142.131 210.881V201.078H146.062C146.9 201.078 147.586 201.304 148.12 201.755C148.653 202.22 148.919 202.844 148.919 203.628C148.919 204.603 148.509 205.271 147.689 205.631V205.686C148.751 206.114 149.282 206.902 149.282 208.051C149.282 208.935 149.006 209.625 148.455 210.122C147.894 210.628 147.131 210.881 146.164 210.881H142.131ZM143.334 205.282H145.768C146.351 205.282 146.818 205.141 147.169 204.858C147.507 204.59 147.675 204.179 147.675 203.628C147.675 203.168 147.525 202.808 147.224 202.548C146.919 202.297 146.486 202.172 145.925 202.172H143.334V205.282ZM143.334 209.773H146.021C146.618 209.773 147.103 209.621 147.477 209.315C147.842 209.019 148.024 208.598 148.024 208.051C148.024 207.495 147.851 207.071 147.504 206.779C147.158 206.488 146.664 206.342 146.021 206.342H143.334V209.773Z" fill="black"/>
<rect x="63" y="272" width="354" height="56" rx="8.84589" fill="#5444F2"/>
<path d="M182.471 306V294.153H184.726L188.427 300.622H188.493L192.203 294.153H194.417V306H192.509V297.3H192.434L188.526 304.001H188.361L184.453 297.251H184.387V306H182.471ZM199.682 306.149C198.74 306.149 197.999 305.89 197.459 305.372C196.909 304.876 196.633 304.229 196.633 303.431C196.633 302.61 196.931 301.955 197.525 301.464C198.131 300.969 199.024 300.721 200.202 300.721C200.902 300.721 201.579 300.817 202.235 301.01V300.2C202.235 299.754 202.094 299.391 201.813 299.11C201.527 298.84 201.092 298.705 200.508 298.705C200.001 298.705 199.607 298.829 199.326 299.077C199.035 299.336 198.88 299.647 198.864 300.01H197.038C197.038 299.173 197.355 298.479 197.988 297.928C198.61 297.389 199.461 297.119 200.541 297.119C201.659 297.119 202.538 297.405 203.176 297.978C203.821 298.556 204.143 299.289 204.143 300.175V306H202.449L202.317 304.967H202.251C201.711 305.755 200.855 306.149 199.682 306.149ZM200.12 304.612C200.753 304.612 201.265 304.425 201.656 304.05C202.042 303.681 202.235 303.232 202.235 302.704V302.414C201.645 302.211 201.012 302.109 200.334 302.109C199.751 302.109 199.313 302.216 199.021 302.431C198.712 302.657 198.558 302.968 198.558 303.365C198.558 303.739 198.693 304.036 198.963 304.257C199.216 304.494 199.602 304.612 200.12 304.612ZM210.399 301.225L214.076 305.835V306H211.787L208.392 301.704V306H206.533V293.475H208.392V300.82L211.671 297.267H213.943V297.441L210.399 301.225ZM218.663 306.149C217.368 306.149 216.358 305.727 215.631 304.885C214.898 304.036 214.532 302.954 214.532 301.638C214.532 300.31 214.887 299.225 215.598 298.383C216.292 297.54 217.3 297.119 218.622 297.119C219.877 297.119 220.849 297.512 221.538 298.3C222.226 299.088 222.571 300.109 222.571 301.365V302.175H216.531C216.531 302.896 216.716 303.466 217.085 303.885C217.448 304.315 217.974 304.529 218.663 304.529C219.709 304.529 220.345 304.133 220.571 303.34H222.447C222.331 304.166 221.926 304.838 221.232 305.356C220.527 305.884 219.671 306.149 218.663 306.149ZM216.548 300.803H220.588C220.571 300.198 220.403 299.702 220.084 299.316C219.742 298.942 219.255 298.754 218.622 298.754C217.966 298.754 217.459 298.942 217.101 299.316C216.749 299.702 216.564 300.198 216.548 300.803ZM229.804 306V294.153H234.612C235.807 294.153 236.76 294.508 237.47 295.218C238.17 295.934 238.52 296.849 238.52 297.961C238.52 299.107 238.164 300.043 237.454 300.77C236.749 301.492 235.802 301.853 234.612 301.853H231.786V306H229.804ZM231.786 300.06H234.273C234.978 300.06 235.526 299.881 235.917 299.523C236.297 299.176 236.487 298.655 236.487 297.961C236.487 297.322 236.289 296.821 235.892 296.458C235.507 296.105 234.967 295.929 234.273 295.929H231.786V300.06ZM242.917 306.149C241.975 306.149 241.234 305.89 240.694 305.372C240.144 304.876 239.868 304.229 239.868 303.431C239.868 302.61 240.166 301.955 240.761 301.464C241.366 300.969 242.259 300.721 243.437 300.721C244.137 300.721 244.814 300.817 245.47 301.01V300.2C245.47 299.754 245.329 299.391 245.048 299.11C244.762 298.84 244.327 298.705 243.743 298.705C243.236 298.705 242.843 298.829 242.562 299.077C242.27 299.336 242.116 299.647 242.099 300.01H240.273C240.273 299.173 240.59 298.479 241.223 297.928C241.846 297.389 242.697 297.119 243.776 297.119C244.894 297.119 245.773 297.405 246.412 297.978C247.056 298.556 247.378 299.289 247.378 300.175V306H245.685L245.552 304.967H245.486C244.947 305.755 244.09 306.149 242.917 306.149ZM243.355 304.612C243.988 304.612 244.5 304.425 244.891 304.05C245.277 303.681 245.47 303.232 245.47 302.704V302.414C244.88 302.211 244.247 302.109 243.57 302.109C242.986 302.109 242.548 302.216 242.256 302.431C241.948 302.657 241.793 302.968 241.793 303.365C241.793 303.739 241.928 304.036 242.198 304.257C242.451 304.494 242.837 304.612 243.355 304.612ZM250.577 309.875V309.71L251.965 305.967L251.767 305.95L248.586 297.441V297.267H250.594L252.866 303.835H252.932L255.204 297.267H257.245V297.441L252.61 309.875H250.577ZM268.681 297.119C269.645 297.119 270.408 297.4 270.969 297.961C271.52 298.529 271.796 299.308 271.796 300.299V306H269.871V300.77C269.871 299.498 269.306 298.862 268.177 298.862C267.582 298.862 267.125 299.063 266.805 299.465C266.48 299.889 266.318 300.459 266.318 301.175V306H264.401V300.77C264.401 299.498 263.837 298.862 262.708 298.862C262.129 298.862 261.664 299.063 261.311 299.465C260.948 299.895 260.766 300.465 260.766 301.175V306H258.841V297.267H260.543L260.7 298.399H260.766C261.306 297.546 262.146 297.119 263.286 297.119C264.536 297.119 265.412 297.576 265.913 298.49H265.963C266.525 297.576 267.431 297.119 268.681 297.119ZM277.746 306.149C276.452 306.149 275.441 305.727 274.714 304.885C273.981 304.036 273.615 302.954 273.615 301.638C273.615 300.31 273.97 299.225 274.681 298.383C275.375 297.54 276.383 297.119 277.705 297.119C278.96 297.119 279.933 297.512 280.621 298.3C281.309 299.088 281.654 300.109 281.654 301.365V302.175H275.614C275.614 302.896 275.799 303.466 276.168 303.885C276.531 304.315 277.057 304.529 277.746 304.529C278.792 304.529 279.429 304.133 279.654 303.34H281.53C281.414 304.166 281.009 304.838 280.315 305.356C279.61 305.884 278.754 306.149 277.746 306.149ZM275.631 300.803H279.671C279.654 300.198 279.486 299.702 279.167 299.316C278.825 298.942 278.338 298.754 277.705 298.754C277.049 298.754 276.542 298.942 276.184 299.316C275.832 299.702 275.647 300.198 275.631 300.803ZM283.647 306V297.267H285.349L285.506 298.399H285.572C286.112 297.546 286.962 297.119 288.125 297.119C289.1 297.119 289.868 297.4 290.43 297.961C290.991 298.523 291.272 299.303 291.272 300.299V306H289.347V300.77C289.347 299.498 288.755 298.862 287.571 298.862C286.954 298.862 286.47 299.063 286.117 299.465C285.754 299.895 285.572 300.465 285.572 301.175V306H283.647ZM296.975 306.149C295.251 306.149 294.389 305.303 294.389 303.612V298.911H292.943V297.267H294.472V295.425L296.149 294.954H296.314V297.267H298.429V298.911H296.314V303.274C296.314 303.692 296.405 303.992 296.587 304.174C296.779 304.367 297.066 304.463 297.446 304.463C297.754 304.463 298.038 304.422 298.297 304.339H298.462V305.967C298.054 306.088 297.559 306.149 296.975 306.149Z" fill="white"/>
<defs>
<filter id="filter0_d_569_2825" x="0.260565" y="0.141424" width="476.484" height="411.484" filterUnits="userSpaceOnUse" color-interpolation-filters="sRGB">
<feFlood flood-opacity="0" result="BackgroundImageFix"/>
<feColorMatrix in="SourceAlpha" type="matrix" values="0 0 0 0 0 0 0 0 0 0 0 0 0 0 0 0 0 0 127 0" result="hardAlpha"/>
<feOffset/>
<feGaussianBlur stdDeviation="11.8697"/>
<feComposite in2="hardAlpha" operator="out"/>
<feColorMatrix type="matrix" values="0 0 0 0 0 0 0 0 0 0 0 0 0 0 0 0 0 0 0.08 0"/>
<feBlend mode="normal" in2="BackgroundImageFix" result="effect1_dropShadow_569_2825"/>
<feBlend mode="normal" in="SourceGraphic" in2="effect1_dropShadow_569_2825" result="shape"/>
</filter>
<filter id="filter1_f_569_2825" x="184.403" y="82.2836" width="836.195" height="836.195" filterUnits="userSpaceOnUse" color-interpolation-filters="sRGB">
<feFlood flood-opacity="0" result="BackgroundImageFix"/>
<feBlend mode="normal" in="SourceGraphic" in2="BackgroundImageFix" result="shape"/>
<feGaussianBlur stdDeviation="119.799" result="effect1_foregroundBlur_569_2825"/>
</filter>
<filter id="filter2_f_569_2825" x="-512.597" y="-575.716" width="836.195" height="836.195" filterUnits="userSpaceOnUse" color-interpolation-filters="sRGB">
<feFlood flood-opacity="0" result="BackgroundImageFix"/>
<feBlend mode="normal" in="SourceGraphic" in2="BackgroundImageFix" result="shape"/>
<feGaussianBlur stdDeviation="119.799" result="effect1_foregroundBlur_569_2825"/>
</filter>
<linearGradient id="paint0_linear_569_2825" x1="424" y1="667.624" x2="813.861" y2="657.379" gradientUnits="userSpaceOnUse">
<stop stop-color="#00B0FF"/>
<stop offset="0.49591" stop-color="#3D5AFE"/>
<stop offset="1" stop-color="#5444F2"/>
</linearGradient>
<linearGradient id="paint1_linear_569_2825" x1="-273" y1="9.62411" x2="116.861" y2="-0.620839" gradientUnits="userSpaceOnUse">
<stop stop-color="#00B0FF"/>
<stop offset="0.49591" stop-color="#3D5AFE"/>
<stop offset="1" stop-color="#5444F2"/>
</linearGradient>
</defs>
</svg>
