<svg width="935" height="982" viewBox="0 0 935 982" fill="none" xmlns="http://www.w3.org/2000/svg">
<path fill-rule="evenodd" clip-rule="evenodd" d="M728.216 355.329C762.966 429.502 754.021 521.961 691.698 590.31C634.847 652.608 541.803 674.701 462.698 645.259C332.161 596.738 286.684 442.152 356.973 330.812L529.673 57.25L595.074 -46.3467C646.932 -128.492 622.376 -237.141 540.23 -289L207.329 238.326L207.388 238.363C78.7711 442.227 162.177 718.451 400.686 810.257C540.644 864.147 704.683 828.44 809.808 721.488C990.898 537.278 948.575 246.905 743.152 117.221C697.935 188.847 692.277 278.588 728.216 355.329Z" fill="url(#paint0_linear_5487_53978)" fill-opacity="0.05"/>
<defs>
<linearGradient id="paint0_linear_5487_53978" x1="675.141" y1="-203.831" x2="774.03" y2="873.122" gradientUnits="userSpaceOnUse">
<stop stop-color="#00B0FF"/>
<stop offset="0.524899" stop-color="#3D5AFE"/>
<stop offset="1" stop-color="#5444F2"/>
</linearGradient>
</defs>
</svg>
