<svg width="103" height="32" viewBox="0 0 103 32" fill="none" xmlns="http://www.w3.org/2000/svg">
<path fill-rule="evenodd" clip-rule="evenodd" d="M15.9026 14.055C18.0837 15.4517 19.4053 18.0749 18.8926 20.9544C18.4241 23.5798 16.3092 25.7411 13.6971 26.2891C9.38773 27.1952 5.56236 23.8295 5.56236 19.666V9.4363V5.56236C5.56236 2.49058 3.07178 0 0 0V19.719H0.00220992C0.00441983 27.341 6.89715 33.3189 14.8241 31.7476C19.476 30.8261 23.2594 27.1024 24.2649 22.4682C25.9975 14.486 19.9644 7.43633 12.2827 7.43633C12.2827 10.1147 13.6462 12.6097 15.9026 14.055Z" fill="white"/>
<path fill-rule="evenodd" clip-rule="evenodd" d="M64.8329 9.20224C66.3688 9.20224 67.708 9.50278 68.8528 10.1039C69.9975 10.7072 70.9124 11.4564 71.5975 12.3536V9.52046H73.4582C74.6781 9.52046 75.6681 10.5105 75.6681 11.7304V29.0296H71.5975V26.1258C70.9124 27.0473 69.9798 27.8142 68.7997 28.4263C67.6196 29.0407 66.2738 29.3478 64.7622 29.3478C63.0871 29.3478 61.5534 28.9169 60.1611 28.055C58.7667 27.1932 57.6639 25.991 56.8507 24.444C56.0352 22.8993 55.6286 21.1446 55.6286 19.1866C55.6286 17.2264 56.0352 15.4917 56.8507 13.9823C57.6639 12.4707 58.7733 11.2972 60.1788 10.4597C61.5821 9.62212 63.1335 9.20224 64.8329 9.20224ZM35.2397 2.82861C36.4618 2.82861 37.4496 3.81866 37.4496 5.03853V12.4241C38.1347 11.4804 39.0739 10.707 40.265 10.1037C41.4562 9.50256 42.7844 9.20201 44.2473 9.20201C45.9711 9.20201 47.529 9.61527 48.9213 10.4418C50.3135 11.2683 51.4119 12.4418 52.2141 13.9644C53.0163 15.487 53.4185 17.2262 53.4185 19.1864C53.4185 21.1466 53.0163 22.8991 52.2141 24.4438C51.4119 25.9908 50.3091 27.1929 48.9036 28.0548C47.5003 28.9167 45.9467 29.3476 44.2473 29.3476C42.7379 29.3476 41.3987 29.0515 40.2297 28.4614C39.0606 27.8736 38.1347 27.1178 37.4496 26.1963V29.0294H33.4143V2.82861H35.2397ZM101.968 9.52024V29.0294H97.9324V9.52024H101.968ZM87.7219 9.2029C89.2556 9.2029 90.6302 9.52113 91.8456 10.1576C93.0611 10.794 94.0113 11.7399 94.6964 12.9907C95.3793 14.2415 95.7218 15.7509 95.7218 17.5232V29.0281H93.9318C92.7119 29.0281 91.7219 28.0402 91.7219 26.8181V18.1243C91.7219 16.3785 91.2843 15.0371 90.4114 14.1045C89.5385 13.1741 88.3451 12.7078 86.8357 12.7078C85.3242 12.7078 84.1264 13.1741 83.2424 14.1045C82.3562 15.0371 81.9142 16.3785 81.9142 18.1243V29.0281H77.8789V9.52113H81.9142V11.7509C82.575 10.9487 83.4192 10.3233 84.4468 9.87471C85.4722 9.4261 86.5639 9.2029 87.7219 9.2029ZM65.6837 12.7072C64.6451 12.7072 63.6771 12.9613 62.7799 13.4674C61.8827 13.9757 61.1578 14.7204 60.6031 15.6994C60.0484 16.6784 59.77 17.8408 59.77 19.1866C59.77 20.5325 60.0484 21.7126 60.6031 22.7269C61.1578 23.7413 61.8893 24.5147 62.7976 25.0451C63.7059 25.5777 64.6694 25.8429 65.6837 25.8429C66.7224 25.8429 67.6903 25.5821 68.5876 25.0628C69.4848 24.5457 70.2096 23.7833 70.7643 22.78C71.319 21.7767 71.5975 20.6032 71.5975 19.2574C71.5975 17.9115 71.319 16.7425 70.7643 15.7524C70.2096 14.7602 69.4848 14.0044 68.5876 13.4851C67.6903 12.9679 66.7224 12.7072 65.6837 12.7072ZM43.3634 12.7069C42.349 12.7069 41.3855 12.9677 40.4772 13.4848C39.5689 14.0042 38.8374 14.76 38.2828 15.7522C37.7281 16.7423 37.4496 17.9113 37.4496 19.2571C37.4496 20.603 37.7281 21.7764 38.2828 22.7797C38.8374 23.783 39.5689 24.5455 40.4772 25.0626C41.3855 25.5819 42.349 25.8427 43.3634 25.8427C44.402 25.8427 45.3744 25.5775 46.2849 25.0449C47.1931 24.5145 47.9246 23.7411 48.4793 22.7267C49.034 21.7124 49.3124 20.5323 49.3124 19.1864C49.3124 17.8406 49.034 16.6782 48.4793 15.6992C47.9246 14.7202 47.1931 13.9754 46.2849 13.4672C45.3744 12.9611 44.402 12.7069 43.3634 12.7069ZM99.7587 2.82861C100.96 2.82861 101.939 3.78932 101.968 4.98407L101.969 5.03853V6.86392H97.9333V2.82861H99.7587Z" fill="white"/>
</svg>
