<svg width="24" height="24" viewBox="0 0 24 24" fill="none" xmlns="http://www.w3.org/2000/svg">
<path d="M12.6464 14.6464C12.4512 14.8417 12.4512 15.1583 12.6464 15.3536C12.8417 15.5488 13.1583 15.5488 13.3536 15.3536L12.6464 14.6464ZM16 12L16.3536 12.3536C16.5488 12.1583 16.5488 11.8417 16.3536 11.6464L16 12ZM13.3536 8.64645C13.1583 8.45118 12.8417 8.45118 12.6464 8.64645C12.4512 8.84171 12.4512 9.15829 12.6464 9.35355L13.3536 8.64645ZM8 11.5C7.72386 11.5 7.5 11.7239 7.5 12C7.5 12.2761 7.72386 12.5 8 12.5V11.5ZM21.5 12C21.5 6.75329 17.2467 2.5 12 2.5V3.5C16.6944 3.5 20.5 7.30558 20.5 12H21.5ZM12 2.5C6.75329 2.5 2.5 6.75329 2.5 12H3.5C3.5 7.30558 7.30558 3.5 12 3.5V2.5ZM2.5 12C2.5 17.2467 6.75329 21.5 12 21.5V20.5C7.30558 20.5 3.5 16.6944 3.5 12H2.5ZM12 21.5C17.2467 21.5 21.5 17.2467 21.5 12H20.5C20.5 16.6944 16.6944 20.5 12 20.5V21.5ZM13.3536 15.3536L16.3536 12.3536L15.6464 11.6464L12.6464 14.6464L13.3536 15.3536ZM16.3536 11.6464L13.3536 8.64645L12.6464 9.35355L15.6464 12.3536L16.3536 11.6464ZM16 11.5L8 11.5V12.5L16 12.5V11.5Z" fill="#5444F2"/>
</svg>
