<svg width="19" height="13" viewBox="0 0 19 13" fill="none" xmlns="http://www.w3.org/2000/svg">
<path d="M9.64532 12.2767C10.0763 12.2767 10.296 12.0908 10.4651 11.6175L11.4538 8.88785H16.1273L17.1076 11.6175C17.2766 12.0908 17.4963 12.2767 17.9273 12.2767C18.4006 12.2767 18.7133 11.9978 18.7133 11.5584C18.7133 11.4062 18.6795 11.271 18.6203 11.0851L14.9272 1.23122C14.7244 0.681904 14.361 0.419922 13.7863 0.419922C13.237 0.419922 12.8652 0.681904 12.6708 1.22277L8.97769 11.102C8.91008 11.2879 8.88473 11.4232 8.88473 11.5668C8.88473 12.0063 9.17206 12.2767 9.64532 12.2767ZM11.8595 7.58639L13.761 2.26224H13.8117L15.7047 7.58639H11.8595ZM1.46473 12.2767C1.81967 12.2767 2.0563 12.0992 2.19997 11.6429L2.80844 9.88507H5.74095L6.34942 11.6429C6.50154 12.1077 6.73817 12.2767 7.09311 12.2767C7.52411 12.2767 7.82835 11.9978 7.82835 11.5922C7.82835 11.4401 7.79455 11.2879 7.71849 11.0767L5.3522 4.78065C5.16628 4.27359 4.81979 3.9609 4.26202 3.9609C3.7296 3.9609 3.39156 4.27359 3.20564 4.78065L0.830904 11.0767C0.754845 11.2879 0.729492 11.4485 0.729492 11.5922C0.729492 11.9978 1.02528 12.2767 1.46473 12.2767ZM3.18029 8.72728L4.21976 5.6004H4.32118L5.3691 8.72728H3.18029Z" fill="white"/>
</svg>
