<svg width="146" height="146" viewBox="0 0 146 146" fill="none" xmlns="http://www.w3.org/2000/svg">
<path fill-rule="evenodd" clip-rule="evenodd" d="M142.298 73.0091L139.592 73.6598L137.563 74.2706L136.097 74.8582L135.108 75.4362L134.53 76.0153L134.309 76.6048L134.401 77.2123L134.767 77.844L135.37 78.5051L136.173 79.199L137.138 79.9279L138.226 80.692L139.393 81.4895L140.592 82.3166L141.773 83.1671L142.887 84.0328L143.885 84.9037L144.724 85.7688L145.369 86.6167L145.794 87.4368L145.987 88.2199L145.95 88.9593L145.697 89.6515L145.253 90.2959L144.652 90.8954L143.934 91.4554L143.141 91.9836L142.314 92.4893L141.49 92.9827L140.704 93.4741L139.984 93.9739L139.352 94.4917L138.827 95.0361L138.418 95.6146L138.132 96.2334L137.97 96.8971L137.928 97.6081L137.995 98.3671L138.158 99.1721L138.396 100.018L138.685 100.898L138.996 101.802L139.295 102.714L139.546 103.618L139.712 104.494L139.755 105.324L139.644 106.084L139.351 106.757L138.859 107.327L138.162 107.783L137.265 108.119L136.186 108.339L134.952 108.451L133.6 108.47L132.171 108.415L130.709 108.311L129.256 108.183L127.855 108.058L126.542 107.961L125.352 107.92L124.315 107.96L123.458 108.107L122.806 108.386L122.384 108.825L122.219 109.454L122.34 110.309L122.784 111.432L123.597 112.875L124.838 114.707L125.706 116.284L123.319 115.148L121.456 114.397L120.024 113.977L118.952 113.844L118.185 113.967L117.677 114.32L117.39 114.881L117.29 115.631L117.348 116.549L117.532 117.615L117.812 118.807L118.156 120.098L118.534 121.458L118.909 122.855L119.251 124.252L119.524 125.611L119.701 126.893L119.755 128.064L119.668 129.094L119.43 129.959L119.039 130.648L118.502 131.158L117.833 131.497L117.054 131.682L116.189 131.739L115.265 131.698L114.309 131.59L113.346 131.45L112.397 131.308L111.482 131.194L110.614 131.132L109.804 131.143L109.058 131.245L108.38 131.449L107.77 131.763L107.225 132.19L106.74 132.729L106.305 133.371L105.911 134.107L105.546 134.919L105.195 135.784L104.842 136.676L104.472 137.56L104.067 138.4L103.611 139.158L103.091 139.796L102.494 140.276L101.815 140.569L101.051 140.654L100.205 140.521L99.2855 140.171L98.3052 139.62L97.2803 138.894L96.2289 138.029L95.1696 137.067L94.1203 136.055L93.0972 135.04L92.1139 134.067L91.1815 133.181L90.3084 132.423L89.5003 131.831L88.7612 131.44L88.093 131.288L87.497 131.412L86.9733 131.852L86.522 132.656L86.1434 133.881L85.8383 135.6L85.6089 137.908L85.0656 138.685L84.0092 136.43L83.0954 134.78L82.2911 133.64L81.5704 132.936L80.9126 132.611L80.3004 132.619L79.7195 132.919L79.1573 133.475L78.6032 134.254L78.0476 135.219L77.4825 136.334L76.901 137.559L76.298 138.849L75.67 140.157L75.0151 141.433L74.3337 142.628L73.628 143.695L72.9024 144.592L72.1623 145.286L71.4145 145.755L70.6661 145.991L69.9236 146L69.1929 145.799L68.4781 145.416L67.7819 144.887L67.1048 144.254L66.4457 143.557L65.802 142.838L65.1696 142.134L64.5438 141.478L63.919 140.896L63.2895 140.412L62.6497 140.039L61.9941 139.79L61.3178 139.668L60.6169 139.673L59.8883 139.8L59.1305 140.036L58.3435 140.367L57.5293 140.769L56.6921 141.215L55.8384 141.674L54.9775 142.11L54.1206 142.482L53.2813 142.752L52.4741 142.882L51.7139 142.837L51.0147 142.593L50.3883 142.133L49.8429 141.454L49.3827 140.566L49.0066 139.49L48.709 138.258L48.4795 136.911L48.3041 135.494L48.166 134.053L48.0465 132.635L47.9259 131.283L47.784 130.036L47.6005 128.931L47.3548 128L47.0259 127.273L46.5918 126.779L46.0285 126.548L45.3089 126.611L44.4011 127.006L43.2662 127.779L41.8553 128.99L40.1048 130.716L39.6856 130.106L40.2908 127.821L40.6178 126.071L40.7021 124.765L40.5704 123.835L40.2433 123.226L39.7373 122.892L39.067 122.796L38.2464 122.901L37.2899 123.175L36.2134 123.586L35.0357 124.099L33.7786 124.678L32.4674 125.287L31.1307 125.886L29.8001 126.437L28.5082 126.902L27.2874 127.248L26.1674 127.446L25.1729 127.476L24.3217 127.329L23.623 127.003L23.0767 126.509L22.6741 125.865L22.3986 125.098L22.2276 124.237L22.1345 123.314L22.0911 122.359L22.0687 121.402L22.0405 120.468L21.9818 119.579L21.8712 118.75L21.6909 117.994L21.4271 117.32L21.0694 116.729L20.6119 116.223L20.0526 115.798L19.3939 115.446L18.6425 115.158L17.8102 114.921L16.9137 114.718L15.9751 114.532L15.0211 114.34L14.0832 114.121L13.1961 113.853L12.396 113.513L11.7187 113.083L11.1966 112.546L10.856 111.894L10.714 111.123L10.7773 110.237L11.0405 109.246L11.4867 108.169L12.0886 107.027L12.8108 105.844L13.6124 104.647L14.4497 103.459L15.2783 102.305L16.0552 101.204L16.7393 100.173L17.2921 99.2271L17.677 98.377L17.8585 97.6322L17.8006 97.0006L17.4652 96.4895L16.8095 96.1064L15.7827 95.8603L14.3225 95.7626L12.3489 95.8282L9.75685 96.0782L10.7835 95.0076L12.6248 93.6883L13.9221 92.5929L14.7571 91.6769L15.1922 90.9059L15.2769 90.2518L15.0519 89.6915L14.553 89.2053L13.813 88.7755L12.8649 88.3862L11.7427 88.0226L10.4834 87.6705L9.12774 87.3167L7.72009 86.9489L6.3082 86.5558L4.94169 86.1279L3.66987 85.6576L2.53876 85.1399L1.58796 84.5729L0.847452 83.9573L0.335191 83.297L0.0556934 82.5981L0 81.8686L0.146962 81.1173L0.465608 80.3535L0.918168 79.5853L1.46328 78.82L2.05896 78.0631L2.66506 77.3184L3.24509 76.5879L3.76741 75.8719L4.20583 75.1694L4.5399 74.4783L4.75489 73.7953L4.8417 73.117L4.79674 72.4393L4.62185 71.7583L4.32438 71.0701L3.91726 70.3715L3.41909 69.66L2.85426 68.9342L2.25271 68.1938L1.6495 67.4405L1.08377 66.6774L0.597158 65.9094L0.231522 65.1433L0.0261236 64.3871L0.0144455 63.6497L0.221063 62.9401L0.659018 62.2667L1.32814 61.6364L2.21468 61.0536L3.29225 60.5203L4.52401 60.0354L5.86561 59.5946L7.26847 59.1914L8.68278 58.8166L10.06 58.4597L11.3546 58.1085L12.5246 57.75L13.532 57.3704L14.3419 56.9552L14.9211 56.4888L15.2371 55.9542L15.2551 55.3323L14.9365 54.6013L14.2349 53.7349L13.0927 52.7009L11.4351 51.4584L9.16242 49.9543L11.5963 50.1317L13.754 50.2534L15.368 50.2058L16.5254 50.0056L17.2933 49.6652L17.7258 49.1939L17.8678 48.5999L17.7586 47.8903L17.4347 47.0729L16.9314 46.1563L16.285 45.1512L15.5334 44.0709L14.7166 42.9315L13.8773 41.7522L13.0596 40.5552L12.3075 39.365L11.6631 38.207L11.1639 37.1066L10.8401 36.0865L10.7119 35.1656L10.7886 34.3569L11.0674 33.6668L11.5342 33.0942L12.1653 32.6315L12.93 32.2649L13.7934 31.9761L14.719 31.7441L15.6715 31.5462L16.6182 31.3602L17.5307 31.1647L18.3854 30.9404L19.1641 30.6703L19.8534 30.3403L20.4448 29.9394L20.9347 29.4595L21.3237 28.8961L21.6165 28.2478L21.8221 27.5172L21.9531 26.7106L22.0262 25.8389L22.0616 24.9171L22.083 23.9649L22.1167 23.0066L22.1908 22.07L22.334 21.1856L22.5735 20.3852L22.9336 19.6994L23.4327 19.1554L24.0824 18.7745L24.8856 18.5695L25.836 18.5437L26.9184 18.69L28.1101 18.9913L29.3828 19.4219L30.7047 19.9496L32.0429 20.5377L33.3655 21.1476L34.6428 21.7405L35.8483 22.2784L36.9592 22.7253L37.9558 23.0467L38.8213 23.2095L39.5409 23.1808L40.1008 22.9265L40.4866 22.4095L40.6825 21.587L40.6695 20.4078L40.4232 18.808L39.9112 16.7048L39.4628 14.6277L41.3381 16.5389L42.8494 17.9043L44.0664 18.8097L45.0419 19.3198L45.8177 19.4841L46.4276 19.3426L46.9002 18.929L47.2601 18.2732L47.53 17.4042L47.7311 16.3512L47.884 15.1459L48.0092 13.8231L48.1269 12.4212L48.257 10.9827L48.4185 9.55289L48.6291 8.17862L48.9037 6.90572L49.254 5.77623L49.687 4.82525L50.2055 4.07811L50.8068 3.54825L51.484 3.23633L52.2261 3.13047L53.02 3.20785L53.8507 3.43711L54.7035 3.78134L55.5645 4.20098L56.4215 4.65656L57.2648 5.11082L58.087 5.53023L58.883 5.88597L59.6502 6.15444L60.3879 6.31743L61.0974 6.36213L61.7811 6.28105L62.4428 6.07199L63.0871 5.73803L63.7193 5.2877L64.3449 4.73505L64.9698 4.09988L65.5996 3.40772L66.2392 2.68965L66.893 1.98168L67.5641 1.32359L68.2543 0.757135L68.9633 0.323604L69.6893 0.0608341L70.4286 0L71.1759 0.162568L71.9246 0.557902L72.6679 1.18194L73.3988 2.0172L74.1114 3.03412L74.8008 4.19346L75.4643 5.4494L76.1008 6.75268L76.7115 8.05352L77.2993 9.30378L77.869 10.4583L78.4268 11.4757L78.9804 12.3177L79.5389 12.9486L80.1126 13.334L80.7133 13.4386L81.3549 13.2241L82.0536 12.6467L82.8287 11.6527L83.7044 10.1747L84.7112 8.12434L85.5523 7.23158L85.7569 9.75241L86.0381 11.6477L86.3935 13.0213L86.8216 13.9524L87.3223 14.5027L87.8953 14.7223L88.5406 14.654L89.2573 14.3357L90.0437 13.8037L90.8967 13.0941L91.8109 12.2445L92.7791 11.2949L93.7909 10.2883L94.8335 9.2701L95.8914 8.28738L96.9474 7.38683L97.9828 6.61235L98.9791 6.00221L99.9196 5.58609L100.79 5.38278L101.581 5.39863L102.287 5.62735L102.909 6.05097L103.453 6.6419L103.928 7.36576L104.347 8.18437L104.727 9.05871L105.083 9.95133L105.433 10.8282L105.792 11.6598L106.176 12.422L106.596 13.0959L107.065 13.6684L107.59 14.1312L108.179 14.481L108.835 14.7196L109.559 14.8529L110.349 14.8917L111.199 14.8512L112.101 14.751L113.041 14.615L114.002 14.4708L114.963 14.3493L115.9 14.2832L116.786 14.3054L117.596 14.4469L118.302 14.7346L118.883 15.1885L119.322 15.8199L119.609 16.6301L119.743 17.6093L119.732 18.7382L119.592 19.9889L119.346 21.3274L119.023 22.7163L118.655 24.1172L118.275 25.4932L117.916 26.8097L117.612 28.036L117.394 29.1448L117.293 30.1125L117.339 30.9177L117.563 31.5408L117.997 31.9623L118.677 32.1611L119.647 32.1131L120.957 31.7884L122.674 31.1486L124.882 30.1427L125.336 30.6322L123.942 32.6054L123 34.1643L122.445 35.3828L122.225 36.3181L122.302 37.0153L122.646 37.5116L123.227 37.8385L124.022 38.0244L125.004 38.0955L126.149 38.0775L127.425 37.9959L128.803 37.8767L130.243 37.7465L131.707 37.6319L133.152 37.559L134.533 37.552L135.808 37.6323L136.94 37.8165L137.897 38.1154L138.659 38.5334L139.216 39.0677L139.571 39.7094L139.738 40.4441L139.74 41.2536L139.61 42.1175L139.382 43.0151L139.094 43.9265L138.783 44.834L138.484 45.7228L138.226 46.5808L138.037 47.3996L137.938 48.1736L137.944 48.9L138.067 49.5785L138.313 50.2112L138.683 50.802L139.173 51.3565L139.772 51.8818L140.466 52.3863L141.234 52.8794L142.05 53.371L142.88 53.8717L143.688 54.3916L144.434 54.9406L145.076 55.5267L145.574 56.1564L145.892 56.8333L146 57.5579L145.881 58.3277L145.529 59.1369L144.952 59.977L144.172 60.8379L143.219 61.7082L142.137 62.5767L140.972 63.433L139.774 64.2683L138.592 65.0758L137.474 65.8508L136.464 66.591L135.605 67.2959L134.935 67.9671L134.49 68.6077L134.306 69.2223L134.423 69.8167L134.882 70.3983L135.734 70.9755L137.039 71.5587L138.878 72.1605L141.354 72.7964L142.298 73.0091Z" fill="#053D75"/>
</svg>
