<svg width="148" height="148" viewBox="0 0 148 148" fill="none" xmlns="http://www.w3.org/2000/svg">
<path fill-rule="evenodd" clip-rule="evenodd" d="M148 73.6497L143.791 74.3545L140.041 74.9841L136.693 75.5506L133.697 76.0644L131.011 76.5339L128.599 76.9664L126.431 77.3681L124.48 77.7443L122.724 78.0995L121.142 78.4377L119.719 78.7623L118.439 79.0762L117.288 79.3823L116.257 79.6827L115.334 79.9798L114.51 80.2754L113.779 80.5712L113.133 80.869L112.567 81.1702L112.074 81.4761L111.651 81.7882L111.292 82.1077L110.995 82.4358L110.755 82.7736L110.57 83.1223L110.438 83.4831L110.355 83.8569L110.319 84.2448L110.329 84.6479L110.383 85.0673L110.479 85.5038L110.616 85.9586L110.791 86.4327L111.005 86.9269L111.254 87.4424L111.54 87.98L111.859 88.5406L112.21 89.1253L112.594 89.7347L113.007 90.3697L113.45 91.0311L113.92 91.7195L114.416 92.4355L114.936 93.1797L115.479 93.9525L116.043 94.7541L116.626 95.5846L117.225 96.4442L117.839 97.3325L118.464 98.2493L119.099 99.1939L119.74 100.166L120.384 101.163L121.028 102.186L121.669 103.232L122.303 104.299L122.925 105.385L123.533 106.488L124.122 107.605L124.687 108.734L125.225 109.869L125.732 111.009L126.202 112.15L126.632 113.286L127.017 114.414L127.353 115.529L127.637 116.626L127.865 117.701L128.033 118.749L128.138 119.764L128.178 120.742L128.15 121.679L128.053 122.569L127.884 123.408L127.645 124.192L127.333 124.918L126.95 125.581L126.497 126.179L125.974 126.71L125.383 127.172L124.728 127.562L124.011 127.881L123.235 128.127L122.404 128.302L121.522 128.405L120.594 128.439L119.623 128.404L118.615 128.304L117.575 128.14L116.507 127.916L115.417 127.635L114.308 127.301L113.186 126.918L112.056 126.489L110.921 126.02L109.787 125.514L108.656 124.976L107.532 124.41L106.419 123.82L105.32 123.21L104.237 122.586L103.174 121.95L102.131 121.307L101.112 120.66L100.117 120.012L99.1474 119.368L98.205 118.729L97.2904 118.1L96.404 117.482L95.5462 116.879L94.7173 116.292L93.9172 115.724L93.1459 115.177L92.4029 114.652L91.6881 114.152L91.0007 113.677L90.3404 113.231L89.7063 112.813L89.0978 112.425L88.514 112.069L87.9541 111.746L87.4173 111.456L86.9025 111.203L86.4089 110.985L85.9356 110.806L85.4814 110.665L85.0455 110.566L84.6269 110.508L84.2244 110.494L83.8371 110.526L83.464 110.606L83.104 110.735L82.756 110.916L82.4189 111.153L82.0917 111.447L81.7731 111.802L81.4619 112.222L81.157 112.711L80.8569 113.275L80.5604 113.917L80.2658 114.644L79.9717 115.464L79.6762 116.383L79.3775 117.411L79.0734 118.557L78.7617 119.832L78.4396 121.25L78.1042 122.826L77.7522 124.576L77.3796 126.52L76.982 128.68L76.5541 131.083L76.09 133.758L75.5825 136.742L75.0232 140.077L74.402 143.81L73.707 148L72.9996 144.445L72.3675 140.643L71.799 137.249L71.2838 134.212L70.8133 131.49L70.3801 129.045L69.9781 126.849L69.6018 124.872L69.2468 123.093L68.909 121.49L68.585 120.048L68.2718 118.751L67.9667 117.585L67.6673 116.539L67.3714 115.603L67.0772 114.769L66.7828 114.027L66.4867 113.371L66.1873 112.796L65.8832 112.295L65.5731 111.864L65.2558 111.499L64.93 111.196L64.5945 110.95L64.2483 110.76L63.8903 110.623L63.5194 110.536L63.1344 110.496L62.7344 110.503L62.3184 110.554L61.8853 110.647L61.4342 110.781L60.9639 110.954L60.4736 111.165L59.9623 111.414L59.4291 111.697L58.8729 112.015L58.293 112.366L57.6885 112.749L57.0585 113.162L56.4024 113.604L55.7194 114.074L55.0089 114.571L54.2705 115.092L53.5037 115.635L52.7082 116.2L51.8839 116.784L51.0307 117.385L50.1488 118.001L49.2387 118.628L48.3007 119.266L47.3357 119.909L46.3446 120.556L45.3289 121.204L44.2899 121.848L43.2295 122.485L42.1497 123.112L41.0531 123.724L39.9422 124.317L38.82 124.887L37.69 125.43L36.5556 125.942L35.4206 126.417L34.2893 126.852L33.1659 127.243L32.055 127.585L30.9612 127.875L29.8894 128.108L28.8444 128.282L27.8311 128.393L26.8544 128.438L25.9189 128.415L25.0293 128.323L24.19 128.16L23.405 127.925L22.6782 127.618L22.0128 127.239L21.412 126.788L20.8782 126.269L20.4134 125.681L20.0191 125.027L19.6962 124.312L19.4451 123.537L19.2656 122.706L19.1571 121.824L19.1183 120.894L19.1475 119.923L19.2425 118.913L19.4006 117.87L19.6189 116.799L19.8941 115.705L20.2224 114.592L20.6001 113.466L21.023 112.331L21.4871 111.191L21.9879 110.051L22.5212 108.914L23.0827 107.784L23.6681 106.665L24.273 105.56L24.8936 104.47L25.5257 103.4L26.1655 102.351L26.8094 101.325L27.4538 100.323L28.0956 99.3469L28.7315 98.3979L29.3587 97.4766L29.9744 96.5837L30.5762 95.7196L31.1617 94.8844L31.7286 94.0782L32.2751 93.3009L32.7991 92.5522L33.299 91.8317L33.7732 91.1389L34.2202 90.4733L34.6385 89.8341L35.0267 89.2206L35.3837 88.6321L35.7081 88.0677L35.9986 87.5265L36.2542 87.0076L36.4735 86.51L36.6552 86.0328L36.798 85.575L36.9005 85.1356L36.9611 84.7136L36.9783 84.308L36.9502 83.9177L36.875 83.5417L36.7504 83.179L36.5741 82.8284L36.3434 82.4889L36.0554 82.1593L35.7068 81.8385L35.2939 81.5254L34.8126 81.2185L34.2582 80.9167L33.6254 80.6185L32.9083 80.3224L32.1002 80.0269L31.1936 79.7302L30.1798 79.4304L29.049 79.1254L27.7902 78.8129L26.3905 78.4902L24.8355 78.1544L23.1085 77.8022L21.1901 77.4296L19.0582 77.0323L16.6871 76.6051L14.0469 76.1419L11.1027 75.6357L7.81361 75.0782L4.13166 74.4594L0 73.7676L2.86739 73.0518L6.68596 72.4111L10.0946 71.8352L13.1439 71.3137L15.8769 70.8377L18.3302 70.3997L20.5353 69.9934L22.5192 69.6135L24.305 69.2552L25.9128 68.9146L27.3603 68.5881L28.6625 68.2726L29.8328 67.9655L30.8827 67.6642L31.8225 67.3668L32.6611 67.0711L33.4064 66.7754L34.0654 66.478L34.6442 66.1775L35.1483 65.8724L35.5825 65.5614L35.9511 65.2432L36.258 64.9165L36.5066 64.5803L36.7 64.2334L36.8408 63.8746L36.9315 63.503L36.9744 63.1174L36.9714 62.7167L36.9244 62.3001L36.8351 61.8663L36.705 61.4145L36.5355 60.9436L36.328 60.4526L36.0839 59.9406L35.8043 59.4066L35.4906 58.8496L35.1439 58.2689L34.7654 57.6635L34.3566 57.0326L33.9186 56.3755L33.4529 55.6914L32.9611 54.9798L32.4445 54.2401L31.905 53.4719L31.3444 52.6749L30.7646 51.849L30.1678 50.9941L29.5562 50.1103L28.9324 49.198L28.2989 48.2578L27.6587 47.2903L27.0147 46.2966L26.3703 45.278L25.7288 44.2358L25.0938 43.172L24.4692 42.0886L23.8588 40.988L23.2668 39.8728L22.6972 38.7461L22.1545 37.6112L21.6428 36.4716L21.1666 35.3312L20.7301 34.194L20.3375 33.0645L19.9931 31.9471L19.7006 30.8466L19.4638 29.7678L19.2861 28.7155L19.1707 27.6946L19.1203 26.7101L19.1373 25.7667L19.2234 24.8691L19.3802 24.0216L19.6084 23.2284L19.9084 22.4933L20.2801 21.8198L20.7226 21.2108L21.2346 20.6691L21.8143 20.1965L22.4594 19.7946L23.167 19.4644L23.9339 19.2064L24.7563 19.0203L25.6303 18.9057L26.5517 18.8612L27.5158 18.8851L28.518 18.9754L29.5534 19.1293L30.6172 19.344L31.7045 19.616L32.8105 19.9418L33.9304 20.3175L35.0597 20.739L36.1939 21.2021L37.3289 21.7025L38.4608 22.2359L39.5858 22.798L40.7006 23.3844L41.8021 23.9908L42.8875 24.6132L43.9543 25.2475L45.0004 25.8899L46.0237 26.5366L47.0228 27.1842L47.9962 27.8294L48.9429 28.4689L49.862 29.0999L50.7529 29.7196L51.6152 30.3254L52.4488 30.915L53.2534 31.4863L54.0294 32.037L54.7768 32.5654L55.4961 33.0697L56.1878 33.5483L56.8524 33.9996L57.4906 34.4222L58.1031 34.8147L58.6908 35.1759L59.2544 35.5045L59.7949 35.7992L60.3131 36.0589L60.81 36.2821L61.2865 36.4677L61.7436 36.6144L62.1824 36.7206L62.6037 36.785L63.0087 36.8058L63.3983 36.7813L63.7736 36.7095L64.1356 36.5884L64.4855 36.4155L64.8242 36.1881L65.153 35.9035L65.4729 35.5582L65.7851 35.1487L66.091 34.6707L66.3917 34.1196L66.6887 33.4903L66.9835 32.7768L67.2776 31.9724L67.5727 31.0697L67.8708 30.06L68.1739 28.9336L68.4842 27.6794L68.8045 26.2849L69.1375 24.7355L69.4866 23.0147L69.8557 21.1033L70.249 18.9792L70.6716 16.617L71.1295 13.987L71.6296 11.0545L72.18 7.77906L72.7906 4.113L73.473 0L74.1893 2.20742L74.8326 6.0794L75.4104 9.53504L75.9335 12.6259L76.4106 15.3958L76.8492 17.882L77.2559 20.1164L77.6359 22.1265L77.9941 23.9358L78.3344 25.5649L78.6603 27.0315L78.9751 28.351L79.2813 29.537L79.5815 30.6011L79.8778 31.5539L80.1722 32.4042L80.4664 33.1603L80.7621 33.8291L81.0609 34.4168L81.3642 34.9291L81.6732 35.3708L81.9893 35.7463L82.3137 36.0595L82.6475 36.3138L82.9919 36.5124L83.348 36.6579L83.7168 36.753L84.0995 36.7998L84.497 36.8005L84.9104 36.7567L85.3407 36.6703L85.7889 36.5428L86.256 36.3756L86.743 36.1701L87.2509 35.9277L87.7806 35.6496L88.3331 35.3371L88.9092 34.9913L89.5097 34.6136L90.1356 34.2051L90.7875 33.7674L91.4662 33.3017L92.1722 32.8095L92.9062 32.2924L93.6684 31.7521L94.4593 31.1904L95.2791 30.6093L96.1276 30.0109L97.0049 29.3975L97.9107 28.7716L98.8443 28.1358L99.805 27.493L100.792 26.8462L101.804 26.1986L102.839 25.5537L103.896 24.915L104.973 24.2864L106.067 23.6719L107.176 23.0754L108.297 22.5012L109.426 21.9535L110.56 21.4368L111.695 20.9553L112.827 20.5134L113.952 20.1153L115.065 19.7652L116.162 19.467L117.238 19.2245L118.287 19.0411L119.306 18.9201L120.289 18.8642L121.231 18.8757L122.128 18.9567L122.976 19.1085L123.77 19.3321L124.506 19.6278L125.182 19.9955L125.793 20.4345L126.337 20.9435L126.813 21.5206L127.219 22.1636L127.553 22.8697L127.816 23.6356L128.007 24.4576L128.126 25.3319L128.176 26.254L128.158 27.2194L128.073 28.2235L127.925 29.2614L127.716 30.3281L127.45 31.4189L127.129 32.5288L126.759 33.6531L126.343 34.7872L125.886 35.9266L125.39 37.0671L124.862 38.2047L124.305 39.3357L123.723 40.4568L123.121 41.5647L122.502 42.6567L121.872 43.7301L121.233 44.7829L120.589 45.813L119.945 46.8187L119.302 47.7989L118.665 48.7522L118.037 49.678L117.419 50.5754L116.815 51.4441L116.227 52.2839L115.656 53.0947L115.107 53.8766L114.579 54.6299L114.075 55.3549L113.597 56.052L113.145 56.7219L112.722 57.3653L112.329 57.9828L111.967 58.5752L111.638 59.1434L111.341 59.6882L111.08 60.2106L110.855 60.7116L110.667 61.1919L110.518 61.6528L110.409 62.095L110.342 62.5197L110.318 62.9279L110.338 63.3205L110.406 63.6987L110.523 64.0635L110.69 64.416L110.912 64.7572L111.191 65.0882L111.53 65.4103L111.932 65.7246L112.402 66.0324L112.945 66.3349L113.565 66.6336L114.268 66.9299L115.061 67.2254L115.951 67.5218L116.947 67.8209L118.059 68.125L119.296 68.4361L120.673 68.757L122.202 69.0905L123.9 69.4399L125.787 69.8089L127.883 70.202L130.214 70.6241L132.809 71.0811L135.703 71.5798L138.934 72.1286L142.55 72.7368L146.605 73.4162L148 73.6497Z" fill="#EDA391"/>
</svg>
