<svg width="84" height="28" viewBox="0 0 84 28" fill="none" xmlns="http://www.w3.org/2000/svg">
<g clip-path="url(#clip0_481_1458)">
<path d="M35.7466 14.3598C35.7466 18.2463 32.6614 21.1102 28.8752 21.1102C25.0891 21.1102 22.0039 18.2463 22.0039 14.3598C22.0039 10.4459 25.0891 7.60938 28.8752 7.60938C32.6614 7.60938 35.7466 10.4459 35.7466 14.3598ZM32.7386 14.3598C32.7386 11.9311 30.9505 10.2694 28.8752 10.2694C26.7999 10.2694 25.0118 11.9311 25.0118 14.3598C25.0118 16.7642 26.7999 18.4502 28.8752 18.4502C30.9505 18.4502 32.7386 16.7611 32.7386 14.3598Z" fill="#D2D3D5"/>
<path d="M50.5698 14.3598C50.5698 18.2463 47.4846 21.1102 43.6985 21.1102C39.9123 21.1102 36.8271 18.2463 36.8271 14.3598C36.8271 10.4489 39.9123 7.60938 43.6985 7.60938C47.4846 7.60938 50.5698 10.4459 50.5698 14.3598ZM47.5619 14.3598C47.5619 11.9311 45.7738 10.2694 43.6985 10.2694C41.6232 10.2694 39.8351 11.9311 39.8351 14.3598C39.8351 16.7642 41.6232 18.4502 43.6985 18.4502C45.7738 18.4502 47.5619 16.7611 47.5619 14.3598Z" fill="#D2D3D5"/>
<path d="M64.7757 8.0172V20.1363C64.7757 25.1215 61.7925 27.1576 58.2657 27.1576C54.9459 27.1576 52.9478 24.9694 52.1942 23.1798L54.8131 22.1055C55.2794 23.2042 56.422 24.5007 58.2626 24.5007C60.5201 24.5007 61.9191 23.1281 61.9191 20.5442V19.5733H61.8141C61.1409 20.392 59.8438 21.1072 58.207 21.1072C54.7822 21.1072 51.6445 18.1672 51.6445 14.3842C51.6445 10.5737 54.7822 7.60938 58.207 7.60938C59.8407 7.60938 61.1378 8.32459 61.8141 9.11894H61.9191V8.02024H64.7757V8.0172ZM62.1322 14.3842C62.1322 12.0072 60.5232 10.2694 58.4757 10.2694C56.4004 10.2694 54.6617 12.0072 54.6617 14.3842C54.6617 16.7368 56.4004 18.4502 58.4757 18.4502C60.5232 18.4502 62.1322 16.7368 62.1322 14.3842Z" fill="#D2D3D5"/>
<path d="M69.4856 0.912109V20.6947H66.5518V0.912109H69.4856Z" fill="#D2D3D5"/>
<path d="M80.9176 16.5807L83.2523 18.1146C82.4988 19.2133 80.6829 21.1063 77.5453 21.1063C73.6541 21.1063 70.748 18.142 70.748 14.3559C70.748 10.3416 73.6788 7.60547 77.2086 7.60547C80.7632 7.60547 82.5019 10.3933 83.0701 11.8998L83.382 12.6668L74.2254 16.4042C74.9264 17.7585 76.0166 18.4494 77.5453 18.4494C79.077 18.4494 80.1394 17.7068 80.9176 16.5807ZM73.7313 14.152L79.8522 11.6472C79.5156 10.8042 78.5026 10.2168 77.3105 10.2168C75.7819 10.2168 73.6541 11.5468 73.7313 14.152Z" fill="#D2D3D5"/>
<path d="M10.8985 12.6026V9.73866H20.6913C20.7871 10.2378 20.8365 10.8282 20.8365 11.4674C20.8365 13.6161 20.2404 16.273 18.3196 18.1661C16.4512 20.0834 14.064 21.1061 10.9016 21.1061C5.04015 21.1061 0.111328 16.4008 0.111328 10.6243C0.111328 4.8478 5.04015 0.142578 10.9016 0.142578C14.1443 0.142578 16.4543 1.39649 18.1899 3.03084L16.1393 5.05171C14.8947 3.90127 13.2085 3.00649 10.8985 3.00649C6.61824 3.00649 3.27059 6.40606 3.27059 10.6243C3.27059 14.8426 6.61824 18.2421 10.8985 18.2421C13.6749 18.2421 15.256 17.1434 16.269 16.1452C17.0904 15.3356 17.6309 14.1791 17.844 12.5995L10.8985 12.6026Z" fill="#D2D3D5"/>
</g>
<defs>
<clipPath id="clip0_481_1458">
<rect width="84" height="28" fill="white"/>
</clipPath>
</defs>
</svg>
