<svg width="84" height="24" viewBox="0 0 84 24" fill="none" xmlns="http://www.w3.org/2000/svg">
<g clip-path="url(#clip0_481_1447)">
<path d="M9.09675 3.97266V10.7424H2.92846V3.97266H0V20.1327H2.92846V13.5828H9.09675V20.1327H12.0252V3.97266H9.09675Z" fill="#D2D3D5"/>
<path d="M21.3976 14.9099C21.3976 15.5575 21.1424 16.1786 20.688 16.6366C20.2337 17.0946 19.6174 17.3518 18.9749 17.3518C18.3324 17.3518 17.7162 17.0946 17.2618 16.6366C16.8075 16.1786 16.5522 15.5575 16.5522 14.9099V7.98828H13.7744V14.9099C13.7744 16.2988 14.3218 17.6308 15.2961 18.6128C16.2705 19.5949 17.592 20.1466 18.9699 20.1466C20.3478 20.1466 21.6693 19.5949 22.6436 18.6128C23.618 17.6308 24.1654 16.2988 24.1654 14.9099V7.98828H21.3976V14.9099Z" fill="#D2D3D5"/>
<path d="M41.9787 8.70035C41.9787 7.28161 42.9099 6.83183 43.9301 6.83183C44.7522 6.83183 45.8384 7.46238 46.5486 8.22743L48.368 6.06678C47.4597 4.82882 45.6174 3.97266 44.1094 3.97266C41.0963 3.97266 38.9168 5.75151 38.9168 8.70035C38.9168 14.1714 45.5514 12.4359 45.5514 15.4976C45.5514 16.442 44.6417 17.2764 43.6001 17.2764C41.9572 17.2764 41.4249 16.4665 40.6702 15.6104L38.6514 17.7262C39.9427 19.3243 41.5354 20.1356 43.4437 20.1356C46.3061 20.1356 48.609 18.3351 48.609 15.5207C48.609 9.44659 41.9744 11.3339 41.9744 8.70035" fill="#D2D3D5"/>
<path d="M83.0229 17.5522C81.3815 17.5522 80.9152 16.8363 80.9152 15.7401V10.888H83.4663V8.42942H80.9152V5.18555L78.0986 6.45967V16.3431C78.0986 18.8711 79.829 20.1452 82.2022 20.1452C82.5744 20.1521 82.9464 20.122 83.3128 20.0556L84 17.5059C83.6901 17.5276 83.3343 17.5493 83.0229 17.5493" fill="#D2D3D5"/>
<path d="M31.9702 8.06911C30.5942 8.06911 29.6343 8.47116 28.7059 9.3895V4.07031H25.9238V13.9292C25.9238 17.6199 28.5711 20.1479 31.5454 20.1479C34.8455 20.1479 37.7482 17.5751 37.7482 14.11C37.7482 10.6882 35.0765 8.07055 31.9702 8.07055V8.06911ZM31.9529 17.3264C31.3286 17.3264 30.7183 17.1398 30.1992 16.7901C29.6801 16.4405 29.2755 15.9436 29.0366 15.3622C28.7977 14.7809 28.7352 14.1411 28.857 13.524C28.9788 12.9068 29.2794 12.3398 29.7209 11.8949C30.1623 11.4499 30.7248 11.1469 31.3371 11.0241C31.9494 10.9014 32.5841 10.9644 33.1609 11.2052C33.7377 11.446 34.2307 11.8538 34.5776 12.377C34.9244 12.9002 35.1095 13.5154 35.1095 14.1447C35.1095 14.9885 34.777 15.7978 34.185 16.3945C33.593 16.9911 32.7901 17.3264 31.9529 17.3264Z" fill="#D2D3D5"/>
<path d="M62.1788 13.9618C62.1788 10.4909 59.2819 7.92383 55.9761 7.92383C53.0017 7.92383 50.3545 10.4518 50.3545 14.1426V24.0072H53.1366V18.6808C54.0635 19.5977 55.0248 20.0012 56.3994 20.0012C59.5058 20.0012 62.1774 17.385 62.1774 13.9618H62.1788ZM59.5445 13.9271C59.5445 14.5564 59.3594 15.1715 59.0125 15.6947C58.6657 16.2179 58.1727 16.6258 57.5959 16.8666C57.0191 17.1074 56.3844 17.1704 55.7721 17.0476C55.1598 16.9249 54.5973 16.6218 54.1558 16.1769C53.7144 15.7319 53.4138 15.165 53.292 14.5478C53.1702 13.9306 53.2327 13.2909 53.4716 12.7095C53.7105 12.1281 54.1151 11.6312 54.6342 11.2816C55.1533 10.932 55.7636 10.7454 56.3879 10.7454C57.2251 10.7454 58.028 11.0806 58.6199 11.6773C59.2119 12.274 59.5445 13.0832 59.5445 13.9271Z" fill="#D2D3D5"/>
<path d="M71.1666 7.78738V4.97015C71.536 4.79618 71.8488 4.52005 72.0685 4.1739C72.2882 3.82774 72.4059 3.4258 72.4077 3.01486V2.94978C72.4077 2.37444 72.181 1.82266 71.7774 1.41583C71.3738 1.009 70.8263 0.780451 70.2555 0.780451H70.191C69.6202 0.780451 69.0727 1.009 68.6691 1.41583C68.2655 1.82266 68.0387 2.37444 68.0387 2.94978V3.01486C68.0406 3.4258 68.1583 3.82774 68.378 4.1739C68.5977 4.52005 68.9105 4.79618 69.2798 4.97015V7.78738C68.2182 7.95108 67.2184 8.39462 66.3815 9.07307L58.7167 3.05535C58.771 2.85691 58.7999 2.65231 58.8028 2.44649C58.8037 1.96303 58.6622 1.49018 58.3964 1.08774C58.1306 0.685302 57.7524 0.371358 57.3096 0.18562C56.8667 -0.00011926 56.3792 -0.0493087 55.9086 0.0442731C55.438 0.137855 55.0056 0.370004 54.6659 0.711356C54.3262 1.05271 54.0946 1.48793 54.0004 1.96197C53.9061 2.436 53.9535 2.92756 54.1365 3.37447C54.3194 3.82137 54.6298 4.20355 55.0283 4.47265C55.4267 4.74175 55.8954 4.88569 56.3751 4.88627C56.7945 4.88438 57.2061 4.77168 57.5689 4.55942L65.1174 10.4788C64.4392 11.5114 64.0853 12.7259 64.1019 13.9642C64.1186 15.2025 64.5049 16.407 65.2107 17.4206L62.915 19.7346C62.7293 19.6748 62.5359 19.6432 62.3411 19.6406C61.9473 19.6409 61.5625 19.7588 61.2352 19.9795C60.9079 20.2002 60.6529 20.5137 60.5023 20.8804C60.3517 21.2472 60.3124 21.6507 60.3893 22.0399C60.4662 22.4292 60.6558 22.7867 60.9343 23.0674C61.2127 23.348 61.5674 23.5391 61.9536 23.6166C62.3398 23.6941 62.7401 23.6545 63.104 23.5028C63.4678 23.351 63.7789 23.094 63.9978 22.7641C64.2167 22.4342 64.3337 22.0463 64.334 21.6494C64.3316 21.453 64.3001 21.258 64.2408 21.0709L66.5121 18.7815C67.2527 19.356 68.114 19.752 69.0298 19.9392C69.9457 20.1264 70.892 20.0998 71.7961 19.8614C72.7002 19.6231 73.5383 19.1794 74.246 18.5642C74.9537 17.9491 75.5124 17.1788 75.8792 16.3124C76.246 15.446 76.4112 14.5066 76.3621 13.5659C76.3131 12.6252 76.0511 11.7084 75.5962 10.8855C75.1414 10.0627 74.5057 9.35565 73.7379 8.81864C72.9701 8.28164 72.0906 7.92887 71.1666 7.78738ZM70.2254 17.0519C69.6041 17.0513 68.9969 16.8651 68.4806 16.5168C67.9642 16.1685 67.5619 15.6737 67.3245 15.095C67.0871 14.5163 67.0252 13.8797 67.1466 13.2655C67.2681 12.6514 67.5674 12.0873 68.0069 11.6446C68.4463 11.2019 69.006 10.9004 69.6154 10.7782C70.2248 10.6561 70.8564 10.7188 71.4304 10.9584C72.0044 11.198 72.4951 11.6037 72.8404 12.1243C73.1858 12.6449 73.3702 13.257 73.3705 13.8832C73.3705 14.7232 73.0395 15.5288 72.4502 16.1228C71.8609 16.7167 71.0616 17.0504 70.2283 17.0504" fill="#D2D3D5"/>
</g>
<defs>
<clipPath id="clip0_481_1447">
<rect width="84" height="24" fill="white"/>
</clipPath>
</defs>
</svg>
