<svg width="16" height="16" viewBox="0 0 16 16" fill="none" xmlns="http://www.w3.org/2000/svg">
<mask id="path-1-inside-1_1057_132" fill="white">
<path d="M4.93718 0.708984H11.0622C13.3955 0.708984 15.2913 2.60482 15.2913 4.93815V11.0632C15.2913 12.1848 14.8458 13.2605 14.0526 14.0536C13.2595 14.8467 12.1838 15.2923 11.0622 15.2923H4.93718C2.60384 15.2923 0.708008 13.3965 0.708008 11.0632V4.93815C0.708008 3.81651 1.15358 2.7408 1.9467 1.94768C2.73983 1.15456 3.81553 0.708984 4.93718 0.708984ZM4.79134 2.16732C4.09515 2.16732 3.42747 2.44388 2.93519 2.93616C2.4429 3.42845 2.16634 4.09612 2.16634 4.79232V11.209C2.16634 12.66 3.3403 13.834 4.79134 13.834H11.208C11.9042 13.834 12.5719 13.5574 13.0642 13.0651C13.5564 12.5729 13.833 11.9052 13.833 11.209V4.79232C13.833 3.34128 12.6591 2.16732 11.208 2.16732H4.79134ZM11.8278 3.26107C12.0695 3.26107 12.3014 3.3571 12.4723 3.52803C12.6432 3.69896 12.7393 3.93079 12.7393 4.17253C12.7393 4.41426 12.6432 4.64609 12.4723 4.81702C12.3014 4.98796 12.0695 5.08398 11.8278 5.08398C11.5861 5.08398 11.3542 4.98796 11.1833 4.81702C11.0124 4.64609 10.9163 4.41426 10.9163 4.17253C10.9163 3.93079 11.0124 3.69896 11.1833 3.52803C11.3542 3.3571 11.5861 3.26107 11.8278 3.26107ZM7.99968 4.35482C8.96661 4.35482 9.89394 4.73893 10.5777 5.42266C11.2614 6.10638 11.6455 7.03372 11.6455 8.00065C11.6455 8.96759 11.2614 9.89492 10.5777 10.5786C9.89394 11.2624 8.96661 11.6465 7.99968 11.6465C7.03274 11.6465 6.10541 11.2624 5.42168 10.5786C4.73796 9.89492 4.35384 8.96759 4.35384 8.00065C4.35384 7.03372 4.73796 6.10638 5.42168 5.42266C6.10541 4.73893 7.03274 4.35482 7.99968 4.35482ZM7.99968 5.81315C7.41951 5.81315 6.86311 6.04362 6.45288 6.45386C6.04264 6.86409 5.81217 7.42049 5.81217 8.00065C5.81217 8.58081 6.04264 9.13721 6.45288 9.54745C6.86311 9.95768 7.41951 10.1882 7.99968 10.1882C8.57984 10.1882 9.13624 9.95768 9.54647 9.54745C9.95671 9.13721 10.1872 8.58081 10.1872 8.00065C10.1872 7.42049 9.95671 6.86409 9.54647 6.45386C9.13624 6.04362 8.57984 5.81315 7.99968 5.81315Z"/>
</mask>
<path d="M4.93718 0.708984H11.0622C13.3955 0.708984 15.2913 2.60482 15.2913 4.93815V11.0632C15.2913 12.1848 14.8458 13.2605 14.0526 14.0536C13.2595 14.8467 12.1838 15.2923 11.0622 15.2923H4.93718C2.60384 15.2923 0.708008 13.3965 0.708008 11.0632V4.93815C0.708008 3.81651 1.15358 2.7408 1.9467 1.94768C2.73983 1.15456 3.81553 0.708984 4.93718 0.708984ZM4.79134 2.16732C4.09515 2.16732 3.42747 2.44388 2.93519 2.93616C2.4429 3.42845 2.16634 4.09612 2.16634 4.79232V11.209C2.16634 12.66 3.3403 13.834 4.79134 13.834H11.208C11.9042 13.834 12.5719 13.5574 13.0642 13.0651C13.5564 12.5729 13.833 11.9052 13.833 11.209V4.79232C13.833 3.34128 12.6591 2.16732 11.208 2.16732H4.79134ZM11.8278 3.26107C12.0695 3.26107 12.3014 3.3571 12.4723 3.52803C12.6432 3.69896 12.7393 3.93079 12.7393 4.17253C12.7393 4.41426 12.6432 4.64609 12.4723 4.81702C12.3014 4.98796 12.0695 5.08398 11.8278 5.08398C11.5861 5.08398 11.3542 4.98796 11.1833 4.81702C11.0124 4.64609 10.9163 4.41426 10.9163 4.17253C10.9163 3.93079 11.0124 3.69896 11.1833 3.52803C11.3542 3.3571 11.5861 3.26107 11.8278 3.26107ZM7.99968 4.35482C8.96661 4.35482 9.89394 4.73893 10.5777 5.42266C11.2614 6.10638 11.6455 7.03372 11.6455 8.00065C11.6455 8.96759 11.2614 9.89492 10.5777 10.5786C9.89394 11.2624 8.96661 11.6465 7.99968 11.6465C7.03274 11.6465 6.10541 11.2624 5.42168 10.5786C4.73796 9.89492 4.35384 8.96759 4.35384 8.00065C4.35384 7.03372 4.73796 6.10638 5.42168 5.42266C6.10541 4.73893 7.03274 4.35482 7.99968 4.35482ZM7.99968 5.81315C7.41951 5.81315 6.86311 6.04362 6.45288 6.45386C6.04264 6.86409 5.81217 7.42049 5.81217 8.00065C5.81217 8.58081 6.04264 9.13721 6.45288 9.54745C6.86311 9.95768 7.41951 10.1882 7.99968 10.1882C8.57984 10.1882 9.13624 9.95768 9.54647 9.54745C9.95671 9.13721 10.1872 8.58081 10.1872 8.00065C10.1872 7.42049 9.95671 6.86409 9.54647 6.45386C9.13624 6.04362 8.57984 5.81315 7.99968 5.81315Z" fill="#0B0C0F"/>
<path d="M15.2913 11.0632H21.333H15.2913ZM0.708008 4.93815H-5.33366H0.708008ZM4.79134 2.16732V-3.87435V2.16732ZM2.16634 4.79232H-3.87533H2.16634ZM11.6455 8.00065H5.60384H11.6455ZM7.99968 11.6465V5.60482V11.6465ZM4.93718 6.75065H11.0622V-5.33268H4.93718V6.75065ZM11.0622 6.75065C10.0588 6.75065 9.24968 5.94154 9.24968 4.93815H21.333C21.333 -0.731901 16.7322 -5.33268 11.0622 -5.33268V6.75065ZM9.24968 4.93815V11.0632H21.333V4.93815H9.24968ZM9.24968 11.0632C9.24968 10.5824 9.44063 10.1214 9.78055 9.78152L18.3248 18.3257C20.2509 16.3996 21.333 13.7871 21.333 11.0632H9.24968ZM9.78055 9.78152C10.1205 9.44161 10.5815 9.25065 11.0622 9.25065V21.334C13.7862 21.334 16.3986 20.2519 18.3248 18.3257L9.78055 9.78152ZM11.0622 9.25065H4.93718V21.334H11.0622V9.25065ZM4.93718 9.25065C5.94056 9.25065 6.74967 10.0598 6.74967 11.0632H-5.33366C-5.33366 16.7332 -0.732878 21.334 4.93718 21.334V9.25065ZM6.74967 11.0632V4.93815H-5.33366V11.0632H6.74967ZM6.74967 4.93815C6.74967 5.41886 6.55872 5.87987 6.21881 6.21978L-2.3254 -2.32442C-4.25156 -0.39827 -5.33366 2.21416 -5.33366 4.93815H6.74967ZM6.21881 6.21978C5.8789 6.55969 5.41788 6.75065 4.93718 6.75065V-5.33268C2.21318 -5.33268 -0.399247 -4.25058 -2.3254 -2.32442L6.21881 6.21978ZM4.79134 -3.87435C2.4928 -3.87435 0.288397 -2.96126 -1.33692 -1.33594L7.20729 7.20827C6.56654 7.84902 5.6975 8.20898 4.79134 8.20898V-3.87435ZM-1.33692 -1.33594C-2.96223 0.289374 -3.87533 2.49377 -3.87533 4.79232H8.20801C8.20801 5.69848 7.84804 6.56752 7.20729 7.20827L-1.33692 -1.33594ZM-3.87533 4.79232V11.209H8.20801V4.79232H-3.87533ZM-3.87533 11.209C-3.87533 15.9967 0.00357813 19.8757 4.79134 19.8757V7.79232C6.67702 7.79232 8.20801 9.32331 8.20801 11.209H-3.87533ZM4.79134 19.8757H11.208V7.79232H4.79134V19.8757ZM11.208 19.8757C13.5065 19.8757 15.7109 18.9626 17.3363 17.3372L8.79206 8.79304C9.43281 8.15228 10.3019 7.79232 11.208 7.79232V19.8757ZM17.3363 17.3372C18.9616 15.7119 19.8747 13.5075 19.8747 11.209H7.79134C7.79134 10.3028 8.15131 9.43379 8.79206 8.79304L17.3363 17.3372ZM19.8747 11.209V4.79232H7.79134V11.209H19.8747ZM19.8747 4.79232C19.8747 0.00455469 15.9958 -3.87435 11.208 -3.87435V8.20898C9.32233 8.20898 7.79134 6.678 7.79134 4.79232H19.8747ZM11.208 -3.87435H4.79134V8.20898H11.208V-3.87435ZM11.8278 9.30274C10.4672 9.30274 9.1623 8.76224 8.2002 7.80013L16.7444 -0.744076C15.4404 -2.04804 13.6719 -2.7806 11.8278 -2.7806V9.30274ZM8.2002 7.80013C7.23809 6.83802 6.69759 5.53313 6.69759 4.17253H18.7809C18.7809 2.32845 18.0484 0.559897 16.7444 -0.744076L8.2002 7.80013ZM6.69759 4.17253C6.69759 2.81192 7.23809 1.50703 8.2002 0.544921L16.7444 9.08913C18.0484 7.78516 18.7809 6.0166 18.7809 4.17253H6.69759ZM8.2002 0.544921C9.1623 -0.417183 10.4672 -0.957682 11.8278 -0.957682V11.1257C13.6719 11.1257 15.4404 10.3931 16.7444 9.08913L8.2002 0.544921ZM11.8278 -0.957682C13.1884 -0.957682 14.4933 -0.417183 15.4554 0.544921L6.9112 9.08913C8.21517 10.3931 9.98372 11.1257 11.8278 11.1257V-0.957682ZM15.4554 0.544921C16.4175 1.50703 16.958 2.81192 16.958 4.17253H4.87468C4.87468 6.0166 5.60723 7.78516 6.9112 9.08913L15.4554 0.544921ZM16.958 4.17253C16.958 5.53313 16.4175 6.83802 15.4554 7.80013L6.9112 -0.744076C5.60723 0.559897 4.87468 2.32845 4.87468 4.17253H16.958ZM15.4554 7.80013C14.4933 8.76224 13.1884 9.30274 11.8278 9.30274V-2.7806C9.98372 -2.7806 8.21517 -2.04804 6.9112 -0.744076L15.4554 7.80013ZM7.99968 10.3965C7.36426 10.3965 6.75487 10.1441 6.30557 9.69476L14.8498 1.15055C13.033 -0.666204 10.569 -1.68685 7.99968 -1.68685V10.3965ZM6.30557 9.69476C5.85626 9.24546 5.60384 8.63607 5.60384 8.00065H17.6872C17.6872 5.43137 16.6665 2.96731 14.8498 1.15055L6.30557 9.69476ZM5.60384 8.00065C5.60384 7.36524 5.85626 6.75585 6.30557 6.30654L14.8498 14.8507C16.6665 13.034 17.6872 10.5699 17.6872 8.00065H5.60384ZM6.30557 6.30654C6.75487 5.85724 7.36426 5.60482 7.99968 5.60482V17.6882C10.569 17.6882 13.033 16.6675 14.8498 14.8507L6.30557 6.30654ZM7.99968 5.60482C8.63509 5.60482 9.24448 5.85724 9.69379 6.30654L1.14958 14.8507C2.96634 16.6675 5.43039 17.6882 7.99968 17.6882V5.60482ZM9.69379 6.30654C10.1431 6.75585 10.3955 7.36524 10.3955 8.00065H-1.68783C-1.68783 10.5699 -0.667181 13.034 1.14958 14.8507L9.69379 6.30654ZM10.3955 8.00065C10.3955 8.63607 10.1431 9.24546 9.69379 9.69476L1.14958 1.15055C-0.667181 2.96731 -1.68783 5.43137 -1.68783 8.00065H10.3955ZM9.69379 9.69476C9.24448 10.1441 8.63509 10.3965 7.99968 10.3965V-1.68685C5.43039 -1.68685 2.96634 -0.666204 1.14958 1.15055L9.69379 9.69476ZM7.99968 -0.228515C5.81717 -0.228515 3.72405 0.638481 2.18078 2.18175L10.725 10.726C10.0022 11.4488 9.02186 11.8548 7.99968 11.8548V-0.228515ZM2.18078 2.18175C0.637505 3.72502 -0.229492 5.81814 -0.229492 8.00065H11.8538C11.8538 9.02284 11.4478 10.0032 10.725 10.726L2.18078 2.18175ZM-0.229492 8.00065C-0.229492 10.1832 0.637505 12.2763 2.18078 13.8196L10.725 5.27534C11.4478 5.99814 11.8538 6.97847 11.8538 8.00065H-0.229492ZM2.18078 13.8196C3.72405 15.3628 5.81717 16.2298 7.99968 16.2298V4.14649C9.02186 4.14649 10.0022 4.55255 10.725 5.27534L2.18078 13.8196ZM7.99968 16.2298C10.1822 16.2298 12.2753 15.3628 13.8186 13.8196L5.27437 5.27534C5.99717 4.55255 6.97749 4.14649 7.99968 4.14649V16.2298ZM13.8186 13.8196C15.3618 12.2763 16.2288 10.1832 16.2288 8.00065H4.14551C4.14551 6.97847 4.55157 5.99814 5.27437 5.27534L13.8186 13.8196ZM16.2288 8.00065C16.2288 5.81814 15.3618 3.72502 13.8186 2.18175L5.27437 10.726C4.55157 10.0032 4.14551 9.02284 4.14551 8.00065H16.2288ZM13.8186 2.18175C12.2753 0.638481 10.1822 -0.228515 7.99968 -0.228515V11.8548C6.97749 11.8548 5.99717 11.4488 5.27437 10.726L13.8186 2.18175Z" fill="#0B0C0F" mask="url(#path-1-inside-1_1057_132)"/>
</svg>
