<svg width="15" height="14" viewBox="0 0 15 14" fill="none" xmlns="http://www.w3.org/2000/svg">
<path d="M3.48438 5.42188V13.2344C3.48438 13.338 3.44322 13.4373 3.36996 13.5106C3.29671 13.5838 3.19735 13.625 3.09375 13.625H1.14063C1.03703 13.625 0.937669 13.5838 0.864412 13.5106C0.791156 13.4373 0.750001 13.338 0.750001 13.2344V5.42188C0.750001 5.31828 0.791156 5.21892 0.864412 5.14566C0.937669 5.07241 1.03703 5.03125 1.14063 5.03125H3.09375C3.19735 5.03125 3.29671 5.07241 3.36996 5.14566C3.44322 5.21892 3.48438 5.31828 3.48438 5.42188ZM14.0312 8.47656C14.0443 7.65555 13.7765 6.85472 13.272 6.20679C12.7676 5.55887 12.057 5.10276 11.2578 4.91406C10.7141 4.79698 10.1502 4.81177 9.61331 4.9572C9.07644 5.10263 8.58219 5.37447 8.17188 5.75V5.42188C8.17188 5.31828 8.13072 5.21892 8.05746 5.14566C7.98421 5.07241 7.88485 5.03125 7.78125 5.03125H5.82813C5.72453 5.03125 5.62517 5.07241 5.55191 5.14566C5.47866 5.21892 5.4375 5.31828 5.4375 5.42188V13.2344C5.4375 13.338 5.47866 13.4373 5.55191 13.5106C5.62517 13.5838 5.72453 13.625 5.82813 13.625H7.78125C7.88485 13.625 7.98421 13.5838 8.05746 13.5106C8.13072 13.4373 8.17188 13.338 8.17188 13.2344V8.82813C8.16253 8.44802 8.28741 8.07678 8.52458 7.77961C8.76175 7.48243 9.09604 7.27832 9.46875 7.20313C9.69501 7.16407 9.9271 7.17536 10.1485 7.23619C10.3699 7.29702 10.5752 7.4059 10.7497 7.55508C10.9243 7.70426 11.0638 7.89008 11.1584 8.09931C11.2529 8.30854 11.3002 8.53604 11.2969 8.76563V13.2344C11.2969 13.338 11.338 13.4373 11.4113 13.5106C11.4845 13.5838 11.5839 13.625 11.6875 13.625H13.6406C13.7442 13.625 13.8436 13.5838 13.9168 13.5106C13.9901 13.4373 14.0312 13.338 14.0312 13.2344V8.47656ZM1.92188 0.34375C1.61284 0.34375 1.31075 0.435389 1.0538 0.607079C0.796846 0.778768 0.596576 1.0228 0.478314 1.30831C0.360052 1.59382 0.329109 1.90798 0.389399 2.21108C0.449688 2.51417 0.598502 2.79259 0.817021 3.0111C1.03554 3.22962 1.31395 3.37844 1.61705 3.43873C1.92014 3.49902 2.23431 3.46807 2.51982 3.34981C2.80533 3.23155 3.04936 3.03128 3.22105 2.77433C3.39274 2.51738 3.48438 2.21528 3.48438 1.90625C3.48438 1.49185 3.31976 1.09442 3.02673 0.801396C2.7337 0.50837 2.33628 0.34375 1.92188 0.34375Z" fill="#0B0C0F"/>
</svg>
