<svg width="10" height="13" viewBox="0 0 10 13" fill="none" xmlns="http://www.w3.org/2000/svg">
<path d="M2.03583 12.9985H8.29334C9.14126 12.9985 9.55536 12.5778 9.55536 11.6576V6.83297C9.55536 6.00477 9.21357 5.57752 8.51025 5.50522V3.84882C8.51025 1.37079 6.88672 0.174504 5.16459 0.174504C3.44246 0.174504 1.81892 1.37079 1.81892 3.84882V5.53809C1.17477 5.63668 0.773813 6.05735 0.773813 6.83297V11.6576C0.773813 12.5778 1.18791 12.9985 2.03583 12.9985ZM2.87718 3.71079C2.87718 2.06096 3.93543 1.18675 5.16459 1.18675C6.39374 1.18675 7.452 2.06096 7.452 3.71079V5.49865L2.87718 5.50522V3.71079Z" fill="white"/>
</svg>
