<svg width="15" height="18" viewBox="0 0 15 18" fill="none" xmlns="http://www.w3.org/2000/svg">
<path d="M6.97818 8.78489C7.18945 8.78489 7.35002 8.71729 7.47679 8.59052L10.7642 5.27772C10.9164 5.1256 10.984 4.95658 10.984 4.76221C10.984 4.57628 10.9079 4.39036 10.7642 4.24669L7.47679 0.908541C7.35002 0.773325 7.18945 0.697266 6.97818 0.697266C6.59788 0.697266 6.3021 1.00995 6.3021 1.40715C6.3021 1.58462 6.3697 1.75364 6.48802 1.89731L8.55007 3.90865C8.11907 3.83259 7.67961 3.79879 7.24861 3.79879C3.31043 3.79879 0.158203 6.94257 0.158203 10.8807C0.158203 14.8189 3.31889 17.9881 7.25706 17.9881C11.1868 17.9881 14.3475 14.8189 14.3475 10.8807C14.3475 10.4666 14.0517 10.1624 13.6291 10.1624C13.2235 10.1624 12.953 10.4666 12.953 10.8807C12.953 14.0499 10.4177 16.5936 7.25706 16.5936C4.08793 16.5936 1.55262 14.0499 1.55262 10.8807C1.55262 7.70316 4.07948 5.17631 7.24861 5.17631C7.83173 5.17631 8.35569 5.21856 8.8205 5.31152L6.49647 7.61865C6.3697 7.75387 6.3021 7.91444 6.3021 8.09191C6.3021 8.48911 6.59788 8.78489 6.97818 8.78489Z" fill="white"/>
</svg>
