<svg width="22" height="22" viewBox="0 0 22 22" fill="none" xmlns="http://www.w3.org/2000/svg">
<path d="M14.841 1.83398H7.15933C3.82266 1.83398 1.8335 3.82315 1.8335 7.15982V14.8323C1.8335 18.1782 3.82266 20.1673 7.15933 20.1673H14.8318C18.1685 20.1673 20.1577 18.1782 20.1577 14.8415V7.15982C20.1668 3.82315 18.1777 1.83398 14.841 1.83398ZM6.99433 16.6382C6.99433 17.014 6.68266 17.3257 6.30683 17.3257C5.931 17.3257 5.61933 17.014 5.61933 16.6382V14.7407C5.61933 14.3648 5.931 14.0532 6.30683 14.0532C6.68266 14.0532 6.99433 14.3648 6.99433 14.7407V16.6382ZM11.6877 16.6382C11.6877 17.014 11.376 17.3257 11.0002 17.3257C10.6243 17.3257 10.3127 17.014 10.3127 16.6382V12.834C10.3127 12.4582 10.6243 12.1465 11.0002 12.1465C11.376 12.1465 11.6877 12.4582 11.6877 12.834V16.6382ZM16.381 16.6382C16.381 17.014 16.0693 17.3257 15.6935 17.3257C15.3177 17.3257 15.006 17.014 15.006 16.6382V10.9365C15.006 10.5607 15.3177 10.249 15.6935 10.249C16.0693 10.249 16.381 10.5607 16.381 10.9365V16.6382ZM16.381 8.03982C16.381 8.41565 16.0693 8.72732 15.6935 8.72732C15.3177 8.72732 15.006 8.41565 15.006 8.03982V7.15065C12.6685 9.55232 9.74433 11.2482 6.47183 12.064C6.41683 12.0823 6.36183 12.0823 6.30683 12.0823C5.99516 12.0823 5.72016 11.8715 5.63766 11.5598C5.546 11.1932 5.766 10.8173 6.14183 10.7257C9.231 9.95565 11.981 8.33315 14.1627 6.04148H13.0168C12.641 6.04148 12.3293 5.72982 12.3293 5.35398C12.3293 4.97815 12.641 4.66648 13.0168 4.66648H15.7027C15.7393 4.66648 15.7668 4.68482 15.8035 4.68482C15.8493 4.69398 15.8952 4.69398 15.941 4.71232C15.9868 4.73065 16.0235 4.75815 16.0693 4.78565C16.0968 4.80398 16.1243 4.81315 16.1518 4.83148C16.161 4.84065 16.161 4.84982 16.1702 4.84982C16.2068 4.88648 16.2343 4.92315 16.2618 4.95982C16.2893 4.99648 16.3168 5.02398 16.326 5.06065C16.3443 5.09732 16.3443 5.13398 16.3535 5.17982C16.3627 5.22565 16.381 5.27148 16.381 5.32648C16.381 5.33565 16.3902 5.34482 16.3902 5.35398V8.03982H16.381Z" fill="white"/>
</svg>
