<svg width="20" height="20" viewBox="0 0 20 20" fill="none" xmlns="http://www.w3.org/2000/svg">
<path d="M13.841 0.833984H6.15933C2.82266 0.833984 0.833496 2.82315 0.833496 6.15982V13.8323C0.833496 17.1782 2.82266 19.1673 6.15933 19.1673H13.8318C17.1685 19.1673 19.1577 17.1782 19.1577 13.8415V6.15982C19.1668 2.82315 17.1777 0.833984 13.841 0.833984ZM14.5835 14.8132H5.41683C5.041 14.8132 4.72933 14.5015 4.72933 14.1257C4.72933 13.7498 5.041 13.4382 5.41683 13.4382H14.5835C14.9593 13.4382 15.271 13.7498 15.271 14.1257C15.271 14.5015 14.9593 14.8132 14.5835 14.8132ZM14.5835 10.6882H5.41683C5.041 10.6882 4.72933 10.3765 4.72933 10.0007C4.72933 9.62482 5.041 9.31315 5.41683 9.31315H14.5835C14.9593 9.31315 15.271 9.62482 15.271 10.0007C15.271 10.3765 14.9593 10.6882 14.5835 10.6882ZM14.5835 6.56315H5.41683C5.041 6.56315 4.72933 6.25148 4.72933 5.87565C4.72933 5.49982 5.041 5.18815 5.41683 5.18815H14.5835C14.9593 5.18815 15.271 5.49982 15.271 5.87565C15.271 6.25148 14.9593 6.56315 14.5835 6.56315Z" fill="white"/>
</svg>
