<svg width="21" height="22" viewBox="0 0 21 22" fill="none" xmlns="http://www.w3.org/2000/svg">
<path d="M19.5599 9.74055L18.1999 8.16055C17.9399 7.86055 17.7299 7.30055 17.7299 6.90055V5.20055C17.7299 4.14055 16.8599 3.27055 15.7999 3.27055H14.0999C13.7099 3.27055 13.1399 3.06055 12.8399 2.80055L11.2599 1.44055C10.5699 0.850547 9.43988 0.850547 8.73988 1.44055L7.16988 2.81055C6.86988 3.06055 6.29988 3.27055 5.90988 3.27055H4.17988C3.11988 3.27055 2.24988 4.14055 2.24988 5.20055V6.91055C2.24988 7.30055 2.03988 7.86055 1.78988 8.16055L0.439883 9.75055C-0.140117 10.4405 -0.140117 11.5605 0.439883 12.2505L1.78988 13.8405C2.03988 14.1405 2.24988 14.7005 2.24988 15.0905V16.8005C2.24988 17.8605 3.11988 18.7305 4.17988 18.7305H5.90988C6.29988 18.7305 6.86988 18.9405 7.16988 19.2005L8.74988 20.5605C9.43988 21.1505 10.5699 21.1505 11.2699 20.5605L12.8499 19.2005C13.1499 18.9405 13.7099 18.7305 14.1099 18.7305H15.8099C16.8699 18.7305 17.7399 17.8605 17.7399 16.8005V15.1005C17.7399 14.7105 17.9499 14.1405 18.2099 13.8405L19.5699 12.2605C20.1499 11.5705 20.1499 10.4305 19.5599 9.74055ZM14.6799 11.0005L13.5099 14.5605C13.3599 15.1505 12.7299 15.6305 12.0899 15.6305H10.2399C9.91988 15.6305 9.46988 15.5205 9.26988 15.3205L7.79988 14.1705C7.76988 14.8105 7.47988 15.0805 6.76988 15.0805H6.28988C5.54988 15.0805 5.24988 14.7905 5.24988 14.0905V9.31055C5.24988 8.61055 5.54988 8.32055 6.28988 8.32055H6.77988C7.51988 8.32055 7.81988 8.61055 7.81988 9.31055V9.67055L9.75988 6.79055C9.95988 6.48055 10.4699 6.26055 10.8999 6.43055C11.3699 6.59055 11.6699 7.11055 11.5699 7.57055L11.3299 9.13055C11.3099 9.27055 11.3399 9.40055 11.4299 9.50055C11.5099 9.59055 11.6299 9.65055 11.7599 9.65055H13.7099C14.0899 9.65055 14.4099 9.80055 14.5999 10.0705C14.7699 10.3305 14.7999 10.6605 14.6799 11.0005Z" fill="white"/>
</svg>
