<svg width="16" height="13" viewBox="0 0 16 13" fill="none" xmlns="http://www.w3.org/2000/svg">
<path fill-rule="evenodd" clip-rule="evenodd" d="M15.2919 1.95255C14.9151 2.45498 14.4596 2.89327 13.943 3.25046C13.943 3.38171 13.943 3.51296 13.943 3.65151C13.945 4.83145 13.7123 6.00002 13.2584 7.08916C12.8044 8.17831 12.1384 9.16626 11.299 9.99551C10.4595 10.8248 9.46352 11.4787 8.36893 11.9193C7.27432 12.3599 6.10301 12.5784 4.92317 12.5619C3.54536 12.5665 2.18519 12.2521 0.949213 11.6432C0.916606 11.6289 0.888875 11.6055 0.86944 11.5757C0.850004 11.5459 0.839715 11.511 0.839839 11.4755V11.3953C0.839839 11.345 0.859812 11.2968 0.895366 11.2612C0.93092 11.2256 0.979141 11.2057 1.02942 11.2057C2.38378 11.1611 3.68982 10.6917 4.76275 9.86401C4.16207 9.85192 3.57705 9.67025 3.07517 9.33997C2.57329 9.00968 2.17502 8.54424 1.9263 7.99734C1.91369 7.96736 1.909 7.93465 1.91269 7.90234C1.91638 7.87003 1.92832 7.83921 1.94736 7.81284C1.9664 7.78648 1.9919 7.76546 2.02142 7.7518C2.05093 7.73814 2.08346 7.7323 2.11588 7.73484C2.48845 7.77227 2.86475 7.73761 3.22421 7.63276C2.56466 7.49591 1.96563 7.15311 1.5135 6.6538C1.06137 6.1545 0.779513 5.52448 0.708589 4.85463C0.706045 4.82221 0.711885 4.78968 0.725545 4.76017C0.739206 4.73066 0.760228 4.70515 0.786592 4.68611C0.812956 4.66707 0.843774 4.65513 0.876084 4.65145C0.908395 4.64776 0.941111 4.65244 0.971088 4.66505C1.33425 4.82522 1.72628 4.90958 2.12317 4.91296C1.54656 4.53469 1.11149 3.97608 0.885906 3.3244C0.660325 2.67272 0.656946 1.96468 0.876297 1.31088C0.899186 1.24666 0.938359 1.18948 0.989981 1.14494C1.0416 1.1004 1.10391 1.07003 1.17079 1.0568C1.23768 1.04357 1.30685 1.04794 1.37154 1.06947C1.43623 1.091 1.49422 1.12896 1.53984 1.17963C3.13998 2.88185 5.3386 3.8962 7.67213 4.0088C7.61236 3.7704 7.58296 3.5254 7.58463 3.27963C7.5953 2.64952 7.793 2.03679 8.15263 1.51928C8.51225 1.00176 9.01757 0.602797 9.60441 0.373063C10.1912 0.143329 10.8331 0.0931889 11.4485 0.22901C12.0639 0.364831 12.625 0.680484 13.0607 1.13588C13.668 1.02024 14.2551 0.816344 14.8034 0.530673C14.8231 0.518389 14.8458 0.511877 14.869 0.511877C14.8922 0.511877 14.9149 0.518389 14.9346 0.530673C14.9469 0.550358 14.9534 0.573095 14.9534 0.596298C14.9534 0.619501 14.9469 0.642238 14.9346 0.661923C14.6691 1.26976 14.2204 1.77957 13.6513 2.12026C14.1497 2.06249 14.6393 1.94498 15.1096 1.77026C15.129 1.75709 15.1518 1.75005 15.1753 1.75005C15.1987 1.75005 15.2215 1.75709 15.2409 1.77026C15.2573 1.77775 15.2718 1.78873 15.2835 1.80243C15.2952 1.81612 15.3038 1.83221 15.3087 1.84956C15.3135 1.86691 15.3146 1.88512 15.3117 1.9029C15.3088 1.92069 15.302 1.93763 15.2919 1.95255Z" fill="#0B0C0F"/>
</svg>
