<svg width="148" height="148" viewBox="0 0 148 148" fill="none" xmlns="http://www.w3.org/2000/svg">
<path fill-rule="evenodd" clip-rule="evenodd" d="M139.185 74.007L134.202 74.5942L130.602 75.1107L128.079 75.5882L126.419 76.0503L125.473 76.5152L125.133 76.9978L125.319 77.5107L125.969 78.0646L127.031 78.6688L128.454 79.3307L130.187 80.0557L132.172 80.8466L134.344 81.7025L136.624 82.6185L138.923 83.585L141.146 84.5876L143.191 85.6072L144.962 86.6218L146.377 87.6074L147.373 88.541L147.915 89.4029L148 90.1783L147.654 90.8595L146.93 91.446L145.901 91.9444L144.651 92.367L143.267 92.7307L141.833 93.0548L140.424 93.3598L139.105 93.6661L137.927 93.993L136.931 94.358L136.146 94.7768L135.589 95.2627L135.271 95.8267L135.191 96.477L135.342 97.2191L135.71 98.0547L136.268 98.9817L136.983 99.9928L137.811 101.075L138.698 102.209L139.579 103.368L140.381 104.518L141.028 105.622L141.442 106.635L141.552 107.514L141.302 108.22L140.655 108.72L139.602 108.994L138.16 109.035L136.373 108.854L134.308 108.475L132.046 107.934L129.676 107.276L127.287 106.552L124.96 105.81L122.768 105.1L120.772 104.466L119.02 103.949L117.555 103.586L116.41 103.416L115.619 103.474L115.217 103.803L115.247 104.452L115.765 105.485L116.848 106.985L118.606 109.068L121.197 111.898L123.19 114.33L119.221 111.794L116.302 110.043L114.195 108.919L112.732 108.312L111.794 108.147L111.295 108.37L111.169 108.944L111.361 109.838L111.828 111.026L112.526 112.482L113.413 114.177L114.44 116.075L115.558 118.132L116.708 120.292L117.829 122.491L118.854 124.653L119.721 126.702L120.372 128.56L120.762 130.158L120.86 131.442L120.657 132.379L120.163 132.961L119.407 133.202L118.433 133.14L117.293 132.828L116.044 132.331L114.74 131.717L113.433 131.052L112.165 130.4L110.97 129.816L109.875 129.345L108.897 129.024L108.046 128.883L107.327 128.941L106.74 129.212L106.277 129.7L105.929 130.404L105.683 131.314L105.52 132.411L105.418 133.665L105.35 135.037L105.288 136.475L105.199 137.916L105.049 139.286L104.805 140.507L104.435 141.496L103.917 142.176L103.233 142.485L102.38 142.379L101.366 141.841L100.21 140.883L98.9405 139.546L97.5945 137.895L96.2106 136.012L94.827 133.989L93.4783 131.919L92.1937 129.892L90.9955 127.988L89.9 126.279L88.9174 124.826L88.0534 123.682L87.3106 122.897L86.6894 122.521L86.1898 122.61L85.8121 123.232L85.5584 124.475L85.4339 126.46L85.4481 129.355L85.6171 133.401L85.2269 134.724L83.9028 130.53L82.8544 127.544L82.0067 125.51L81.3063 124.253L80.7134 123.647L80.1976 123.601L79.7344 124.048L79.3036 124.933L78.8876 126.208L78.4712 127.826L78.0405 129.736L77.5837 131.88L77.0907 134.188L76.5538 136.581L75.9686 138.966L75.3341 141.244L74.6533 143.317L73.9332 145.09L73.1843 146.485L72.4197 147.447L71.6533 147.95L70.8988 148L70.1677 147.632L69.4684 146.906L68.8054 145.899L68.1796 144.697L67.588 143.387L67.0247 142.052L66.4817 140.763L65.9491 139.583L65.4167 138.561L64.8736 137.735L64.3096 137.131L63.7145 136.766L63.0796 136.648L62.3971 136.774L61.6611 137.137L60.8679 137.716L60.0166 138.486L59.11 139.407L58.1551 140.43L57.1639 141.495L56.1537 142.531L55.1472 143.46L54.1716 144.198L53.2573 144.665L52.4354 144.789L51.7349 144.516L51.1793 143.813L50.7839 142.679L50.5537 141.141L50.4825 139.253L50.5537 137.091L50.7419 134.745L51.0154 132.309L51.3394 129.877L51.6778 127.533L51.9953 125.352L52.2585 123.395L52.4356 121.714L52.4961 120.354L52.4092 119.352L52.1423 118.748L51.6576 118.586L50.9093 118.921L49.8383 119.826L48.3657 121.402L46.3823 123.795L43.733 127.213L43.4976 126.396L45.1014 122.573L46.1521 119.797L46.7512 117.842L46.9677 116.549L46.8494 115.805L46.4297 115.525L45.7331 115.644L44.7789 116.11L43.585 116.876L42.1708 117.896L40.56 119.121L38.7831 120.498L36.879 121.966L34.8963 123.457L32.8929 124.898L30.9334 126.213L29.0856 127.327L27.415 128.175L25.9788 128.707L24.8196 128.894L23.9613 128.729L23.4066 128.23L23.1377 127.433L23.1189 126.393L23.3015 125.173L23.6289 123.84L24.0419 122.457L24.483 121.083L24.8994 119.766L25.2448 118.545L25.4805 117.451L25.5751 116.503L25.5046 115.713L25.2519 115.087L24.8065 114.624L24.1643 114.318L23.3284 114.155L22.3094 114.119L21.1266 114.187L19.8086 114.329L18.3953 114.513L16.937 114.699L15.4953 114.841L14.1403 114.895L12.9474 114.814L11.9923 114.557L11.3437 114.091L11.0564 113.393L11.1644 112.459L11.6761 111.3L12.5725 109.941L13.8089 108.424L15.3195 106.796L17.0243 105.111L18.8363 103.421L20.6688 101.775L22.4399 100.212L24.076 98.766L25.5124 97.4617L26.6927 96.3176L27.5656 95.3468L28.0824 94.5594L28.1915 93.9645L27.8335 93.5723L26.934 93.3967L25.3948 93.4578L23.0809 93.7856L19.8025 94.4248L15.2858 95.4424L17.3859 94.0463L20.8805 92.2282L23.317 90.8385L24.9056 89.775L25.7929 88.9644L26.0829 88.3529L25.8517 87.8994L25.1574 87.5709L24.0481 87.3401L22.568 87.1826L20.7623 87.0759L18.6821 86.9979L16.3875 86.9271L13.9503 86.8416L11.4543 86.7204L8.99343 86.5439L6.66774 86.2953L4.57662 85.9617L2.81036 85.536L1.44138 85.0172L0.516594 84.4106L0.0526027 83.7275L0.034573 82.9833L0.419094 82.1962L1.14017 81.3846L2.1171 80.5657L3.2626 79.754L4.49014 78.9603L5.71944 78.1918L6.8801 77.452L7.91335 76.7411L8.77247 76.0565L9.42232 75.3937L9.8384 74.7466L10.0059 74.1083L9.9192 73.4713L9.58112 72.8278L9.00355 72.1707L8.2078 71.4937L7.22552 70.7915L6.09964 70.061L4.8851 69.3014L3.6487 68.5152L2.46788 67.7082L1.42769 66.8902L0.615884 66.0745L0.116127 65.2776L0 64.5177L0.318875 63.8133L1.09717 63.1809L2.32837 62.6332L3.97486 62.1777L5.97162 61.8153L8.23313 61.5407L10.6619 61.3429L13.1574 61.2061L15.6229 61.1115L17.9713 61.0383L20.1268 60.965L22.0259 60.8699L23.6148 60.7309L24.847 60.526L25.6783 60.2314L26.0628 59.821L25.946 59.2638L25.2587 58.5218L23.907 57.5457L21.7598 56.2693L18.6302 54.6012L14.2459 52.4104L18.5143 53.3101L22.1524 54.0613L24.7495 54.4825L26.5187 54.6247L27.6098 54.5219L28.1313 54.197L28.164 53.6654L27.7713 52.9384L27.0064 52.0249L25.9187 50.9348L24.5581 49.6798L22.979 48.2766L21.2433 46.7478L19.4219 45.1238L17.594 43.443L15.8455 41.7511L14.2639 40.0993L12.9322 38.541L11.9215 37.1269L11.2839 35.9004L11.0469 34.8927L11.2109 34.1199L11.7495 33.5814L12.6139 33.2607L13.739 33.128L15.0507 33.1438L16.4728 33.2632L17.9329 33.4398L19.3666 33.6286L20.7198 33.7886L21.9493 33.8837L23.023 33.8834L23.9187 33.7632L24.6233 33.5038L25.1313 33.0916L25.4446 32.5181L25.5715 31.7805L25.5272 30.8819L25.3335 29.8321L25.0191 28.649L24.6207 27.3588L24.182 25.9978L23.754 24.6118L23.3929 23.256L23.1578 21.993L23.1067 20.8888L23.2913 20.0083L23.7521 19.409L24.5129 19.1345L25.5779 19.2089L26.9297 19.6335L28.5313 20.3856L30.3295 21.4213L32.2608 22.6794L34.2575 24.0884L36.2534 25.5721L38.1882 27.0554L40.0104 28.4684L41.6778 29.7479L43.1574 30.8384L44.4237 31.69L45.4562 32.2566L46.2369 32.4918L46.7471 32.3453L46.9645 31.7568L46.859 30.6493L46.3881 28.9199L45.4905 26.4265L44.0764 22.9673L42.7152 19.4507L45.6198 23.2539L47.7957 25.9465L49.4174 27.7647L50.6065 28.8707L51.4504 29.3781L52.0135 29.3678L52.3454 28.8996L52.4859 28.0202L52.4689 26.7697L52.3257 25.1867L52.0866 23.3128L51.7828 21.1967L51.4474 18.8972L51.1149 16.4844L50.8214 14.04L50.6023 11.6549L50.4908 9.42401L50.5143 7.4396L50.6927 5.78291L51.0355 4.51595L51.5413 3.67494L52.1979 3.26678L52.9841 3.26909L53.8723 3.63397L54.8317 4.29428L55.8315 5.17125L56.8432 6.18202L57.8426 7.24602L58.8106 8.28963L59.7336 9.24901L60.6029 10.0714L61.4147 10.7151L62.1687 11.1492L62.8677 11.3523L63.517 11.3123L64.1238 11.0253L64.6967 10.4962L65.2453 9.73852L65.78 8.77556L66.3114 7.64124L66.85 6.38113L67.4059 5.05293L67.9877 3.72619L68.6021 2.4805L69.2531 1.40197L69.9412 0.577629L70.6629 0.0882322L71.4111 0L72.1751 0.356768L72.9418 1.17395L73.6972 2.43564L74.4277 4.0957L75.122 6.08246L75.7718 8.30627L76.3728 10.6682L76.9247 13.0685L77.431 15.4129L77.8984 17.6171L78.3361 19.6085L78.7557 21.3253L79.1702 22.7147L79.5945 23.7289L80.0454 24.321L80.542 24.4389L81.1074 24.0199L81.7697 22.9815L82.5655 21.2115L83.5431 18.5521L84.7695 14.7768L85.7073 13.0295L85.4841 17.5094L85.4227 20.7404L85.5044 22.9939L85.7177 24.4583L86.0562 25.2672L86.5171 25.5177L87.0995 25.2835L87.8036 24.6233L88.6291 23.5883L89.5744 22.2279L90.6348 20.5941L91.8018 18.7455L93.061 16.7495L94.3921 14.6841L95.7681 12.6359L97.1559 10.6978L98.5183 8.96305L99.816 7.5179L101.012 6.43366L102.074 5.75926L102.98 5.51617L103.717 5.69649L104.287 6.26482L104.702 7.16328L104.983 8.31869L105.16 9.65031L105.265 11.0771L105.331 12.5233L105.394 13.9224L105.482 15.219L105.623 16.3695L105.841 17.3413L106.154 18.1126L106.579 18.6704L107.126 19.0102L107.803 19.1351L108.611 19.0555L109.55 18.7894L110.609 18.3626L111.775 17.8096L113.023 17.1736L114.322 16.5068L115.632 15.8692L116.904 15.3271L118.085 14.949L119.118 14.8009L119.949 14.9406L120.53 15.411L120.828 16.2348L120.825 17.411L120.527 18.9139L119.955 20.6958L119.151 22.6919L118.169 24.827L117.072 27.0223L115.924 29.2022L114.789 31.2983L113.727 33.2523L112.79 35.0163L112.027 36.552L111.482 37.8283L111.198 38.8186L111.217 39.4974L111.591 39.8363L112.381 39.8L113.665 39.3406L115.552 38.3907L118.19 36.8537L121.793 34.589L122.232 35.0225L119.331 38.1348L117.328 40.4353L116.044 42.1069L115.356 43.2782L115.178 44.0419L115.447 44.4669L116.118 44.6065L117.154 44.5045L118.521 44.1993L120.185 43.7274L122.109 43.1262L124.244 42.4355L126.535 41.6988L128.913 40.9635L131.299 40.2793L133.605 39.6961L135.742 39.2609L137.626 39.0133L139.184 38.982L140.364 39.1815L141.14 39.611L141.514 40.2543L141.513 41.0826L141.189 42.0578L140.608 43.1371L139.846 44.2771L138.982 45.4373L138.09 46.5823L137.237 47.6834L136.48 48.7188L135.868 49.6736L135.437 50.5389L135.215 51.3107L135.219 51.9899L135.462 52.5806L135.943 53.0903L136.657 53.5291L137.588 53.9097L138.712 54.2469L139.991 54.5577L141.378 54.861L142.812 55.1767L144.221 55.5256L145.523 55.9275L146.632 56.4001L147.461 56.9576L147.934 57.6083L147.991 58.3542L147.596 59.1898L146.742 60.1025L145.455 61.074L143.789 62.0819L141.821 63.1025L139.644 64.1127L137.359 65.0925L135.063 66.0259L132.847 66.9017L130.795 67.7135L128.975 68.4594L127.447 69.141L126.265 69.7628L125.479 70.3318L125.138 70.8566L125.303 71.3476L126.046 71.8167L127.465 72.2779L129.694 72.7482L132.922 73.2493L137.423 73.8098L139.185 74.007Z" fill="#B3E8FF"/>
</svg>
