<svg width="110" height="34" viewBox="0 0 110 34" fill="none" xmlns="http://www.w3.org/2000/svg">
<g clip-path="url(#clip0_413_4420)">
<path fill-rule="evenodd" clip-rule="evenodd" d="M17.7136 14.9335C20.0311 16.4174 21.4352 19.2045 20.8905 22.264C20.3927 25.0535 18.1456 27.3499 15.3703 27.9322C10.7916 28.8949 6.72715 25.3188 6.72715 20.8951V10.0261V5.91001C6.72715 2.64624 4.08091 0 0.817139 0V20.9515H0.819487C0.821835 29.0499 8.14536 35.4013 16.5678 33.7318C21.5104 32.7527 25.5302 28.7963 26.5986 23.8724C28.4394 15.3913 22.0293 7.9011 13.8675 7.9011C13.8675 10.7469 15.3163 13.3979 17.7136 14.9335Z" fill="url(#paint0_linear_413_4420)"/>
<path fill-rule="evenodd" clip-rule="evenodd" d="M69.6994 9.7775C71.3313 9.7775 72.7542 10.0968 73.9705 10.7355C75.1868 11.3765 76.1589 12.1725 76.8868 13.1258V10.1156H78.8638C80.1599 10.1156 81.2118 11.1675 81.2118 12.4637V30.8441H76.8868V27.7588C76.1589 28.7379 75.168 29.5527 73.9141 30.2031C72.6603 30.8558 71.2303 31.1822 69.6243 31.1822C67.8445 31.1822 66.2149 30.7243 64.7357 29.8086C63.254 28.8929 62.0824 27.6155 61.2183 25.9719C60.3519 24.3306 59.9198 22.4663 59.9198 20.3859C59.9198 18.3032 60.3519 16.46 61.2183 14.8563C62.0824 13.2502 63.2611 12.0034 64.7544 11.1135C66.2454 10.2236 67.8938 9.7775 69.6994 9.7775ZM38.2566 3.00552C39.5551 3.00552 40.6047 4.05744 40.6047 5.35356V13.2007C41.3325 12.1981 42.3305 11.3763 43.5961 10.7353C44.8616 10.0966 46.2728 9.77726 47.8272 9.77726C49.6587 9.77726 51.314 10.2163 52.7933 11.0945C54.2726 11.9727 55.4395 13.2195 56.2919 14.8373C57.1442 16.4551 57.5716 18.303 57.5716 20.3857C57.5716 22.4684 57.1442 24.3304 56.2919 25.9717C55.4395 27.6153 54.2679 28.8926 52.7745 29.8084C51.2835 30.7241 49.6329 31.182 47.8272 31.182C46.2235 31.182 44.8006 30.8673 43.5585 30.2404C42.3164 29.6158 41.3325 28.8128 40.6047 27.8337V30.8438H36.3171V3.00552H38.2566ZM109.155 10.1154V30.8438H104.868V10.1154H109.155ZM94.019 9.7782C95.6485 9.7782 97.109 10.1163 98.4004 10.7926C99.6918 11.4688 100.701 12.4737 101.429 13.8027C102.155 15.1317 102.519 16.7354 102.519 18.6186V30.8424H100.617C99.3208 30.8424 98.2689 29.7929 98.2689 28.4944V19.2572C98.2689 17.4023 97.804 15.977 96.8765 14.9861C95.9491 13.9976 94.6811 13.5022 93.0774 13.5022C91.4713 13.5022 90.1987 13.9976 89.2595 14.9861C88.3179 15.977 87.8483 17.4023 87.8483 19.2572V30.8424H83.5608V10.1163H87.8483V12.4855C88.5504 11.6332 89.4473 10.9687 90.5392 10.492C91.6287 10.0154 92.7886 9.7782 94.019 9.7782ZM70.6034 13.5015C69.4998 13.5015 68.4714 13.7715 67.5181 14.3092C66.5648 14.8493 65.7946 15.6405 65.2053 16.6807C64.6159 17.7209 64.3201 18.956 64.3201 20.3859C64.3201 21.8159 64.6159 23.0697 65.2053 24.1475C65.7946 25.2252 66.5718 26.047 67.5369 26.6106C68.5019 27.1764 69.5257 27.4582 70.6034 27.4582C71.707 27.4582 72.7354 27.1811 73.6887 26.6294C74.642 26.0799 75.4122 25.2698 76.0015 24.2038C76.5909 23.1378 76.8868 21.891 76.8868 20.4611C76.8868 19.0311 76.5909 17.789 76.0015 16.7371C75.4122 15.6828 74.642 14.8798 73.6887 14.328C72.7354 13.7786 71.707 13.5015 70.6034 13.5015ZM46.888 13.5012C45.8103 13.5012 44.7865 13.7783 43.8215 14.3278C42.8564 14.8795 42.0792 15.6826 41.4899 16.7368C40.9005 17.7888 40.6047 19.0309 40.6047 20.4608C40.6047 21.8908 40.9005 23.1376 41.4899 24.2036C42.0792 25.2696 42.8564 26.0797 43.8215 26.6291C44.7865 27.1809 45.8103 27.458 46.888 27.458C47.9916 27.458 49.0247 27.1762 49.9921 26.6103C50.9571 26.0468 51.7343 25.225 52.3237 24.1472C52.9131 23.0695 53.2089 21.8156 53.2089 20.3857C53.2089 18.9557 52.9131 17.7207 52.3237 16.6805C51.7343 15.6403 50.9571 14.849 49.9921 14.309C49.0247 13.7713 47.9916 13.5012 46.888 13.5012ZM106.808 3.00552C108.085 3.00552 109.125 4.02628 109.155 5.29569L109.156 5.35356V7.29304H104.869V3.00552H106.808Z" fill="black"/>
</g>
<defs>
<linearGradient id="paint0_linear_413_4420" x1="0.817139" y1="32.9279" x2="29.3268" y2="32.3528" gradientUnits="userSpaceOnUse">
<stop stop-color="#00B0FF"/>
<stop offset="0.49591" stop-color="#3D5AFE"/>
<stop offset="1" stop-color="#5444F2"/>
</linearGradient>
<clipPath id="clip0_413_4420">
<rect width="108.387" height="34" fill="white" transform="translate(0.817139)"/>
</clipPath>
</defs>
</svg>
