<svg width="395" height="403" viewBox="0 0 395 403" fill="none" xmlns="http://www.w3.org/2000/svg">
<g filter="url(#filter0_d_569_1788)">
<rect x="50" y="59" width="298" height="293" rx="10.4561" fill="white"/>
</g>
<path d="M92.4068 145V134.983H88.851V133.197H97.9544V134.983H94.3986V145H92.4068ZM99.6252 145V132.522H101.543V137.428H101.609C102.147 136.577 102.989 136.152 104.136 136.152C105.118 136.152 105.889 136.432 106.449 136.991C107.008 137.568 107.288 138.344 107.288 139.321V145H105.37V139.79C105.37 138.522 104.775 137.889 103.584 137.889C102.975 137.889 102.487 138.097 102.119 138.514C101.735 138.931 101.543 139.496 101.543 140.21V145H99.6252ZM110.539 134.967C110.144 134.967 109.842 134.862 109.634 134.654C109.42 134.44 109.313 134.141 109.313 133.757C109.313 133.384 109.42 133.09 109.634 132.876C109.826 132.667 110.128 132.563 110.539 132.563C110.94 132.563 111.244 132.667 111.453 132.876C111.667 133.09 111.774 133.384 111.774 133.757C111.774 134.124 111.667 134.415 111.453 134.629C111.228 134.854 110.923 134.967 110.539 134.967ZM109.585 145V136.3H111.502V145H109.585ZM113.799 145V136.3H115.412L115.585 137.683H115.651C115.848 137.216 116.134 136.851 116.507 136.588C116.891 136.319 117.357 136.185 117.906 136.185H118.614V137.971H117.873C117.138 137.971 116.586 138.212 116.219 138.695C115.84 139.173 115.651 139.858 115.651 140.753V145H113.799ZM123.215 145.148C122.101 145.148 121.226 144.739 120.589 143.922C119.942 143.115 119.61 142.02 119.593 140.638C119.61 139.282 119.936 138.196 120.573 137.378C121.193 136.561 122.074 136.152 123.215 136.152C124.356 136.152 125.188 136.55 125.709 137.345H125.775V132.522H127.701V145H125.997L125.775 143.955H125.709C125.188 144.75 124.356 145.148 123.215 145.148ZM123.692 143.453C124.406 143.453 124.943 143.186 125.306 142.654C125.668 142.122 125.849 141.45 125.849 140.638C125.849 139.815 125.673 139.145 125.322 138.629C124.971 138.114 124.428 137.856 123.692 137.856C122.946 137.856 122.406 138.114 122.071 138.629C121.72 139.145 121.544 139.815 121.544 140.638C121.544 141.466 121.72 142.138 122.071 142.654C122.417 143.186 122.957 143.453 123.692 143.453ZM134.903 148.86V136.3H136.598L136.821 137.345H136.886C137.408 136.55 138.233 136.152 139.364 136.152C140.472 136.152 141.356 136.555 142.014 137.362C142.667 138.179 142.994 139.277 142.994 140.654C142.994 141.993 142.678 143.077 142.047 143.905C141.4 144.734 140.505 145.148 139.364 145.148C138.233 145.148 137.408 144.75 136.886 143.955H136.821V148.86H134.903ZM138.895 143.453C139.63 143.453 140.176 143.192 140.533 142.671C140.878 142.166 141.051 141.494 141.051 140.654C141.051 139.809 140.878 139.134 140.533 138.629C140.181 138.114 139.635 137.856 138.895 137.856C138.176 137.856 137.641 138.114 137.29 138.629C136.933 139.151 136.755 139.826 136.755 140.654C136.755 141.466 136.933 142.133 137.29 142.654C137.652 143.186 138.187 143.453 138.895 143.453ZM147.356 145.148C146.418 145.148 145.68 144.89 145.142 144.374C144.593 143.881 144.319 143.236 144.319 142.44C144.319 141.623 144.615 140.97 145.208 140.481C145.811 139.987 146.7 139.74 147.875 139.74C148.571 139.74 149.246 139.837 149.899 140.029V139.222C149.899 138.777 149.759 138.415 149.48 138.135C149.194 137.867 148.761 137.732 148.179 137.732C147.674 137.732 147.282 137.856 147.002 138.103C146.711 138.36 146.558 138.67 146.541 139.033H144.722C144.722 138.199 145.038 137.507 145.669 136.958C146.289 136.421 147.137 136.152 148.212 136.152C149.326 136.152 150.201 136.437 150.838 137.008C151.48 137.584 151.801 138.314 151.801 139.197V145H150.113L149.982 143.971H149.916C149.378 144.756 148.525 145.148 147.356 145.148ZM147.792 143.617C148.423 143.617 148.934 143.431 149.323 143.058C149.707 142.69 149.899 142.243 149.899 141.716V141.428C149.312 141.225 148.681 141.123 148.006 141.123C147.425 141.123 146.988 141.23 146.698 141.444C146.39 141.669 146.237 141.979 146.237 142.374C146.237 142.747 146.371 143.044 146.64 143.263C146.892 143.499 147.276 143.617 147.792 143.617ZM154.097 145V136.3H155.71L155.883 137.683H155.949C156.147 137.216 156.432 136.851 156.805 136.588C157.189 136.319 157.656 136.185 158.204 136.185H158.912V137.971H158.171C157.436 137.971 156.885 138.212 156.517 138.695C156.138 139.173 155.949 139.858 155.949 140.753V145H154.097ZM164.114 145.148C162.397 145.148 161.538 144.306 161.538 142.621V137.938H160.097V136.3H161.62V134.464L163.291 133.995H163.456V136.3H165.563V137.938H163.456V142.284C163.456 142.701 163.546 143 163.727 143.181C163.919 143.373 164.205 143.469 164.583 143.469C164.891 143.469 165.173 143.428 165.431 143.346H165.596V144.967C165.19 145.088 164.696 145.148 164.114 145.148ZM168.616 148.86V148.696L169.999 144.967L169.802 144.951L166.633 136.473V136.3H168.633L170.896 142.844H170.962L173.226 136.3H175.259V136.473L170.641 148.86H168.616ZM185.243 145.148C183.926 145.148 182.908 144.739 182.189 143.922C181.459 143.11 181.094 142.02 181.094 140.654C181.094 139.277 181.454 138.179 182.173 137.362C182.88 136.555 183.887 136.152 185.193 136.152C186.362 136.152 187.265 136.454 187.901 137.057C188.543 137.683 188.897 138.487 188.963 139.469H187.045C186.996 138.975 186.809 138.583 186.486 138.292C186.162 138.001 185.731 137.856 185.193 137.856C184.485 137.856 183.95 138.103 183.588 138.596C183.226 139.096 183.045 139.782 183.045 140.654C183.045 141.538 183.226 142.229 183.588 142.728C183.95 143.222 184.485 143.469 185.193 143.469C185.726 143.469 186.156 143.321 186.486 143.025C186.82 142.723 187.012 142.33 187.062 141.848H188.98C188.897 142.852 188.543 143.65 187.918 144.243C187.281 144.846 186.39 145.148 185.243 145.148ZM194.412 145.148C193.073 145.148 192.055 144.734 191.358 143.905C190.65 143.082 190.296 141.998 190.296 140.654C190.296 139.315 190.656 138.229 191.375 137.395C192.088 136.566 193.1 136.152 194.412 136.152C195.712 136.152 196.728 136.566 197.457 137.395C198.165 138.234 198.519 139.321 198.519 140.654C198.519 141.998 198.165 143.082 197.457 143.905C196.744 144.734 195.729 145.148 194.412 145.148ZM194.412 143.453C195.85 143.453 196.568 142.52 196.568 140.654C196.568 139.771 196.387 139.079 196.025 138.58C195.674 138.097 195.136 137.856 194.412 137.856C193.682 137.856 193.142 138.097 192.79 138.58C192.428 139.079 192.247 139.771 192.247 140.654C192.247 141.532 192.434 142.215 192.807 142.704C193.169 143.203 193.704 143.453 194.412 143.453ZM200.42 145V136.3H202.116L202.272 137.428H202.338C202.876 136.577 203.724 136.152 204.882 136.152C205.853 136.152 206.618 136.432 207.178 136.991C207.738 137.551 208.018 138.328 208.018 139.321V145H206.1V139.79C206.1 138.522 205.51 137.889 204.33 137.889C203.716 137.889 203.233 138.089 202.881 138.489C202.519 138.917 202.338 139.485 202.338 140.193V145H200.42ZM210.314 145V136.3H212.01L212.166 137.428H212.232C212.769 136.577 213.617 136.152 214.775 136.152C215.746 136.152 216.512 136.432 217.071 136.991C217.631 137.551 217.911 138.328 217.911 139.321V145H215.993V139.79C215.993 138.522 215.403 137.889 214.224 137.889C213.609 137.889 213.126 138.089 212.775 138.489C212.413 138.917 212.232 139.485 212.232 140.193V145H210.314ZM223.747 145.148C222.457 145.148 221.45 144.728 220.726 143.889C219.996 143.044 219.631 141.966 219.631 140.654C219.631 139.332 219.985 138.251 220.693 137.411C221.384 136.572 222.389 136.152 223.706 136.152C224.957 136.152 225.925 136.544 226.611 137.329C227.297 138.114 227.64 139.131 227.64 140.382V141.189H221.623C221.623 141.908 221.807 142.476 222.175 142.893C222.537 143.321 223.061 143.535 223.747 143.535C224.789 143.535 225.423 143.14 225.648 142.35H227.516C227.401 143.173 226.998 143.842 226.307 144.358C225.604 144.885 224.751 145.148 223.747 145.148ZM221.64 139.823H225.665C225.648 139.219 225.481 138.725 225.162 138.341C224.822 137.968 224.337 137.782 223.706 137.782C223.053 137.782 222.548 137.968 222.191 138.341C221.84 138.725 221.656 139.219 221.64 139.823ZM233.113 145.148C231.797 145.148 230.779 144.739 230.06 143.922C229.33 143.11 228.965 142.02 228.965 140.654C228.965 139.277 229.325 138.179 230.043 137.362C230.751 136.555 231.758 136.152 233.064 136.152C234.233 136.152 235.136 136.454 235.772 137.057C236.414 137.683 236.768 138.487 236.834 139.469H234.916C234.867 138.975 234.68 138.583 234.356 138.292C234.033 138.001 233.602 137.856 233.064 137.856C232.356 137.856 231.821 138.103 231.459 138.596C231.097 139.096 230.916 139.782 230.916 140.654C230.916 141.538 231.097 142.229 231.459 142.728C231.821 143.222 232.356 143.469 233.064 143.469C233.596 143.469 234.027 143.321 234.356 143.025C234.691 142.723 234.883 142.33 234.932 141.848H236.85C236.768 142.852 236.414 143.65 235.789 144.243C235.152 144.846 234.26 145.148 233.113 145.148ZM242.044 145.148C240.326 145.148 239.468 144.306 239.468 142.621V137.938H238.027V136.3H239.55V134.464L241.221 133.995H241.385V136.3H243.493V137.938H241.385V142.284C241.385 142.701 241.476 143 241.657 143.181C241.849 143.373 242.134 143.469 242.513 143.469C242.82 143.469 243.103 143.428 243.361 143.346H243.525V144.967C243.119 145.088 242.626 145.148 242.044 145.148ZM250.431 145V136.3H252.044L252.217 137.683H252.283C252.481 137.216 252.766 136.851 253.139 136.588C253.523 136.319 253.99 136.185 254.538 136.185H255.246V137.971H254.505C253.77 137.971 253.219 138.212 252.851 138.695C252.472 139.173 252.283 139.858 252.283 140.753V145H250.431ZM260.341 145.148C259.052 145.148 258.045 144.728 257.32 143.889C256.591 143.044 256.226 141.966 256.226 140.654C256.226 139.332 256.58 138.251 257.288 137.411C257.979 136.572 258.983 136.152 260.3 136.152C261.551 136.152 262.52 136.544 263.206 137.329C263.891 138.114 264.234 139.131 264.234 140.382V141.189H258.218C258.218 141.908 258.401 142.476 258.769 142.893C259.131 143.321 259.655 143.535 260.341 143.535C261.384 143.535 262.018 143.14 262.242 142.35H264.111C263.996 143.173 263.592 143.842 262.901 144.358C262.199 144.885 261.345 145.148 260.341 145.148ZM258.234 139.823H262.259C262.242 139.219 262.075 138.725 261.757 138.341C261.417 137.968 260.931 137.782 260.3 137.782C259.647 137.782 259.142 137.968 258.786 138.341C258.434 138.725 258.251 139.219 258.234 139.823ZM271.741 148.86V143.955H271.675C271.154 144.75 270.322 145.148 269.181 145.148C268.051 145.148 267.17 144.734 266.539 143.905C265.902 143.088 265.576 142.004 265.56 140.654C265.576 139.266 265.908 138.168 266.555 137.362C267.197 136.555 268.073 136.152 269.181 136.152C270.322 136.152 271.154 136.55 271.675 137.345H271.741L271.963 136.3H273.667V148.86H271.741ZM269.659 143.453C270.383 143.453 270.926 143.186 271.288 142.654C271.639 142.138 271.815 141.472 271.815 140.654C271.815 139.847 271.634 139.178 271.272 138.646C270.91 138.119 270.372 137.856 269.659 137.856C268.912 137.856 268.372 138.114 268.037 138.629C267.686 139.145 267.51 139.82 267.51 140.654C267.51 141.483 267.686 142.155 268.037 142.671C268.377 143.192 268.918 143.453 269.659 143.453ZM281.42 136.3H283.346V141.699C283.346 142.715 283.02 143.54 282.367 144.177C281.714 144.813 280.792 145.132 279.601 145.132C278.416 145.132 277.5 144.808 276.852 144.16C276.188 143.513 275.856 142.693 275.856 141.699V136.3H277.782V141.395C277.782 142.706 278.389 143.362 279.601 143.362C280.814 143.362 281.42 142.706 281.42 141.395V136.3ZM289.248 145.148C287.958 145.148 286.952 144.728 286.227 143.889C285.497 143.044 285.133 141.966 285.133 140.654C285.133 139.332 285.486 138.251 286.194 137.411C286.886 136.572 287.89 136.152 289.207 136.152C290.458 136.152 291.426 136.544 292.112 137.329C292.798 138.114 293.141 139.131 293.141 140.382V141.189H287.124C287.124 141.908 287.308 142.476 287.676 142.893C288.038 143.321 288.562 143.535 289.248 143.535C290.291 143.535 290.924 143.14 291.149 142.35H293.018C292.903 143.173 292.499 143.842 291.808 144.358C291.105 144.885 290.252 145.148 289.248 145.148ZM287.141 139.823H291.166C291.149 139.219 290.982 138.725 290.664 138.341C290.323 137.968 289.838 137.782 289.207 137.782C288.554 137.782 288.049 137.968 287.692 138.341C287.341 138.725 287.157 139.219 287.141 139.823ZM298.154 145.148C297.001 145.148 296.11 144.874 295.479 144.325C294.82 143.765 294.483 143.025 294.466 142.103H296.384C296.384 142.525 296.543 142.863 296.862 143.115C297.185 143.373 297.616 143.502 298.154 143.502C299.268 143.502 299.825 143.175 299.825 142.523C299.825 142.007 299.443 141.675 298.681 141.527L297.15 141.238C295.542 140.915 294.738 140.061 294.738 138.679C294.738 137.949 295.04 137.343 295.643 136.86C296.241 136.388 297.056 136.152 298.088 136.152C299.12 136.152 299.962 136.415 300.615 136.942C301.246 137.463 301.561 138.149 301.561 139H299.677C299.66 138.599 299.506 138.278 299.216 138.037C298.925 137.812 298.538 137.699 298.055 137.699C297.622 137.699 297.273 137.784 297.01 137.954C296.741 138.141 296.606 138.388 296.606 138.695C296.606 139.211 296.988 139.526 297.75 139.642L299.232 139.93C300.105 140.133 300.736 140.413 301.125 140.769C301.553 141.164 301.767 141.749 301.767 142.523C301.767 143.351 301.43 143.99 300.755 144.44C300.058 144.912 299.191 145.148 298.154 145.148ZM306.953 145.148C305.235 145.148 304.376 144.306 304.376 142.621V137.938H302.936V136.3H304.459V134.464L306.13 133.995H306.294V136.3H308.401V137.938H306.294V142.284C306.294 142.701 306.385 143 306.566 143.181C306.758 143.373 307.043 143.469 307.422 143.469C307.729 143.469 308.012 143.428 308.27 143.346H308.434V144.967C308.028 145.088 307.534 145.148 306.953 145.148ZM136.195 168V160.921H134.656V159.3H136.195V158.238C136.195 157.349 136.475 156.647 137.035 156.131C137.589 155.615 138.313 155.357 139.207 155.357C139.597 155.357 139.956 155.396 140.286 155.473V157.094C139.946 157.039 139.666 157.012 139.446 157.012C138.557 157.012 138.113 157.421 138.113 158.238V159.3H140.203V160.921H138.113V168H136.195ZM142.105 168V159.3H143.718L143.891 160.683H143.957C144.154 160.216 144.44 159.851 144.813 159.588C145.197 159.319 145.663 159.185 146.212 159.185H146.92V160.971H146.179C145.444 160.971 144.892 161.212 144.525 161.695C144.146 162.173 143.957 162.858 143.957 163.753V168H142.105ZM152.015 168.148C150.676 168.148 149.658 167.734 148.961 166.905C148.253 166.082 147.899 164.998 147.899 163.654C147.899 162.315 148.259 161.229 148.978 160.395C149.691 159.566 150.703 159.152 152.015 159.152C153.315 159.152 154.33 159.566 155.06 160.395C155.768 161.234 156.122 162.321 156.122 163.654C156.122 164.998 155.768 166.082 155.06 166.905C154.347 167.734 153.332 168.148 152.015 168.148ZM152.015 166.453C153.452 166.453 154.171 165.52 154.171 163.654C154.171 162.771 153.99 162.079 153.628 161.58C153.277 161.097 152.739 160.856 152.015 160.856C151.285 160.856 150.744 161.097 150.393 161.58C150.031 162.079 149.85 162.771 149.85 163.654C149.85 164.532 150.037 165.215 150.41 165.704C150.772 166.203 151.307 166.453 152.015 166.453ZM167.826 159.152C168.786 159.152 169.546 159.432 170.106 159.991C170.655 160.557 170.929 161.333 170.929 162.321V168H169.011V162.79C169.011 161.522 168.449 160.889 167.324 160.889C166.732 160.889 166.276 161.089 165.958 161.489C165.634 161.912 165.472 162.48 165.472 163.193V168H163.563V162.79C163.563 161.522 163 160.889 161.875 160.889C161.299 160.889 160.835 161.089 160.484 161.489C160.122 161.917 159.941 162.485 159.941 163.193V168H158.023V159.3H159.719L159.875 160.428H159.941C160.479 159.577 161.316 159.152 162.451 159.152C163.697 159.152 164.57 159.607 165.069 160.518H165.118C165.678 159.607 166.581 159.152 167.826 159.152ZM178.37 168V156.197H183.498C184.54 156.197 185.383 156.469 186.025 157.012C186.667 157.571 186.988 158.323 186.988 159.267C186.988 160.386 186.538 161.19 185.638 161.679V161.745C186.829 162.244 187.424 163.193 187.424 164.592C187.424 165.657 187.092 166.488 186.428 167.086C185.753 167.695 184.831 168 183.662 168H178.37ZM180.329 161.037H183.127C183.736 161.037 184.197 160.897 184.51 160.617C184.823 160.354 184.979 159.956 184.979 159.423C184.979 158.957 184.834 158.595 184.543 158.337C184.236 158.079 183.802 157.95 183.243 157.95H180.329V161.037ZM180.329 166.23H183.374C184.033 166.23 184.535 166.074 184.881 165.761C185.226 165.465 185.399 165.042 185.399 164.494C185.399 163.956 185.232 163.528 184.897 163.21C184.546 162.908 184.038 162.757 183.374 162.757H180.329V166.23ZM191.827 168.148C190.889 168.148 190.151 167.89 189.613 167.374C189.065 166.881 188.79 166.236 188.79 165.44C188.79 164.623 189.087 163.97 189.679 163.481C190.283 162.987 191.172 162.74 192.346 162.74C193.043 162.74 193.718 162.837 194.371 163.029V162.222C194.371 161.777 194.231 161.415 193.951 161.135C193.666 160.867 193.232 160.732 192.651 160.732C192.146 160.732 191.753 160.856 191.473 161.103C191.183 161.36 191.029 161.67 191.013 162.033H189.194C189.194 161.199 189.509 160.507 190.14 159.958C190.76 159.421 191.608 159.152 192.683 159.152C193.797 159.152 194.673 159.437 195.309 160.008C195.951 160.584 196.272 161.314 196.272 162.197V168H194.585L194.453 166.971H194.387C193.849 167.756 192.996 168.148 191.827 168.148ZM192.264 166.617C192.895 166.617 193.405 166.431 193.795 166.058C194.179 165.69 194.371 165.243 194.371 164.716V164.428C193.784 164.225 193.153 164.123 192.478 164.123C191.896 164.123 191.46 164.23 191.169 164.444C190.862 164.669 190.708 164.979 190.708 165.374C190.708 165.747 190.842 166.044 191.111 166.263C191.364 166.499 191.748 166.617 192.264 166.617ZM198.569 168V159.3H200.264L200.42 160.428H200.486C201.024 159.577 201.872 159.152 203.03 159.152C204.001 159.152 204.766 159.432 205.326 159.991C205.886 160.551 206.166 161.328 206.166 162.321V168H204.248V162.79C204.248 161.522 203.658 160.889 202.478 160.889C201.864 160.889 201.381 161.089 201.03 161.489C200.667 161.917 200.486 162.485 200.486 163.193V168H198.569ZM209.417 157.967C209.022 157.967 208.72 157.862 208.511 157.654C208.297 157.44 208.19 157.141 208.19 156.757C208.19 156.384 208.297 156.09 208.511 155.876C208.703 155.667 209.005 155.563 209.417 155.563C209.817 155.563 210.122 155.667 210.33 155.876C210.544 156.09 210.651 156.384 210.651 156.757C210.651 157.124 210.544 157.415 210.33 157.629C210.105 157.854 209.801 157.967 209.417 157.967ZM208.462 168V159.3H210.38V168H208.462ZM223.393 156.197L227.623 167.835V168H225.467L224.537 165.267H219.722L218.792 168H216.701V167.835L220.915 156.197H223.393ZM220.306 163.531H223.953L222.166 158.271H222.092L220.306 163.531ZM229.533 168V160.921H227.994V159.3H229.533V158.238C229.533 157.349 229.813 156.647 230.373 156.131C230.927 155.615 231.651 155.357 232.546 155.357C232.935 155.357 233.295 155.396 233.624 155.473V157.094C233.284 157.039 233.004 157.012 232.784 157.012C231.895 157.012 231.451 157.421 231.451 158.238V159.3H233.541V160.921H231.451V168H229.533ZM235.443 168V159.3H237.056L237.229 160.683H237.295C237.492 160.216 237.778 159.851 238.151 159.588C238.535 159.319 239.001 159.185 239.55 159.185H240.258V160.971H239.517C238.782 160.971 238.23 161.212 237.863 161.695C237.484 162.173 237.295 162.858 237.295 163.753V168H235.443ZM242.966 157.967C242.571 157.967 242.269 157.862 242.06 157.654C241.846 157.44 241.739 157.141 241.739 156.757C241.739 156.384 241.846 156.09 242.06 155.876C242.252 155.667 242.554 155.563 242.966 155.563C243.366 155.563 243.671 155.667 243.879 155.876C244.093 156.09 244.2 156.384 244.2 156.757C244.2 157.124 244.093 157.415 243.879 157.629C243.654 157.854 243.35 157.967 242.966 157.967ZM242.011 168V159.3H243.929V168H242.011ZM249.797 168.148C248.48 168.148 247.463 167.739 246.744 166.922C246.014 166.11 245.649 165.02 245.649 163.654C245.649 162.277 246.008 161.179 246.727 160.362C247.435 159.555 248.442 159.152 249.748 159.152C250.917 159.152 251.819 159.454 252.456 160.057C253.098 160.683 253.452 161.487 253.518 162.469H251.6C251.551 161.975 251.364 161.583 251.04 161.292C250.717 161.001 250.286 160.856 249.748 160.856C249.04 160.856 248.505 161.103 248.143 161.596C247.781 162.096 247.6 162.782 247.6 163.654C247.6 164.538 247.781 165.229 248.143 165.728C248.505 166.222 249.04 166.469 249.748 166.469C250.28 166.469 250.711 166.321 251.04 166.025C251.375 165.723 251.567 165.33 251.616 164.848H253.534C253.452 165.852 253.098 166.65 252.472 167.243C251.836 167.846 250.944 168.148 249.797 168.148ZM257.888 168.148C256.95 168.148 256.212 167.89 255.674 167.374C255.126 166.881 254.851 166.236 254.851 165.44C254.851 164.623 255.147 163.97 255.74 163.481C256.344 162.987 257.233 162.74 258.407 162.74C259.104 162.74 259.779 162.837 260.432 163.029V162.222C260.432 161.777 260.292 161.415 260.012 161.135C259.727 160.867 259.293 160.732 258.711 160.732C258.207 160.732 257.814 160.856 257.534 161.103C257.244 161.36 257.09 161.67 257.074 162.033H255.255C255.255 161.199 255.57 160.507 256.201 159.958C256.821 159.421 257.669 159.152 258.744 159.152C259.858 159.152 260.734 159.437 261.37 160.008C262.012 160.584 262.333 161.314 262.333 162.197V168H260.646L260.514 166.971H260.448C259.91 167.756 259.057 168.148 257.888 168.148ZM258.325 166.617C258.956 166.617 259.466 166.431 259.856 166.058C260.24 165.69 260.432 165.243 260.432 164.716V164.428C259.845 164.225 259.214 164.123 258.539 164.123C257.957 164.123 257.521 164.23 257.23 164.444C256.923 164.669 256.769 164.979 256.769 165.374C256.769 165.747 256.903 166.044 257.172 166.263C257.425 166.499 257.809 166.617 258.325 166.617Z" fill="black"/>
<rect x="66" y="270" width="266.632" height="28.7544" rx="5.22807" fill="#5444F2"/>
<path d="M184.377 287.073C183.406 287.073 182.662 286.769 182.144 286.161C181.619 285.557 181.357 284.769 181.357 283.798C181.357 282.827 181.619 282.035 182.144 281.421C182.665 280.811 183.409 280.506 184.377 280.506C185.155 280.506 185.798 280.735 186.307 281.194C186.811 281.649 187.085 282.226 187.129 282.922H185.847C185.811 282.547 185.671 282.242 185.427 282.007C185.18 281.768 184.83 281.649 184.377 281.649C183.805 281.649 183.372 281.841 183.077 282.226C182.785 282.607 182.64 283.131 182.64 283.798C182.64 284.468 182.785 284.989 183.077 285.362C183.372 285.746 183.805 285.938 184.377 285.938C184.812 285.938 185.15 285.826 185.391 285.603C185.639 285.382 185.793 285.089 185.856 284.723H187.129C187.058 285.405 186.778 285.966 186.289 286.407C185.798 286.851 185.161 287.073 184.377 287.073ZM190.096 287.073C189.351 287.073 188.781 286.848 188.385 286.398C187.982 285.951 187.781 285.36 187.781 284.624C187.781 283.889 187.982 283.293 188.385 282.838C188.787 282.382 189.357 282.154 190.096 282.154C190.828 282.154 191.396 282.382 191.798 282.838C192.2 283.293 192.401 283.889 192.401 284.624C192.401 285.351 192.203 285.939 191.807 286.389C191.404 286.845 190.834 287.073 190.096 287.073ZM190.096 285.996C190.801 285.996 191.154 285.539 191.154 284.624C191.154 283.695 190.801 283.231 190.096 283.231C189.387 283.231 189.032 283.695 189.032 284.624C189.032 285.539 189.387 285.996 190.096 285.996ZM193.254 286.992V282.234H194.353L194.442 282.775H194.478C194.794 282.361 195.245 282.154 195.832 282.154C196.362 282.154 196.783 282.306 197.096 282.61C197.409 282.922 197.565 283.344 197.565 283.874V286.992H196.336V284.218C196.336 283.584 196.043 283.266 195.456 283.266C195.167 283.266 194.934 283.365 194.755 283.561C194.57 283.755 194.478 284.02 194.478 284.356V286.992H193.254ZM199.079 286.992V283.266H198.248V282.234H199.079V281.832C199.079 281.308 199.251 280.893 199.593 280.586C199.933 280.282 200.369 280.13 200.902 280.13C201.113 280.13 201.309 280.151 201.487 280.193V281.229C201.303 281.2 201.151 281.185 201.032 281.185C200.549 281.185 200.308 281.401 200.308 281.832V282.234H201.443V283.266H200.308V286.992H199.079ZM202.988 281.64C202.735 281.64 202.546 281.573 202.421 281.439C202.293 281.311 202.229 281.128 202.229 280.89C202.229 280.666 202.293 280.486 202.421 280.349C202.549 280.221 202.738 280.157 202.988 280.157C203.224 280.157 203.41 280.221 203.547 280.349C203.681 280.483 203.748 280.663 203.748 280.89C203.748 281.131 203.681 281.314 203.547 281.439C203.413 281.573 203.227 281.64 202.988 281.64ZM202.367 286.992V282.234H203.591V286.992H202.367ZM204.628 286.992V282.234H205.66L205.754 282.958H205.789C206.034 282.428 206.446 282.163 207.027 282.163H207.371V283.298H206.942C206.576 283.298 206.293 283.415 206.093 283.651C205.891 283.889 205.789 284.225 205.789 284.66V286.992H204.628ZM213.656 282.154C214.18 282.154 214.597 282.309 214.907 282.619C215.22 282.931 215.376 283.35 215.376 283.874V286.992H214.148V284.218C214.148 283.584 213.874 283.266 213.326 283.266C213.04 283.266 212.816 283.365 212.656 283.561C212.498 283.755 212.419 284.02 212.419 284.356V286.992H211.204V284.218C211.204 283.584 210.925 283.266 210.368 283.266C210.085 283.266 209.855 283.365 209.676 283.561C209.497 283.758 209.408 284.023 209.408 284.356V286.992H208.184V282.234H209.283L209.372 282.775H209.408C209.724 282.361 210.169 282.154 210.744 282.154C211.414 282.154 211.89 282.388 212.173 282.855H212.2C212.525 282.388 213.01 282.154 213.656 282.154Z" fill="white"/>
<path d="M121.006 201V192.598H124.375C125.094 192.598 125.682 192.791 126.139 193.178C126.596 193.576 126.824 194.111 126.824 194.783C126.824 195.619 126.473 196.191 125.77 196.5V196.547C126.68 196.914 127.135 197.59 127.135 198.574C127.135 199.332 126.898 199.924 126.426 200.35C125.945 200.783 125.291 201 124.463 201H121.006ZM122.037 196.201H124.123C124.623 196.201 125.023 196.08 125.324 195.838C125.613 195.607 125.758 195.256 125.758 194.783C125.758 194.389 125.629 194.08 125.371 193.857C125.109 193.643 124.738 193.535 124.258 193.535H122.037V196.201ZM122.037 200.051H124.34C124.852 200.051 125.268 199.92 125.588 199.658C125.9 199.404 126.057 199.043 126.057 198.574C126.057 198.098 125.908 197.734 125.611 197.484C125.314 197.234 124.891 197.109 124.34 197.109H122.037V200.051ZM130.533 201.105C129.893 201.105 129.377 200.926 128.986 200.566C128.592 200.211 128.395 199.76 128.395 199.213C128.395 198.65 128.607 198.189 129.033 197.83C129.459 197.471 130.092 197.291 130.932 197.291C131.432 197.291 131.936 197.363 132.443 197.508V196.898C132.443 196.535 132.326 196.23 132.092 195.984C131.85 195.742 131.494 195.621 131.025 195.621C130.596 195.621 130.264 195.727 130.029 195.938C129.799 196.145 129.678 196.404 129.666 196.717H128.699C128.699 196.123 128.918 195.65 129.355 195.299C129.793 194.939 130.35 194.76 131.025 194.76C131.787 194.76 132.379 194.959 132.801 195.357C133.219 195.752 133.428 196.256 133.428 196.869V201H132.572L132.502 200.139H132.455C132.072 200.783 131.432 201.105 130.533 201.105ZM130.715 200.268C131.227 200.268 131.643 200.107 131.963 199.787C132.283 199.467 132.443 199.078 132.443 198.621V198.311C131.982 198.166 131.479 198.094 130.932 198.094C129.92 198.094 129.414 198.463 129.414 199.201C129.414 199.521 129.527 199.777 129.754 199.969C129.965 200.168 130.285 200.268 130.715 200.268ZM135.461 201V194.865H136.34L136.422 195.826H136.469C136.84 195.115 137.473 194.76 138.367 194.76C139.035 194.76 139.562 194.959 139.949 195.357C140.328 195.768 140.518 196.32 140.518 197.016V201H139.504V197.174C139.504 196.166 139.033 195.662 138.092 195.662C137.572 195.662 137.176 195.834 136.902 196.178C136.613 196.525 136.469 197.004 136.469 197.613V201H135.461ZM143.055 193.693C142.594 193.693 142.363 193.457 142.363 192.984C142.363 192.52 142.594 192.287 143.055 192.287C143.277 192.287 143.449 192.348 143.57 192.469C143.691 192.609 143.752 192.781 143.752 192.984C143.752 193.188 143.691 193.359 143.57 193.5C143.457 193.629 143.285 193.693 143.055 193.693ZM142.551 201V194.865H143.559V201H142.551Z" fill="#5444F2"/>
<path d="M149.699 193.693C149.238 193.693 149.008 193.457 149.008 192.984C149.008 192.52 149.238 192.287 149.699 192.287C149.922 192.287 150.094 192.348 150.215 192.469C150.336 192.609 150.396 192.781 150.396 192.984C150.396 193.188 150.336 193.359 150.215 193.5C150.102 193.629 149.93 193.693 149.699 193.693ZM149.195 201V194.865H150.203V201H149.195ZM154.27 201.105C153.531 201.105 152.936 200.914 152.482 200.531C152.014 200.164 151.773 199.645 151.762 198.973H152.77C152.77 199.379 152.906 199.684 153.18 199.887C153.453 200.102 153.816 200.209 154.27 200.209C155.207 200.209 155.676 199.916 155.676 199.33C155.676 198.885 155.363 198.594 154.738 198.457L153.514 198.229C153.006 198.123 152.623 197.924 152.365 197.631C152.092 197.334 151.955 196.961 151.955 196.512C151.955 195.996 152.16 195.576 152.57 195.252C152.988 194.924 153.527 194.76 154.188 194.76C154.875 194.76 155.443 194.939 155.893 195.299C156.334 195.654 156.555 196.135 156.555 196.74H155.57C155.559 196.369 155.426 196.086 155.172 195.891C154.91 195.703 154.582 195.609 154.188 195.609C153.797 195.609 153.492 195.686 153.273 195.838C153.043 195.998 152.928 196.223 152.928 196.512C152.928 196.984 153.283 197.273 153.994 197.379L154.955 197.555C155.557 197.691 155.996 197.893 156.273 198.158C156.555 198.439 156.695 198.83 156.695 199.33C156.695 199.877 156.463 200.311 155.998 200.631C155.537 200.947 154.961 201.105 154.27 201.105ZM161.969 201V194.865H162.848L162.93 195.902H162.977C163.109 195.559 163.318 195.285 163.604 195.082C163.889 194.891 164.221 194.795 164.6 194.795H165.15V195.768H164.67C163.541 195.768 162.977 196.52 162.977 198.023V201H161.969ZM168.707 201.105C167.832 201.105 167.146 200.811 166.65 200.221C166.162 199.639 165.918 198.879 165.918 197.941C165.918 197.004 166.154 196.24 166.627 195.65C167.104 195.057 167.791 194.76 168.689 194.76C169.525 194.76 170.178 195.035 170.646 195.586C171.111 196.145 171.344 196.865 171.344 197.748V198.24H166.979C166.979 198.854 167.125 199.33 167.418 199.67C167.719 200.029 168.148 200.209 168.707 200.209C169.113 200.209 169.453 200.125 169.727 199.957C169.996 199.789 170.172 199.545 170.254 199.225H171.262C171.18 199.779 170.898 200.23 170.418 200.578C169.93 200.93 169.359 201.105 168.707 201.105ZM166.99 197.402H170.301C170.301 196.883 170.164 196.463 169.891 196.143C169.617 195.822 169.217 195.662 168.689 195.662C168.143 195.662 167.727 195.822 167.441 196.143C167.152 196.467 167.002 196.887 166.99 197.402ZM177.039 203.748V200.15H176.992C176.605 200.787 175.99 201.105 175.146 201.105C174.307 201.105 173.666 200.814 173.225 200.232C172.779 199.646 172.551 198.883 172.539 197.941C172.551 196.934 172.787 196.152 173.248 195.598C173.701 195.039 174.334 194.76 175.146 194.76C175.99 194.76 176.605 195.08 176.992 195.721H177.039L177.174 194.865H178.047V203.748H177.039ZM175.311 200.209C175.885 200.209 176.322 199.992 176.623 199.559C176.916 199.145 177.062 198.605 177.062 197.941C177.062 197.277 176.916 196.732 176.623 196.307C176.326 195.877 175.889 195.662 175.311 195.662C174.705 195.662 174.266 195.873 173.992 196.295C173.703 196.721 173.559 197.27 173.559 197.941C173.559 198.602 173.703 199.145 173.992 199.57C174.27 199.996 174.709 200.209 175.311 200.209ZM183.977 194.865H184.984V198.768C184.984 199.471 184.752 200.031 184.287 200.449C183.822 200.879 183.219 201.094 182.477 201.094C181.734 201.094 181.131 200.879 180.666 200.449C180.201 200.031 179.969 199.471 179.969 198.768V194.865H180.977V198.598C180.977 199.664 181.477 200.197 182.477 200.197C183.477 200.197 183.977 199.664 183.977 198.598V194.865ZM189.332 201.105C188.457 201.105 187.771 200.811 187.275 200.221C186.787 199.639 186.543 198.879 186.543 197.941C186.543 197.004 186.779 196.24 187.252 195.65C187.729 195.057 188.416 194.76 189.314 194.76C190.15 194.76 190.803 195.035 191.271 195.586C191.736 196.145 191.969 196.865 191.969 197.748V198.24H187.604C187.604 198.854 187.75 199.33 188.043 199.67C188.344 200.029 188.773 200.209 189.332 200.209C189.738 200.209 190.078 200.125 190.352 199.957C190.621 199.789 190.797 199.545 190.879 199.225H191.887C191.805 199.779 191.523 200.23 191.043 200.578C190.555 200.93 189.984 201.105 189.332 201.105ZM187.615 197.402H190.926C190.926 196.883 190.789 196.463 190.516 196.143C190.242 195.822 189.842 195.662 189.314 195.662C188.768 195.662 188.352 195.822 188.066 196.143C187.777 196.467 187.627 196.887 187.615 197.402ZM195.672 201.105C194.934 201.105 194.338 200.914 193.885 200.531C193.416 200.164 193.176 199.645 193.164 198.973H194.172C194.172 199.379 194.309 199.684 194.582 199.887C194.855 200.102 195.219 200.209 195.672 200.209C196.609 200.209 197.078 199.916 197.078 199.33C197.078 198.885 196.766 198.594 196.141 198.457L194.916 198.229C194.408 198.123 194.025 197.924 193.768 197.631C193.494 197.334 193.357 196.961 193.357 196.512C193.357 195.996 193.562 195.576 193.973 195.252C194.391 194.924 194.93 194.76 195.59 194.76C196.277 194.76 196.846 194.939 197.295 195.299C197.736 195.654 197.957 196.135 197.957 196.74H196.973C196.961 196.369 196.828 196.086 196.574 195.891C196.312 195.703 195.984 195.609 195.59 195.609C195.199 195.609 194.895 195.686 194.676 195.838C194.445 195.998 194.33 196.223 194.33 196.512C194.33 196.984 194.686 197.273 195.396 197.379L196.357 197.555C196.959 197.691 197.398 197.893 197.676 198.158C197.957 198.439 198.098 198.83 198.098 199.33C198.098 199.877 197.865 200.311 197.4 200.631C196.939 200.947 196.363 201.105 195.672 201.105ZM201.812 201.105C201.234 201.105 200.818 200.967 200.564 200.689C200.318 200.42 200.195 200.012 200.195 199.465V195.721H199.176V194.865H200.219V193.559L201.086 193.225H201.203V194.865H202.703V195.721H201.203V199.383C201.203 199.676 201.268 199.887 201.396 200.016C201.533 200.152 201.736 200.221 202.006 200.221C202.229 200.221 202.43 200.197 202.609 200.15H202.727V201.012C202.457 201.074 202.152 201.105 201.812 201.105ZM204.848 193.693C204.387 193.693 204.156 193.457 204.156 192.984C204.156 192.52 204.387 192.287 204.848 192.287C205.07 192.287 205.242 192.348 205.363 192.469C205.484 192.609 205.545 192.781 205.545 192.984C205.545 193.188 205.484 193.359 205.363 193.5C205.25 193.629 205.078 193.693 204.848 193.693ZM204.344 201V194.865H205.352V201H204.344ZM207.391 201V194.865H208.27L208.352 195.826H208.398C208.77 195.115 209.402 194.76 210.297 194.76C210.965 194.76 211.492 194.959 211.879 195.357C212.258 195.768 212.447 196.32 212.447 197.016V201H211.434V197.174C211.434 196.166 210.963 195.662 210.021 195.662C209.502 195.662 209.105 195.834 208.832 196.178C208.543 196.525 208.398 197.004 208.398 197.613V201H207.391ZM216.801 203.854C216.023 203.854 215.398 203.658 214.926 203.268C214.441 202.865 214.193 202.369 214.182 201.779H215.154C215.178 202.115 215.33 202.4 215.611 202.635C215.885 202.873 216.281 202.992 216.801 202.992C217.359 202.992 217.783 202.836 218.072 202.523C218.357 202.227 218.5 201.83 218.5 201.334V200.15H218.453C218.066 200.787 217.451 201.105 216.607 201.105C215.768 201.105 215.127 200.814 214.686 200.232C214.24 199.646 214.012 198.883 214 197.941C214.012 196.934 214.248 196.152 214.709 195.598C215.162 195.039 215.795 194.76 216.607 194.76C217.451 194.76 218.066 195.08 218.453 195.721H218.5L218.635 194.865H219.508V201.357C219.508 202.088 219.27 202.686 218.793 203.15C218.312 203.619 217.648 203.854 216.801 203.854ZM216.771 200.209C217.346 200.209 217.783 199.992 218.084 199.559C218.377 199.145 218.523 198.605 218.523 197.941C218.523 197.277 218.377 196.732 218.084 196.307C217.787 195.877 217.35 195.662 216.771 195.662C216.166 195.662 215.727 195.873 215.453 196.295C215.164 196.721 215.02 197.27 215.02 197.941C215.02 198.602 215.164 199.145 215.453 199.57C215.73 199.996 216.17 200.209 216.771 200.209ZM225.531 201V195.709H224.436V194.865H225.531V193.799C225.531 193.268 225.695 192.832 226.023 192.492C226.352 192.164 226.783 192 227.318 192C227.596 192 227.852 192.027 228.086 192.082V192.926C227.836 192.883 227.637 192.861 227.488 192.861C227.184 192.861 226.951 192.941 226.791 193.102C226.623 193.27 226.539 193.502 226.539 193.799V194.865H228.027V195.709H226.539V201H225.531ZM231.76 201.105C230.85 201.105 230.158 200.811 229.686 200.221C229.221 199.639 228.988 198.879 228.988 197.941C228.988 197.004 229.225 196.24 229.697 195.65C230.174 195.057 230.861 194.76 231.76 194.76C232.662 194.76 233.352 195.057 233.828 195.65C234.301 196.24 234.537 197.004 234.537 197.941C234.537 198.879 234.305 199.639 233.84 200.221C233.367 200.811 232.674 201.105 231.76 201.105ZM231.76 200.209C232.365 200.209 232.811 200.004 233.096 199.594C233.373 199.18 233.512 198.629 233.512 197.941C233.512 197.254 233.373 196.697 233.096 196.271C232.811 195.865 232.365 195.662 231.76 195.662C231.166 195.662 230.727 195.865 230.441 196.271C230.152 196.697 230.008 197.254 230.008 197.941C230.008 198.629 230.152 199.18 230.441 199.594C230.73 200.004 231.17 200.209 231.76 200.209ZM236.207 201V194.865H237.086L237.168 195.902H237.215C237.348 195.559 237.557 195.285 237.842 195.082C238.127 194.891 238.459 194.795 238.838 194.795H239.389V195.768H238.908C237.779 195.768 237.215 196.52 237.215 198.023V201H236.207ZM245.072 203.748V203.631L246.115 200.953L246.104 200.93L243.643 194.988V194.865H244.721L246.584 199.682H246.631L248.43 194.865H249.484V194.988L246.092 203.748H245.072ZM252.982 201.105C252.072 201.105 251.381 200.811 250.908 200.221C250.443 199.639 250.211 198.879 250.211 197.941C250.211 197.004 250.447 196.24 250.92 195.65C251.396 195.057 252.084 194.76 252.982 194.76C253.885 194.76 254.574 195.057 255.051 195.65C255.523 196.24 255.76 197.004 255.76 197.941C255.76 198.879 255.527 199.639 255.062 200.221C254.59 200.811 253.896 201.105 252.982 201.105ZM252.982 200.209C253.588 200.209 254.033 200.004 254.318 199.594C254.596 199.18 254.734 198.629 254.734 197.941C254.734 197.254 254.596 196.697 254.318 196.271C254.033 195.865 253.588 195.662 252.982 195.662C252.389 195.662 251.949 195.865 251.664 196.271C251.375 196.697 251.23 197.254 251.23 197.941C251.23 198.629 251.375 199.18 251.664 199.594C251.953 200.004 252.393 200.209 252.982 200.209ZM261.32 194.865H262.328V198.768C262.328 199.471 262.096 200.031 261.631 200.449C261.166 200.879 260.562 201.094 259.82 201.094C259.078 201.094 258.475 200.879 258.01 200.449C257.545 200.031 257.312 199.471 257.312 198.768V194.865H258.32V198.598C258.32 199.664 258.82 200.197 259.82 200.197C260.82 200.197 261.32 199.664 261.32 198.598V194.865ZM270.004 201.105C269.426 201.105 269.01 200.967 268.756 200.689C268.51 200.42 268.387 200.012 268.387 199.465V195.721H267.367V194.865H268.41V193.559L269.277 193.225H269.395V194.865H270.895V195.721H269.395V199.383C269.395 199.676 269.459 199.887 269.588 200.016C269.725 200.152 269.928 200.221 270.197 200.221C270.42 200.221 270.621 200.197 270.801 200.15H270.918V201.012C270.648 201.074 270.344 201.105 270.004 201.105ZM274.826 201.105C273.916 201.105 273.225 200.811 272.752 200.221C272.287 199.639 272.055 198.879 272.055 197.941C272.055 197.004 272.291 196.24 272.764 195.65C273.24 195.057 273.928 194.76 274.826 194.76C275.729 194.76 276.418 195.057 276.895 195.65C277.367 196.24 277.604 197.004 277.604 197.941C277.604 198.879 277.371 199.639 276.906 200.221C276.434 200.811 275.74 201.105 274.826 201.105ZM274.826 200.209C275.432 200.209 275.877 200.004 276.162 199.594C276.439 199.18 276.578 198.629 276.578 197.941C276.578 197.254 276.439 196.697 276.162 196.271C275.877 195.865 275.432 195.662 274.826 195.662C274.232 195.662 273.793 195.865 273.508 196.271C273.219 196.697 273.074 197.254 273.074 197.941C273.074 198.629 273.219 199.18 273.508 199.594C273.797 200.004 274.236 200.209 274.826 200.209ZM118.908 219.105C118.002 219.105 117.312 218.822 116.84 218.256C116.359 217.693 116.119 216.922 116.119 215.941C116.119 214.961 116.359 214.184 116.84 213.609C117.312 213.043 117.996 212.76 118.891 212.76C119.684 212.76 120.289 212.963 120.707 213.369C121.133 213.783 121.369 214.316 121.416 214.969H120.408C120.373 214.555 120.225 214.234 119.963 214.008C119.686 213.777 119.328 213.662 118.891 213.662C118.281 213.662 117.842 213.869 117.572 214.283C117.283 214.709 117.139 215.262 117.139 215.941C117.139 216.617 117.283 217.168 117.572 217.594C117.846 218.012 118.285 218.221 118.891 218.221C119.355 218.221 119.717 218.109 119.975 217.887C120.244 217.652 120.396 217.336 120.432 216.938H121.439C121.381 217.598 121.137 218.125 120.707 218.52C120.293 218.91 119.693 219.105 118.908 219.105ZM125.406 219.105C124.496 219.105 123.805 218.811 123.332 218.221C122.867 217.639 122.635 216.879 122.635 215.941C122.635 215.004 122.871 214.24 123.344 213.65C123.82 213.057 124.508 212.76 125.406 212.76C126.309 212.76 126.998 213.057 127.475 213.65C127.947 214.24 128.184 215.004 128.184 215.941C128.184 216.879 127.951 217.639 127.486 218.221C127.014 218.811 126.32 219.105 125.406 219.105ZM125.406 218.209C126.012 218.209 126.457 218.004 126.742 217.594C127.02 217.18 127.158 216.629 127.158 215.941C127.158 215.254 127.02 214.697 126.742 214.271C126.457 213.865 126.012 213.662 125.406 213.662C124.812 213.662 124.373 213.865 124.088 214.271C123.799 214.697 123.654 215.254 123.654 215.941C123.654 216.629 123.799 217.18 124.088 217.594C124.377 218.004 124.816 218.209 125.406 218.209ZM129.854 219V212.865H130.732L130.814 213.826H130.861C131.232 213.115 131.865 212.76 132.76 212.76C133.428 212.76 133.955 212.959 134.342 213.357C134.721 213.768 134.91 214.32 134.91 215.016V219H133.896V215.174C133.896 214.166 133.426 213.662 132.484 213.662C131.965 213.662 131.568 213.834 131.295 214.178C131.006 214.525 130.861 215.004 130.861 215.613V219H129.854ZM136.943 219V212.865H137.822L137.904 213.826H137.951C138.322 213.115 138.955 212.76 139.85 212.76C140.518 212.76 141.045 212.959 141.432 213.357C141.811 213.768 142 214.32 142 215.016V219H140.986V215.174C140.986 214.166 140.516 213.662 139.574 213.662C139.055 213.662 138.658 213.834 138.385 214.178C138.096 214.525 137.951 215.004 137.951 215.613V219H136.943ZM146.342 219.105C145.467 219.105 144.781 218.811 144.285 218.221C143.797 217.639 143.553 216.879 143.553 215.941C143.553 215.004 143.789 214.24 144.262 213.65C144.738 213.057 145.426 212.76 146.324 212.76C147.16 212.76 147.812 213.035 148.281 213.586C148.746 214.145 148.979 214.865 148.979 215.748V216.24H144.613C144.613 216.854 144.76 217.33 145.053 217.67C145.354 218.029 145.783 218.209 146.342 218.209C146.748 218.209 147.088 218.125 147.361 217.957C147.631 217.789 147.807 217.545 147.889 217.225H148.896C148.814 217.779 148.533 218.23 148.053 218.578C147.564 218.93 146.994 219.105 146.342 219.105ZM144.625 215.402H147.936C147.936 214.883 147.799 214.463 147.525 214.143C147.252 213.822 146.852 213.662 146.324 213.662C145.777 213.662 145.361 213.822 145.076 214.143C144.787 214.467 144.637 214.887 144.625 215.402ZM152.963 219.105C152.057 219.105 151.367 218.822 150.895 218.256C150.414 217.693 150.174 216.922 150.174 215.941C150.174 214.961 150.414 214.184 150.895 213.609C151.367 213.043 152.051 212.76 152.945 212.76C153.738 212.76 154.344 212.963 154.762 213.369C155.188 213.783 155.424 214.316 155.471 214.969H154.463C154.428 214.555 154.279 214.234 154.018 214.008C153.74 213.777 153.383 213.662 152.945 213.662C152.336 213.662 151.896 213.869 151.627 214.283C151.338 214.709 151.193 215.262 151.193 215.941C151.193 216.617 151.338 217.168 151.627 217.594C151.9 218.012 152.34 218.221 152.945 218.221C153.41 218.221 153.771 218.109 154.029 217.887C154.299 217.652 154.451 217.336 154.486 216.938H155.494C155.436 217.598 155.191 218.125 154.762 218.52C154.348 218.91 153.748 219.105 152.963 219.105ZM159.209 219.105C158.631 219.105 158.215 218.967 157.961 218.689C157.715 218.42 157.592 218.012 157.592 217.465V213.721H156.572V212.865H157.615V211.559L158.482 211.225H158.6V212.865H160.1V213.721H158.6V217.383C158.6 217.676 158.664 217.887 158.793 218.016C158.93 218.152 159.133 218.221 159.402 218.221C159.625 218.221 159.826 218.197 160.006 218.15H160.123V219.012C159.854 219.074 159.549 219.105 159.209 219.105ZM165.93 221.748V221.631L166.973 218.953L166.961 218.93L164.5 212.988V212.865H165.578L167.441 217.682H167.488L169.287 212.865H170.342V212.988L166.949 221.748H165.93ZM173.84 219.105C172.93 219.105 172.238 218.811 171.766 218.221C171.301 217.639 171.068 216.879 171.068 215.941C171.068 215.004 171.305 214.24 171.777 213.65C172.254 213.057 172.941 212.76 173.84 212.76C174.742 212.76 175.432 213.057 175.908 213.65C176.381 214.24 176.617 215.004 176.617 215.941C176.617 216.879 176.385 217.639 175.92 218.221C175.447 218.811 174.754 219.105 173.84 219.105ZM173.84 218.209C174.445 218.209 174.891 218.004 175.176 217.594C175.453 217.18 175.592 216.629 175.592 215.941C175.592 215.254 175.453 214.697 175.176 214.271C174.891 213.865 174.445 213.662 173.84 213.662C173.246 213.662 172.807 213.865 172.521 214.271C172.232 214.697 172.088 215.254 172.088 215.941C172.088 216.629 172.232 217.18 172.521 217.594C172.811 218.004 173.25 218.209 173.84 218.209ZM182.178 212.865H183.186V216.768C183.186 217.471 182.953 218.031 182.488 218.449C182.023 218.879 181.42 219.094 180.678 219.094C179.936 219.094 179.332 218.879 178.867 218.449C178.402 218.031 178.17 217.471 178.17 216.768V212.865H179.178V216.598C179.178 217.664 179.678 218.197 180.678 218.197C181.678 218.197 182.178 217.664 182.178 216.598V212.865ZM185.225 219V212.865H186.104L186.186 213.902H186.232C186.365 213.559 186.574 213.285 186.859 213.082C187.145 212.891 187.477 212.795 187.855 212.795H188.406V213.768H187.926C186.797 213.768 186.232 214.52 186.232 216.023V219H185.225ZM195.156 219.105C194.516 219.105 194 218.926 193.609 218.566C193.215 218.211 193.018 217.76 193.018 217.213C193.018 216.65 193.23 216.189 193.656 215.83C194.082 215.471 194.715 215.291 195.555 215.291C196.055 215.291 196.559 215.363 197.066 215.508V214.898C197.066 214.535 196.949 214.23 196.715 213.984C196.473 213.742 196.117 213.621 195.648 213.621C195.219 213.621 194.887 213.727 194.652 213.938C194.422 214.145 194.301 214.404 194.289 214.717H193.322C193.322 214.123 193.541 213.65 193.979 213.299C194.416 212.939 194.973 212.76 195.648 212.76C196.41 212.76 197.002 212.959 197.424 213.357C197.842 213.752 198.051 214.256 198.051 214.869V219H197.195L197.125 218.139H197.078C196.695 218.783 196.055 219.105 195.156 219.105ZM195.338 218.268C195.85 218.268 196.266 218.107 196.586 217.787C196.906 217.467 197.066 217.078 197.066 216.621V216.311C196.605 216.166 196.102 216.094 195.555 216.094C194.543 216.094 194.037 216.463 194.037 217.201C194.037 217.521 194.15 217.777 194.377 217.969C194.588 218.168 194.908 218.268 195.338 218.268ZM200.084 221.748V212.865H200.963L201.092 213.721H201.145C201.531 213.08 202.146 212.76 202.99 212.76C203.799 212.76 204.436 213.039 204.9 213.598C205.35 214.148 205.58 214.93 205.592 215.941C205.58 216.887 205.354 217.65 204.912 218.232C204.471 218.814 203.83 219.105 202.99 219.105C202.146 219.105 201.531 218.787 201.145 218.15H201.092V221.748H200.084ZM202.82 218.209C203.422 218.209 203.867 217.996 204.156 217.57C204.434 217.145 204.572 216.602 204.572 215.941C204.572 215.27 204.434 214.721 204.156 214.295C203.871 213.873 203.426 213.662 202.82 213.662C202.246 213.662 201.811 213.877 201.514 214.307C201.217 214.736 201.068 215.281 201.068 215.941C201.068 216.602 201.217 217.141 201.514 217.559C201.811 217.992 202.246 218.209 202.82 218.209ZM207.268 221.748V212.865H208.146L208.275 213.721H208.328C208.715 213.08 209.33 212.76 210.174 212.76C210.982 212.76 211.619 213.039 212.084 213.598C212.533 214.148 212.764 214.93 212.775 215.941C212.764 216.887 212.537 217.65 212.096 218.232C211.654 218.814 211.014 219.105 210.174 219.105C209.33 219.105 208.715 218.787 208.328 218.15H208.275V221.748H207.268ZM210.004 218.209C210.605 218.209 211.051 217.996 211.34 217.57C211.617 217.145 211.756 216.602 211.756 215.941C211.756 215.27 211.617 214.721 211.34 214.295C211.055 213.873 210.609 213.662 210.004 213.662C209.43 213.662 208.994 213.877 208.697 214.307C208.4 214.736 208.252 215.281 208.252 215.941C208.252 216.602 208.4 217.141 208.697 217.559C208.994 217.992 209.43 218.209 210.004 218.209ZM220.088 219.105C219.51 219.105 219.094 218.967 218.84 218.689C218.594 218.42 218.471 218.012 218.471 217.465V213.721H217.451V212.865H218.494V211.559L219.361 211.225H219.479V212.865H220.979V213.721H219.479V217.383C219.479 217.676 219.543 217.887 219.672 218.016C219.809 218.152 220.012 218.221 220.281 218.221C220.504 218.221 220.705 218.197 220.885 218.15H221.002V219.012C220.732 219.074 220.428 219.105 220.088 219.105ZM224.91 219.105C224 219.105 223.309 218.811 222.836 218.221C222.371 217.639 222.139 216.879 222.139 215.941C222.139 215.004 222.375 214.24 222.848 213.65C223.324 213.057 224.012 212.76 224.91 212.76C225.812 212.76 226.502 213.057 226.979 213.65C227.451 214.24 227.688 215.004 227.688 215.941C227.688 216.879 227.455 217.639 226.99 218.221C226.518 218.811 225.824 219.105 224.91 219.105ZM224.91 218.209C225.516 218.209 225.961 218.004 226.246 217.594C226.523 217.18 226.662 216.629 226.662 215.941C226.662 215.254 226.523 214.697 226.246 214.271C225.961 213.865 225.516 213.662 224.91 213.662C224.316 213.662 223.877 213.865 223.592 214.271C223.303 214.697 223.158 215.254 223.158 215.941C223.158 216.629 223.303 217.18 223.592 217.594C223.881 218.004 224.32 218.209 224.91 218.209ZM234.994 219.105C234.416 219.105 234 218.967 233.746 218.689C233.5 218.42 233.377 218.012 233.377 217.465V213.721H232.357V212.865H233.4V211.559L234.268 211.225H234.385V212.865H235.885V213.721H234.385V217.383C234.385 217.676 234.449 217.887 234.578 218.016C234.715 218.152 234.918 218.221 235.188 218.221C235.41 218.221 235.611 218.197 235.791 218.15H235.908V219.012C235.639 219.074 235.334 219.105 234.994 219.105ZM237.525 219V210.117H238.533V213.826H238.586C238.957 213.115 239.58 212.76 240.455 212.76C241.131 212.76 241.662 212.959 242.049 213.357C242.436 213.756 242.629 214.309 242.629 215.016V219H241.621V215.174C241.621 214.166 241.141 213.662 240.18 213.662C239.684 213.662 239.283 213.838 238.979 214.189C238.682 214.533 238.533 215.018 238.533 215.643V219H237.525ZM246.971 219.105C246.096 219.105 245.41 218.811 244.914 218.221C244.426 217.639 244.182 216.879 244.182 215.941C244.182 215.004 244.418 214.24 244.891 213.65C245.367 213.057 246.055 212.76 246.953 212.76C247.789 212.76 248.441 213.035 248.91 213.586C249.375 214.145 249.607 214.865 249.607 215.748V216.24H245.242C245.242 216.854 245.389 217.33 245.682 217.67C245.982 218.029 246.412 218.209 246.971 218.209C247.377 218.209 247.717 218.125 247.99 217.957C248.26 217.789 248.436 217.545 248.518 217.225H249.525C249.443 217.779 249.162 218.23 248.682 218.578C248.193 218.93 247.623 219.105 246.971 219.105ZM245.254 215.402H248.564C248.564 214.883 248.428 214.463 248.154 214.143C247.881 213.822 247.48 213.662 246.953 213.662C246.406 213.662 245.99 213.822 245.705 214.143C245.416 214.467 245.266 214.887 245.254 215.402ZM251.787 211.693C251.326 211.693 251.096 211.457 251.096 210.984C251.096 210.52 251.326 210.287 251.787 210.287C252.01 210.287 252.182 210.348 252.303 210.469C252.424 210.609 252.484 210.781 252.484 210.984C252.484 211.188 252.424 211.359 252.303 211.5C252.189 211.629 252.018 211.693 251.787 211.693ZM251.283 219V212.865H252.291V219H251.283ZM254.33 219V212.865H255.209L255.291 213.902H255.338C255.471 213.559 255.68 213.285 255.965 213.082C256.25 212.891 256.582 212.795 256.961 212.795H257.512V213.768H257.031C255.902 213.768 255.338 214.52 255.338 216.023V219H254.33ZM264.262 219.105C263.621 219.105 263.105 218.926 262.715 218.566C262.32 218.211 262.123 217.76 262.123 217.213C262.123 216.65 262.336 216.189 262.762 215.83C263.188 215.471 263.82 215.291 264.66 215.291C265.16 215.291 265.664 215.363 266.172 215.508V214.898C266.172 214.535 266.055 214.23 265.82 213.984C265.578 213.742 265.223 213.621 264.754 213.621C264.324 213.621 263.992 213.727 263.758 213.938C263.527 214.145 263.406 214.404 263.395 214.717H262.428C262.428 214.123 262.646 213.65 263.084 213.299C263.521 212.939 264.078 212.76 264.754 212.76C265.516 212.76 266.107 212.959 266.529 213.357C266.947 213.752 267.156 214.256 267.156 214.869V219H266.301L266.23 218.139H266.184C265.801 218.783 265.16 219.105 264.262 219.105ZM264.443 218.268C264.955 218.268 265.371 218.107 265.691 217.787C266.012 217.467 266.172 217.078 266.172 216.621V216.311C265.711 216.166 265.207 216.094 264.66 216.094C263.648 216.094 263.143 216.463 263.143 217.201C263.143 217.521 263.256 217.777 263.482 217.969C263.693 218.168 264.014 218.268 264.443 218.268ZM269.189 221.748V212.865H270.068L270.197 213.721H270.25C270.637 213.08 271.252 212.76 272.096 212.76C272.904 212.76 273.541 213.039 274.006 213.598C274.455 214.148 274.686 214.93 274.697 215.941C274.686 216.887 274.459 217.65 274.018 218.232C273.576 218.814 272.936 219.105 272.096 219.105C271.252 219.105 270.637 218.787 270.25 218.15H270.197V221.748H269.189ZM271.926 218.209C272.527 218.209 272.973 217.996 273.262 217.57C273.539 217.145 273.678 216.602 273.678 215.941C273.678 215.27 273.539 214.721 273.262 214.295C272.977 213.873 272.531 213.662 271.926 213.662C271.352 213.662 270.916 213.877 270.619 214.307C270.322 214.736 270.174 215.281 270.174 215.941C270.174 216.602 270.322 217.141 270.619 217.559C270.916 217.992 271.352 218.209 271.926 218.209ZM276.373 221.748V212.865H277.252L277.381 213.721H277.434C277.82 213.08 278.436 212.76 279.279 212.76C280.088 212.76 280.725 213.039 281.189 213.598C281.639 214.148 281.869 214.93 281.881 215.941C281.869 216.887 281.643 217.65 281.201 218.232C280.76 218.814 280.119 219.105 279.279 219.105C278.436 219.105 277.82 218.787 277.434 218.15H277.381V221.748H276.373ZM279.109 218.209C279.711 218.209 280.156 217.996 280.445 217.57C280.723 217.145 280.861 216.602 280.861 215.941C280.861 215.27 280.723 214.721 280.445 214.295C280.16 213.873 279.715 213.662 279.109 213.662C278.535 213.662 278.1 213.877 277.803 214.307C277.506 214.736 277.357 215.281 277.357 215.941C277.357 216.602 277.506 217.141 277.803 217.559C278.1 217.992 278.535 218.209 279.109 218.209Z" fill="#65717C"/>
<circle cx="50" cy="59" r="50" fill="url(#paint0_linear_569_1788)"/>
<path d="M50.8622 39.1719C40.3879 39.1719 31.8967 47.663 31.8967 58.1374C31.8967 68.6118 40.3879 77.1029 50.8622 77.1029C61.3366 77.1029 69.8278 68.6118 69.8278 58.1374C69.8278 47.663 61.3366 39.1719 50.8622 39.1719Z" stroke="white" stroke-width="4.74138" stroke-linecap="round" stroke-linejoin="round"/>
<path d="M50.8622 51.0253C46.9344 51.0253 43.7502 54.2095 43.7502 58.1374C43.7502 62.0653 46.9344 65.2495 50.8622 65.2495C54.7901 65.2495 57.9743 62.0653 57.9743 58.1374C57.9743 54.2095 54.7901 51.0253 50.8622 51.0253Z" stroke="white" stroke-width="4.74138" stroke-linecap="round" stroke-linejoin="round"/>
<defs>
<filter id="filter0_d_569_1788" x="3" y="16" width="392" height="387" filterUnits="userSpaceOnUse" color-interpolation-filters="sRGB">
<feFlood flood-opacity="0" result="BackgroundImageFix"/>
<feColorMatrix in="SourceAlpha" type="matrix" values="0 0 0 0 0 0 0 0 0 0 0 0 0 0 0 0 0 0 127 0" result="hardAlpha"/>
<feOffset dy="4"/>
<feGaussianBlur stdDeviation="23.5"/>
<feComposite in2="hardAlpha" operator="out"/>
<feColorMatrix type="matrix" values="0 0 0 0 0 0 0 0 0 0 0 0 0 0 0 0 0 0 0.09 0"/>
<feBlend mode="normal" in2="BackgroundImageFix" result="effect1_dropShadow_569_1788"/>
<feBlend mode="normal" in="SourceGraphic" in2="effect1_dropShadow_569_1788" result="shape"/>
</filter>
<linearGradient id="paint0_linear_569_1788" x1="1.44855e-08" y1="105.847" x2="109.205" y2="102.977" gradientUnits="userSpaceOnUse">
<stop stop-color="#00B0FF"/>
<stop offset="0.49591" stop-color="#3D5AFE"/>
<stop offset="1" stop-color="#5444F2"/>
</linearGradient>
</defs>
</svg>
