<svg width="60" height="60" viewBox="0 0 60 60" fill="none" xmlns="http://www.w3.org/2000/svg">
<path d="M35 45C35 46.3807 36.1193 47.5 37.5 47.5C38.8807 47.5 40 46.3807 40 45C40 43.6193 38.8807 42.5 37.5 42.5C36.1193 42.5 35 43.6193 35 45Z" stroke="current" stroke-width="5" stroke-linecap="round" stroke-linejoin="round"/>
<path d="M20 45C20 46.3807 21.1193 47.5 22.5 47.5C23.8807 47.5 25 46.3807 25 45C25 43.6193 23.8807 42.5 22.5 42.5C21.1193 42.5 20 43.6193 20 45Z" stroke="current" stroke-width="5" stroke-linecap="round" stroke-linejoin="round"/>
<path d="M35 30C35 31.3807 36.1193 32.5 37.5 32.5C38.8807 32.5 40 31.3807 40 30C40 28.6193 38.8807 27.5 37.5 27.5C36.1193 27.5 35 28.6193 35 30Z" stroke="current" stroke-width="5" stroke-linecap="round" stroke-linejoin="round"/>
<path d="M20 30C20 31.3807 21.1193 32.5 22.5 32.5C23.8807 32.5 25 31.3807 25 30C25 28.6193 23.8807 27.5 22.5 27.5C21.1193 27.5 20 28.6193 20 30Z" stroke="current" stroke-width="5" stroke-linecap="round" stroke-linejoin="round"/>
<path d="M35 15C35 16.3807 36.1193 17.5 37.5 17.5C38.8807 17.5 40 16.3807 40 15C40 13.6193 38.8807 12.5 37.5 12.5C36.1193 12.5 35 13.6193 35 15Z" stroke="current" stroke-width="5" stroke-linecap="round" stroke-linejoin="round"/>
<path d="M20 15C20 16.3807 21.1193 17.5 22.5 17.5C23.8807 17.5 25 16.3807 25 15C25 13.6193 23.8807 12.5 22.5 12.5C21.1193 12.5 20 13.6193 20 15Z" stroke="current" stroke-width="5" stroke-linecap="round" stroke-linejoin="round"/>
</svg>
