<svg width="60" height="60" viewBox="0 0 60 60" fill="none" xmlns="http://www.w3.org/2000/svg">
<path d="M37.5 22.5L27.5 32.5L22.5 27.5M50 15.4999V25.412C50 41.8327 37.5798 49.1946 32.3145 51.5779C31.7563 51.8305 31.479 51.9571 30.8472 52.0655C30.4487 52.1339 29.5532 52.1339 29.1547 52.0655C28.5229 51.9571 28.2431 51.8305 27.6849 51.5779C22.4195 49.1946 10 41.8326 10 25.412V15.4999C10 12.6996 10 11.2997 10.545 10.2301C11.0243 9.28929 11.7887 8.52433 12.7295 8.04497C13.7991 7.5 15.2002 7.5 18.0005 7.5H42.0005C44.8008 7.5 46.1999 7.5 47.2695 8.04497C48.2103 8.52433 48.9762 9.28929 49.4556 10.2301C50.0005 11.2997 50 12.6996 50 15.4999Z" stroke="black" stroke-width="5" stroke-linecap="round" stroke-linejoin="round"/>
</svg>
